<?xml version="1.0" standalone="no"?>
<!DOCTYPE svg PUBLIC "-//W3C//DTD SVG 20010904//EN"
 "http://www.w3.org/TR/2001/REC-SVG-20010904/DTD/svg10.dtd">
<svg version="1.0" xmlns="http://www.w3.org/2000/svg"
 width="1024.000000pt" height="1024.000000pt" viewBox="0 0 1024.000000 1024.000000"
 preserveAspectRatio="xMidYMid meet">
<metadata>
Created by potrace 1.14, written by Peter Selinger 2001-2017
</metadata>
<g transform="translate(0.000000,1024.000000) scale(0.100000,-0.100000)"
fill="#000000" stroke="none">
<path d="M2529 7308 c0 -7 -1 -652 -1 -1433 -1 -1352 -2 -1423 -19 -1487 -24
-87 -51 -137 -105 -197 -157 -175 -412 -213 -645 -95 -112 56 -216 149 -281
251 -18 29 -35 52 -38 52 -5 1 -97 -88 -538 -518 l-251 -245 30 -40 c119 -164
375 -359 624 -477 154 -73 401 -153 535 -173 19 -3 69 -10 110 -17 124 -19
369 -16 530 7 64 9 204 44 285 71 549 180 928 656 980 1230 4 40 7 749 7 1575
l1 1503 -612 3 c-485 2 -611 0 -612 -10z"/>
<path d="M4463 5155 l0 -2165 612 0 613 0 0 1146 c1 630 3 1148 5 1151 3 2 16
-18 30 -45 14 -26 35 -66 48 -88 68 -119 139 -247 139 -251 0 -3 8 -17 18 -31
11 -15 36 -58 57 -97 21 -38 66 -119 100 -180 63 -111 85 -149 145 -260 18
-33 41 -72 51 -87 11 -14 19 -29 19 -32 0 -3 30 -58 66 -122 36 -64 76 -134
88 -157 13 -23 52 -94 88 -157 36 -63 77 -136 91 -162 14 -25 57 -102 95 -170
39 -67 79 -138 89 -157 10 -19 23 -36 28 -38 6 -2 21 18 35 44 22 43 92 169
230 413 69 124 100 179 128 230 13 25 41 74 62 110 21 36 60 106 87 155 28 50
61 108 73 130 46 81 344 612 373 665 143 257 166 295 168 275 0 -11 1 -530 1
-1152 l1 -1133 613 0 612 0 0 2165 0 2165 -614 -2 -615 -3 -38 -70 c-21 -38
-118 -212 -216 -385 -98 -173 -196 -349 -218 -390 -22 -41 -43 -79 -47 -85 -4
-5 -39 -66 -77 -135 -82 -147 -85 -153 -238 -425 -64 -115 -125 -223 -135
-240 -10 -16 -30 -52 -45 -80 -15 -27 -47 -84 -71 -126 -24 -42 -44 -81 -44
-86 0 -6 -6 -16 -14 -22 -11 -9 -25 10 -76 101 -86 155 -256 458 -450 803 -90
160 -174 310 -188 335 -14 25 -53 95 -87 155 -34 61 -75 133 -90 160 -15 28
-68 122 -118 210 -49 88 -104 187 -123 220 l-33 60 -614 3 -614 2 0 -2165z"/>
</g>
</svg>
