<?xml version="1.0" standalone="no"?>
<!DOCTYPE svg PUBLIC "-//W3C//DTD SVG 20010904//EN"
 "http://www.w3.org/TR/2001/REC-SVG-20010904/DTD/svg10.dtd">
<svg version="1.0" xmlns="http://www.w3.org/2000/svg"
 width="1024.000000pt" height="1024.000000pt" viewBox="0 0 1024.000000 1024.000000"
 preserveAspectRatio="xMidYMid meet">
<metadata>
Created by potrace 1.14, written by Peter Selinger 2001-2017
</metadata>
<g transform="translate(0.000000,1024.000000) scale(0.100000,-0.100000)"
fill="#000000" stroke="none">
<path d="M2304 8541 c-2 -2 -19 -6 -36 -7 -30 -3 -54 -7 -140 -19 -31 -5 -106
-23 -128 -32 -8 -3 -24 -8 -35 -10 -24 -4 -96 -34 -180 -74 -73 -35 -133 -46
-203 -39 -65 7 -185 5 -277 -4 -68 -7 -245 -41 -275 -53 -8 -3 -19 -7 -25 -8
-5 -1 -12 -3 -15 -4 -3 -2 -12 -4 -21 -6 -56 -11 -252 -85 -346 -131 -82 -40
-129 -71 -179 -117 -61 -57 -66 -65 -55 -85 18 -33 50 -46 126 -48 78 -2 219
-14 250 -21 11 -2 29 -5 40 -7 37 -6 141 -28 215 -47 25 -6 52 -12 60 -14 8
-2 15 -4 15 -5 0 -1 7 -3 15 -5 8 -2 24 -6 35 -9 11 -2 92 -23 180 -47 88 -23
169 -43 180 -45 30 -4 147 -43 159 -53 6 -5 28 -14 48 -20 50 -16 161 -102
200 -156 18 -24 44 -50 58 -57 14 -7 27 -15 30 -18 3 -3 17 -11 32 -19 37 -19
104 -85 107 -105 5 -43 1 -84 -13 -121 -32 -83 -59 -142 -136 -300 -137 -283
-156 -358 -135 -555 3 -36 7 -72 7 -80 0 -8 5 -37 10 -65 5 -27 11 -66 14 -85
5 -29 31 -145 48 -210 16 -62 83 -239 97 -256 5 -6 6 -14 2 -17 -3 -4 -1 -7 5
-7 7 0 12 -7 12 -15 0 -8 13 -37 30 -65 16 -28 30 -53 30 -55 0 -3 37 -60 82
-127 119 -178 238 -329 384 -488 36 -38 85 -95 208 -240 11 -14 55 -70 96
-125 41 -55 78 -101 83 -103 4 -2 7 -10 7 -18 0 -8 4 -14 8 -14 5 0 18 -17 30
-37 25 -45 120 -147 179 -191 22 -18 94 -60 160 -94 65 -33 147 -78 182 -99
34 -22 65 -39 67 -39 3 0 10 -5 17 -10 7 -6 75 -51 152 -102 77 -50 142 -94
145 -97 23 -27 349 -231 369 -231 4 0 21 -7 37 -14 16 -8 72 -26 124 -41 139
-37 199 -71 226 -126 12 -24 24 -55 26 -69 1 -14 6 -27 9 -30 10 -7 20 -77 21
-140 1 -62 -7 -113 -24 -144 -6 -11 -11 -22 -10 -24 6 -8 -12 -82 -20 -82 -5
0 -7 -4 -3 -9 3 -5 1 -30 -4 -54 -6 -24 -13 -64 -17 -88 -3 -24 -7 -53 -9 -64
-5 -26 -12 -71 -20 -120 -3 -22 -8 -51 -11 -65 -3 -14 -8 -36 -10 -49 -3 -14
-8 -29 -12 -35 -3 -6 -7 -15 -7 -21 -1 -9 -7 -27 -20 -57 -22 -51 -109 -158
-149 -184 -95 -62 -118 -69 -211 -66 -146 3 -169 1 -232 -19 -23 -7 -38 -22
-52 -53 -12 -23 -21 -49 -21 -57 0 -25 -61 -51 -220 -90 -67 -17 -142 -62
-171 -102 -16 -22 -29 -46 -29 -53 0 -16 33 -9 83 18 45 23 67 18 67 -17 0
-14 9 -34 21 -46 19 -19 29 -20 97 -16 43 2 102 12 132 21 30 9 66 19 80 22
13 3 29 9 36 15 6 5 14 6 17 2 4 -3 12 -2 19 4 17 12 104 9 153 -6 91 -28 164
-18 335 44 59 21 92 33 105 35 2 1 28 10 57 21 63 24 57 22 182 54 55 13 120
27 145 29 85 10 106 17 139 49 17 17 32 36 32 41 0 6 10 24 23 40 24 30 50 31
79 3 86 -82 128 -72 105 25 -7 28 -26 52 -72 94 -68 60 -72 75 -25 99 35 18
66 10 114 -32 47 -39 52 -40 60 -10 22 83 -42 167 -128 167 -25 0 -73 -18
-143 -53 -100 -49 -111 -52 -187 -53 -97 -2 -141 14 -130 49 16 55 81 166 185
319 11 15 19 31 19 36 0 5 24 42 53 83 173 244 219 351 219 516 0 59 -13 154
-22 166 -1 1 -3 10 -5 21 -2 10 -8 23 -14 29 -6 6 -11 21 -11 33 0 12 -5 24
-11 26 -23 8 3 33 38 36 67 4 112 22 160 63 27 21 54 44 61 50 23 19 321 149
342 149 5 0 10 4 10 8 0 5 6 9 13 10 6 0 32 8 56 17 25 9 63 17 85 19 23 1 46
4 51 7 16 9 127 2 191 -12 32 -7 64 -14 71 -15 6 -1 27 -7 45 -13 18 -6 44
-12 58 -15 14 -3 88 -21 165 -41 77 -20 153 -38 168 -41 44 -8 289 -91 354
-120 32 -14 67 -29 78 -33 11 -5 34 -14 50 -21 64 -26 129 -37 218 -37 50 0
105 -3 121 -7 27 -7 147 -91 154 -108 2 -4 8 -8 13 -8 7 0 154 -111 216 -165
7 -5 18 -14 25 -20 27 -21 124 -100 134 -110 6 -6 30 -27 54 -46 23 -18 56
-46 73 -62 18 -15 56 -44 85 -64 28 -20 52 -40 52 -45 0 -4 4 -8 10 -8 9 0 99
-58 110 -71 13 -15 104 -62 135 -69 32 -7 34 -6 41 23 3 17 7 56 9 87 1 46 17
100 29 100 2 0 25 -10 52 -22 27 -12 51 -23 54 -23 3 -1 16 -7 30 -13 49 -22
250 -92 265 -92 8 0 15 -4 15 -10 0 -5 9 -10 19 -10 10 0 43 -11 73 -25 29
-14 63 -25 75 -25 19 0 17 5 -23 67 -24 37 -44 74 -44 82 0 8 3 12 6 9 3 -4
19 -2 35 2 20 6 46 4 77 -5 26 -8 47 -14 47 -14 0 1 20 -4 45 -11 58 -16 138
-21 145 -10 9 14 -31 91 -66 128 -18 19 -73 67 -123 107 -151 122 -163 142
-139 224 8 29 13 58 10 65 -3 7 -23 22 -44 33 -75 40 -110 61 -262 162 -85 56
-177 114 -205 128 -28 14 -53 28 -56 32 -3 3 -12 7 -20 9 -8 2 -16 8 -18 13
-2 5 -9 9 -15 9 -10 0 -235 136 -247 149 -3 4 -25 20 -50 36 -67 45 -253 178
-268 192 -7 7 -17 13 -22 13 -5 0 -15 6 -22 13 -7 7 -49 37 -93 67 -198 132
-298 243 -351 387 -29 80 -66 166 -75 173 -3 3 -12 16 -19 29 -7 14 -18 31
-24 39 -23 31 -203 209 -244 242 -24 19 -49 41 -57 48 -7 6 -16 12 -20 12 -4
0 -25 13 -48 28 -23 16 -112 63 -197 106 -238 120 -275 144 -400 264 -36 34
-71 62 -77 62 -7 0 -13 5 -13 10 0 6 -4 10 -9 10 -4 0 -93 50 -196 110 -103
61 -191 110 -195 110 -4 0 -13 7 -20 15 -7 9 -15 13 -18 11 -3 -3 -17 3 -31
13 -14 10 -70 41 -123 69 -435 232 -724 408 -1073 653 -58 41 -275 207 -285
218 -3 4 -27 24 -55 46 -73 58 -185 172 -233 235 -22 30 -78 129 -124 220 -94
185 -106 206 -130 234 -10 11 -18 25 -18 32 0 7 -3 14 -7 16 -5 2 -30 32 -58
68 -56 73 -113 132 -197 203 -59 50 -63 57 -73 116 -8 45 -32 78 -132 184 -58
60 -94 108 -116 155 -43 89 -80 135 -145 178 -47 32 -144 70 -182 73 -8 0 -28
3 -45 6 -16 3 -50 7 -75 9 -25 2 -63 7 -85 10 -37 5 -72 8 -240 22 -79 7 -286
10 -291 5z m-1144 -391 c25 -12 57 -31 72 -41 30 -22 45 -20 107 9 42 19 71
20 71 2 0 -5 -11 -22 -25 -38 -38 -46 -179 -83 -201 -53 -10 13 -50 15 -282
14 -267 0 -271 0 -247 18 31 25 134 76 171 85 16 4 34 10 39 14 16 13 62 17
160 15 72 -2 99 -7 135 -25z m-45 -162 c22 -2 54 -1 70 2 18 3 42 0 59 -9 16
-7 59 -16 95 -19 36 -2 67 -6 69 -7 2 -2 -6 -21 -17 -43 -23 -46 -76 -84 -100
-72 -58 28 -148 59 -155 53 -3 -4 -6 -2 -6 4 0 5 -6 10 -12 11 -7 0 -24 3 -38
6 -129 29 -301 56 -395 61 -65 4 -72 7 -35 14 36 6 392 5 465 -1z m4017 -5235
c-9 -21 -20 -40 -23 -43 -4 -3 -9 -15 -13 -28 -10 -31 -115 -141 -117 -122 -3
29 7 89 21 124 11 30 64 86 83 87 23 1 49 8 55 13 12 13 11 4 -6 -31z"/>
</g>
</svg>
