<?xml version="1.0" encoding="utf-8"?>
<!-- Generator: Adobe Illustrator 25.4.1, SVG Export Plug-In . SVG Version: 6.00 Build 0)  -->
<svg version="1.1" id="COMPANY3_ICON" xmlns="http://www.w3.org/2000/svg" xmlns:xlink="http://www.w3.org/1999/xlink" x="0px"
	 y="0px" viewBox="0 0 789.6 789.6" style="enable-background:new 0 0 789.6 789.6;" xml:space="preserve">
<style type="text/css">
	.st0{fill:#FFFFFF;}
</style>
<g id="COMPANY3_ICON">
	<g>
		<g>
			<path d="M394.8,750.3c-48,0-94.6-9.4-138.4-27.9c-42.3-17.9-80.4-43.5-113-76.2c-32.6-32.6-58.3-70.7-76.2-113
				c-18.5-43.8-27.9-90.4-27.9-138.4c0-48,9.4-94.6,27.9-138.4c17.9-42.3,43.5-80.4,76.2-113c32.6-32.6,70.7-58.3,113-76.2
				c43.8-18.5,90.4-27.9,138.4-27.9c48,0,94.6,9.4,138.4,27.9c42.3,17.9,80.4,43.5,113,76.2c32.6,32.6,58.3,70.7,76.2,113
				c18.5,43.8,27.9,90.4,27.9,138.4c0,48-9.4,94.6-27.9,138.4c-17.9,42.3-43.5,80.4-76.2,113s-70.7,58.3-113,76.2
				C489.3,740.9,442.8,750.3,394.8,750.3z"/>
			<path d="M394.8,39.8c47.9,0,94.4,9.4,138.2,27.9c42.3,17.9,80.2,43.5,112.8,76.1c32.6,32.6,58.2,70.6,76.1,112.8
				c18.5,43.8,27.9,90.3,27.9,138.2c0,47.9-9.4,94.4-27.9,138.2c-17.9,42.3-43.5,80.2-76.1,112.8c-32.6,32.6-70.6,58.2-112.8,76.1
				c-43.8,18.5-90.3,27.9-138.2,27.9c-47.9,0-94.4-9.4-138.2-27.9c-42.3-17.9-80.2-43.5-112.8-76.1c-32.6-32.6-58.2-70.6-76.1-112.8
				c-18.5-43.8-27.9-90.3-27.9-138.2c0-47.9,9.4-94.4,27.9-138.2c17.9-42.3,43.5-80.2,76.1-112.8c32.6-32.6,70.6-58.2,112.8-76.1
				C300.4,49.2,346.9,39.8,394.8,39.8 M394.8,38.8c-196.6,0-356,159.4-356,356s159.4,356,356,356s356-159.4,356-356
				S591.4,38.8,394.8,38.8L394.8,38.8z"/>
		</g>
		<g>
			<path d="M767,394.8C767,600.4,600.4,767,394.8,767S22.5,600.4,22.5,394.8S189.2,22.5,394.8,22.5S767,189.2,767,394.8z M427.2,533
				c16.4-3.2,27-15.8,27-32.5c0-15.3-7.6-29.2-22.3-37.4c24.2-13.2,40.7-38.8,40.7-68.4c0-29.5-16.4-55.2-40.7-68.4
				c19.9-9,31.3-26.7,35.5-49.2h-43c-2.5,13.5-10.3,22.1-25.7,22.1c-20.7,0-31.4-15.6-31.4-44.3c0-28.4,10.7-44.3,31.4-44.3
				c15.4,0,23.2,8.6,25.7,22.1h43c-6.1-33.1-27.6-55.6-68.7-55.6c-47.4,0-76.5,32.7-76.5,77.8c0,31.7,14.3,57.1,39.1,69.5
				c-26.2,12.5-44.3,39.2-44.3,70.2c0,30.9,18,57.6,44.1,70.1c-14.6,9.2-22.8,23.9-24.1,39.7h39.7c0.7-10.8,8.7-17.7,20.4-17.7
				c10.9,0,17.8,6.2,17.8,15.8c0,10.9-7.5,16.4-20,16.4h-13.7v28.7h14.1c12.4,0,21.3,4.2,21.3,15.4c0,9.3-7.2,15.7-20.4,15.7
				c-10.7,0-21.3-6-22.1-17.2H332c2.7,28.4,26.6,49.1,64.3,49.1c39.4,0,61.3-20.2,61.3-43.6C457.6,549.3,446.4,536.4,427.2,533z"/>
			<path d="M394.8,23.5c50.1,0,98.7,9.8,144.5,29.2c44.2,18.7,83.9,45.5,118,79.6c34.1,34.1,60.9,73.8,79.6,118
				c19.4,45.8,29.2,94.4,29.2,144.5s-9.8,98.7-29.2,144.5c-18.7,44.2-45.5,83.9-79.6,118c-34.1,34.1-73.8,60.9-118,79.6
				c-45.8,19.4-94.4,29.2-144.5,29.2c-50.1,0-98.7-9.8-144.5-29.2c-44.2-18.7-83.9-45.5-118-79.6s-60.9-73.8-79.6-118
				c-19.4-45.8-29.2-94.4-29.2-144.5s9.8-98.7,29.2-144.5c18.7-44.2,45.5-83.9,79.6-118s73.8-60.9,118-79.6
				C296.1,33.4,344.7,23.5,394.8,23.5 M359.1,324.6c-12.4,6.3-23,15.9-30.6,27.7c-8.2,12.7-12.5,27.4-12.5,42.5
				c0,15.1,4.3,29.8,12.4,42.5c7.6,11.8,18.2,21.4,30.6,27.8c-13.4,9-21.7,23.3-23,39.5l-0.1,1.1h1.1h39.7h0.9l0.1-0.9
				c0.7-10.3,8.1-16.7,19.4-16.7c10.3,0,16.8,5.7,16.8,14.8c0,9.9-6.7,15.4-19,15.4h-13.7h-1v1v28.7v1h1h14.1
				c13.5,0,20.3,4.8,20.3,14.4c0,9.2-7.3,14.7-19.4,14.7c-5.3,0-10.4-1.5-14.2-4.2c-4.2-3-6.6-7.1-6.9-12l-0.1-0.9h-0.9H332h-1.1
				l0.1,1.1c1.4,14.6,8.1,27,19.4,35.9c11.6,9.2,27.5,14.1,45.9,14.1c18.8,0,34.8-4.6,46-13.2c10.5-8.1,16.3-19.2,16.3-31.4
				c0-17.2-10-29.7-27-34.2c14.5-4.5,23.6-16.8,23.6-32.4c0-15.6-7.7-29.2-21.3-37.4c24.5-14,39.6-40.1,39.6-68.4
				c0-28.2-15.1-54.2-39.5-68.3c18.1-8.9,30-25.8,34.3-49.1l0.2-1.2h-1.2h-43h-0.8l-0.2,0.8c-2.7,14.1-11,21.3-24.7,21.3
				c-19.9,0-30.4-15-30.4-43.3c0-35.7,16.5-43.3,30.4-43.3c13.8,0,22.1,7.2,24.7,21.3l0.2,0.8h0.8h43h1.2l-0.2-1.2
				c-3.2-17.5-10.5-31.2-21.6-40.8c-12-10.4-28.2-15.7-48.1-15.7c-23.2,0-42.8,7.7-56.8,22.3c-13.6,14.2-20.7,33.7-20.7,56.5
				C321.2,286.5,335,311.7,359.1,324.6 M394.8,22.5c-205.6,0-372.2,166.7-372.2,372.2S189.2,767,394.8,767S767,600.4,767,394.8
				S600.4,22.5,394.8,22.5L394.8,22.5z M337.1,504.6c1.3-15.8,9.5-30.5,24.1-39.7C335,452.3,317,425.7,317,394.8
				c0-30.9,18.1-57.7,44.3-70.2c-24.8-12.4-39.1-37.8-39.1-69.5c0-45.1,29.1-77.8,76.5-77.8c41.1,0,62.6,22.5,68.7,55.6h-43
				c-2.5-13.5-10.3-22.1-25.7-22.1c-20.7,0-31.4,15.8-31.4,44.3c0,28.7,10.7,44.3,31.4,44.3c15.4,0,23.2-8.6,25.7-22.1h43
				c-4.2,22.5-15.6,40.2-35.5,49.2c24.2,13.2,40.7,38.8,40.7,68.4c0,29.5-16.4,55.2-40.7,68.4c14.7,8.3,22.3,22.1,22.3,37.4
				c0,16.6-10.5,29.3-27,32.5c19.2,3.4,30.3,16.2,30.3,34.1c0,23.4-21.9,43.6-61.3,43.6c-37.7,0-61.5-20.7-64.3-49.1h42.1
				c0.8,11.2,11.4,17.2,22.1,17.2c13.3,0,20.4-6.4,20.4-15.7c0-11.2-8.9-15.4-21.3-15.4h-14.1v-28.7H395c12.4,0,20-5.5,20-16.4
				c0-9.5-6.9-15.8-17.8-15.8c-11.7,0-19.7,6.8-20.4,17.7H337.1L337.1,504.6z"/>
		</g>
	</g>
	<g>
		<g>
			<path class="st0" d="M394.8,750.3c-48,0-94.6-9.4-138.4-27.9c-42.3-17.9-80.4-43.5-113-76.2c-32.6-32.6-58.3-70.7-76.2-113
				c-18.5-43.8-27.9-90.4-27.9-138.4c0-48,9.4-94.6,27.9-138.4c17.9-42.3,43.5-80.4,76.2-113c32.6-32.6,70.7-58.3,113-76.2
				c43.8-18.5,90.4-27.9,138.4-27.9c48,0,94.6,9.4,138.4,27.9c42.3,17.9,80.4,43.5,113,76.2c32.6,32.6,58.3,70.7,76.2,113
				c18.5,43.8,27.9,90.4,27.9,138.4c0,48-9.4,94.6-27.9,138.4c-17.9,42.3-43.5,80.4-76.2,113s-70.7,58.3-113,76.2
				C489.3,740.9,442.8,750.3,394.8,750.3z"/>
			<path d="M394.8,39.8c47.9,0,94.4,9.4,138.2,27.9c42.3,17.9,80.2,43.5,112.8,76.1c32.6,32.6,58.2,70.6,76.1,112.8
				c18.5,43.8,27.9,90.3,27.9,138.2c0,47.9-9.4,94.4-27.9,138.2c-17.9,42.3-43.5,80.2-76.1,112.8c-32.6,32.6-70.6,58.2-112.8,76.1
				c-43.8,18.5-90.3,27.9-138.2,27.9c-47.9,0-94.4-9.4-138.2-27.9c-42.3-17.9-80.2-43.5-112.8-76.1c-32.6-32.6-58.2-70.6-76.1-112.8
				c-18.5-43.8-27.9-90.3-27.9-138.2c0-47.9,9.4-94.4,27.9-138.2c17.9-42.3,43.5-80.2,76.1-112.8c32.6-32.6,70.6-58.2,112.8-76.1
				C300.4,49.2,346.9,39.8,394.8,39.8 M394.8,38.8c-196.6,0-356,159.4-356,356s159.4,356,356,356s356-159.4,356-356
				S591.4,38.8,394.8,38.8L394.8,38.8z"/>
		</g>
		<g>
			<path d="M767,394.8C767,600.4,600.4,767,394.8,767S22.5,600.4,22.5,394.8S189.2,22.5,394.8,22.5S767,189.2,767,394.8z M427.2,533
				c16.4-3.2,27-15.8,27-32.5c0-15.3-7.6-29.2-22.3-37.4c24.2-13.2,40.7-38.8,40.7-68.4c0-29.5-16.4-55.2-40.7-68.4
				c19.9-9,31.3-26.7,35.5-49.2h-43c-2.5,13.5-10.3,22.1-25.7,22.1c-20.7,0-31.4-15.6-31.4-44.3c0-28.4,10.7-44.3,31.4-44.3
				c15.4,0,23.2,8.6,25.7,22.1h43c-6.1-33.1-27.6-55.6-68.7-55.6c-47.4,0-76.5,32.7-76.5,77.8c0,31.7,14.3,57.1,39.1,69.5
				c-26.2,12.5-44.3,39.2-44.3,70.2c0,30.9,18,57.6,44.1,70.1c-14.6,9.2-22.8,23.9-24.1,39.7h39.7c0.7-10.8,8.7-17.7,20.4-17.7
				c10.9,0,17.8,6.2,17.8,15.8c0,10.9-7.5,16.4-20,16.4h-13.7v28.7h14.1c12.4,0,21.3,4.2,21.3,15.4c0,9.3-7.2,15.7-20.4,15.7
				c-10.7,0-21.3-6-22.1-17.2H332c2.7,28.4,26.6,49.1,64.3,49.1c39.4,0,61.3-20.2,61.3-43.6C457.6,549.3,446.4,536.4,427.2,533z"/>
		</g>
	</g>
</g>
</svg>
