<?xml version="1.0" encoding="utf-8"?>
<!-- Generator: Adobe Illustrator 25.4.1, SVG Export Plug-In . SVG Version: 6.00 Build 0)  -->
<svg version="1.1" id="COMPANY3_ICON" xmlns="http://www.w3.org/2000/svg" xmlns:xlink="http://www.w3.org/1999/xlink" x="0px"
	 y="0px" viewBox="0 0 789.6 789.6" style="enable-background:new 0 0 789.6 789.6;" xml:space="preserve">
<style type="text/css">
	.st0{fill:#FFFFFF;}
</style>
<g id="COMPANY3_ICON">
	<g>
		<g>
			<path d="M394.8,750.3c-48,0-94.6-9.4-138.4-27.9c-42.3-17.9-80.4-43.5-113-76.2s-58.3-70.7-76.2-113
				c-18.5-43.8-27.9-90.4-27.9-138.4s9.4-94.6,27.9-138.4c17.9-42.3,43.5-80.4,76.2-113s70.7-58.3,113-76.2
				c43.8-18.5,90.4-27.9,138.4-27.9s94.6,9.4,138.4,27.9c42.3,17.9,80.4,43.5,113,76.2s58.3,70.7,76.2,113
				c18.5,43.8,27.9,90.4,27.9,138.4s-9.4,94.6-27.9,138.4c-17.9,42.3-43.5,80.4-76.2,113s-70.7,58.3-113,76.2
				C489.3,740.9,442.8,750.3,394.8,750.3z M331.5,561.7c2.9,30.1,28.3,49.6,64.8,49.6c18.7,0,34.5-4.5,45.7-13.1
				c10.4-8,16.1-19,16.1-31c0-17.5-10.6-30.2-28.4-34.2c15.3-3.9,25.1-16.4,25.1-32.4c0-15.7-7.9-29.3-21.8-37.4
				c24.8-13.8,40.1-39.9,40.1-68.4c0-28.4-15.3-54.5-40.1-68.3c18.5-8.7,30.5-25.6,34.9-49.2l0.1-0.6h-44l-0.1,0.4
				c-2.7,14.4-11.2,21.7-25.2,21.7c-20.2,0-30.9-15.1-30.9-43.8c0-28.6,10.7-43.8,30.9-43.8c14,0,22.5,7.3,25.2,21.7l0.1,0.4h44
				l-0.1-0.6c-3.2-17.4-10.4-31-21.4-40.5c-11.9-10.3-28-15.5-47.8-15.5c-46.1,0-77,31.5-77,78.3c0,31.6,14,56.9,38.5,69.5
				c-26.5,13.1-43.6,40.6-43.6,70.2c0,29.6,17.1,57,43.6,70.2c-13.7,8.9-22.2,23.3-23.5,39.6l0,0.5h40.7l0-0.5
				c0.7-10.5,8.5-17.2,19.9-17.2c10.5,0,17.3,6,17.3,15.2c0,10.3-6.9,15.9-19.5,15.9h-14.2v29.7h14.6c13.8,0,20.8,5,20.8,14.9
				c0,9.5-7.5,15.2-20,15.2c-14,0-21-8.7-21.6-16.7l0-0.5h-43.2L331.5,561.7z"/>
			<path d="M394.8,39.8c47.9,0,94.4,9.4,138.2,27.9c42.3,17.9,80.2,43.5,112.8,76.1c32.6,32.6,58.2,70.6,76.1,112.8
				c18.5,43.8,27.9,90.3,27.9,138.2s-9.4,94.4-27.9,138.2c-17.9,42.3-43.5,80.2-76.1,112.8c-32.6,32.6-70.6,58.2-112.8,76.1
				c-43.8,18.5-90.3,27.9-138.2,27.9s-94.4-9.4-138.2-27.9c-42.3-17.9-80.2-43.5-112.8-76.1c-32.6-32.6-58.2-70.6-76.1-112.8
				c-18.5-43.8-27.9-90.3-27.9-138.2s9.4-94.4,27.9-138.2c17.9-42.3,43.5-80.2,76.1-112.8c32.6-32.6,70.6-58.2,112.8-76.1
				C300.4,49.2,346.9,39.8,394.8,39.8 M359.1,324.6c-12.4,6.3-23,15.9-30.6,27.7c-8.2,12.7-12.5,27.4-12.5,42.5
				c0,15.1,4.3,29.8,12.4,42.5c7.6,11.8,18.2,21.4,30.6,27.8c-13.4,9-21.7,23.3-23,39.5l-0.1,1.1h1.1h39.7h0.9l0.1-0.9
				c0.7-10.3,8.1-16.7,19.4-16.7c10.3,0,16.8,5.7,16.8,14.8c0,9.9-6.7,15.4-19,15.4h-13.7h-1v1v28.7v1h1h14.1
				c13.5,0,20.3,4.8,20.3,14.4c0,9.2-7.3,14.7-19.5,14.7c-5.3,0-10.4-1.5-14.2-4.2c-4.2-3-6.6-7.1-6.9-12l-0.1-0.9h-0.9H332h-1.1
				l0.1,1.1c1.4,14.6,8.1,27,19.4,35.9c11.6,9.2,27.5,14.1,45.9,14.1c18.8,0,34.8-4.6,46.1-13.2c10.5-8.1,16.3-19.2,16.3-31.4
				c0-17.2-10-29.7-27-34.2c14.5-4.5,23.6-16.8,23.6-32.4c0-15.6-7.7-29.2-21.3-37.4c24.5-14,39.6-40.1,39.6-68.4
				c0-28.2-15.1-54.2-39.5-68.3c18.1-8.9,30-25.8,34.3-49.1l0.2-1.2h-1.2h-43h-0.8l-0.2,0.8c-2.7,14.1-11,21.3-24.7,21.3
				c-19.9,0-30.4-15-30.4-43.3c0-19.7,5.3-43.2,30.4-43.2c13.8,0,22.1,7.2,24.7,21.3l0.2,0.8h0.8h43h1.2l-0.2-1.2
				c-3.2-17.5-10.5-31.2-21.6-40.8c-12-10.4-28.2-15.7-48.1-15.7c-23.2,0-42.8,7.7-56.8,22.3c-13.6,14.2-20.7,33.7-20.7,56.5
				C321.2,286.5,335,311.7,359.1,324.6 M394.8,38.8c-196.6,0-356,159.4-356,356s159.4,356,356,356s356-159.4,356-356
				S591.4,38.8,394.8,38.8L394.8,38.8z M337.1,504.6c1.3-15.8,9.5-30.5,24-39.7C335,452.3,317,425.7,317,394.8
				c0-31,18.1-57.7,44.2-70.2c-24.8-12.4-39.1-37.8-39.1-69.5c0-45.1,29.1-77.8,76.5-77.8c41.1,0,62.6,22.5,68.7,55.6h-43
				c-2.5-13.5-10.3-22.1-25.7-22.1c-20.7,0-31.4,15.8-31.4,44.2c0,28.7,10.8,44.3,31.4,44.3c15.4,0,23.2-8.6,25.7-22.1h43
				c-4.2,22.5-15.6,40.2-35.5,49.2c24.2,13.2,40.7,38.8,40.7,68.4s-16.4,55.2-40.7,68.3c14.8,8.3,22.3,22.2,22.3,37.4
				c0,16.6-10.5,29.3-27,32.4c19.2,3.4,30.3,16.2,30.3,34.1c0,23.4-21.9,43.6-61.3,43.6c-37.7,0-61.5-20.6-64.3-49.1h42.1
				c0.8,11.2,11.4,17.2,22.1,17.2c13.3,0,20.5-6.4,20.5-15.7c0-11.2-8.8-15.4-21.3-15.4h-14.1v-28.7H395c12.4,0,20-5.5,20-16.4
				c0-9.5-6.9-15.8-17.8-15.8c-11.7,0-19.7,6.8-20.4,17.7H337.1L337.1,504.6z"/>
		</g>
		<g>
			<path d="M394.8,22.5c-205.6,0-372.2,166.7-372.2,372.2S189.2,767,394.8,767S767,600.4,767,394.8S600.4,22.5,394.8,22.5z
				 M454.2,500.6c0,16.7-10.5,29.3-27,32.5c19.2,3.4,30.3,16.2,30.3,34.1c0,23.4-21.9,43.6-61.3,43.6c-37.7,0-61.5-20.7-64.3-49.1
				h42.1c0.8,11.2,11.4,17.2,22.1,17.2c13.3,0,20.5-6.4,20.5-15.7c0-11.2-8.8-15.4-21.3-15.4h-14.1v-28.7H395c12.4,0,20-5.5,20-16.4
				c0-9.5-6.9-15.8-17.8-15.8c-11.7,0-19.7,6.8-20.4,17.7h-39.7c1.3-15.8,9.5-30.5,24-39.7C335,452.3,317,425.7,317,394.8
				c0-31,18.1-57.7,44.2-70.2c-24.8-12.4-39.1-37.8-39.1-69.5c0-45.1,29.1-77.8,76.5-77.8c41.1,0,62.6,22.5,68.7,55.6h-43
				c-2.5-13.5-10.3-22.1-25.7-22.1c-20.7,0-31.4,15.8-31.4,44.2c0,28.7,10.8,44.3,31.4,44.3c15.4,0,23.2-8.6,25.7-22.1h43
				c-4.2,22.5-15.6,40.2-35.5,49.2c24.2,13.2,40.7,38.8,40.7,68.4s-16.4,55.2-40.7,68.3C446.6,471.4,454.2,485.3,454.2,500.6z"/>
			<path d="M394.8,23.5c50.1,0,98.7,9.8,144.5,29.2c44.2,18.7,83.9,45.5,118,79.6c34.1,34.1,60.9,73.8,79.6,118
				c19.4,45.8,29.2,94.4,29.2,144.5s-9.8,98.7-29.2,144.5c-18.7,44.2-45.5,83.9-79.6,118c-34.1,34.1-73.8,60.9-118,79.6
				c-45.8,19.4-94.4,29.2-144.5,29.2s-98.7-9.8-144.5-29.2c-44.2-18.7-83.9-45.5-118-79.6c-34.1-34.1-60.9-73.8-79.6-118
				c-19.4-45.8-29.2-94.4-29.2-144.5s9.8-98.7,29.2-144.5c18.7-44.2,45.5-83.9,79.6-118c34.1-34.1,73.8-60.9,118-79.6
				C296.1,33.4,344.7,23.5,394.8,23.5 M359.1,324.6c-12.4,6.3-23,15.9-30.6,27.7c-8.2,12.7-12.5,27.4-12.5,42.5
				c0,15.1,4.3,29.8,12.4,42.5c7.6,11.8,18.2,21.4,30.6,27.8c-13.4,9-21.7,23.3-23,39.5l-0.1,1.1h1.1h39.7h0.9l0.1-0.9
				c0.7-10.3,8.1-16.7,19.4-16.7c10.3,0,16.8,5.7,16.8,14.8c0,9.9-6.7,15.4-19,15.4h-13.7h-1v1v28.7v1h1h14.1
				c13.5,0,20.3,4.8,20.3,14.4c0,9.2-7.3,14.7-19.5,14.7c-5.3,0-10.4-1.5-14.2-4.2c-4.2-3-6.6-7.1-6.9-12l-0.1-0.9h-0.9H332h-1.1
				l0.1,1.1c1.4,14.6,8.1,27,19.4,35.9c11.6,9.2,27.5,14.1,45.9,14.1c18.8,0,34.8-4.6,46.1-13.2c10.5-8.1,16.3-19.2,16.3-31.4
				c0-17.2-10-29.7-27-34.2c14.5-4.5,23.6-16.8,23.6-32.4c0-15.6-7.7-29.2-21.3-37.4c24.5-14,39.6-40.1,39.6-68.4
				c0-28.2-15.1-54.2-39.5-68.3c18.1-8.9,30-25.8,34.3-49.1l0.2-1.2h-1.2h-43h-0.8l-0.2,0.8c-2.7,14.1-11,21.3-24.7,21.3
				c-19.9,0-30.4-15-30.4-43.3c0-35.7,16.5-43.2,30.4-43.2c13.8,0,22.1,7.2,24.7,21.3l0.2,0.8h0.8h43h1.2l-0.2-1.2
				c-3.2-17.5-10.5-31.2-21.6-40.8c-12-10.4-28.2-15.7-48.1-15.7c-23.2,0-42.8,7.7-56.8,22.3c-13.6,14.2-20.7,33.7-20.7,56.5
				C321.2,286.5,335,311.7,359.1,324.6 M394.8,22.5c-205.6,0-372.2,166.7-372.2,372.2S189.2,767,394.8,767S767,600.4,767,394.8
				S600.4,22.5,394.8,22.5L394.8,22.5z M337.1,504.6c1.3-15.8,9.5-30.5,24-39.7C335,452.3,317,425.7,317,394.8
				c0-31,18.1-57.7,44.2-70.2c-24.8-12.4-39.1-37.8-39.1-69.5c0-45.1,29.1-77.8,76.5-77.8c41.1,0,62.6,22.5,68.7,55.6h-43
				c-2.5-13.5-10.3-22.1-25.7-22.1c-20.7,0-31.4,15.8-31.4,44.2c0,28.7,10.8,44.3,31.4,44.3c15.4,0,23.2-8.6,25.7-22.1h43
				c-4.2,22.5-15.6,40.2-35.5,49.2c24.2,13.2,40.7,38.8,40.7,68.4s-16.4,55.2-40.7,68.3c14.8,8.3,22.3,22.2,22.3,37.4
				c0,16.6-10.5,29.3-27,32.4c19.2,3.4,30.3,16.2,30.3,34.1c0,23.4-21.9,43.6-61.3,43.6c-37.7,0-61.5-20.6-64.3-49.1h42.1
				c0.8,11.2,11.4,17.2,22.1,17.2c13.3,0,20.5-6.4,20.5-15.7c0-11.2-8.8-15.4-21.3-15.4h-14.1v-28.7H395c12.4,0,20-5.5,20-16.4
				c0-9.5-6.9-15.8-17.8-15.8c-11.7,0-19.7,6.8-20.4,17.7H337.1L337.1,504.6z"/>
		</g>
		<g>
			<path d="M457.6,567.2c0,23.4-21.9,43.6-61.3,43.6c-37.7,0-61.5-20.7-64.3-49.1h42.1c0.8,11.2,11.4,17.2,22.1,17.2
				c13.3,0,20.5-6.4,20.5-15.7c0-11.2-8.8-15.4-21.3-15.4h-14.1v-28.7H395c12.4,0,20-5.5,20-16.4c0-9.5-6.9-15.8-17.8-15.8
				c-11.7,0-19.7,6.8-20.4,17.7h-39.7c1.3-15.8,9.5-30.5,24-39.7C335,452.3,317,425.7,317,394.8c0-31,18.1-57.7,44.2-70.2
				c-24.8-12.4-39.1-37.8-39.1-69.5c0-45.1,29.1-77.8,76.5-77.8c41.1,0,62.6,22.5,68.7,55.6h-43c-2.5-13.5-10.3-22.1-25.7-22.1
				c-20.7,0-31.4,15.8-31.4,44.2c0,28.7,10.8,44.3,31.4,44.3c15.4,0,23.2-8.6,25.7-22.1h43c-4.2,22.5-15.6,40.2-35.5,49.2
				c24.2,13.2,40.7,38.8,40.7,68.4s-16.4,55.2-40.7,68.3c14.8,8.3,22.3,22.2,22.3,37.4c0,16.7-10.5,29.3-27,32.5
				C446.4,536.4,457.6,549.3,457.6,567.2z"/>
			<path d="M398.7,178.3c19.5,0,35.2,5.1,46.8,15.2c10.5,9.1,17.4,22,20.7,38.5h-41c-3-14.7-11.9-22.1-26.5-22.1
				c-10.6,0-18.7,4-24.3,11.9c-5.4,7.7-8.1,18.9-8.1,33.4c0,14.5,2.7,25.8,8.1,33.5c5.5,7.8,13.7,11.8,24.3,11.8
				c14.6,0,23.5-7.4,26.5-22.1h41c-4.5,22.8-16.5,39.1-34.7,47.3l-1.8,0.8l1.8,1c24.8,13.5,40.1,39.3,40.1,67.5
				c0,28.2-15.4,54-40.1,67.5l-1.6,0.9l1.6,0.9c13.9,7.8,21.8,21.1,21.8,36.6c0,16.1-10.3,28.4-26.2,31.5l-5.3,1l5.3,0.9
				c18.5,3.3,29.5,15.7,29.5,33.2c0,11.5-5.5,22.1-15.5,29.8c-10.9,8.4-26.4,12.8-44.8,12.8c-35.2,0-59.8-18.4-63.2-47.1h40.1
				c1.4,11.8,12.8,17.2,23,17.2c13.2,0,21.5-6.4,21.5-16.7c0-10.7-7.7-16.4-22.3-16.4h-13.1v-26.7H395c13.3,0,21-6.3,21-17.4
				c0-10.2-7.4-16.8-18.8-16.8c-11.9,0-20.2,6.9-21.3,17.7h-37.7c1.6-15.7,10.1-29.4,23.5-37.8l1.5-1l-1.6-0.8
				c-12.8-6.2-23.7-15.8-31.4-27.8c-7.9-12.3-12.1-26.7-12.1-41.4c0-14.8,4.2-29.1,12.2-41.5c7.7-12,18.6-21.7,31.5-27.8l1.8-0.9
				l-1.8-0.9c-24.5-12.2-38.5-37.2-38.5-68.6c0-22.2,7-41.3,20.2-55.1C356.9,185.8,376.1,178.3,398.7,178.3 M398.7,177.3
				c-47.4,0-76.5,32.7-76.5,77.8c0,31.7,14.3,57.1,39.1,69.5c-26.2,12.5-44.2,39.2-44.2,70.2c0,30.9,18,57.5,44.1,70.1
				c-14.6,9.2-22.8,23.9-24,39.7h39.7c0.7-10.8,8.7-17.7,20.4-17.7c10.9,0,17.8,6.2,17.8,15.8c0,10.9-7.5,16.4-20,16.4h-13.7v28.7
				h14.1c12.4,0,21.3,4.2,21.3,15.4c0,9.3-7.2,15.7-20.5,15.7c-10.7,0-21.3-6-22.1-17.2H332c2.7,28.4,26.5,49.1,64.3,49.1
				c39.4,0,61.3-20.2,61.3-43.6c0-17.9-11.2-30.8-30.3-34.1c16.4-3.2,27-15.8,27-32.5c0-15.3-7.6-29.2-22.3-37.4
				c24.2-13.2,40.7-38.8,40.7-68.3c0-29.5-16.4-55.2-40.7-68.4c19.9-9,31.3-26.7,35.5-49.2h-43c-2.5,13.5-10.3,22.1-25.7,22.1
				c-20.7,0-31.4-15.6-31.4-44.3c0-28.5,10.8-44.2,31.4-44.2c15.4,0,23.2,8.6,25.7,22.1h43C461.3,199.9,439.8,177.3,398.7,177.3
				L398.7,177.3z"/>
		</g>
	</g>
	<g>
		<g>
			<path class="st0" d="M394.8,750.3c-48,0-94.6-9.4-138.4-27.9c-42.3-17.9-80.4-43.5-113-76.2s-58.3-70.7-76.2-113
				c-18.5-43.8-27.9-90.4-27.9-138.4s9.4-94.6,27.9-138.4c17.9-42.3,43.5-80.4,76.2-113s70.7-58.3,113-76.2
				c43.8-18.5,90.4-27.9,138.4-27.9s94.6,9.4,138.4,27.9c42.3,17.9,80.4,43.5,113,76.2s58.3,70.7,76.2,113
				c18.5,43.8,27.9,90.4,27.9,138.4s-9.4,94.6-27.9,138.4c-17.9,42.3-43.5,80.4-76.2,113s-70.7,58.3-113,76.2
				C489.3,740.9,442.8,750.3,394.8,750.3z M331.5,561.7c2.9,30.1,28.3,49.6,64.8,49.6c18.7,0,34.5-4.5,45.7-13.1
				c10.4-8,16.1-19,16.1-31c0-17.5-10.6-30.2-28.4-34.2c15.3-3.9,25.1-16.4,25.1-32.4c0-15.7-7.9-29.3-21.8-37.4
				c24.8-13.8,40.1-39.9,40.1-68.4c0-28.4-15.3-54.5-40.1-68.3c18.5-8.7,30.5-25.6,34.9-49.2l0.1-0.6h-44l-0.1,0.4
				c-2.7,14.4-11.2,21.7-25.2,21.7c-20.2,0-30.9-15.1-30.9-43.8c0-28.6,10.7-43.8,30.9-43.8c14,0,22.5,7.3,25.2,21.7l0.1,0.4h44
				l-0.1-0.6c-3.2-17.4-10.4-31-21.4-40.5c-11.9-10.3-28-15.5-47.8-15.5c-46.1,0-77,31.5-77,78.3c0,31.6,14,56.9,38.5,69.5
				c-26.5,13.1-43.6,40.6-43.6,70.2c0,29.6,17.1,57,43.6,70.2c-13.7,8.9-22.2,23.3-23.5,39.6l0,0.5h40.7l0-0.5
				c0.7-10.5,8.5-17.2,19.9-17.2c10.5,0,17.3,6,17.3,15.2c0,10.3-6.9,15.9-19.5,15.9h-14.2v29.7h14.6c13.8,0,20.8,5,20.8,14.9
				c0,9.5-7.5,15.2-20,15.2c-14,0-21-8.7-21.6-16.7l0-0.5h-43.2L331.5,561.7z"/>
			<path d="M394.8,39.8c47.9,0,94.4,9.4,138.2,27.9c42.3,17.9,80.2,43.5,112.8,76.1c32.6,32.6,58.2,70.6,76.1,112.8
				c18.5,43.8,27.9,90.3,27.9,138.2s-9.4,94.4-27.9,138.2c-17.9,42.3-43.5,80.2-76.1,112.8c-32.6,32.6-70.6,58.2-112.8,76.1
				c-43.8,18.5-90.3,27.9-138.2,27.9s-94.4-9.4-138.2-27.9c-42.3-17.9-80.2-43.5-112.8-76.1c-32.6-32.6-58.2-70.6-76.1-112.8
				c-18.5-43.8-27.9-90.3-27.9-138.2s9.4-94.4,27.9-138.2c17.9-42.3,43.5-80.2,76.1-112.8c32.6-32.6,70.6-58.2,112.8-76.1
				C300.4,49.2,346.9,39.8,394.8,39.8 M359.1,324.6c-12.4,6.3-23,15.9-30.6,27.7c-8.2,12.7-12.5,27.4-12.5,42.5
				c0,15.1,4.3,29.8,12.4,42.5c7.6,11.8,18.2,21.4,30.6,27.8c-13.4,9-21.7,23.3-23,39.5l-0.1,1.1h1.1h39.7h0.9l0.1-0.9
				c0.7-10.3,8.1-16.7,19.4-16.7c10.3,0,16.8,5.7,16.8,14.8c0,9.9-6.7,15.4-19,15.4h-13.7h-1v1v28.7v1h1h14.1
				c13.5,0,20.3,4.8,20.3,14.4c0,9.2-7.3,14.7-19.5,14.7c-5.3,0-10.4-1.5-14.2-4.2c-4.2-3-6.6-7.1-6.9-12l-0.1-0.9h-0.9H332h-1.1
				l0.1,1.1c1.4,14.6,8.1,27,19.4,35.9c11.6,9.2,27.5,14.1,45.9,14.1c18.8,0,34.8-4.6,46.1-13.2c10.5-8.1,16.3-19.2,16.3-31.4
				c0-17.2-10-29.7-27-34.2c14.5-4.5,23.6-16.8,23.6-32.4c0-15.6-7.7-29.2-21.3-37.4c24.5-14,39.6-40.1,39.6-68.4
				c0-28.2-15.1-54.2-39.5-68.3c18.1-8.9,30-25.8,34.3-49.1l0.2-1.2h-1.2h-43h-0.8l-0.2,0.8c-2.7,14.1-11,21.3-24.7,21.3
				c-19.9,0-30.4-15-30.4-43.3c0-19.7,5.3-43.2,30.4-43.2c13.8,0,22.1,7.2,24.7,21.3l0.2,0.8h0.8h43h1.2l-0.2-1.2
				c-3.2-17.5-10.5-31.2-21.6-40.8c-12-10.4-28.2-15.7-48.1-15.7c-23.2,0-42.8,7.7-56.8,22.3c-13.6,14.2-20.7,33.7-20.7,56.5
				C321.2,286.5,335,311.7,359.1,324.6 M394.8,38.8c-196.6,0-356,159.4-356,356s159.4,356,356,356s356-159.4,356-356
				S591.4,38.8,394.8,38.8L394.8,38.8z M337.1,504.6c1.3-15.8,9.5-30.5,24-39.7C335,452.3,317,425.7,317,394.8
				c0-31,18.1-57.7,44.2-70.2c-24.8-12.4-39.1-37.8-39.1-69.5c0-45.1,29.1-77.8,76.5-77.8c41.1,0,62.6,22.5,68.7,55.6h-43
				c-2.5-13.5-10.3-22.1-25.7-22.1c-20.7,0-31.4,15.8-31.4,44.2c0,28.7,10.8,44.3,31.4,44.3c15.4,0,23.2-8.6,25.7-22.1h43
				c-4.2,22.5-15.6,40.2-35.5,49.2c24.2,13.2,40.7,38.8,40.7,68.4s-16.4,55.2-40.7,68.3c14.8,8.3,22.3,22.2,22.3,37.4
				c0,16.6-10.5,29.3-27,32.4c19.2,3.4,30.3,16.2,30.3,34.1c0,23.4-21.9,43.6-61.3,43.6c-37.7,0-61.5-20.6-64.3-49.1h42.1
				c0.8,11.2,11.4,17.2,22.1,17.2c13.3,0,20.5-6.4,20.5-15.7c0-11.2-8.8-15.4-21.3-15.4h-14.1v-28.7H395c12.4,0,20-5.5,20-16.4
				c0-9.5-6.9-15.8-17.8-15.8c-11.7,0-19.7,6.8-20.4,17.7H337.1L337.1,504.6z"/>
		</g>
		<g>
			<path d="M394.8,22.5c-205.6,0-372.2,166.7-372.2,372.2S189.2,767,394.8,767S767,600.4,767,394.8S600.4,22.5,394.8,22.5z
				 M454.2,500.6c0,16.7-10.5,29.3-27,32.5c19.2,3.4,30.3,16.2,30.3,34.1c0,23.4-21.9,43.6-61.3,43.6c-37.7,0-61.5-20.7-64.3-49.1
				h42.1c0.8,11.2,11.4,17.2,22.1,17.2c13.3,0,20.5-6.4,20.5-15.7c0-11.2-8.8-15.4-21.3-15.4h-14.1v-28.7H395c12.4,0,20-5.5,20-16.4
				c0-9.5-6.9-15.8-17.8-15.8c-11.7,0-19.7,6.8-20.4,17.7h-39.7c1.3-15.8,9.5-30.5,24-39.7C335,452.3,317,425.7,317,394.8
				c0-31,18.1-57.7,44.2-70.2c-24.8-12.4-39.1-37.8-39.1-69.5c0-45.1,29.1-77.8,76.5-77.8c41.1,0,62.6,22.5,68.7,55.6h-43
				c-2.5-13.5-10.3-22.1-25.7-22.1c-20.7,0-31.4,15.8-31.4,44.2c0,28.7,10.8,44.3,31.4,44.3c15.4,0,23.2-8.6,25.7-22.1h43
				c-4.2,22.5-15.6,40.2-35.5,49.2c24.2,13.2,40.7,38.8,40.7,68.4s-16.4,55.2-40.7,68.3C446.6,471.4,454.2,485.3,454.2,500.6z"/>
		</g>
		<g>
			<path class="st0" d="M457.6,567.2c0,23.4-21.9,43.6-61.3,43.6c-37.7,0-61.5-20.7-64.3-49.1h42.1c0.8,11.2,11.4,17.2,22.1,17.2
				c13.3,0,20.5-6.4,20.5-15.7c0-11.2-8.8-15.4-21.3-15.4h-14.1v-28.7H395c12.4,0,20-5.5,20-16.4c0-9.5-6.9-15.8-17.8-15.8
				c-11.7,0-19.7,6.8-20.4,17.7h-39.7c1.3-15.8,9.5-30.5,24-39.7C335,452.3,317,425.7,317,394.8c0-31,18.1-57.7,44.2-70.2
				c-24.8-12.4-39.1-37.8-39.1-69.5c0-45.1,29.1-77.8,76.5-77.8c41.1,0,62.6,22.5,68.7,55.6h-43c-2.5-13.5-10.3-22.1-25.7-22.1
				c-20.7,0-31.4,15.8-31.4,44.2c0,28.7,10.8,44.3,31.4,44.3c15.4,0,23.2-8.6,25.7-22.1h43c-4.2,22.5-15.6,40.2-35.5,49.2
				c24.2,13.2,40.7,38.8,40.7,68.4s-16.4,55.2-40.7,68.3c14.8,8.3,22.3,22.2,22.3,37.4c0,16.7-10.5,29.3-27,32.5
				C446.4,536.4,457.6,549.3,457.6,567.2z"/>
		</g>
	</g>
</g>
</svg>
