<svg enable-background="new 0 0 1020 170" viewBox="0 0 1020 170" xmlns="http://www.w3.org/2000/svg"><path d="m979.7 85c16.4-3.2 27-15.8 27-32.5 0-24.4-19.4-45.3-56.5-45.3-7.4 0-14.1.9-20.2 2.5h-47l-30.6 48.9-30.5-48.8h-71.1v79.6l-49.8-79.6h-54.9v79.6l-31.5-79.6h-49.9l-11.7 29.4c-8.2-19.5-28.3-29.4-57.8-29.4h-94.9l-31.6 79.6-31.5-79.6h-64.5v29.4c-14.1-19.4-37-31.9-62.8-31.9s-48.7 12.6-62.8 31.9c-10.7-19.7-30.3-32-60.6-32-47.4 0-76.5 32.7-76.5 77.8 0 45.3 29.1 77.8 76.5 77.8 30.3 0 49.9-12.4 60.6-32 14.1 19.4 37 32 62.8 32s48.7-12.6 62.8-31.9v29.4h42.6v-94.8l37.5 94.7h31.9l37.5-94.7v94.7h42.6v-46.6h30.8c11.3 0 21.2-1.5 29.6-4.4l-20.2 51h44.1l11.7-29.4h57.8l11.7 29.4h58.5v-95l59.4 95h45.2v-121l37.9 60.6v60.5h42.6v-60.5l27-43.2h28.4c.7-10.8 8.7-17.7 20.4-17.7 10.9 0 17.8 6.2 17.8 15.8 0 10.9-7.5 16.4-20 16.4h-13.7v28.7h14.1c12.4 0 21.3 4.2 21.3 15.4 0 9.3-7.2 15.7-20.4 15.7-10.7 0-21.3-6-22.1-17.2h-42.1c2.7 28.4 26.6 49.1 64.3 49.1 39.4 0 61.3-20.2 61.3-43.6-.2-18-11.4-30.8-30.5-34.2zm-867.5 22.1c-2.5 13.5-10.3 22.1-25.7 22.1-20.7 0-31.4-15.6-31.4-44.3 0-28.4 10.7-44.3 31.4-44.3 15.4 0 23.2 8.6 25.7 22.1h23.2c-2.1 7-3.2 14.4-3.2 22.1s1.1 15.1 3.2 22.1h-23.2z" fill="#fff"/></svg>