<svg xmlns="http://www.w3.org/2000/svg" xmlns:xlink="http://www.w3.org/1999/xlink" id="Layer_1" x="0" y="0" version="1.1" viewBox="0 0 200 480" xml:space="preserve" style="enable-background:new 0 0 200 480"><style type="text/css">.st0{fill:#fff}</style><g><path d="M162.8,413.6c0,23.4-21.9,43.6-61.3,43.6c-37.7,0-61.5-20.7-64.3-49.1h42.1c0.8,11.2,11.4,17.2,22.1,17.2 c13.3,0,20.5-6.4,20.5-15.7c0-11.2-8.8-15.4-21.3-15.4H86.5v-28.7h13.7c12.4,0,20-5.5,20-16.4c0-9.5-6.9-15.8-17.8-15.8 c-11.7,0-19.7,6.8-20.4,17.7H42.3c1.3-15.8,9.5-30.5,24-39.7c-26.1-12.5-44.1-39.2-44.1-70.1c0-31,18.1-57.7,44.2-70.2 c-24.8-12.4-39.1-37.8-39.1-69.5c0-45.1,29.1-77.8,76.5-77.8c41.1,0,62.6,22.5,68.7,55.6h-43c-2.5-13.5-10.3-22.1-25.7-22.1 c-20.7,0-31.4,15.8-31.4,44.2c0,28.7,10.8,44.3,31.4,44.3c15.4,0,23.2-8.6,25.7-22.1h43c-4.2,22.5-15.6,40.2-35.5,49.2 c24.2,13.2,40.7,38.8,40.7,68.4s-16.4,55.2-40.7,68.3c14.8,8.3,22.3,22.2,22.3,37.4c0,16.7-10.5,29.3-27,32.5 C151.6,382.8,162.8,395.7,162.8,413.6z" class="st0"/></g></svg>