<svg xmlns="http://www.w3.org/2000/svg" xmlns:xlink="http://www.w3.org/1999/xlink" id="Layer_1" x="0" y="0" version="1.1" viewBox="0 0 2634 2010" xml:space="preserve" style="enable-background:new 0 0 2634 2010"><style type="text/css">.st0{fill:#231f20}.st1{fill:none;stroke:#231f20;stroke-width:100;stroke-miterlimit:10}</style><g><path d="M1457.9,635.7c-14.1-0.6-14.1-0.6-18.5,11.5c-28.1,81.2-55.6,161.8-83.8,243c-8.3,24.9-17.3,49.9-25.6,74.8 c-3.8,11.5-3.8,11.5-16.6,11.5c-23,0-46,0-69.1,0c-11.5,0-11.5,0-15.3-11.5c-17.9-51.8-35.8-103.6-53.7-155.4 c-17.9-53.1-36.5-106.2-54.4-158.6c-0.6-1.9-1.3-4.5-2.6-6.4c-3.8-9-5.8-9.6-17.9-7.7c0,113.2,0,225.8,0,339.6 c-51.8,0-102.3,0-153.5,0c0-185.5,0-370.3,0-556.4c78.7,0,156.7,0,235.4,0c3.8,3.8,5.8,9,7.7,14.1c21.7,69.1,43.5,137.5,65.2,206.6 c5.1,15.3,9.6,30.7,14.1,46c1.3,4.5,3.8,9,5.8,13.4c1.3,3.2,3.8,5.8,7.7,5.8c4.5,0,6.4-3.2,7.7-7c2.6-7.7,5.1-14.7,7-22.4 c10.2-33.3,19.8-66.5,30.1-99.1c14.7-49.2,30.1-98.5,45.4-147.7c0.6-2.6,1.9-5.8,3.2-9c78.7,0,157.3,0,236.6,0 c1.9,7.7,2.6,542.3,0.6,556.4c-51.8,0-103,0-156,0C1457.9,862.1,1457.9,749.5,1457.9,635.7z" class="st0"/><path d="M1913.9,541c0,31.3,0,61.4,0,92.7c69.1,0,137.5,0,207.2,0c0,38.4,0,76.1,0,114.5c-68.4,0-136.9,0-204.7,0 c-2.6,9-3.8,88.3-1.3,106.8c93.4,0,187.4,0,282,0c0,40.9,0,80.6,0,120.9c-150.9,0-302.5,0-454.1,0c0-184.8,0-370.3,0-555.1 c7.7-2.6,441.3-3.2,456.6-0.6c0,39.7,0,79.3,0,120.9c-31.3,0-62.7,0-94,0c-32,0-64,0-95.9,0C1977.9,541,1946.6,541,1913.9,541z" class="st0"/><path d="M373.3,759.7c50.5,0,101.7,0,152.9,0c2.6,1.9,1.3,5.1,1.9,8.3c0,12.8,0.6,25.6,0,38.4 c-0.6,10.9,4.5,19.2,10.2,26.9c3.8,5.1,9.6,8.3,16.6,8.3c24.3,0,48.6,0,73.5,0c12.2,0,19.2-5.8,21.7-17.3 c1.9-7.7,2.6-15.3,2.6-23.7c0-122.2,0-244.3,0.6-366.5c0-4.5-0.6-9,1.3-14.1c54.4,0,108.7,0,163.1,0c2.6,2.6,1.9,5.8,1.9,8.3 c0,133,0.6,266,0,399.7c0,32-9,62.7-25.6,90.2c-20.5,33.9-51.8,52.4-91.5,56.3c-52.4,5.1-104.2,1.3-156.7,2.6 c-23,0.6-46-0.6-68.4-3.2c-18.5-1.9-35.2-9-49.2-20.5c-30.1-24.3-48-56.3-53.1-94.7c-3.8-32-1.9-64.6-1.9-96.6 C372,761,372.6,761,373.3,759.7z" class="st0"/></g><rect width="2532" height="1908.8" x="51" y="50.6" class="st1"/><path d="M627.3,1260.3H550v76.7h70.2v90.3H550v175.5H449.9v-433.5h177.4V1260.3z M466.1,1183.6v405h67.6v-175.5h70.2	v-61.8h-70.2V1246h77.3v-62.4H466.1z" class="st0"/><path d="M767.1,1602.9H667v-433.5h100.1V1602.9z M683.2,1183.6v405h67.6v-405H683.2z" class="st0"/><path d="M924.4,1515.8h89v87.1H826.2v-433.5h98.2L924.4,1515.8z M842.5,1183.6v405h154.7v-58.5h-89v-346.5H842.5z" class="st0"/><path d="M1179.8,1169.3l36.4,179.4l34.4-179.4H1378v433.5h-94.2v-200.2l-44.2,200.2h-47.4l-44.2-200.2v200.2h-94.2	v-433.5H1179.8z M1070,1588.6h61.8v-321.8l74.1,321.8h20.2l74.1-321.8v321.8h61.8v-404.9H1265l-47.5,242.4l-51.3-242.4h-96.2	L1070,1588.6z" class="st0"/><path d="M1726.5,1333.8v-63.7c0-14.3-5.8-23.4-16.2-23.4c-11,0-18.2,9.1-18.2,23.4V1495c0,22.1,5.2,32.5,16.9,32.5	s17.5-10.4,17.5-32.5v-67.6h98.1v67.6c0,44.2-8.4,69.6-31.2,91c-20.8,19.5-45.5,27.9-82.6,27.9c-78.7,0-117.6-39.6-117.6-118.9	v-224.9c0-69.6,42.9-111.8,114.4-111.8c76.1,0,117,39,117,111.8v63.7H1726.5z M1808.4,1270.1c0-64.3-33.8-97.5-100.1-97.5	c-62.4,0-98.8,35.8-98.8,97.5V1495c0,70.8,32.5,104.6,101.4,104.6c33.1,0,54.6-7.1,72.1-24.7c18.2-18.8,25.4-40.3,25.4-80v-53.3	h-65.6v53.3c0,30.6-11.7,46.8-33.8,46.8s-33.2-16.2-33.2-46.8V1270c0-22.8,13.7-37.7,34.4-37.7c20.2,0,32.5,14.3,32.5,37.7v49.4	h65.6V1270.1z" class="st0"/><path d="M1868.1,1258.4c0-61.1,45.5-100.1,117-100.1c70.8,0,113.7,37.7,113.7,100.1v254.8c0,26.7-11.1,54-28.6,72.2	c-19.5,19.5-46.1,28.6-86.4,28.6c-40.9,0-61.1-6.5-83.9-27.3c-22.8-19.5-31.9-41.6-31.9-73.4L1868.1,1258.4z M2082.6,1258.4	c0-54-36.4-85.8-96.8-85.8c-33.1,0-55.9,7.2-74.1,22.8c-17.6,15.6-27.3,38.3-27.3,63.1v254.8c0,27.3,7.1,44.8,25.4,62.4	c19.5,17.5,37.7,24,71.5,24c39,0,61.1-7.1,78-25.3c14.3-15.6,23.4-39,23.4-61.1L2082.6,1258.4z M1952.6,1268.1	c0-21.4,11.7-34.4,31.2-34.4c18.9,0,31.9,13,31.9,30.6v243.1c0,20.8-11.7,32.5-32.5,32.5c-19.5,0-30.6-11-30.6-32.5V1268.1z M1999.4,1264.2c0-9.8-6.5-16.2-15.6-16.2c-9.8,0-14.9,7.2-14.9,20.2v239.2c0,13,3.9,18.2,14.3,18.2c11.7,0,16.2-5.2,16.2-18.2	V1264.2z" class="st0"/><path d="M2239.9,1512.5v90.3h-98.8v-90.3H2239.9z M2154.1,1589.9h72.8v-64.3h-72.8V1589.9z" class="st0"/></svg>