<svg viewBox="0 0 2664 898.87" xmlns="http://www.w3.org/2000/svg"><g fill="#fff"><path d="m1339.49 890.21-24.33-37.58-24.32 37.58h-34.23l39.09-57.37-36.57-54.53h34.06l22 35.07 21.65-35.07h34.16l-36.41 54.36 38.93 57.54z"/><path d="m192.62 342.83c4.68 3.9 10.92 7.6 18.72 7.6 10.53 0 17.35-6.82 17.35-17.74v-85h33.54v85.42c0 32.17-19.5 47-48 47-13.06 0-25.93-3.12-35.68-11.7z"/><path d="m399.71 377.73v-87.73l-33 87.75h-14.78l-32.76-87.75v87.75h-33.54v-130.09h46.61l27.1 73.72 27.3-73.72h46.61v130.07z"/><path d="m456.64 377.73v-130.07h33.54v130.07z"/><path d="m513.58 377.73v-130.07h33.54v100.82h52.26v29.25z"/><path d="m616.73 377.73v-130.07h33.55v100.82h52.26v29.25z"/><path d="m728.27 334.25a58.77 58.77 0 0 0 41.54 17.16c11.51 0 18.53-4.88 18.53-11.12 0-7.41-8.39-10.33-22.24-13.26-21.45-4.29-51.48-9.75-51.48-40.56 0-21.84 18.53-40.76 51.88-40.76 20.86 0 39 6.24 52.84 18.14l-18.33 24c-10.92-9-25.15-13.45-36.66-13.45-11.12 0-15.41 4.48-15.41 10.14 0 6.82 8 9.17 22.43 11.89 21.45 4.49 51.09 10.73 51.09 40.18 0 26.13-19.3 43.48-54.21 43.48-26.33 0-44.66-8.19-57.72-20.67z"/><path d="m888 377.73v-130.07h95.36v28.28h-61.84v21.64h60.48v28.48h-60.48v23.4h61.81v28.27z"/><path d="m1091.36 377.73-55-78.58v78.58h-33.54v-130.07h34.51l52.67 74.89v-74.89h33.73v130.07z"/><path d="m1176.18 377.73v-100.82h-36.47v-29.25h106.29v29.25h-36.27v100.82z"/><path d="m1262 377.73v-130.07h95.36v28.28h-61.82v21.64h60.46v28.48h-60.45v23.4h61.82v28.27z"/><path d="m1449.37 377.73-21.84-44.07h-17.16v44.07h-33.54v-130.07h65.17c28.86 0 45.24 19.11 45.24 43.29 0 22.63-13.84 34.72-25.93 39l26.52 47.77zm-12.48-101.79h-26.52v29.25h26.52c8.78 0 16.19-5.65 16.19-14.62s-7.41-14.63-16.19-14.63z"/><path d="m1532.83 377.73v-100.82h-36.46v-29.25h106.27v29.25h-36.27v100.82z"/><path d="m1696.44 377.73-6.63-19.73h-54l-6.63 19.69h-36.47l49-130.07h42.12l49.14 130.07zm-33.74-100.82-18.13 52.85h36.43z"/><path d="m1742.45 377.73v-130.07h33.55v130.07z"/><path d="m1887.92 377.73-55-78.58v78.58h-33.54v-130.07h34.52l52.65 74.89v-74.89h33.73v130.07z"/><path d="m2057.77 377.73v-87.73l-33 87.75h-14.77l-32.77-87.75v87.75h-33.54v-130.09h46.61l27.1 73.72 27.3-73.72h46.61v130.07z"/><path d="m2114.7 377.73v-130.07h95.36v28.28h-61.82v21.64h60.46v28.48h-60.46v23.4h61.82v28.27z"/><path d="m2318.09 377.73-55-78.58v78.58h-33.54v-130.07h34.51l52.65 74.89v-74.89h33.74v130.07z"/><path d="m2402.91 377.73v-100.82h-36.47v-29.25h106.28v29.25h-36.27v100.82z"/><path d="m389.05 579.33-3.12 23.4h-29.06l20.13-130.07h36.85l21.06 130.07h-29.48l-3.12-23.4zm20.86 19.11h19.31l-19.7-121.44h-28.27l-18.72 121.44h19.11l3.12-23.4h22zm-24.57-41.34 9.75-63.77 11.31 63.77zm10.14-42.51-4.48 38.22h9.55z"/><path d="m546 500h-23.2v23h21.06v27.1h-21.04v52.65h-30v-130.09h53.18zm-48.36-23v121.44h20.28v-52.65h21.08v-18.52h-21.06v-31.6h23.21v-18.67z"/><path d="m588 602.73h-30v-130.07h30zm-25.21-125.73v121.44h20.28v-121.44z"/><path d="m635.13 576.6h26.72v26.13h-56.16v-130.07h29.44zm-24.57-99.6v121.44h46.44v-17.55h-26.74v-103.89z"/><path d="m711.77 472.66 10.92 53.83 10.31-53.83h38.23v130.07h-28.23v-60.06l-13.26 60.06h-14.27l-13.26-60.06v60.06h-28.27v-130.07zm-33 125.78h18.53v-96.53l22.23 96.53h6l22.23-96.53v96.53h18.53v-121.44h-28.98l-14.23 72.74-15.41-72.74h-28.86z"/><path d="m876.93 472.66c16.38 0 26.72 9.36 26.72 24.18v28.67c0 10.34-1.76 15.41-7.22 20.67-5.26 4.68-10.33 6.63-18.13 6.63h-11.3v49.92h-29.26v-130.07zm-34.32 125.78h19.5v-49.92h16.19c7 0 11.5-1.95 15.79-6.63 3.51-4.09 4.68-8 4.68-16.38v-28.67c0-12.48-8-19.89-21.84-19.89h-34.32zm19.5-102.18c2.15-.2 4.49-.2 5.85-.2 8.39 0 12.48 3.51 12.48 10.92v12.68c0 7.41-3.51 10.34-13.06 10.34-.39 0-3.32 0-5.27-.2zm6.63 29.44c5.27 0 6.83-1.36 6.83-6v-12.7c0-4.68-2-6.63-7-6.63h-1.57v25.33z"/><path d="m961.37 472.66c16.77 0 25.54 7 25.54 20.28v25c0 10.53-1.75 13.45-10.53 17.55a11.67 11.67 0 0 0 -2.53 1.17c1.75 1 3.12 2 3.7 2.34 7.61 4.87 9.36 7.8 9.36 15.6v33.54c0 6.82.59 10.33 2.54 14.62h-21.45c-9.56 0-10.14-.58-10.14-12.28v-31.62c0-5.27-1.76-7.61-5.66-7.61h-4.87v51.48h-30v-130.07zm-39.2 125.78h20.28v-51.44h9.75c7 0 10.53 4.1 10.53 11.9v31.59c0 8 0 8 5.27 8h14.82a72.11 72.11 0 0 1 -.78-10.33v-33.59c0-7.8-1.76-9.75-16.77-18.33 15.6-6.83 16.77-8.19 16.77-18.33v-25c0-10.72-6.63-16-20.67-16h-39.2zm20.28-103.16c11.51 0 12.29 0 14.63 1.56q4.68 2.93 4.68 10v10.53c0 5.07-2 8.58-5.46 10.34-2.34 1-3.32 1.17-13.85 1zm4.88 29.45h1.95c5.65.2 7.6-1.75 7.6-7v-10.94c0-5.27-2-7.22-7.6-7.22h-1.95z"/><path d="m1000.76 499.38c0-18.33 13.65-30 35.1-30 21.25 0 34.12 11.31 34.12 30v76.44a32.07 32.07 0 0 1 -8.58 21.65c-5.85 5.85-13.84 8.58-25.93 8.58-12.29 0-18.33-1.95-25.16-8.19-6.82-5.85-9.55-12.48-9.55-22zm64.35 0c0-16.19-10.92-25.74-29.06-25.74-9.94 0-16.77 2.14-22.23 6.82a25.07 25.07 0 0 0 -8.19 18.92v76.44c0 8.19 2.15 13.46 7.61 18.72 5.85 5.27 11.31 7.22 21.45 7.22 11.7 0 18.33-2.15 23.4-7.61a28.18 28.18 0 0 0 7-18.33zm-39 2.92c0-6.43 3.51-10.33 9.36-10.33 5.65 0 9.55 3.9 9.55 9.16v72.94c0 6.24-3.51 9.75-9.75 9.75-5.85 0-9.16-3.32-9.16-9.75zm14-1.17a4.56 4.56 0 0 0 -4.68-4.87c-2.93 0-4.49 2.14-4.49 6v71.77c0 3.9 1.17 5.46 4.29 5.46 3.51 0 4.88-1.56 4.88-5.46z"/><path d="m1085.58 472.66h39.78c20.67 0 29.84 8.78 29.84 28.28v73.32q0 13.46-6.44 21.06c-4.87 5.66-10.33 7.41-22.42 7.41h-40.76zm40.76 125.78c10.72 0 15-1.36 18.91-6.24 3.32-4.09 5.07-10.14 5.07-17.94v-73.32c0-17.16-7.21-24-25-24h-34.9v121.5zm-14.82-101.79h7.41c7.8 0 11.31 4.09 11.31 13.06v58.12c0 9.55-2.93 12.87-11.31 12.87h-7.41zm7.41 79.76c5.46 0 6.43-1.37 6.43-8.58v-58.12c0-6.43-1.75-8.77-6.43-8.77h-2.54v75.47z"/><path d="m1199.07 472.66v98.09c0 6.44 1.36 8.39 5.26 8.39 4.1 0 5.46-2.15 5.46-8.39v-98.09h29.64v101.21c0 11.31-2.92 18.33-9.94 24.18-6.63 5.46-14.82 8-25.74 8-21.65 0-34.71-10.92-34.71-29.06v-104.33zm-25.16 104.34c0 15.6 10.92 24.77 29.84 24.77 9.94 0 17.16-2.34 22.81-7.22 5.66-5.07 8-10.92 8-20.67v-96.88h-19.89v93.8c0 8.58-3.32 12.68-10.14 12.68-7.22 0-10.34-3.71-10.34-12.68v-93.8h-20.28z"/><path d="m1293.06 522v-19.11c0-4.29-1.76-7-4.88-7-3.31 0-5.46 2.73-5.46 7v67.47c0 6.63 1.56 9.75 5.07 9.75s5.27-3.12 5.27-9.75v-20.28h29.44v20.28c0 13.26-2.53 20.87-9.36 27.3-6.24 5.85-13.65 8.39-24.76 8.39-23.6 0-35.3-11.9-35.3-35.69v-67.47c0-20.87 12.87-33.54 34.32-33.54 22.82 0 35.1 11.7 35.1 33.54v19.11zm24.57-19.11c0-19.31-10.14-29.25-30-29.25-18.72 0-29.64 10.72-29.64 29.25v67.47c0 21.26 9.75 31.4 30.42 31.4 9.94 0 16.38-2.15 21.64-7.41 5.46-5.66 7.61-12.09 7.61-24v-16h-19.7v16c0 9.17-3.51 14-10.14 14s-9.94-4.87-9.94-14v-67.46c0-6.83 4.09-11.31 10.33-11.31 6 0 9.75 4.29 9.75 11.31v14.82h19.7z"/><path d="m1402.45 472.66v27.69h-19.7v102.38h-29.44v-102.38h-20.09v-27.69zm-64.35 23.4h20.08v102.38h19.7v-102.38h19.7v-19.06h-59.48z"/><path d="m1444.57 602.73h-30v-130.07h30zm-25.16-125.73v121.44h20.28v-121.44z"/><path d="m1460.36 499.38c0-18.33 13.65-30 35.1-30 21.26 0 34.13 11.31 34.13 30v76.44a32.12 32.12 0 0 1 -8.58 21.65c-5.85 5.85-13.85 8.58-25.94 8.58-12.28 0-18.33-1.95-25.15-8.19-6.83-5.85-9.56-12.48-9.56-22zm64.35 0c0-16.19-10.92-25.74-29-25.74-10 0-16.77 2.14-22.23 6.82a25 25 0 0 0 -8.19 18.92v76.44c0 8.19 2.14 13.46 7.6 18.72 5.85 5.27 11.31 7.22 21.45 7.22 11.7 0 18.33-2.15 23.4-7.61a28.18 28.18 0 0 0 7-18.33zm-39 2.92c0-6.43 3.51-10.33 9.36-10.33 5.66 0 9.56 3.9 9.56 9.16v72.94c0 6.24-3.51 9.75-9.75 9.75-5.85 0-9.17-3.32-9.17-9.75zm14-1.17a4.56 4.56 0 0 0 -4.68-4.87c-2.92 0-4.48 2.14-4.48 6v71.77c0 3.9 1.17 5.46 4.29 5.46 3.51 0 4.87-1.56 4.87-5.46z"/><path d="m1573.85 472.66 13.46 46.61-.59-46.61h28.28v130.07h-28.28l-13.84-45.82.58 45.82h-28.27v-130.07zm-23.79 125.78h18.53v-71l21.84 71h19.69v-121.44h-18.52v72.74l-21.6-72.74h-19.89z"/><path d="m1719.32 522v-19.11c0-4.29-1.75-7-4.87-7-3.32 0-5.46 2.73-5.46 7v67.47c0 6.63 1.56 9.75 5.07 9.75s5.26-3.12 5.26-9.75v-20.28h29.45v20.28c0 13.26-2.54 20.87-9.36 27.3-6.24 5.85-13.65 8.39-24.77 8.39-23.6 0-35.3-11.9-35.3-35.69v-67.47c0-20.87 12.87-33.54 34.33-33.54 22.81 0 35.1 11.7 35.1 33.54v19.11zm24.57-19.11c0-19.31-10.14-29.25-30-29.25-18.72 0-29.64 10.72-29.64 29.25v67.47c0 21.26 9.75 31.4 30.42 31.4 9.95 0 16.38-2.15 21.65-7.41 5.46-5.66 7.6-12.09 7.6-24v-16h-19.72v16c0 9.17-3.51 14-10.14 14s-10-4.87-10-14v-67.46c0-6.83 4.1-11.31 10.34-11.31 6 0 9.75 4.29 9.75 11.31v14.82h19.69z"/><path d="m1761.83 499.38c0-18.33 13.65-30 35.1-30 21.25 0 34.12 11.31 34.12 30v76.44a32.07 32.07 0 0 1 -8.58 21.65c-5.85 5.85-13.84 8.58-25.93 8.58-12.29 0-18.33-1.95-25.16-8.19-6.82-5.85-9.55-12.48-9.55-22zm64.35 0c0-16.19-10.92-25.74-29.06-25.74-9.94 0-16.77 2.14-22.23 6.82a25.07 25.07 0 0 0 -8.19 18.92v76.44c0 8.19 2.15 13.46 7.61 18.72 5.85 5.27 11.31 7.22 21.45 7.22 11.7 0 18.33-2.15 23.4-7.61a28.18 28.18 0 0 0 7-18.33zm-39 2.92c0-6.43 3.51-10.33 9.36-10.33 5.65 0 9.55 3.9 9.55 9.16v72.94c0 6.24-3.51 9.75-9.75 9.75-5.85 0-9.16-3.32-9.16-9.75zm14-1.17a4.56 4.56 0 0 0 -4.68-4.87c-2.93 0-4.49 2.14-4.49 6v71.77c0 3.9 1.17 5.46 4.29 5.46 3.51 0 4.88-1.56 4.88-5.46z"/><path d="m1884.48 472.66 10.92 53.83 10.34-53.83h38.26v130.07h-28.28v-60.06l-13.26 60.06h-14.23l-13.26-60.06v60.06h-28.28v-130.07zm-33 125.78h18.52v-96.53l22.23 96.53h6l22.23-96.53v96.53h18.52v-121.44h-29l-14.24 72.74-15.35-72.74h-28.86z"/><path d="m2000.9 472.66c16.38 0 26.71 9.36 26.71 24.18v28.67c0 10.34-1.75 15.41-7.21 20.67-5.27 4.68-10.34 6.63-18.14 6.63h-11.26v49.92h-29.3v-130.07zm-34.33 125.78h19.51v-49.92h16.18c7 0 11.51-1.95 15.8-6.63 3.51-4.09 4.68-8 4.68-16.38v-28.67c0-12.48-8-19.89-21.84-19.89h-34.33zm19.51-102.18c2.14-.2 4.48-.2 5.85-.2 8.38 0 12.48 3.51 12.48 10.92v12.68c0 7.41-3.51 10.34-13.07 10.34-.39 0-3.31 0-5.26-.2zm6.63 29.44c5.26 0 6.82-1.36 6.82-6v-12.7c0-4.68-2-6.63-7-6.63h-1.53v25.33z"/><path d="m2063.88 579.33-3.12 23.4h-29.06l20.09-130.07h36.86l21.06 130.07h-29.45l-3.12-23.4zm20.87 19.11h19.3l-19.69-121.44h-28.28l-18.72 121.49h19.11l3.12-23.4h22zm-24.57-41.34 9.75-63.77 11.31 63.77zm10.14-42.51-4.49 38.22h9.56z"/><path d="m2147.53 472.66 13.47 46.61-.59-46.61h28.28v130.07h-28.29l-13.84-45.82.58 45.82h-28.27v-130.07zm-23.79 125.78h18.53v-71l21.84 71h19.7v-121.44h-18.53v72.74l-21.65-72.74h-19.89z"/><path d="m2240.16 521.41 9.94-48.75h30l-25.1 85.42v44.65h-29.25v-44.65l-25.94-85.42h30.62zm-33.93-44.41 24.37 80.54v41h19.5v-41l23.6-80.54h-19.5l-14.2 65.48-13.69-65.48z"/></g><path d="m1170 832.67h-1143v-810h2610v810h-1179" fill="none" stroke="#fff" stroke-miterlimit="10" stroke-width="30"/></svg>