<svg id="Layer_1" data-name="Layer 1" xmlns="http://www.w3.org/2000/svg" viewBox="0 0 1169 253.5"><defs><style>.cls-1{fill:#fff;}.cls-2{fill:none;stroke:#fff;stroke-miterlimit:10;stroke-width:7px;}</style></defs><path class="cls-1" d="M103.8,86.34c10.5,0,17.13,6,17.13,15.5v18.37c0,6.63-1.13,9.88-4.63,13.25-3.37,3-6.62,4.25-11.62,4.25H97.43v32H78.68V86.34ZM81.8,167H94.3V135h10.38c4.5,0,7.37-1.25,10.12-4.25,2.25-2.62,3-5.12,3-10.5V101.84c0-8-5.12-12.75-14-12.75h-22Zm12.5-65.5c1.38-.12,2.88-.12,3.75-.12,5.38,0,8,2.25,8,7v8.12c0,4.75-2.25,6.63-8.37,6.63-.25,0-2.13,0-3.38-.13Zm4.25,18.88c3.38,0,4.38-.88,4.38-3.88v-8.12c0-3-1.25-4.25-4.5-4.25h-1v16.25Z"/><path class="cls-1" d="M148.55,153h17.13v16.75h-36V86.34h18.87ZM132.8,89.09V167h29.75V155.71H145.43V89.09Z"/><path class="cls-1" d="M191.43,154.71l-2,15H170.8l12.88-83.37H207.3l13.5,83.37H201.93l-2-15ZM204.8,167h12.38L204.55,89.09H186.43l-12,77.87h12.25l2-15H202.8Zm-15.75-26.5,6.25-40.87,7.25,40.87Zm6.5-27.25-2.87,24.5h6.12Z"/><path class="cls-1" d="M244.43,117.59l6.37-31.25h19.25l-16.12,54.75v28.62H235.18V141.09L218.55,86.34h19.63Zm-21.75-28.5,15.62,51.62V167h12.5V140.71l15.13-51.62h-12.5l-9.13,42-8.75-42Z"/><path class="cls-1" d="M937.61,86.34v17.75H925v65.62H906.11V104.09H893.24V86.34Zm-41.25,15h12.88V167h12.62V101.34h12.63V89.09H896.36Z"/><path class="cls-1" d="M944.74,103.46c0-11.75,8.75-19.25,22.5-19.25s21.87,7.25,21.87,19.25v49a20.55,20.55,0,0,1-5.5,13.88c-3.75,3.75-8.87,5.5-16.62,5.5s-11.75-1.25-16.13-5.25c-4.37-3.75-6.12-8-6.12-14.13Zm41.25,0c0-10.37-7-16.5-18.63-16.5-6.37,0-10.75,1.38-14.25,4.38a16.06,16.06,0,0,0-5.25,12.12v49c0,5.25,1.38,8.63,4.88,12,3.75,3.38,7.25,4.63,13.75,4.63,7.5,0,11.75-1.38,15-4.88a18.07,18.07,0,0,0,4.5-11.75Zm-25,1.88c0-4.13,2.25-6.63,6-6.63a5.78,5.78,0,0,1,6.12,5.88v46.75c0,4-2.25,6.25-6.25,6.25-3.75,0-5.87-2.13-5.87-6.25Zm9-.75a2.92,2.92,0,0,0-3-3.13c-1.88,0-2.88,1.38-2.88,3.88v46c0,2.5.75,3.5,2.75,3.5,2.25,0,3.13-1,3.13-3.5Z"/><path class="cls-1" d="M1017.11,86.34v62.87c0,4.13.87,5.38,3.37,5.38s3.5-1.38,3.5-5.38V86.34h19v64.87c0,7.25-1.87,11.75-6.37,15.5-4.25,3.5-9.5,5.13-16.5,5.13-13.88,0-22.25-7-22.25-18.63V86.34ZM1001,153.21c0,10,7,15.88,19.13,15.88,6.37,0,11-1.5,14.62-4.63s5.13-7,5.13-13.25V89.09h-12.75v60.12c0,5.5-2.13,8.13-6.5,8.13-4.63,0-6.63-2.38-6.63-8.13V89.09h-13Z"/><path class="cls-1" d="M1081.23,86.34c10.75,0,16.38,4.5,16.38,13v16c0,6.75-1.13,8.62-6.75,11.25a7.39,7.39,0,0,0-1.63.75c1.13.62,2,1.25,2.38,1.5,4.87,3.12,6,5,6,10v21.5c0,4.37.37,6.62,1.62,9.37h-13.75c-6.12,0-6.5-.37-6.5-7.87V141.59c0-3.38-1.12-4.88-3.62-4.88h-3.13v33H1053V86.34ZM1056.11,167h13V134h6.25c4.5,0,6.75,2.63,6.75,7.63v20.25c0,5.12,0,5.12,3.37,5.12h9.5a46.18,46.18,0,0,1-.5-6.62v-21.5c0-5-1.12-6.25-10.75-11.75,10-4.38,10.75-5.25,10.75-11.75v-16c0-6.88-4.25-10.25-13.25-10.25h-25.12Zm13-66.12c7.37,0,7.87,0,9.37,1q3,1.88,3,6.37V115c0,3.25-1.25,5.5-3.5,6.63-1.5.62-2.12.75-8.87.62Zm3.12,18.87h1.25c3.63.13,4.88-1.12,4.88-4.5v-7c0-3.37-1.25-4.62-4.88-4.62h-1.25Z"/><rect class="cls-2" x="9.45" y="11.42" width="1150" height="233.76"/><path class="cls-1" d="M365.44,141.56a37.39,37.39,0,0,0,26.41,10.91c7.32,0,11.78-3.1,11.78-7.07,0-4.71-5.33-6.57-14.13-8.43-13.64-2.73-32.74-6.2-32.74-25.79,0-13.89,11.78-25.92,33-25.92,13.26,0,24.8,4,33.6,11.54l-11.66,15.25a38.38,38.38,0,0,0-23.31-8.56c-7.06,0-9.79,2.85-9.79,6.45,0,4.34,5.08,5.83,14.26,7.56,13.64,2.85,32.48,6.82,32.48,25.54,0,16.62-12.27,27.66-34.47,27.66-16.74,0-28.39-5.21-36.7-13.15Z"/><path class="cls-1" d="M453.23,169.21V105.1H430.05V86.5h67.57v18.6H474.56v64.11Z"/><path class="cls-1" d="M507.79,86.5h21.7V135c0,9.79,5.21,16.86,16.74,16.86s16.62-7.07,16.62-16.86V86.5h21.7v49.11c0,20.58-11.78,35.09-38.32,35.09s-38.44-14.64-38.44-35Z"/><path class="cls-1" d="M599.43,169.21V86.5h34.72c26,0,44.76,15.63,44.76,41.29s-18.72,41.42-44.64,41.42Zm21.33-18.6h13.39c14.5,0,22.94-10.54,22.94-22.82,0-12.77-7.69-22.69-22.82-22.69H620.76Z"/><path class="cls-1" d="M689.58,169.21V86.5H710.9v82.71Z"/><path class="cls-1" d="M765.83,85.14c25.3,0,44.15,17.61,44.15,42.78s-18.85,42.78-44.15,42.78-44.26-17.61-44.26-42.78S740.54,85.14,765.83,85.14Zm0,18.85c-13.76,0-22.56,10.41-22.56,23.93s8.8,23.93,22.56,23.93,22.45-10.54,22.45-23.93S779.47,104,765.83,104Z"/></svg>