<svg id="Layer_1" data-name="Layer 1" xmlns="http://www.w3.org/2000/svg" viewBox="0 0 1169 200.5"><defs><style>.cls-1{fill:#fff;}.cls-2{fill:none;stroke:#fff;stroke-miterlimit:10;stroke-width:7px;}</style></defs><path class="cls-1" d="M90.55,67.22,96,107.43l5.5-40.21h15.2l-12,66.71H87.45L75.25,67.22Zm-.9,64.51h12.8l11.2-62.31h-9.9L96,121.63l-7.6-52.21H78.25Z"/><path class="cls-1" d="M137.85,133.93h-15.4V67.22h15.4ZM125,69.42v62.31h10.4V69.42Z"/><path class="cls-1" d="M174.05,81.32h-11.9v11.8h10.9V107h-10.9v13h11.9v13.9H147V67.22h27.1Zm-24.6-11.9v62.31h22.1v-9.5h-11.9v-17.4h10.9V95.32h-10.9V79.12h11.9v-9.7Z"/><path class="cls-1" d="M193.84,67.22l2.91,30.71,5.3-30.71h10.8l5.7,30.71,2.5-30.71h14.6L228,133.93H213l-5.6-30.3-5.2,30.3H187.34l-8.2-66.71Zm-4.2,64.51H200l7.4-42.31,7.8,42.31h10.5l7.2-62.31h-9.4l-4,45.21-8.7-45.21h-6.6l-8.21,45.21-4.5-45.21h-9.5Z"/><path class="cls-1" d="M967.37,88.71v-7.3a2.24,2.24,0,0,0-2.4-2.5c-1.7,0-2.8,1.2-2.8,3.2V86a5.74,5.74,0,0,0,3.2,5.6c.7.4,1.1.6,2,1.1l6.6,4.2c4.4,2.7,4.4,2.8,5.8,4.6a12.06,12.06,0,0,1,2.6,7.6v9.2c0,11-6.4,17.2-17.9,17.2-10.8,0-17.3-5.7-17.3-15.2v-8.4h15v6.4c0,2.7.8,3.7,2.9,3.7,1.7,0,2.3-.9,2.3-3.7v-4.9c0-1.9-.3-2.8-1.5-3.8a25.08,25.08,0,0,0-3.7-2.7l-6.7-3.7c-5.9-3.3-8.3-6.8-8.3-12v-9.8c0-10,6.7-16,17.7-16,10.7,0,17.5,6.2,17.5,16v7.3Zm12.5-7.3c0-8.5-5.8-13.8-15-13.8-5.5,0-9.3,1.4-11.9,4.4a14.34,14.34,0,0,0-3.3,9.4v9.8c0,4.4,2,7.2,6.9,10l6.7,3.7c4.9,2.8,6.6,4.9,6.6,8.5v4.9c0,4.1-1.5,5.9-4.9,5.9s-5.3-2-5.3-5.9v-4.2h-10v6.2c0,8.2,5.4,13,14.7,13,10.1,0,15.5-5.2,15.5-15v-9.2a10.66,10.66,0,0,0-2-6.2c-1.1-1.5-1.3-1.7-5.1-4.1l-6.6-4.1c-.3-.2-1-.6-2-1.2-3.2-1.8-4.5-4-4.5-7.5v-3.9a5,5,0,0,1,5.2-5.4c3,0,5,1.9,5,4.7v5.1h10Z"/><path class="cls-1" d="M1004.57,133.81h-15.4V67.11h15.4Zm-12.9-64.5v62.3h10.4V69.31Z"/><path class="cls-1" d="M1046.37,67.11v14.2h-10.1v52.5h-15.1V81.31h-10.3V67.11Zm-33,12h10.3v52.5h10.1V79.11h10.1v-9.8h-30.5Z"/><path class="cls-1" d="M1079.67,81.21h-11.9V93h10.9v13.9h-10.9v13h11.9v13.9h-27.1V67.11h27.1Zm-24.6-11.9v62.3h22.1v-9.5h-11.9v-17.4h10.9v-9.5h-10.9V79h11.9v-9.7Z"/><rect class="cls-2" x="9.21" y="9" width="1150" height="182"/><path class="cls-1" d="M302,134.2V67.5h28c21,0,36.1,12.6,36.1,33.3s-15.1,33.4-36,33.4Zm17.21-15H330c11.7,0,18.5-8.5,18.5-18.4,0-10.3-6.2-18.3-18.4-18.3h-10.9Z"/><path class="cls-1" d="M374.65,134.2V67.5h17.2v66.7Z"/><path class="cls-1" d="M441.06,134.2l-11.21-22.6h-8.8v22.6h-17.2V67.5h33.4c14.81,0,23.21,9.8,23.21,22.2,0,11.6-7.1,17.8-13.3,20l13.6,24.5ZM434.65,82h-13.6V97h13.6c4.51,0,8.31-2.9,8.31-7.5S439.16,82,434.65,82Z"/><path class="cls-1" d="M470,134.2V67.5h48.91V82H487.15V93.1h31v14.6h-31v12h31.71v14.5Z"/><path class="cls-1" d="M525.45,100.9c0-20.6,15.6-34.5,35.6-34.5,16.6,0,25.2,9.1,29.61,17.9l-14.81,7a16.18,16.18,0,0,0-14.8-9.7c-10.4,0-18.1,8.4-18.1,19.3s7.7,19.3,18.1,19.3a16.18,16.18,0,0,0,14.8-9.7l14.81,7c-4.31,8.6-13,17.9-29.61,17.9C541.05,135.4,525.45,121.4,525.45,100.9Z"/><path class="cls-1" d="M613,134.2V82.5h-18.7v-15h54.5v15h-18.6v51.7Z"/><path class="cls-1" d="M687.05,66.4c20.4,0,35.6,14.2,35.6,34.5s-15.2,34.5-35.6,34.5-35.7-14.2-35.7-34.5S666.65,66.4,687.05,66.4Zm0,15.2c-11.1,0-18.2,8.4-18.2,19.3s7.1,19.3,18.2,19.3,18.1-8.5,18.1-19.3S698.05,81.6,687.05,81.6Z"/><path class="cls-1" d="M768.55,134.2l-11.2-22.6h-8.8v22.6h-17.2V67.5h33.4c14.8,0,23.2,9.8,23.2,22.2,0,11.6-7.1,17.8-13.3,20l13.6,24.5ZM762.15,82h-13.6V97h13.6c4.5,0,8.3-2.9,8.3-7.5S766.65,82,762.15,82Z"/><path class="cls-1" d="M796.25,93.2c3.2-1.6,7.4-5.9,8.5-9.6a6.8,6.8,0,0,1-2.3.4c-4.3,0-7.8-3.3-7.8-8.3a9.24,9.24,0,0,1,9.2-9.2c5.4,0,10.2,4.2,10.2,11.6,0,8.1-4.4,15.3-11.4,20.3Z"/><path class="cls-1" d="M827.75,111.9a30.14,30.14,0,0,0,21.3,8.8c5.9,0,9.5-2.5,9.5-5.7,0-3.8-4.3-5.3-11.4-6.8-11-2.2-26.4-5-26.4-20.8,0-11.2,9.5-20.9,26.6-20.9,10.7,0,20,3.2,27.1,9.3l-9.4,12.3a31,31,0,0,0-18.8-6.9c-5.7,0-7.9,2.3-7.9,5.2,0,3.5,4.1,4.7,11.5,6.1,11,2.3,26.2,5.5,26.2,20.6,0,13.4-9.9,22.3-27.8,22.3-13.5,0-22.9-4.2-29.6-10.6Z"/></svg>