<svg viewBox="0 0 200 279" xmlns="http://www.w3.org/2000/svg"><path d="m100 276.5a6.42 6.42 0 0 1 -4.19-1.5l-72.63-115.47-8.09-12.84a65 65 0 0 1 -5.43-10.49 97.52 97.52 0 0 1 90.34-134.2h1.4a97.54 97.54 0 0 1 89 134.11 67.23 67.23 0 0 1 -5.54 10.67l-80.66 128.22a6.43 6.43 0 0 1 -4.2 1.5z"/><g fill="#fff"><path d="m100 3h1.39a96.55 96.55 0 0 1 88.07 132.74v.06a66.67 66.67 0 0 1 -5.46 10.46l-8 12.74-70.48 112-2.08 3.31a5.46 5.46 0 0 1 -6.87 0l-2.09-3.31-70.48-112-8.08-12.84a64.24 64.24 0 0 1 -5.37-10.36 96.54 96.54 0 0 1 89.45-132.8m0-2a98.53 98.53 0 0 0 -91.3 135.5v.07a65.15 65.15 0 0 0 5.52 10.65l8.08 12.84 70.49 111.94 2.21 3.61a7.45 7.45 0 0 0 9.93 0l2.24-3.56 70.48-111.95 8-12.78a68.1 68.1 0 0 0 5.59-10.75v-.07a98.3 98.3 0 0 0 7.1-41.22c-2.17-51.93-45-93.54-97-94.27z"/><path d="m45.57 114.26 2.67 1.64.39-.23a6.23 6.23 0 0 0 -.8-1.66c-1.43-1.53-3-3-4.44-4.45a10.89 10.89 0 0 1 -3-6.39c-.62-5.08-1-10.19-1.38-15.3a5.93 5.93 0 0 1 .35-2c.91-3 1.85-5.91 2.78-8.86l-.45-.2-1.75 2.53a46 46 0 0 1 2.55-11.17c.49-1.4.94-2.81 1.5-4.17 2.91-7 7.71-12.68 13.41-17.57a61 61 0 0 1 27.85-13.57 67.91 67.91 0 0 1 22.65-1.2 62.79 62.79 0 0 1 14 3.57 69 69 0 0 1 17.35 9.46 26.11 26.11 0 0 1 6.37 7.93 12 12 0 0 0 1.84 2.59 15.09 15.09 0 0 1 3.21 4.79 42.32 42.32 0 0 0 2.64 4.55 23.36 23.36 0 0 1 3.43 8.86c.4 2.71.92 5.41 1.37 8.12a3.9 3.9 0 0 1 0 1.08 13 13 0 0 0 -.26 2c.42 9.14-1.76 18-2.55 27.06a38.16 38.16 0 0 1 -1.27 6 3 3 0 0 0 .29 2.69 7.55 7.55 0 0 1 1 6.34 10 10 0 0 0 .1 3.49c.3 2.16.3 4.18-1.08 6.07a13.36 13.36 0 0 1 -7.11 5.38 3.68 3.68 0 0 1 -2.27.05 7 7 0 0 0 -6.59.82 16.22 16.22 0 0 0 -7.59 10.5 2.55 2.55 0 0 0 -.13.85c.42 2.66-.2 5.41.78 8a3 3 0 0 1 -.43 3.14 4 4 0 0 0 -.57 1.84c-.17 1.3-.84 1.84-2.1 1.4-1-.35-1.93-.7-2.94-.1a.41.41 0 0 1 -.36 0c-2-1.07-4.2-.8-6.28-1.31-.16 0-.31-.2-.45-.18-2.94.26-5.8-.93-8.73-.45a26.6 26.6 0 0 1 -3.37.63 15.25 15.25 0 0 1 -2.92-.58 2.75 2.75 0 0 0 -1.44-.07 9 9 0 0 1 -6.36.57 1.51 1.51 0 0 0 -.7 0 23.68 23.68 0 0 1 -2.6.57c-1.35.14-2.55.95-4.06.59-.74-.18-1.69.7-2.58.92s-1.58.05-2.35.17c-1.94.28-3.86.62-5.79.94-.08 0-.17 0-.24 0-2 1-3-.44-4-1.65a4 4 0 0 1 -.25-4.22 11.36 11.36 0 0 0 .61-6.41c-.55-4.87-3.23-8.14-7.3-10.42a8.23 8.23 0 0 0 -3.08-.65c-3.45-.37-6.93-.54-9.81-2.88a4.56 4.56 0 0 1 -1.94-4.13c.12-1.71 0-3.43 0-5.15a2 2 0 0 0 0-.49q-1.61-5.52-3.23-11c-.82-2.84-1.66-5.6-2.59-8.68zm10.13-32.65.67-.14a27.53 27.53 0 0 1 1.25 3c1.2 4.35.77 8.7-.11 13-.64 3.21-2.12 6.24-1.9 9.62a41.81 41.81 0 0 1 0 4.19 6.39 6.39 0 0 1 -1.25 3.9 5.17 5.17 0 0 0 -1.1 2.93c0 3.28.27 6.55.36 9.83a30.62 30.62 0 0 1 -.11 6.21c-.62 3.46.4 6.24 3.52 7.82 1.48.75 3.11 1.74 4.66 1.71a15.82 15.82 0 0 1 7.53 2.32 11.53 11.53 0 0 1 3.34 3 20.57 20.57 0 0 1 3.79 8.21c.25.94.85 1.66 1.71 1.22 3.42-1.77 7.48-.78 10.84-2.69.16-.1.41-.05.6-.12 1.76-.71 3.53-1.42 5.29-2.16a13.6 13.6 0 0 1 2-.94c1.39-.33 2.82-.5 4.23-.73.57-.1 1.21-.4 1.69-.23 3.16 1.08 6.87.45 9.56 3a.74.74 0 0 0 .34.14c3.09.8 6.17 1.65 9.28 2.38a4.72 4.72 0 0 0 4.61-1.39 9.21 9.21 0 0 0 2.32-5.29c.44-2.46 2-4.11 3.34-5.91a17.49 17.49 0 0 1 3.62-3.45 11.31 11.31 0 0 1 8-2.55c2 .19 3.75-.72 5.62-1a1.81 1.81 0 0 0 .81-.53 7.93 7.93 0 0 0 2.64-7.33c-.45-2.2-.1-4.26-.22-6.37a21.34 21.34 0 0 0 -.73-3.48c0-.14-.22-.24-.3-.37a14.66 14.66 0 0 1 -1.41-2.37 14.89 14.89 0 0 1 -1.13-5.12c0-2.82-.84-5.63-1.34-8.44a4 4 0 0 0 -.39-1.16 1.17 1.17 0 0 0 -.58-.56c-2.08-.72-2.88-2.26-3-4.34a3.81 3.81 0 0 0 -.27-1.55 12.52 12.52 0 0 1 -1.16-6.23 10.09 10.09 0 0 0 -.17-1.44c0-.65-.31-1.41-.07-1.93 1-2.32 2.21-4.58 3.42-6.82.29-.54.91-.89 1.55-1.5.54 4.88 1 9.38 1.53 13.88h.24v-5h.23q.83 3.42 1.67 6.84h.28q-.34-5-.67-9.94c.82 2 .81 4.08 1.7 6.09.74 1.66.48 3.76.65 5.67v1.23h.32c1.06-3.88 2.32-7.74 1.69-11.89-.51-3.41-1-6.82-1.63-10.21-.46-2.5-.7-5.11-1.67-7.41a51.15 51.15 0 0 0 -18.72-22.39 46.49 46.49 0 0 0 -11.13-6c-2.85-1-5.63-2.21-8.44-3.35-1.27-.51-2.56-1-3.79-1.61a9.59 9.59 0 0 0 -6.92-.58 13.31 13.31 0 0 1 -1.71.5c-3 .39-6.07.53-9 1.1-17.6 3.41-31.48 12.7-42.16 27a16.19 16.19 0 0 0 -3 6.59 39.08 39.08 0 0 0 -.69 15.15c.43 2.35.71 4.72 1.06 7.09l.22-.09 1.78-4.23c-.7 5-.89 12.87 0 15.36-.1-4.84.17-9.31 2.17-13.47v16.06h.46c.08-1 .2-1.92.23-2.89.1-3.49.11-7 .29-10.47a20 20 0 0 1 .79-3.52 16.14 16.14 0 0 1 .17 3.76c-.09 1.2-.36 2.4-.55 3.6 2.98-3.94 4.42-8.25 3.25-13.21zm50.57 84.13c2.87 0 3.87-1.4 2.89-4.11-.18-.5-.39-1-.56-1.49-.69-2.08-2-2.64-4.51-1.92-1.87.52-2.38 1.53-1.87 3.68 0 .24.11.48.14.72.33 2.75.68 2.62 3.18 3.11a3.55 3.55 0 0 0 .73.01zm-8 .48a30.69 30.69 0 0 0 3-.9 1.25 1.25 0 0 0 .54-1 31.58 31.58 0 0 0 -.7-3.74c-.38-1.58-1.62-2.2-3.57-1.91-1.73.25-2.46 1.09-2.38 2.8a20.83 20.83 0 0 0 .21 2.09c.32 2.37.42 2.44 2.85 2.66zm-5.91.25 1.18-.21c1-.19 1.64-.6 1.21-1.83s-.83-2.66-1.16-4c-.28-1.14-1-1.36-2-1.14a1.77 1.77 0 0 0 -1.62 1.86c0 1.21.3 2.42.27 3.63-.11 1.5.84 1.6 2.07 1.69zm18.1-1.17a8.4 8.4 0 0 0 2.39-.06c.53-.15 1.33-.94 1.27-1.32a23.78 23.78 0 0 0 -1.26-4.77 1.55 1.55 0 0 0 -2.24-.87 1.87 1.87 0 0 0 -.92 2.3c.21 1.5.43 3.01.71 4.72zm3.9-4 .21.08c.12 1 .26 1.95.36 2.92.12 1.29.6 1.74 1.83 1.64s2-.82 1.83-2a17.51 17.51 0 0 0 -.75-3.2 2.82 2.82 0 0 0 -1.06-1.44c-.41-.25-1.33-.32-1.56-.06a6.89 6.89 0 0 0 -.91 2.08zm-24 5.83c-.25-.67-.42-1.12-.57-1.57-.48-1.43-.88-2.88-1.43-4.26a.78.78 0 0 0 -1.4-.2c-.69.79-.73 4 0 4.71a7.24 7.24 0 0 0 2.12 1.1 5.12 5.12 0 0 0 1.19.24zm36.67-1.7a22.18 22.18 0 0 0 -1.32-2.33 4.29 4.29 0 0 0 -1.23-.86 6.7 6.7 0 0 0 -.53 1.82 8.49 8.49 0 0 0 .45 2.37 1.28 1.28 0 0 0 .72.77c.88.28 1.54-.38 1.82-1.75zm-7.72.69a3.43 3.43 0 0 0 .52.07c1.51.06 1.73-.18 1.52-1.68a19.55 19.55 0 0 0 -.45-2.65 7.94 7.94 0 0 0 -.91-1.59h-.48a7.32 7.32 0 0 0 -.48 1.82c-.09 1.31.07 2.56.19 4.05zm-32.21 1.33-2.34-4.56c-1.36 1-1.46 1.37-.91 2.84a3.2 3.2 0 0 1 .34 1.16c-.07 1.09.63 1.12 1.35 1a9.07 9.07 0 0 0 1.56-.44zm-6.29 1.28c-.75-1.29-1.34-2.35-2-3.38-.15-.24-.46-.56-.65-.54a1.1 1.1 0 0 0 -.68.58 2.06 2.06 0 0 0 -.32 1.28c.3.84-.06 2.16 1.28 2.33a10.32 10.32 0 0 0 2.37-.27zm2.82-.55.11-.49a28.14 28.14 0 0 0 -1.44-2.51 1.3 1.3 0 0 0 -1.11-.48c-.41.11-1.07.74-1 .88a8.1 8.1 0 0 0 1.51 2.62c.3.32 1.3 0 1.93-.02zm-6.16.84c-1.4-1.37-.44-3.51-1.73-5.05-1.27 1.77-1.41 3.62-.46 4.79a1.46 1.46 0 0 0 2.19.24zm44.7-2.35c.27 0 .83 0 1.11-.26s.2-.8.13-1.2a26.52 26.52 0 0 0 -.6-2.64 9.2 9.2 0 0 0 -.44-1.09 5.52 5.52 0 0 0 -.71 1.18c-.1.27.07.63.11 1 .13.9.23 1.85.4 3.01zm5.06-4.16a2.81 2.81 0 0 0 -.19.69c.12 1.18.24 2.36.41 3.53 0 .16.35.44.46.41a1 1 0 0 0 .57-.49c.45-1.05-.16-3.14-1.25-4.14zm1.56 5.07.37.21c.21-.21.56-.37.62-.61a25.4 25.4 0 0 0 .64-3.33 1.64 1.64 0 0 0 -.56-1.1 1.12 1.12 0 0 0 -.86-.08 2.08 2.08 0 0 0 -.12 1.13c.28 1.25.93 2.48-.09 3.78zm-54.55-4.3c-1.55 1.15-1.39 4.22 0 5.22z"/><path d="m89.07 103.41c0 5.83-1.12 11.34-4.65 16.16a19.39 19.39 0 0 1 -9 7 7 7 0 0 1 -4.52-.1c-3.35-1.28-5.91-3.53-6.64-7.31a2.9 2.9 0 0 0 -.29-.81c-3.24-5.42-3-11.08-1.22-16.88a12.62 12.62 0 0 1 2.61-4.67c1.36-1.57 2.6-3.26 3.81-5a7.11 7.11 0 0 1 4.2-2.68c2.3-.56 4.71-.73 6.84.81a.73.73 0 0 0 .46.14 10.3 10.3 0 0 1 5.91 1 1.91 1.91 0 0 1 1 1 41.16 41.16 0 0 1 1.49 11.34z"/><path d="m114.43 104.79a23.79 23.79 0 0 1 4.41-14.08 2.18 2.18 0 0 1 1.14-.66c2.72-.77 5.45-.34 8.17 0a1.82 1.82 0 0 0 .84 0 3.66 3.66 0 0 1 4.47 1.67 26.36 26.36 0 0 1 2.91 4.65 80.45 80.45 0 0 1 4.15 11.42c1.7 6.91-1.43 12.42-6.19 17.07a5.79 5.79 0 0 1 -7.22.78 20.14 20.14 0 0 1 -5.07-4c-2-2.25-3.61-4.86-5.41-7.3a13 13 0 0 1 -2.2-7.81c-.01-.59 0-1.17 0-1.74z"/><path d="m100.31 135.85a24.91 24.91 0 0 0 -.93 3.21c-.39 2.43-2.38 3.22-4.18 4.12-1 .51-2-.38-2-1.6a22.25 22.25 0 0 0 .14-4.3c-.9-5.12 1.45-9.44 3.15-13.93a4.77 4.77 0 0 1 4.79-2.95 1.63 1.63 0 0 1 .89.32c.9.78 1.77 1.59 2.62 2.42 2.6 2.55 2.73 5.94 3.07 9.23.12 1.18 0 2.39 0 3.57.17 2.28-1.08 3.77-2.65 5.12a1.53 1.53 0 0 1 -2 .12c-1.21-.81-2.28-1.65-2.12-3.36a7.48 7.48 0 0 0 -.32-1.89z"/></g></svg>