<svg id="Layer_1" data-name="Layer 1" xmlns="http://www.w3.org/2000/svg" viewBox="0 0 1169 252.5"><defs><style>.cls-1{fill:#fff;}.cls-2{fill:none;stroke:#fff;stroke-miterlimit:10;stroke-width:7px;}</style></defs><path class="cls-1" d="M841.25,109.19V98.89c0-2.25-1.27-3.52-3.38-3.52-2.4,0-4,1.69-4,4.51v5.5c0,3.81,1.27,5.92,4.51,7.9,1,.56,1.55.84,2.82,1.55l9.31,5.92c6.2,3.81,6.2,4,8.18,6.49A17,17,0,0,1,862.4,138v13c0,15.51-9,24.25-25.24,24.25-15.22,0-24.39-8-24.39-21.43V141.9h21.15v9c0,3.8,1.13,5.21,4.09,5.21,2.4,0,3.24-1.27,3.24-5.21V144c0-2.68-.42-4-2.11-5.36a35.65,35.65,0,0,0-5.22-3.81l-9.45-5.22c-8.32-4.65-11.7-9.59-11.7-16.92V98.89c0-14.1,9.45-22.56,25-22.56,15.09,0,24.67,8.75,24.67,22.56v10.3Zm17.63-10.3c0-12-8.18-19.45-21.15-19.45-7.76,0-13.12,2-16.78,6.2a20.22,20.22,0,0,0-4.66,13.25v13.82c0,6.21,2.83,10.16,9.73,14.1l9.45,5.22c6.91,3.95,9.31,6.91,9.31,12v6.91c0,5.78-2.12,8.32-6.91,8.32-4.94,0-7.48-2.83-7.48-8.32V145h-14.1v8.75c0,11.56,7.62,18.33,20.73,18.33,14.24,0,21.86-7.34,21.86-21.15V138a15.05,15.05,0,0,0-2.82-8.74c-1.55-2.11-1.84-2.4-7.19-5.78l-9.31-5.78c-.42-.28-1.41-.85-2.82-1.69-4.51-2.54-6.35-5.64-6.35-10.58v-5.5c0-4.51,3-7.61,7.34-7.61s7,2.68,7,6.62v7.2h14.1Z"/><path class="cls-1" d="M919.65,78.73v20H905.41v74h-21.3v-74H869.59v-20ZM873.12,95.65h14.52v74h14.24v-74h14.24V81.83h-43Z"/><path class="cls-1" d="M927.68,98.05c0-13.26,9.87-21.72,25.38-21.72s24.68,8.18,24.68,21.72v55.27A23.18,23.18,0,0,1,971.53,169c-4.23,4.24-10,6.21-18.75,6.21s-13.25-1.41-18.19-5.92c-4.94-4.23-6.91-9-6.91-15.94Zm46.53,0c0-11.71-7.89-18.61-21-18.61-7.19,0-12.12,1.55-16.07,4.93a18.09,18.09,0,0,0-5.92,13.68v55.27c0,5.93,1.55,9.73,5.5,13.54,4.23,3.81,8.17,5.22,15.5,5.22,8.47,0,13.26-1.55,16.93-5.5a20.4,20.4,0,0,0,5.07-13.26ZM946,100.16c0-4.65,2.54-7.47,6.77-7.47s6.91,2.82,6.91,6.63v52.73c0,4.52-2.54,7-7.05,7-4.23,0-6.63-2.39-6.63-7Zm10.15-.84a3.3,3.3,0,0,0-3.38-3.53c-2.12,0-3.24,1.55-3.24,4.37v51.89c0,2.82.84,3.95,3.1,3.95,2.54,0,3.52-1.13,3.52-3.95Z"/><path class="cls-1" d="M1020.88,78.73c12.13,0,18.47,5.08,18.47,14.66v18c0,7.62-1.27,9.73-7.61,12.69a8.78,8.78,0,0,0-1.83.85c1.26.71,2.25,1.41,2.67,1.69,5.5,3.53,6.77,5.64,6.77,11.28v24.26c0,4.93.43,7.47,1.84,10.57h-15.51c-6.91,0-7.34-.42-7.34-8.88V141.05c0-3.8-1.27-5.49-4.09-5.49h-3.52v37.22H989v-94Zm-28.34,91h14.66V132.45h7c5.08,0,7.62,3,7.62,8.6V163.9c0,5.78,0,5.78,3.81,5.78h10.71a52.65,52.65,0,0,1-.56-7.47V138c0-5.64-1.27-7-12.13-13.25,11.28-4.94,12.13-5.92,12.13-13.26v-18c0-7.75-4.8-11.56-14.95-11.56H992.54Zm14.66-74.59c8.32,0,8.89,0,10.58,1.12,2.26,1.41,3.38,3.81,3.38,7.2V111c0,3.67-1.41,6.2-3.95,7.47-1.69.71-2.39.85-10,.71Zm3.53,21.29h1.41c4.09.14,5.5-1.27,5.5-5.08v-7.89c0-3.81-1.41-5.22-5.5-5.22h-1.41Z"/><path class="cls-1" d="M1074.6,114l7.19-35.25h21.72l-18.19,61.76v32.29h-21.15V140.49l-18.76-61.76h22.14Zm-24.53-32.15,17.62,58.24v29.61h14.1V140.07l17.06-58.24h-14.1l-10.29,47.38-9.87-47.38Z"/><rect class="cls-2" x="10.5" y="10" width="1150" height="233"/><path class="cls-1" d="M395.8,173.73v-98h71.89V97h-46.6v16.32h45.57v21.46H421.09v39Z"/><path class="cls-1" d="M481.36,75.68h25.72v57.48c0,11.61,6.18,20,19.85,20s19.7-8.38,19.7-20V75.68h25.72v58.21c0,24.4-14,41.6-45.42,41.6S481.36,158.15,481.36,134Z"/><path class="cls-1" d="M590,173.73v-98h25.28v76h39.4v22Z"/><path class="cls-1" d="M667.75,173.73v-98H693v76h39.39v22Z"/><path class="cls-1" d="M117.36,78.73c12.12,0,18.47,5.08,18.47,14.66v18c0,7.62-1.27,9.73-7.61,12.69a8.78,8.78,0,0,0-1.84.85c1.27.71,2.26,1.41,2.68,1.69,5.5,3.53,6.77,5.64,6.77,11.28v24.26c0,4.93.42,7.47,1.83,10.57H122.15c-6.91,0-7.33-.42-7.33-8.88V141.05c0-3.8-1.27-5.49-4.09-5.49h-3.52v37.22H85.49v-94ZM89,169.68h14.66V132.45h7c5.08,0,7.61,3,7.61,8.6V163.9c0,5.78,0,5.78,3.81,5.78h10.72a52.47,52.47,0,0,1-.57-7.47V138c0-5.64-1.26-7-12.12-13.25,11.28-4.94,12.12-5.92,12.12-13.26v-18c0-7.75-4.79-11.56-14.94-11.56H89Zm14.66-74.59c8.32,0,8.88,0,10.58,1.12q3.38,2.12,3.38,7.2V111c0,3.67-1.41,6.2-4,7.47-1.69.71-2.4.85-10,.71Zm3.53,21.29h1.41c4.08.14,5.49-1.27,5.49-5.08v-7.89c0-3.81-1.41-5.22-5.49-5.22h-1.41Z"/><path class="cls-1" d="M185.6,98.61H168.82v16.64h15.37v19.6H168.82v18.33H185.6v19.6H147.39v-94H185.6ZM150.91,81.83v87.85h31.17v-13.4H165.3V131.75h15.37v-13.4H165.3V95.51h16.78V81.83Z"/><path class="cls-1" d="M216.06,155.86l-2.26,16.92h-21l14.52-94H234l15.23,94.05H227.9l-2.26-16.92Zm15.08,13.82h14L230.86,81.83H210.42l-13.54,87.85H210.7L213,152.76h15.94Zm-17.76-29.89,7.05-46.11,8.17,46.11Zm7.33-30.74-3.24,27.63h6.91Z"/><path class="cls-1" d="M255.82,78.73h28.76c14.95,0,21.57,6.35,21.57,20.45v53q0,9.74-4.65,15.23c-3.52,4.09-7.47,5.36-16.21,5.36H255.82Zm29.47,91c7.75,0,10.85-1,13.67-4.51,2.4-3,3.67-7.34,3.67-13v-53c0-12.41-5.22-17.35-18.05-17.35H259.34v87.85ZM274.57,96.07h5.36c5.64,0,8.18,3,8.18,9.45v42c0,6.91-2.12,9.31-8.18,9.31h-5.36Zm5.36,57.68c3.95,0,4.65-1,4.65-6.21v-42c0-4.65-1.27-6.34-4.65-6.34h-1.84v54.57Z"/></svg>