<svg viewBox="0 0 1167 251.5" xmlns="http://www.w3.org/2000/svg"><path d="m805.31 111v-8.76a2.69 2.69 0 0 0 -2.88-3c-2 0-3.36 1.44-3.36 3.84v4.68c0 3.24 1.08 5 3.84 6.72.84.48 1.32.72 2.4 1.32l7.92 5c5.28 3.24 5.28 3.36 7 5.52a14.48 14.48 0 0 1 3.12 9.12v11c0 13.2-7.68 20.64-21.48 20.64-13 0-20.76-6.84-20.76-18.24v-10.03h18v7.68c0 3.24 1 4.44 3.48 4.44 2 0 2.76-1.08 2.76-4.44v-5.88c0-2.28-.36-3.36-1.8-4.56a30.09 30.09 0 0 0 -4.44-3.24l-8-4.44c-7.08-4-10-8.16-10-14.4v-11.76c0-12 8-19.2 21.24-19.2 12.84 0 21 7.44 21 19.2v8.79zm15-8.76c0-10.2-7-16.56-18-16.56-6.6 0-11.16 1.68-14.28 5.28a17.21 17.21 0 0 0 -4 11.28v11.76c0 5.28 2.4 8.64 8.28 12l8 4.44c5.88 3.36 7.92 5.88 7.92 10.2v5.88c0 4.92-1.8 7.08-5.88 7.08s-6.36-2.4-6.36-7.08v-5h-12v7.44c0 9.84 6.48 15.6 17.64 15.6 12.12 0 18.6-6.24 18.6-18v-11a12.79 12.79 0 0 0 -2.4-7.44c-1.32-1.8-1.56-2-6.12-4.92l-7.92-4.92c-.36-.24-1.2-.72-2.4-1.44-3.84-2.16-5.4-4.8-5.4-9v-4.68c0-3.84 2.52-6.48 6.24-6.48s6 2.28 6 5.64v6.12h12z" fill="#fff"/><path d="m872 85.05v17h-12.09v63h-18.12v-63h-12.36v-17zm-39.6 14.4h12.36v63h12.12v-63h12.12v-11.76h-36.6z" fill="#fff"/><path d="m878.87 101.49c0-11.28 8.4-18.48 21.59-18.48s21 7 21 18.48v47a19.75 19.75 0 0 1 -5.28 13.32c-3.6 3.6-8.51 5.28-15.95 5.28s-11.28-1.2-15.48-5c-4.2-3.6-5.88-7.68-5.88-13.56zm39.59 0c0-10-6.71-15.84-17.88-15.84-6.11 0-10.31 1.32-13.67 4.2a15.41 15.41 0 0 0 -5 11.64v47c0 5 1.32 8.28 4.68 11.52 3.6 3.24 7 4.44 13.2 4.44 7.2 0 11.27-1.32 14.39-4.68a17.34 17.34 0 0 0 4.32-11.28zm-24 1.8c0-4 2.15-6.36 5.76-6.36a5.54 5.54 0 0 1 5.87 5.64v44.88c0 3.84-2.15 6-6 6-3.61 0-5.64-2-5.64-6zm8.64-.72a2.8 2.8 0 0 0 -2.88-3c-1.81 0-2.77 1.32-2.77 3.72v44.16c0 2.4.73 3.36 2.65 3.36 2.15 0 3-1 3-3.36z" fill="#fff"/><path d="m958.18 85.05c10.32 0 15.72 4.32 15.72 12.48v15.36c0 6.48-1.08 8.28-6.48 10.8a7.34 7.34 0 0 0 -1.56.72c1.08.6 1.92 1.2 2.28 1.44 4.68 3 5.76 4.8 5.76 9.6v20.64c0 4.2.36 6.36 1.56 9h-13.2c-5.88 0-6.24-.36-6.24-7.56v-19.44c0-3.24-1.08-4.68-3.48-4.68h-3v31.68h-18.48v-80zm-24.12 77.4h12.48v-31.68h6c4.32 0 6.48 2.52 6.48 7.32v19.44c0 4.92 0 4.92 3.24 4.92h9.12a44.46 44.46 0 0 1 -.48-6.36v-20.64c0-4.8-1.08-6-10.32-11.28 9.6-4.2 10.32-5 10.32-11.28v-15.36c0-6.6-4.08-9.84-12.72-9.84h-24.12zm12.48-63.45c7.08 0 7.56 0 9 1q2.88 1.8 2.88 6.12v6.48c0 3.12-1.2 5.28-3.36 6.36-1.44.6-2 .72-8.52.6zm3 18.12h1.2c3.48.12 4.68-1.08 4.68-4.32v-6.72c0-3.24-1.2-4.44-4.68-4.44h-1.2z" fill="#fff"/><path d="m1002.22 165.09h-18.48v-80h18.48zm-15.48-77.4v74.76h12.48v-74.76z" fill="#fff"/><path d="m1045.66 102h-14.28v14.16h13.08v16.68h-13.08v15.6h14.28v16.68h-32.52v-80h32.52zm-29.52-14.28v74.76h26.52v-11.4h-14.28v-20.91h13.08v-11.4h-13.08v-19.44h14.28v-11.64z" fill="#fff"/><path d="m1077.34 111v-8.76a2.69 2.69 0 0 0 -2.88-3c-2 0-3.36 1.44-3.36 3.84v4.68c0 3.24 1.08 5 3.84 6.72.84.48 1.32.72 2.4 1.32l7.92 5c5.28 3.24 5.28 3.36 7 5.52a14.48 14.48 0 0 1 3.12 9.12v11c0 13.2-7.68 20.64-21.48 20.64-13 0-20.76-6.84-20.76-18.24v-10.03h18v7.68c0 3.24 1 4.44 3.48 4.44 2 0 2.76-1.08 2.76-4.44v-5.88c0-2.28-.36-3.36-1.8-4.56a30.09 30.09 0 0 0 -4.44-3.24l-8-4.44c-7.08-4-10-8.16-10-14.4v-11.76c0-12 8-19.2 21.24-19.2 12.84 0 21 7.44 21 19.2v8.79zm15-8.76c0-10.2-7-16.56-18-16.56-6.6 0-11.16 1.68-14.28 5.28a17.21 17.21 0 0 0 -4 11.28v11.76c0 5.28 2.4 8.64 8.28 12l8 4.44c5.88 3.36 7.92 5.88 7.92 10.2v5.88c0 4.92-1.8 7.08-5.88 7.08s-6.36-2.4-6.36-7.08v-5h-12v7.44c0 9.84 6.48 15.6 17.64 15.6 12.12 0 18.6-6.24 18.6-18v-11a12.79 12.79 0 0 0 -2.4-7.44c-1.32-1.8-1.56-2-6.12-4.92l-7.92-4.92c-.36-.24-1.2-.72-2.4-1.44-3.84-2.16-5.4-4.8-5.4-9v-4.68c0-3.84 2.52-6.48 6.24-6.48s6 2.28 6 5.64v6.12h12z" fill="#fff"/><path d="m8.06 8.87h1150v233h-1150z" fill="none" stroke="#fff" stroke-miterlimit="10" stroke-width="7"/><g fill="#fff"><path d="m416.66 166.06-34.66-49.57v49.57h-21.18v-82.06h21.77l33.21 47.23v-47.23h21.28v82z"/><path d="m451.83 166.06v-82.06h60.17v17.84h-39v13.65h38.13v18h-38.13v14.76h39v17.83z"/><path d="m586.89 166.06-12.43-51.41-12.46 51.41h-22.34l-23.5-82h23.74l12.43 54.74 14-54.74h16.23l14 54.74 12.35-54.8h23.86l-23.5 82z"/><path d="m644.7 138.63a37 37 0 0 0 26.2 10.83c7.25 0 11.68-3.08 11.68-7 0-4.68-5.29-6.52-14-8.37-13.53-2.7-32.47-6.15-32.47-25.58 0-13.78 11.68-25.71 32.71-25.71 13.17 0 24.6 3.94 33.34 11.44l-11.56 15.13a38.13 38.13 0 0 0 -23.13-8.49c-7 0-9.72 2.83-9.72 6.4 0 4.3 5 5.78 14.15 7.5 13.53 2.83 32.23 6.77 32.23 25.34 0 16.48-12.18 27.43-34.2 27.43-16.6 0-28.17-5.17-36.41-13z"/><path d="m97.31 85.05 6.69 33.12 6.36-33.12h23.54v80h-17.39v-37l-8.16 37h-8.76l-8.16-37v37h-17.43v-80zm-20.31 77.4h11.4v-59.4l13.68 59.4h3.72l13.68-59.4v59.4h11.42v-74.76h-17.9l-8.76 44.76-9.45-44.76h-17.79z"/><path d="m143.63 101.49c0-11.28 8.4-18.48 21.6-18.48s21 7 21 18.48v47a19.74 19.74 0 0 1 -5.23 13.36c-3.6 3.6-8.52 5.28-16 5.28s-11.28-1.2-15.48-5c-4.2-3.6-5.88-7.68-5.88-13.56zm39.59 0c0-10-6.71-15.84-17.87-15.84-6.12 0-10.32 1.32-13.68 4.2a15.41 15.41 0 0 0 -5 11.64v47c0 5 1.32 8.28 4.68 11.52 3.6 3.24 7 4.44 13.2 4.44 7.2 0 11.28-1.32 14.4-4.68a17.39 17.39 0 0 0 4.31-11.28zm-24 1.8c0-4 2.16-6.36 5.76-6.36a5.55 5.55 0 0 1 5.88 5.64v44.88c0 3.84-2.16 6-6 6-3.6 0-5.64-2-5.64-6zm8.64-.72a2.8 2.8 0 0 0 -2.88-3c-1.8 0-2.76 1.32-2.76 3.72v44.16c0 2.4.72 3.36 2.64 3.36 2.16 0 3-1 3-3.36z"/><path d="m222.94 85.05c10.32 0 15.72 4.32 15.72 12.48v15.36c0 6.48-1.08 8.28-6.48 10.8a7.34 7.34 0 0 0 -1.56.72c1.08.6 1.92 1.2 2.28 1.44 4.68 3 5.76 4.8 5.76 9.6v20.64c0 4.2.36 6.36 1.56 9h-13.22c-5.88 0-6.24-.36-6.24-7.56v-19.44c0-3.24-1.08-4.68-3.48-4.68h-3v31.68h-18.45v-80zm-24.11 77.4h12.47v-31.68h6c4.32 0 6.48 2.52 6.48 7.32v19.44c0 4.92 0 4.92 3.24 4.92h9.12a44.46 44.46 0 0 1 -.48-6.36v-20.64c0-4.8-1.08-6-10.32-11.28 9.6-4.2 10.32-5 10.32-11.28v-15.36c0-6.6-4.08-9.84-12.72-9.84h-24.11zm12.47-63.45c7.08 0 7.56 0 9 1q2.88 1.8 2.88 6.12v6.48c0 3.12-1.2 5.28-3.36 6.36-1.44.6-2 .72-8.52.6zm3 18.12h1.2c3.48.12 4.68-1.08 4.68-4.32v-6.72c0-3.24-1.2-4.44-4.68-4.44h-1.2z"/><path d="m281 102h-14.26v14.16h13.08v16.68h-13.08v15.6h14.26v16.68h-32.5v-80h32.5zm-29.5-14.31v74.76h26.5v-11.4h-14.26v-20.88h13.08v-11.4h-13.08v-19.44h14.26v-11.64z"/></g></svg>