<svg xmlns="http://www.w3.org/2000/svg" id="Layer_1" data-name="Layer 1" viewBox="0 0 200 279"><defs><style>.cls-1{fill:#fff}</style></defs><path d="M100,276.5A6.42,6.42,0,0,1,95.81,275L23.18,159.53l-8.09-12.84A65,65,0,0,1,9.66,136.2,97.52,97.52,0,0,1,100,2h1.4a97.54,97.54,0,0,1,89,134.11,67.23,67.23,0,0,1-5.54,10.67L104.2,275A6.43,6.43,0,0,1,100,276.5Z"/><path d="M100,3h1.39a96.55,96.55,0,0,1,88.07,132.74l0,.06A66.67,66.67,0,0,1,184,146.26L176,159,105.52,271l-2.08,3.31a5.46,5.46,0,0,1-6.87,0L94.48,271,24,159l-8.08-12.84a64.24,64.24,0,0,1-5.37-10.36l0,0h0A96.54,96.54,0,0,1,100,3m0-2A98.53,98.53,0,0,0,8.7,136.5l0,.07a65.15,65.15,0,0,0,5.52,10.65l8.08,12.84L92.79,272,95,275.61a7.45,7.45,0,0,0,9.93,0l2.24-3.56L177.65,160.1l8-12.78a68.1,68.1,0,0,0,5.59-10.75l0-.07a98.3,98.3,0,0,0,7.1-41.22c-2.17-51.93-45-93.54-97-94.27Z" class="cls-1"/><path d="M55.49,111.72l2.17,1.34.32-.19a5,5,0,0,0-.65-1.35c-1.16-1.24-2.41-2.4-3.61-3.62a8.83,8.83,0,0,1-2.44-5.19c-.5-4.13-.79-8.28-1.12-12.43a4.74,4.74,0,0,1,.29-1.65c.73-2.4,1.5-4.8,2.25-7.2l-.36-.16-1.42,2A37.42,37.42,0,0,1,53,74.24c.39-1.13.76-2.28,1.22-3.39A38.11,38.11,0,0,1,65.1,56.58a49.47,49.47,0,0,1,22.64-11,55.15,55.15,0,0,1,18.42-1,50.71,50.71,0,0,1,11.4,2.89,56.23,56.23,0,0,1,14.1,7.7,21.18,21.18,0,0,1,5.18,6.44,9.61,9.61,0,0,0,1.5,2.11,12.25,12.25,0,0,1,2.58,3.88,35.12,35.12,0,0,0,2.14,3.7,18.9,18.9,0,0,1,2.8,7.2c.32,2.21.74,4.4,1.11,6.6a3.24,3.24,0,0,1,0,.88,12.45,12.45,0,0,0-.21,1.58c.35,7.43-1.42,14.67-2.07,22a30.6,30.6,0,0,1-1,4.89,2.48,2.48,0,0,0,.23,2.19,6.14,6.14,0,0,1,.83,5.16,8,8,0,0,0,.09,2.83,6.36,6.36,0,0,1-.89,4.94,10.85,10.85,0,0,1-5.78,4.37,3,3,0,0,1-1.84,0,5.62,5.62,0,0,0-5.36.67,13.21,13.21,0,0,0-6.17,8.53,2.06,2.06,0,0,0-.1.69c.34,2.16-.17,4.4.64,6.52a2.47,2.47,0,0,1-.37,2.54,3.23,3.23,0,0,0-.47,1.5c-.14,1.05-.68,1.5-1.7,1.14a2.59,2.59,0,0,0-2.39-.08.37.37,0,0,1-.29,0c-1.6-.87-3.42-.65-5.11-1.06-.13,0-.25-.16-.37-.15-2.38.21-4.7-.75-7.09-.37a20.28,20.28,0,0,1-2.74.51,12.4,12.4,0,0,1-2.37-.46,2.26,2.26,0,0,0-1.17-.07,7.24,7.24,0,0,1-5.17.47,1.37,1.37,0,0,0-.57,0,20,20,0,0,1-2.11.47c-1.1.11-2.08.77-3.31.48-.6-.15-1.36.57-2.09.74a17.17,17.17,0,0,1-1.92.14c-1.57.23-3.13.51-4.7.77-.06,0-.14,0-.19,0-1.59.79-2.44-.35-3.26-1.33a3.25,3.25,0,0,1-.2-3.44,9.3,9.3,0,0,0,.5-5.21c-.45-3.95-2.63-6.61-5.94-8.47a6.61,6.61,0,0,0-2.5-.53c-2.8-.29-5.63-.43-8-2.33a3.73,3.73,0,0,1-1.58-3.36c.1-1.39,0-2.79,0-4.19a1.26,1.26,0,0,0,0-.39q-1.3-4.5-2.62-9C56.93,116.47,56.25,114.22,55.49,111.72Zm8.24-26.54.54-.11a23.09,23.09,0,0,1,1,2.48,22.65,22.65,0,0,1-.09,10.61c-.53,2.6-1.73,5.07-1.55,7.82.07,1.13.06,2.27,0,3.4a5.15,5.15,0,0,1-1,3.17,4.23,4.23,0,0,0-.89,2.39c0,2.66.22,5.32.29,8A24.4,24.4,0,0,1,62,128c-.5,2.8.33,5.06,2.87,6.35,1.2.61,2.52,1.42,3.78,1.39a12.86,12.86,0,0,1,6.1,1.77,9.2,9.2,0,0,1,2.72,2.42,16.66,16.66,0,0,1,3.08,6.68c.2.76.69,1.35,1.39,1,2.78-1.43,6.08-.63,8.81-2.18.14-.08.33,0,.49-.1,1.43-.58,2.87-1.15,4.3-1.75a11.72,11.72,0,0,1,1.6-.77c1.13-.26,2.29-.4,3.44-.59.46-.08,1-.32,1.37-.19,2.57.88,5.59.37,7.77,2.47a.73.73,0,0,0,.27.11c2.52.65,5,1.34,7.55,1.93a3.81,3.81,0,0,0,3.74-1.12,7.44,7.44,0,0,0,1.89-4.3c.36-2,1.61-3.35,2.72-4.81a14.37,14.37,0,0,1,3-2.81,9.23,9.23,0,0,1,6.48-2.07c1.66.15,3.05-.58,4.58-.84a1.48,1.48,0,0,0,.65-.43,6.42,6.42,0,0,0,2.15-6,32.33,32.33,0,0,1-.18-5.18,17.62,17.62,0,0,0-.6-2.83c0-.11-.17-.19-.24-.3a12.59,12.59,0,0,1-1.14-1.92,12,12,0,0,1-.92-4.16,44,44,0,0,0-1.09-6.87,3.48,3.48,0,0,0-.32-.94,1,1,0,0,0-.47-.46A3.43,3.43,0,0,1,135.31,98a3.28,3.28,0,0,0-.23-1.26,10.17,10.17,0,0,1-.94-5.06,9.49,9.49,0,0,0-.14-1.18c0-.53-.25-1.14-.06-1.57.86-1.88,1.8-3.72,2.78-5.54A6.24,6.24,0,0,1,138,82.16c.43,4,.84,7.63,1.24,11.28l.19,0v-4l.19,0L141,95l.22,0-.54-8.08c.66,1.61.66,3.32,1.38,5,.6,1.35.39,3.06.53,4.61,0,.33,0,.66,0,1h.29c.85-3.16,1.88-6.3,1.37-9.66-.41-2.78-.83-5.55-1.33-8.31a28.62,28.62,0,0,0-1.36-6,41.48,41.48,0,0,0-15.21-18.2,37.91,37.91,0,0,0-9-4.87c-2.33-.8-4.58-1.8-6.87-2.72-1-.42-2.08-.82-3.08-1.31a7.76,7.76,0,0,0-5.62-.47,12.17,12.17,0,0,1-1.39.41c-2.45.31-4.93.43-7.35.89C78.66,49.94,67.38,57.49,58.7,69.08a13.16,13.16,0,0,0-2.47,5.36,31.73,31.73,0,0,0-.56,12.31c.35,1.91.58,3.84.86,5.76l.18-.07L58.16,89c-.57,4.07-.72,10.46,0,12.49-.08-3.93.14-7.57,1.77-10.95v13l.37,0c.06-.79.16-1.57.19-2.35.08-2.84.09-5.68.23-8.51a16.27,16.27,0,0,1,.65-2.87A13.21,13.21,0,0,1,61.53,93c-.07,1-.29,2-.44,2.93C63.51,92.72,64.68,89.22,63.73,85.18Zm41.1,68.38c2.33,0,3.14-1.13,2.35-3.33-.15-.41-.32-.8-.46-1.21-.56-1.69-1.61-2.15-3.66-1.57-1.52.43-1.93,1.25-1.52,3,0,.19.09.39.11.58.27,2.23.55,2.13,2.58,2.53A3,3,0,0,0,104.83,153.56Zm-6.55.4a25,25,0,0,0,2.46-.74,1,1,0,0,0,.43-.84,26,26,0,0,0-.56-3c-.32-1.28-1.32-1.79-2.91-1.55a1.92,1.92,0,0,0-1.93,2.28,15.85,15.85,0,0,0,.17,1.69C96.23,153.73,96.31,153.79,98.28,154Zm-4.8.2,1-.17c.85-.15,1.33-.49,1-1.48s-.67-2.17-.94-3.26c-.22-.93-.8-1.11-1.63-.93a1.42,1.42,0,0,0-1.31,1.51c0,1,.24,2,.21,2.95C91.71,154,92.49,154.09,93.48,154.16Zm14.71-.95a6.69,6.69,0,0,0,1.94-.05c.44-.12,1.09-.76,1-1.07a19.29,19.29,0,0,0-1-3.88,1.27,1.27,0,0,0-1.82-.71,1.52,1.52,0,0,0-.75,1.87C107.79,150.59,108,151.82,108.19,153.21Zm3.17-3.24.17.07c.1.79.22,1.58.29,2.37.11,1.05.5,1.41,1.49,1.34s1.62-.67,1.5-1.59a14.47,14.47,0,0,0-.62-2.6,2.27,2.27,0,0,0-.86-1.17c-.33-.2-1.08-.26-1.26,0A5.48,5.48,0,0,0,111.36,150Zm-19.53,4.75c-.21-.55-.35-.92-.47-1.29-.39-1.15-.71-2.33-1.16-3.46a.63.63,0,0,0-1.14-.15c-.56.63-.59,3.26,0,3.82a6,6,0,0,0,1.72.9A4.74,4.74,0,0,0,91.83,154.72Zm29.8-1.39a18.4,18.4,0,0,0-1.07-1.89c-.22-.32-.66-.47-1-.7a5.18,5.18,0,0,0-.43,1.48,7.08,7.08,0,0,0,.36,1.92,1.05,1.05,0,0,0,.59.63C120.89,155,121.4,154.45,121.63,153.33Zm-6.27.56a1.77,1.77,0,0,0,.42.06c1.23.05,1.41-.14,1.23-1.37a15.56,15.56,0,0,0-.36-2.15,6.7,6.7,0,0,0-.74-1.29l-.39,0a5.9,5.9,0,0,0-.39,1.48C115.13,151.66,115.26,152.68,115.36,153.89ZM89.25,155l-1.9-3.71c-1.11.84-1.19,1.11-.74,2.31a2.63,2.63,0,0,1,.27.94c-.06.89.51.91,1.1.84A8.15,8.15,0,0,0,89.25,155Zm-5.11,1c-.61-1.05-1.09-1.91-1.61-2.75-.12-.19-.37-.46-.52-.44a.91.91,0,0,0-.56.48c-.15.32-.36.75-.25,1,.24.67-.06,1.75,1,1.89A8.62,8.62,0,0,0,84.14,156Zm2.29-.45.09-.39c-.39-.69-.73-1.41-1.18-2a1.06,1.06,0,0,0-.9-.39c-.33.09-.87.6-.82.72a6.71,6.71,0,0,0,1.23,2.13C85.11,155.83,85.89,155.57,86.43,155.55Zm-5,.68c-1.13-1.11-.35-2.85-1.4-4.1-1,1.43-1.15,2.94-.38,3.89C80.05,156.54,80.57,156.75,81.42,156.23Zm36.33-1.91c.22,0,.68,0,.91-.21s.16-.65.1-1c-.12-.72-.3-1.43-.48-2.14a8.29,8.29,0,0,0-.36-.89,5.33,5.33,0,0,0-.58,1c-.08.23,0,.52.09.78Zm4.12-3.38a1.66,1.66,0,0,0-.15.56c.09,1,.19,1.92.32,2.87,0,.13.29.36.38.33a.78.78,0,0,0,.46-.39A3.6,3.6,0,0,0,121.87,150.94Zm1.27,4.12.3.17c.17-.16.45-.3.5-.5a20.92,20.92,0,0,0,.52-2.69,1.35,1.35,0,0,0-.45-.9.9.9,0,0,0-.7-.07,1.62,1.62,0,0,0-.1.92C123.43,153,124,154,123.14,155.06ZM78.8,151.57a3,3,0,0,0,0,4.24Z" class="cls-1"/><path d="M90.85,102.9c0,4.74-.91,9.23-3.78,13.14a15.78,15.78,0,0,1-7.36,5.65,5.77,5.77,0,0,1-3.67-.08c-2.72-1-4.8-2.87-5.4-6a2,2,0,0,0-.24-.65c-2.62-4.41-2.45-9-1-13.72a10.56,10.56,0,0,1,2.12-3.8,50.69,50.69,0,0,0,3.1-4,5.81,5.81,0,0,1,3.42-2.18c1.86-.45,3.83-.59,5.56.66a.57.57,0,0,0,.37.11,8.38,8.38,0,0,1,4.8.84,1.49,1.49,0,0,1,.8.82A33.58,33.58,0,0,1,90.85,102.9Z" class="cls-1"/><path d="M111.46,104a19.38,19.38,0,0,1,3.59-11.45,1.66,1.66,0,0,1,.93-.53c2.21-.63,4.42-.28,6.64,0a1.56,1.56,0,0,0,.68,0,3,3,0,0,1,3.63,1.36,22,22,0,0,1,2.37,3.78,65.21,65.21,0,0,1,3.37,9.28c1.38,5.62-1.16,10.09-5,13.87a4.7,4.7,0,0,1-5.87.63,16,16,0,0,1-4.12-3.24c-1.63-1.84-2.94-3.95-4.4-5.94a10.65,10.65,0,0,1-1.79-6.34C111.45,105,111.46,104.49,111.46,104Z" class="cls-1"/><path d="M100,129.27a20.41,20.41,0,0,0-.76,2.61c-.32,2-1.93,2.62-3.39,3.35-.84.41-1.64-.31-1.62-1.3a18.73,18.73,0,0,0,.11-3.5c-.73-4.16,1.18-7.67,2.56-11.32a3.9,3.9,0,0,1,3.89-2.4,1.3,1.3,0,0,1,.72.27c.73.63,1.45,1.29,2.14,2,2.11,2.07,2.21,4.83,2.49,7.51.1,1,0,1.94,0,2.9.14,1.85-.88,3.06-2.16,4.16a1.23,1.23,0,0,1-1.64.09c-1-.65-1.85-1.33-1.73-2.72a5.59,5.59,0,0,0-.26-1.54Z" class="cls-1"/></svg>