<?xml version="1.0" encoding="utf-8"?>
<!-- Generator: Adobe Illustrator 26.3.1, SVG Export Plug-In . SVG Version: 6.00 Build 0)  -->
<svg version="1.1" id="Layer_1" xmlns="http://www.w3.org/2000/svg" xmlns:xlink="http://www.w3.org/1999/xlink" x="0px" y="0px"
	 viewBox="0 0 200 279" style="enable-background:new 0 0 200 279;" xml:space="preserve">
<style type="text/css">
	.st0{fill:#FFFFFF;}
</style>
<path d="M100,276.5c-1.5,0-3-0.5-4.2-1.5L23.2,159.5l-8.1-12.8c-2.1-3.3-3.9-6.8-5.4-10.5c-20.3-49.9,3.8-106.8,53.7-127
	C75,4.4,87.4,2,100,2h1.4c53.9,0.8,96.9,45.1,96.1,99c-0.2,12.1-2.6,24-7.1,35.2c-1.5,3.7-3.4,7.3-5.5,10.7L104.2,275
	C103,276,101.5,276.5,100,276.5z"/>
<g>
	<path class="st0" d="M100,3h1.4c53.3,0.8,95.9,44.7,95.1,98c-0.2,11.9-2.6,23.7-7,34.8v0.1c-1.5,3.6-3.3,7.1-5.5,10.5l-8,12.7
		l-70.5,112l-2.1,3.3c-2,1.6-4.9,1.6-6.9,0l-2.1-3.3L24,159l-8.1-12.8c-2.1-3.3-3.9-6.8-5.4-10.4c-20-49.4,3.8-105.7,53.2-125.7
		C75.3,5.4,87.6,3,100,3 M100,1C45.6,1,1.5,45.1,1.5,99.6c0,12.7,2.4,25.2,7.2,36.9v0.1c1.5,3.7,3.4,7.3,5.5,10.6l8.1,12.8L92.8,272
		l2.2,3.6c2.8,2.5,7.1,2.5,9.9,0l2.2-3.6l70.5-111.9l8-12.8c2.2-3.4,4-7,5.6-10.8v-0.1c5.3-13.1,7.7-27.1,7.1-41.2
		c-2.2-51.9-45-93.5-97-94.3L100,1z"/>
	<path class="st0" d="M45.6,114.3l2.7,1.6l0.4-0.2c-0.2-0.6-0.5-1.1-0.8-1.7c-1.4-1.5-3-3-4.4-4.4c-1.7-1.7-2.7-4-3-6.4
		c-0.6-5.1-1-10.2-1.4-15.3c0-0.7,0.1-1.4,0.3-2c0.9-3,1.8-5.9,2.8-8.9l-0.5-0.2l-1.8,2.5c0.4-3.8,1.2-7.6,2.5-11.2
		c0.5-1.4,0.9-2.8,1.5-4.2c2.9-7,7.7-12.7,13.4-17.6c8-6.8,17.6-11.5,27.8-13.6c7.4-1.7,15.1-2.1,22.7-1.2c4.8,0.6,9.5,1.8,14,3.6
		c6.2,2.3,12.1,5.5,17.4,9.5c2.6,2.2,4.8,4.9,6.4,7.9c0.5,0.9,1.1,1.8,1.8,2.6c1.4,1.4,2.5,3,3.2,4.8c0.8,1.6,1.7,3.1,2.6,4.6
		c1.7,2.7,2.9,5.7,3.4,8.9c0.4,2.7,0.9,5.4,1.4,8.1c0.1,0.4,0.1,0.7,0,1.1c-0.1,0.7-0.2,1.3-0.3,2c0.4,9.1-1.8,18-2.6,27.1
		c-0.3,2-0.7,4-1.3,6c-0.3,0.9-0.2,1.9,0.3,2.7c1.3,1.9,1.6,4.2,1,6.3c-0.2,1.2-0.1,2.3,0.1,3.5c0.3,2.2,0.3,4.2-1.1,6.1
		c-1.7,2.6-4.2,4.5-7.1,5.4c-0.7,0.3-1.5,0.3-2.3,0.1c-2.2-0.9-4.7-0.5-6.6,0.8c-3.9,2.3-6.6,6.1-7.6,10.5c-0.1,0.3-0.1,0.6-0.1,0.9
		c0.4,2.7-0.2,5.4,0.8,8c0.5,1,0.3,2.3-0.4,3.1c-0.3,0.6-0.5,1.2-0.6,1.8c-0.2,1.3-0.8,1.8-2.1,1.4c-1-0.4-1.9-0.7-2.9-0.1
		c-0.1,0.1-0.2,0.1-0.4,0c-2-1.1-4.2-0.8-6.3-1.3c-0.2,0-0.3-0.2-0.4-0.2c-2.9,0.3-5.8-0.9-8.7-0.4c-1.1,0.3-2.2,0.5-3.4,0.6
		c-1-0.1-2-0.3-2.9-0.6c-0.5-0.2-1-0.2-1.4-0.1c-2,1-4.2,1.2-6.4,0.6c-0.2-0.1-0.5-0.1-0.7,0c-0.9,0.2-1.7,0.4-2.6,0.6
		c-1.3,0.1-2.6,0.9-4.1,0.6c-0.7-0.2-1.7,0.7-2.6,0.9s-1.6,0.1-2.3,0.2c-1.9,0.3-3.9,0.6-5.8,0.9c-0.1,0-0.2,0-0.2,0
		c-2,1-3-0.4-4-1.6c-0.9-1.2-1-2.9-0.2-4.2c0.8-2,1-4.3,0.6-6.4c-0.6-4.9-3.2-8.1-7.3-10.4c-1-0.4-2-0.6-3.1-0.6
		c-3.5-0.4-6.9-0.5-9.8-2.9c-1.3-0.9-2.1-2.5-1.9-4.1c0.1-1.7,0-3.4,0-5.1c0-0.2,0-0.3,0-0.5c-1.1-3.7-2.2-7.3-3.2-11
		C47.3,120.1,46.5,117.3,45.6,114.3L45.6,114.3z M55.7,81.6l0.7-0.1c0.5,1,0.9,2,1.2,3c1.2,4.3,0.8,8.7-0.1,13
		c-0.6,3.2-2.1,6.2-1.9,9.6c0.1,1.4,0.1,2.8,0,4.2c0,1.4-0.4,2.8-1.2,3.9c-0.7,0.8-1,1.9-1.1,2.9c0,3.3,0.3,6.6,0.4,9.8
		c0.2,2.1,0.1,4.1-0.1,6.2c-0.6,3.5,0.4,6.2,3.5,7.8c1.5,0.8,3.1,1.7,4.7,1.7c2.7,0.1,5.3,0.9,7.5,2.3c1.3,0.8,2.4,1.8,3.3,3
		c1.9,2.4,3.2,5.2,3.8,8.2c0.2,0.9,0.8,1.7,1.7,1.2c3.4-1.8,7.5-0.8,10.8-2.7c0.2-0.1,0.4-0.1,0.6-0.1c1.8-0.7,3.5-1.4,5.3-2.2
		c0.6-0.4,1.3-0.7,2-0.9c1.4-0.3,2.8-0.5,4.2-0.7c0.6-0.1,1.2-0.4,1.7-0.2c3.2,1.1,6.9,0.4,9.6,3c0.1,0.1,0.2,0.1,0.3,0.1
		c3.1,0.8,6.2,1.6,9.3,2.4c1.7,0.4,3.4-0.1,4.6-1.4c1.3-1.5,2.1-3.3,2.3-5.3c0.4-2.5,2-4.1,3.3-5.9c1-1.3,2.3-2.5,3.6-3.4
		c2.2-1.8,5.1-2.8,8-2.6c2,0.2,3.8-0.7,5.6-1c0.3-0.1,0.6-0.3,0.8-0.5c2.1-1.8,3.1-4.6,2.6-7.3c-0.4-2.2-0.1-4.3-0.2-6.4
		c-0.1-1.2-0.4-2.3-0.7-3.5c0-0.1-0.2-0.2-0.3-0.4c-0.5-0.7-1-1.5-1.4-2.4c-0.7-1.6-1.1-3.4-1.1-5.1c0-2.8-0.8-5.6-1.3-8.4
		c-0.1-0.4-0.2-0.8-0.4-1.2c-0.1-0.2-0.3-0.4-0.6-0.6c-2.1-0.7-2.9-2.3-3-4.3c0-0.5-0.1-1.1-0.3-1.6c-0.9-1.9-1.3-4.1-1.2-6.2
		c0-0.5-0.1-1-0.2-1.4c0-0.7-0.3-1.4-0.1-1.9c1-2.3,2.2-4.6,3.4-6.8c0.3-0.5,0.9-0.9,1.6-1.5c0.5,4.9,1,9.4,1.5,13.9h0.2v-5h0.2
		c0.6,2.3,1.1,4.6,1.7,6.8h0.3c-0.2-3.3-0.4-6.6-0.7-9.9c0.8,2,0.8,4.1,1.7,6.1c0.7,1.7,0.5,3.8,0.6,5.7v1.2h0.3
		c1.1-3.9,2.3-7.7,1.7-11.9c-0.5-3.4-1-6.8-1.6-10.2c-0.5-2.5-0.7-5.1-1.7-7.4c-3.9-9.1-10.4-16.9-18.7-22.4
		c-3.4-2.5-7.2-4.5-11.1-6c-2.8-1-5.6-2.2-8.4-3.3c-1.3-0.5-2.6-1-3.8-1.6c-2.2-1.1-4.6-1.3-6.9-0.6c-0.6,0.2-1.1,0.4-1.7,0.5
		c-3,0.4-6.1,0.5-9,1.1c-17.6,3.4-31.5,12.7-42.2,27c-1.5,1.9-2.5,4.2-3,6.6c-1.2,5-1.5,10.1-0.7,15.2c0.4,2.3,0.7,4.7,1.1,7.1
		l0.2-0.1l1.8-4.2c-0.7,5-0.9,12.9,0,15.4c-0.1-4.8,0.2-9.3,2.2-13.5v16.1h0.5c0.1-1,0.2-1.9,0.2-2.9c0.1-3.5,0.1-7,0.3-10.5
		c0.2-1.2,0.4-2.4,0.8-3.5c0.2,1.2,0.3,2.5,0.2,3.8c-0.1,1.2-0.4,2.4-0.5,3.6C55.4,90.9,56.9,86.6,55.7,81.6L55.7,81.6z
		 M106.3,165.7c2.9,0,3.9-1.4,2.9-4.1c-0.2-0.5-0.4-1-0.6-1.5c-0.7-2.1-2-2.6-4.5-1.9c-1.9,0.5-2.4,1.5-1.9,3.7
		c0,0.2,0.1,0.5,0.1,0.7c0.3,2.8,0.7,2.6,3.2,3.1C105.8,165.8,106,165.8,106.3,165.7L106.3,165.7z M98.3,166.2c1-0.2,2-0.5,3-0.9
		c0.3-0.2,0.5-0.6,0.5-1c-0.2-1.3-0.4-2.5-0.7-3.7c-0.4-1.6-1.6-2.2-3.6-1.9c-1.7,0.2-2.5,1.1-2.4,2.8c0,0.7,0.1,1.4,0.2,2.1
		C95.7,165.9,95.8,166,98.3,166.2L98.3,166.2z M92.4,166.5l1.2-0.2c1-0.2,1.6-0.6,1.2-1.8s-0.8-2.7-1.2-4c-0.3-1.1-1-1.4-2-1.1
		c-1,0.1-1.7,0.9-1.6,1.9c0,1.2,0.3,2.4,0.3,3.6C90.1,166.3,91.1,166.4,92.4,166.5L92.4,166.5z M110.5,165.3
		c0.8,0.1,1.6,0.1,2.4-0.1c0.5-0.1,1.3-0.9,1.3-1.3c-0.3-1.6-0.7-3.2-1.3-4.8c-0.3-0.8-1.1-1.3-2-1c-0.1,0-0.2,0.1-0.3,0.1
		c-0.8,0.4-1.2,1.4-0.9,2.3C109.9,162.1,110.1,163.6,110.5,165.3L110.5,165.3z M114.4,161.3l0.2,0.1c0.1,1,0.3,1.9,0.4,2.9
		c0.1,1.3,0.6,1.7,1.8,1.6s2-0.8,1.8-2c-0.1-1.1-0.4-2.2-0.8-3.2c-0.2-0.6-0.6-1.1-1.1-1.4c-0.4-0.2-1.3-0.3-1.6-0.1
		C114.8,159.9,114.5,160.6,114.4,161.3L114.4,161.3z M90.4,167.1c-0.2-0.7-0.4-1.1-0.6-1.6c-0.5-1.4-0.9-2.9-1.4-4.3
		c-0.1-0.4-0.6-0.6-1-0.5c-0.2,0.1-0.3,0.2-0.4,0.3c-0.7,0.8-0.7,4,0,4.7c0.6,0.5,1.4,0.9,2.1,1.1C89.5,167,89.9,167.1,90.4,167.1
		L90.4,167.1z M127,165.4c-0.4-0.8-0.8-1.6-1.3-2.3c-0.4-0.4-0.8-0.6-1.2-0.9c-0.3,0.6-0.4,1.2-0.5,1.8c0,0.8,0.2,1.6,0.4,2.4
		c0.1,0.3,0.4,0.6,0.7,0.8C126,167.5,126.7,166.8,127,165.4L127,165.4z M119.3,166.1c0.2,0,0.3,0.1,0.5,0.1c1.5,0.1,1.7-0.2,1.5-1.7
		c-0.1-0.9-0.2-1.8-0.4-2.6c-0.2-0.6-0.5-1.1-0.9-1.6h-0.5c-0.2,0.6-0.4,1.2-0.5,1.8C118.9,163.4,119.1,164.7,119.3,166.1
		L119.3,166.1z M87.1,167.4l-2.3-4.6c-1.4,1-1.5,1.4-0.9,2.8c0.2,0.4,0.3,0.8,0.3,1.2c-0.1,1.1,0.6,1.1,1.3,1
		C86.1,167.8,86.6,167.6,87.1,167.4z M80.8,168.7c-0.8-1.3-1.3-2.4-2-3.4c-0.2-0.2-0.5-0.6-0.7-0.5c-0.3,0.1-0.5,0.3-0.7,0.6
		c-0.2,0.4-0.4,0.8-0.3,1.3c0.3,0.8-0.1,2.2,1.3,2.3C79.2,169,80,168.9,80.8,168.7z M83.6,168.2l0.1-0.5c-0.4-0.9-0.9-1.7-1.4-2.5
		c-0.3-0.3-0.7-0.5-1.1-0.5c-0.4,0.1-1.1,0.7-1,0.9c0.3,1,0.8,1.8,1.5,2.6C82,168.5,83,168.2,83.6,168.2z M77.5,169
		c-1.4-1.4-0.4-3.5-1.7-5.1c-1.3,1.8-1.4,3.6-0.5,4.8c0.5,0.7,1.4,0.8,2,0.4C77.4,169.1,77.4,169,77.5,169L77.5,169z M122.2,166.7
		c0.3,0,0.8,0,1.1-0.3s0.2-0.8,0.1-1.2c-0.2-0.9-0.4-1.8-0.6-2.6c-0.1-0.4-0.3-0.7-0.4-1.1c-0.3,0.4-0.5,0.8-0.7,1.2
		c-0.1,0.3,0.1,0.6,0.1,1C121.9,164.6,122,165.5,122.2,166.7z M127.2,162.5c-0.1,0.2-0.2,0.5-0.2,0.7c0.1,1.2,0.2,2.4,0.4,3.5
		c0,0.2,0.3,0.4,0.5,0.4c0.2-0.1,0.5-0.3,0.6-0.5C128.9,165.6,128.3,163.5,127.2,162.5z M128.8,167.6l0.4,0.2
		c0.2-0.2,0.6-0.4,0.6-0.6c0.3-1.1,0.5-2.2,0.6-3.3c0-0.4-0.2-0.8-0.6-1.1c-0.3-0.1-0.6-0.2-0.9-0.1c-0.1,0.4-0.2,0.7-0.1,1.1
		C129.2,165,129.8,166.3,128.8,167.6z M74.2,163.3c-1.6,1.1-1.4,4.2,0,5.2V163.3z"/>
	<path class="st0" d="M89.1,103.4c0,5.8-1.1,11.3-4.7,16.2c-2.2,3.2-5.4,5.6-9,7c-1.5,0.5-3.1,0.4-4.5-0.1c-3.3-1.3-5.9-3.5-6.6-7.3
		c-0.1-0.3-0.2-0.6-0.3-0.8c-3.2-5.4-3-11.1-1.2-16.9c0.5-1.7,1.4-3.3,2.6-4.7c1.4-1.6,2.6-3.3,3.8-5c1-1.4,2.5-2.3,4.2-2.7
		c2.3-0.6,4.7-0.7,6.8,0.8c0.1,0.1,0.3,0.1,0.5,0.1c2-0.3,4.1,0.1,5.9,1c0.4,0.2,0.8,0.6,1,1C88.6,95.8,89.1,99.6,89.1,103.4
		L89.1,103.4z"/>
	<path class="st0" d="M114.4,104.8c-0.1-5,1.5-10,4.4-14.1c0.3-0.3,0.7-0.6,1.1-0.7c2.7-0.8,5.4-0.3,8.2,0c0.3,0.1,0.6,0.1,0.8,0
		c1.7-0.6,3.6,0.1,4.5,1.7c1.1,1.4,2.1,3,2.9,4.7c1.7,3.7,3.1,7.5,4.1,11.4c1.7,6.9-1.4,12.4-6.2,17.1c-1.9,1.9-4.9,2.2-7.2,0.8
		c-1.9-1.1-3.6-2.4-5.1-4c-2-2.2-3.6-4.9-5.4-7.3c-1.5-2.3-2.3-5-2.2-7.8C114.4,105.9,114.4,105.4,114.4,104.8z"/>
	<path class="st0" d="M100.3,135.9c-0.4,1-0.7,2.1-0.9,3.2c-0.4,2.4-2.4,3.2-4.2,4.1c-1,0.5-2-0.4-2-1.6c0.2-1.4,0.2-2.9,0.1-4.3
		c-0.9-5.1,1.4-9.4,3.2-13.9c0.8-1.9,2.7-3.1,4.8-2.9c0.3,0,0.6,0.1,0.9,0.3c0.9,0.8,1.8,1.6,2.6,2.4c2.6,2.6,2.7,5.9,3.1,9.2
		c0.1,1.2,0,2.4,0,3.6c0.2,2.3-1.1,3.8-2.7,5.1c-0.5,0.5-1.4,0.6-2,0.1c-1.2-0.8-2.3-1.6-2.1-3.4c0-0.6-0.1-1.3-0.3-1.9L100.3,135.9
		z"/>
</g>
</svg>
