<svg id="Layer_1" data-name="Layer 1" xmlns="http://www.w3.org/2000/svg" viewBox="0 0 1171 190.5"><defs><style>.cls-1{fill:#fff;}.cls-2{fill:none;stroke:#fff;stroke-miterlimit:10;stroke-width:7px;}</style></defs><path class="cls-1" d="M68.62,64.6l5.13,38.19L79,64.6H93.42L82,128H65.67L54.08,64.6Zm-.86,61.27H79.92L90.57,66.69H81.16l-7.41,49.59L66.53,66.69h-9.6Z"/><path class="cls-1" d="M113.55,128H98.92V64.6h14.63ZM101.3,66.69v59.18h9.88V66.69Z"/><path class="cls-1" d="M147.94,78h-11.3V89.2H147v13.21H136.64v12.35h11.3V128H122.2V64.6h25.74Zm-23.37-11.3v59.18h21v-9H134.26V100.32h10.36v-9H134.26V75.9h11.31V66.69Z"/><path class="cls-1" d="M166.75,64.6l2.76,29.16,5-29.16H184.8l5.42,29.16,2.37-29.16h13.87L199.15,128H184.9l-5.32-28.78L174.64,128H160.58L152.79,64.6Zm-4,61.27h9.79l7-40.18L187,125.87h10l6.84-59.18h-8.93l-3.8,42.94-8.26-42.94h-6.27l-7.79,42.94-4.28-42.94h-9Z"/><path class="cls-1" d="M994.33,84.62V77.68a2.12,2.12,0,0,0-2.28-2.37c-1.61,0-2.66,1.14-2.66,3v3.7a5.46,5.46,0,0,0,3,5.32c.67.38,1.05.57,1.9,1l6.27,4c4.18,2.56,4.18,2.66,5.51,4.37a11.42,11.42,0,0,1,2.47,7.22v8.74c0,10.45-6.08,16.34-17,16.34-10.26,0-16.44-5.42-16.44-14.44v-8h14.25v6.08c0,2.56.76,3.51,2.76,3.51,1.61,0,2.18-.85,2.18-3.51v-4.66c0-1.8-.28-2.66-1.42-3.61a23.84,23.84,0,0,0-3.52-2.56L983,98.39c-5.61-3.13-7.89-6.46-7.89-11.4V77.68c0-9.5,6.37-15.2,16.82-15.2,10.16,0,16.62,5.89,16.62,15.2v6.94Zm11.88-6.94c0-8.07-5.51-13.11-14.25-13.11-5.23,0-8.84,1.33-11.31,4.18a13.64,13.64,0,0,0-3.13,8.93V87c0,4.18,1.9,6.84,6.55,9.5l6.37,3.52c4.65,2.66,6.27,4.65,6.27,8.07v4.66c0,3.89-1.43,5.6-4.66,5.6s-5-1.9-5-5.6v-4h-9.5v5.89c0,7.79,5.13,12.35,14,12.35,9.6,0,14.73-4.94,14.73-14.25V104a10.16,10.16,0,0,0-1.9-5.89c-1-1.43-1.24-1.62-4.85-3.9l-6.27-3.89c-.28-.19-1-.57-1.9-1.14-3-1.71-4.27-3.8-4.27-7.13v-3.7A4.79,4.79,0,0,1,992,73.22c2.85,0,4.75,1.8,4.75,4.46v4.85h9.5Z"/><path class="cls-1" d="M1029.67,127.46H1015V64.1h14.63Zm-12.25-61.27v59.18h9.88V66.19Z"/><path class="cls-1" d="M1069.38,64.1V77.59h-9.59v49.87h-14.35V77.59h-9.78V64.1ZM1038,75.5h9.79v49.87h9.59V75.5h9.6V66.19h-29Z"/><path class="cls-1" d="M1101,77.49h-11.31V88.7h10.36v13.21h-10.36v12.35H1101v13.2h-25.75V64.1H1101Zm-23.38-11.3v59.18h21v-9h-11.3V99.82h10.35v-9h-10.35V75.4h11.3V66.19Z"/><rect class="cls-2" x="9.09" y="10.5" width="1150" height="171"/><path class="cls-1" d="M913.51,111.67a18.46,18.46,0,0,1-4.2,9.29,27.29,27.29,0,0,1-5.27,4.82L899.25,114a8,8,0,0,0,.8-1.45c1.18-3.18.68-5.71-2.41-7.16-4.11-1.92-8.55-3.14-12.83-4.69-3.72-1.35-7.63-2.33-11.08-4.18-8.64-4.63-9.21-15.33-6-22.23a16,16,0,0,1,7.91-8.22c1.42,3.5,4.53,11.35,4.53,11.35a2.38,2.38,0,0,0-.43.76c-1.42,4-.46,6.94,3.52,8.45,4.69,1.77,9.61,2.93,14.38,4.49,4.56,1.49,9.19,3.1,12.24,7a19.08,19.08,0,0,1,3.6,7A15,15,0,0,1,913.51,111.67Z"/><path class="cls-1" d="M905.31,80.45a18.35,18.35,0,0,0-9.08-5.38c-5.31-1.62-12.51.53-12.51.53s-2.76-7.39-4.22-11c8.8-2.1,15.33-1.85,19.42-.78,8.48,2.23,15.66,9,15.66,9S908.29,77.93,905.31,80.45Z"/><path class="cls-1" d="M285.2,106.61l-1.53,0c-6.56,0-5.37.17-5.43,5.84-.05,4.87,0,9.75,0,14.81H265.4V64c.7,0,.83,0,1.25,0,10.56.12,21.16-.12,31.69.53,8.59.54,16.34,4.36,18.7,14,2.43,10,.2,20-10.73,25-2.27,1-2,2-.88,3.61q5.73,8.2,11.39,16.45c.75,1.08,1.41,2.22,2.42,3.81-5.09,0-15.12,0-15.12,0l-.68-1L283.15,96.11a6.1,6.1,0,0,1-.39-.71c3.63,0,7.57.13,11.17,0,4.63-.21,8.33-1.92,10.18-6.58,1.78-4.46-.74-10.44-5.39-11.87a24.68,24.68,0,0,0-6.33-1.07c-4.55-.16-9.1,0-14.05,0v9c0,1.18.19,10.67.19,10.67"/><path class="cls-1" d="M801.83,127.42l-11.17-.09s-.8-1-1.43-1.78q-14.61-19-29.09-38c-.49-.64-1-1.25-1.85-2.28v41.94H745.73V64.43c3.77,0,12.26.07,12.26.07s.57.7,1,1.33q13.76,17.88,27.43,35.82c4.29,5.61,15.28,20.15,15.28,20.15Z"/><path class="cls-1" d="M648.3,101.26V116H684v11.38H636.28V70.92l12.17,12v7.07h35.13v11.32Z"/><path class="cls-1" d="M448.27,127.42c-4.76,0-14.34-.06-14.34-.06s-.29-.73-.55-1.36q-12.33-30.47-24.51-61c-.1-.23-.22-.54-.35-.94h12.54Z"/><path class="cls-1" d="M549.61,127.44c-4.23,0-13.42-.06-13.42-.06s-.36-.74-.62-1.37c-4.8-11.62-9.52-23.29-14.25-34.95q-5.07-12.51-10.14-25c-.23-.56-.49-1.16-.8-2.11,4.31,0,13.48.08,13.48.08s.36,1,.65,1.72q8.75,21.45,17.41,43c2.14,5.26,4.34,10.5,6.49,15.76C548.77,125.31,549.18,126.24,549.61,127.44Z"/><path class="cls-1" d="M381.21,127.42l24.92-58c2.11,5.25,6.2,15.06,6.2,15.06s-.38,1.09-.6,1.64q-7.89,19.8-15.86,39.57c-.3.72-.71,1.66-.71,1.66S385.72,127.42,381.21,127.42Z"/><path class="cls-1" d="M574.38,63.78c-7.59,19.43-15,38.5-22.63,58-2.14-5.37-6.33-15.65-6.33-15.65s.29-1,.57-1.8c4.55-12.46,9.19-24.89,13.7-37.37.84-2.33,1.13-3.16,1.13-3.16S570.52,63.78,574.38,63.78Z"/><path class="cls-1" d="M801.73,113.79c-4.45-5.85-8.54-11.22-12.61-16.62a3.42,3.42,0,0,1-.33-.51s0-21.51,0-32.17h13Z"/><path class="cls-1" d="M636.3,63.89l48.07.06h0c0,4,0,8.12,0,12.12l-35.57.05"/><path class="cls-1" d="M895.68,116s3.12,7.91,4.44,11.21c-3.43.86-11,3-19.54.93s-13.88-7.45-16.53-9.81c2.64-2.12,9.2-7.28,9.2-7.28,2.21,1.44,5.48,4.71,10.66,5.73C888.87,117.74,893.13,116.45,895.68,116Z"/></svg>