<svg id="Layer_1" data-name="Layer 1" xmlns="http://www.w3.org/2000/svg" viewBox="0 0 300 300"><defs><style>.cls-1{fill:#fff;}.cls-2{fill:none;stroke:#fff;stroke-miterlimit:10;stroke-width:4px;}</style></defs><path d="M150,288.5a6.42,6.42,0,0,1-4.19-1.54L73.18,171.53l-8.09-12.84a65,65,0,0,1-5.43-10.49A97.52,97.52,0,0,1,150,14h1.4a97.54,97.54,0,0,1,89,134.11,67.23,67.23,0,0,1-5.54,10.67L154.2,287A6.43,6.43,0,0,1,150,288.5Z"/><path class="cls-1" d="M150,15h1.39a96.55,96.55,0,0,1,88.07,132.74l0,.06A66.67,66.67,0,0,1,234,158.26L226,171,155.52,283l-2.08,3.31a5.46,5.46,0,0,1-6.87,0L144.48,283,74,171l-8.08-12.84a64.24,64.24,0,0,1-5.37-10.36l0,0h0A96.54,96.54,0,0,1,150,15m0-2A98.53,98.53,0,0,0,58.7,148.5l0,.07a65.15,65.15,0,0,0,5.52,10.65l8.08,12.84,70.46,112,2.25,3.57a7.45,7.45,0,0,0,9.93,0l2.24-3.56L227.65,172.1l8-12.78a68.1,68.1,0,0,0,5.59-10.75l0-.07a98.3,98.3,0,0,0,7.1-41.22c-2.17-51.93-45-93.54-97-94.27Z"/><path class="cls-1" d="M133.94,78h9.84c.41,0,.47,0,.62.43s.31.94.46,1.42q1.5,4.78,3,9.58a3.39,3.39,0,0,0,.29.68c.07.11.23.25.34.24a.46.46,0,0,0,.31-.27c.3-.92.57-1.85.86-2.77l2.73-9c.07-.25.18-.32.44-.32h10c.07,8,.11,16,0,24.08H156V87.39c-.5-.09-.6,0-.75.41L151.42,99l-.93,2.67c-.15.45-.19.48-.66.48h-3.1c-.41,0-.46,0-.6-.42q-1.65-4.83-3.32-9.67c-.48-1.41-1-2.82-1.45-4.23-.16-.47-.34-.56-.77-.39v14.65h-6.65Z"/><path class="cls-1" d="M175.8,83.27v4h8.93v5h-8.85a30.71,30.71,0,0,0,0,4.6H188v5.25H168.36V78.37c0-.33,0-.34.34-.34l9.69,0c2.73,0,5.45,0,8.18,0h1.6v5.29Z"/><path class="cls-1" d="M128.35,87.09c0,2.89,0,5.78,0,8.66a6.76,6.76,0,0,1-2,5,4.43,4.43,0,0,1-2.84,1.27c-1.42.1-2.84.13-4.27.15-1.25,0-2.51,0-3.76,0a16.5,16.5,0,0,1-2.43-.22,4.62,4.62,0,0,1-2.8-2A5.7,5.7,0,0,1,109,96.67c-.06-1.24,0-2.48-.06-3.73,0-.17.06-.22.22-.22q3.15,0,6.3,0c.17,0,.25,0,.25.23,0,.58,0,1.16,0,1.73a1.71,1.71,0,0,0,.58,1.35.77.77,0,0,0,.51.2c1.09,0,2.18,0,3.27,0a.83.83,0,0,0,.88-.68c.07-.31.09-.63.13-.94a.41.41,0,0,0,0-.11l0-16c0-.52,0-.52.53-.52H128c.38,0,.38,0,.38.39v8.71Z"/><path class="cls-1" d="M120,114.41h-3.36v3.34h3v3.93h-3v7.63h-4.35V110.45H120Zm-7-3.33v17.61h2.94v-7.63H119v-2.69h-3.06v-4.58h3.37v-2.71Z"/><path class="cls-1" d="M126.08,129.31h-4.35V110.45h4.35Zm-3.64-18.23v17.61h2.94V111.08Z"/><path class="cls-1" d="M132.93,125.52h3.87v3.79h-8.14V110.45h4.27Zm-3.57-14.44v17.61h6.73v-2.54h-3.87V111.08Z"/><path class="cls-1" d="M144,110.45l1.58,7.81,1.5-7.81h5.54v18.86h-4.1V120.6l-1.92,8.71h-2.06l-1.93-8.71v8.71h-4.1V110.45Zm-4.78,18.24H142v-14l3.22,14h.88l3.22-14v14H152V111.08h-4.22l-2.06,10.54-2.24-10.54h-4.18Z"/><path class="cls-1" d="M167.82,117.61v-2.77c0-.63-.26-1-.71-1s-.79.39-.79,1v9.78c0,1,.23,1.41.73,1.41s.77-.45.77-1.41v-2.94h4.27v2.94c0,1.92-.37,3-1.36,4a4.8,4.8,0,0,1-3.59,1.21c-3.42,0-5.12-1.72-5.12-5.17v-9.78c0-3,1.87-4.87,5-4.87,3.31,0,5.09,1.7,5.09,4.87v2.77Zm3.56-2.77c0-2.8-1.47-4.25-4.35-4.25-2.72,0-4.3,1.56-4.3,4.25v9.78c0,3.08,1.41,4.55,4.41,4.55a4.07,4.07,0,0,0,3.14-1.07,4.46,4.46,0,0,0,1.1-3.48V122.3h-2.86v2.32c0,1.33-.5,2-1.47,2s-1.44-.7-1.44-2v-9.78a1.48,1.48,0,0,1,1.5-1.64c.88,0,1.41.62,1.41,1.64V117h2.86Z"/><path class="cls-1" d="M174,114.33c0-2.66,2-4.36,5.09-4.36s5,1.64,5,4.36v11.08a4.63,4.63,0,0,1-1.25,3.14,4.92,4.92,0,0,1-3.76,1.24,4.61,4.61,0,0,1-3.64-1.18,3.82,3.82,0,0,1-1.39-3.2Zm9.33,0c0-2.35-1.58-3.74-4.21-3.74a4.67,4.67,0,0,0-3.22,1,3.62,3.62,0,0,0-1.19,2.75v11.08a3.39,3.39,0,0,0,1.1,2.72,4.06,4.06,0,0,0,3.11,1c1.7,0,2.66-.31,3.39-1.1a4.06,4.06,0,0,0,1-2.66Zm-5.65.42a1.37,1.37,0,1,1,2.74-.17v10.58a1.28,1.28,0,0,1-1.41,1.41,1.23,1.23,0,0,1-1.33-1.41Zm2-.17a.66.66,0,0,0-.68-.71c-.42,0-.65.32-.65.88v10.41c0,.56.17.79.63.79s.7-.23.7-.79Z"/><path class="cls-1" d="M190.15,125.38v3.93h-4.29v-3.93Zm-3.73,3.37h3.17V126h-3.17Z"/><path class="cls-1" d="M151.74,149.28l-1.89-2.92L148,149.28H145.3l3-4.46-2.85-4.25h2.65l1.71,2.73,1.69-2.73h2.66l-2.83,4.23,3,4.48Z"/><polyline class="cls-2" points="140.4 145.01 94.6 145.01 94.6 61.62 205 61.62 205 145.01 159.19 145.01"/></svg>