<?xml version="1.0" encoding="UTF-8"?>
<svg id="Layer_1" xmlns="http://www.w3.org/2000/svg" xmlns:xlink="http://www.w3.org/1999/xlink" version="1.1" viewBox="0 0 1200 1194.5">
  <!-- Generator: Adobe Illustrator 29.2.1, SVG Export Plug-In . SVG Version: 2.1.0 Build 116)  -->
  <defs>
    <style>
      .st0 {
        stroke-width: 55px;
      }

      .st0, .st1 {
        fill: none;
      }

      .st0, .st1, .st2 {
        stroke: #000;
        stroke-miterlimit: 10;
      }

      .st1 {
        stroke-width: 15px;
      }
    </style>
  </defs>
  <circle class="st0" cx="597.8" cy="597.3" r="530.5"/>
  <path class="st2" d="M446.3,338.4h88.3c3.7,0,4.2.3,5.5,3.9,1.5,4.2,2.8,8.5,4.1,12.7,9,28.7,18,57.3,27,86,.7,2.1,1.5,4.2,2.6,6.1.6,1,2,2.2,3,2.2s2.4-1.4,2.8-2.4c2.7-8.2,5.2-16.6,7.7-24.9,8.2-26.8,16.4-53.6,24.5-80.5.7-2.2,1.7-2.9,4-2.9,28.7,0,57.4,0,86.1,0h3.2c.7,72.1,1,144,.1,216.1h-60.9v-131.9c-4.4-.9-5.3-.4-6.7,3.6-11.6,33.5-23.1,67-34.7,100.5-2.8,8-5.5,16-8.3,24-1.4,4-1.8,4.3-6,4.3h-27.8c-3.7,0-4.2-.3-5.4-3.8-10-28.9-19.9-57.9-29.8-86.8-4.3-12.6-8.7-25.3-13-38-1.5-4.2-3.1-5.1-6.9-3.6v131.5h-59.7c0-71.9,0-143.9,0-216.3Z"/>
  <path class="st2" d="M822.1,385.8v35.7h80.2v44.8h-79.5c-1.1,13.8-1.3,27.4-.4,41.2h109.5v47.1h-176.6v-212.9c0-3,0-3,3-3,29-.2,58-.4,87-.5,24.5,0,48.9,0,73.4,0h14.4v47.5c-37,0-73.9,0-111.1,0Z"/>
  <path class="st2" d="M396.1,420.1c0,25.9.3,51.8,0,77.7-.2,17.1-5.6,32.4-18.2,44.5-7,6.8-15.8,10.7-25.5,11.4-12.8.9-25.5,1.1-38.3,1.4-11.3.2-22.5.3-33.8,0-7.3-.2-14.7-.7-21.8-2-10.9-2-18.6-9.2-25.1-17.7-6.6-8.6-10.2-18.5-10.6-29.3-.5-11.1-.3-22.3-.5-33.5,0-1.5.6-2,2-2,18.8,0,37.7,0,56.5,0,1.6,0,2.3.5,2.2,2.1,0,5.2,0,10.3,0,15.5-.1,4.9,1.8,8.9,5.2,12.1,1.1,1.1,3,1.8,4.6,1.8,9.8.2,19.6.1,29.4,0,4.2,0,6.9-2,7.9-6.1.7-2.7.8-5.6,1.2-8.4,0-.3,0-.6,0-.9,0-47.9.1-95.8.2-143.6q0-4.7,4.8-4.7h56.7c3.4,0,3.4,0,3.4,3.5v78.2s0,0-.1,0Z"/>
  <path class="st2" d="M612.1,948.3l-17-26.2-17,26.2h-23.9l27.3-40.1-25.5-38.1h23.8l15.3,24.5,15.1-24.5h23.9l-25.4,38,27.2,40.2h-23.8Z"/>
  <line class="st1" x1="649.2" y1="907.6" x2="786.2" y2="907.6"/>
  <line class="st1" x1="403.2" y1="907.6" x2="540.2" y2="907.6"/>
  <g>
    <path class="st2" d="M286.6,691.8v-12.9c0-2.8-1.6-4.4-4.2-4.4s-4.9,2.1-4.9,5.7v6.9c0,4.8,1.6,7.4,5.6,9.9,1.2.7,1.9,1.1,3.5,1.9l11.6,7.4c7.8,4.8,7.8,4.9,10.2,8.1,3,3.7,4.6,8.5,4.6,13.4v16.2c0,19.4-11.3,30.3-31.6,30.3s-30.5-10.1-30.5-26.8v-14.8h26.5v11.3c0,4.8,1.4,6.5,5.1,6.5s4.1-1.6,4.1-6.5v-8.6c0-3.3-.5-4.9-2.6-6.7-1.6-1.6-4.6-3.5-6.5-4.8l-11.8-6.5c-10.4-5.8-14.6-12-14.6-21.2v-17.3c0-17.6,11.8-28.2,31.2-28.2s30.9,10.9,30.9,28.2v12.9h-26.5ZM308.7,678.9c0-15-10.2-24.3-26.5-24.3s-16.4,2.5-21,7.8c-3.7,4.2-5.8,10.2-5.8,16.6v17.3c0,7.8,3.5,12.7,12.2,17.6l11.8,6.5c8.6,4.9,11.6,8.6,11.6,15v8.6c0,7.2-2.6,10.4-8.6,10.4s-9.4-3.5-9.4-10.4v-7.4h-17.6v10.9c0,14.5,9.5,22.9,25.9,22.9s27.3-9.2,27.3-26.5v-16.2c0-3.9-1.2-7.8-3.5-10.9-1.9-2.7-2.3-3-9-7.2l-11.6-7.2c-.5-.3-1.8-1.1-3.5-2.1-5.6-3.2-7.9-7.1-7.9-13.2v-6.9c0-5.7,3.7-9.5,9.2-9.5s8.8,3.3,8.8,8.3v9h17.6v-9h0Z"/>
    <path class="st2" d="M420,653.7v25h-17.8v92.6h-26.6v-92.6h-18.2v-25h62.6ZM361.8,674.8h18.2v92.6h17.8v-92.6h17.8v-17.3h-53.8v17.3h0Z"/>
    <path class="st2" d="M492.5,653.7v88.7c0,5.8,1.2,7.6,4.8,7.6s4.9-1.9,4.9-7.6v-88.7h26.8v91.6c0,10.2-2.7,16.6-9,21.9-6,4.9-13.4,7.2-23.3,7.2-19.6,0-31.4-9.9-31.4-26.3v-94.4h27.2ZM469.7,748c0,14.1,9.9,22.4,27,22.4s15.5-2.1,20.6-6.5c5.1-4.6,7.2-9.9,7.2-18.7v-87.7h-18v84.9c0,7.8-3,11.5-9.2,11.5s-9.4-3.3-9.4-11.5v-84.9h-18.4v90.5h0Z"/>
    <path class="st2" d="M578.4,653.7h36c18.7,0,27,7.9,27,25.6v66.3c0,8.1-1.9,14.5-5.8,19-4.4,5.1-9.3,6.7-20.3,6.7h-36.9v-117.7ZM615.3,767.4c9.7,0,13.6-1.2,17.1-5.7,3-3.7,4.6-9.2,4.6-16.2v-66.3c0-15.5-6.5-21.7-22.6-21.7h-31.6v109.9h32.5ZM601.9,675.3h6.7c7.1,0,10.2,3.7,10.2,11.8v52.6c0,8.6-2.7,11.6-10.2,11.6h-6.7v-76ZM608.6,747.5c4.9,0,5.8-1.2,5.8-7.8v-52.6c0-5.8-1.6-7.9-5.8-7.9h-2.3v68.3h2.3Z"/>
    <path class="st2" d="M718.1,771.3h-27.2v-117.7h27.2v117.7ZM695.4,657.5v109.9h18.3v-109.9h-18.3Z"/>
    <path class="st2" d="M767.7,677.8c0-16.6,12.3-27.2,31.8-27.2s30.9,10.2,30.9,27.2v69.2c0,7.2-3,14.6-7.8,19.6-5.3,5.3-12.5,7.8-23.5,7.8s-16.6-1.8-22.8-7.4c-6.2-5.3-8.6-11.3-8.6-19.9v-69.2h0ZM825.9,677.8c0-14.6-9.9-23.3-26.3-23.3s-15.2,1.9-20.1,6.2c-4.8,4.2-7.4,10.4-7.4,17.1v69.2c0,7.4,1.9,12.2,6.9,16.9,5.3,4.8,10.2,6.5,19.4,6.5s16.6-1.9,21.2-6.9c3.9-4.2,6.3-10.6,6.3-16.6v-69.2ZM790.6,680.5c0-5.8,3.2-9.3,8.5-9.3s8.6,3.5,8.6,8.3v66c0,5.7-3.2,8.8-8.8,8.8s-8.3-3-8.3-8.8v-64.9ZM803.3,679.4c0-2.7-1.8-4.4-4.2-4.4s-4.1,1.9-4.1,5.5v64.9c0,3.5,1.1,4.9,3.9,4.9s4.4-1.4,4.4-4.9v-66Z"/>
    <path class="st2" d="M912.5,691.8v-12.9c0-2.8-1.6-4.4-4.2-4.4s-4.9,2.1-4.9,5.7v6.9c0,4.8,1.6,7.4,5.7,9.9,1.2.7,1.9,1.1,3.5,1.9l11.6,7.4c7.8,4.8,7.8,4.9,10.2,8.1,3,3.7,4.6,8.5,4.6,13.4v16.2c0,19.4-11.3,30.3-31.6,30.3s-30.5-10.1-30.5-26.8v-14.8h26.5v11.3c0,4.8,1.4,6.5,5.1,6.5s4.1-1.6,4.1-6.5v-8.6c0-3.3-.5-4.9-2.7-6.7-1.6-1.6-4.6-3.5-6.5-4.8l-11.8-6.5c-10.4-5.8-14.6-12-14.6-21.2v-17.3c0-17.6,11.8-28.2,31.2-28.2s30.9,10.9,30.9,28.2v12.9h-26.5ZM934.6,678.9c0-15-10.2-24.3-26.5-24.3s-16.4,2.5-21,7.8c-3.7,4.2-5.8,10.2-5.8,16.6v17.3c0,7.8,3.5,12.7,12.2,17.6l11.8,6.5c8.6,4.9,11.6,8.6,11.6,15v8.6c0,7.2-2.7,10.4-8.6,10.4s-9.3-3.5-9.3-10.4v-7.4h-17.6v10.9c0,14.5,9.5,22.9,25.9,22.9s27.3-9.2,27.3-26.5v-16.2c0-3.9-1.2-7.8-3.5-10.9-1.9-2.7-2.3-3-9-7.2l-11.6-7.2c-.5-.3-1.8-1.1-3.5-2.1-5.7-3.2-7.9-7.1-7.9-13.2v-6.9c0-5.7,3.7-9.5,9.2-9.5s8.8,3.3,8.8,8.3v9h17.6v-9h0Z"/>
  </g>
</svg>