<?xml version="1.0" encoding="utf-8"?>
<!-- Generator: Adobe Illustrator 27.0.1, SVG Export Plug-In . SVG Version: 6.00 Build 0)  -->
<svg version="1.1" id="Layer_1" xmlns="http://www.w3.org/2000/svg" xmlns:xlink="http://www.w3.org/1999/xlink" x="0px" y="0px"
	 viewBox="0 0 1200 1194.5" style="enable-background:new 0 0 1200 1194.5;" xml:space="preserve">
<style type="text/css">
	.st0{stroke:#FFFFFF;stroke-miterlimit:10;}
	.st1{fill:#FFFFFF;stroke:#FFFFFF;stroke-width:30;stroke-miterlimit:10;}
	.st2{fill:none;stroke:#FFFFFF;stroke-width:45;stroke-miterlimit:10;}
	.st3{fill:#FFFFFF;stroke:#FFFFFF;stroke-miterlimit:10;}
	.st4{fill:#FFFFFF;stroke:#FFFFFF;stroke-width:15;stroke-miterlimit:10;}
	.st5{fill:#FFFFFF;}
	.st6{fill:none;stroke:#FFFFFF;stroke-width:55;stroke-miterlimit:10;}
	.st7{fill:#FFFFFF;stroke:#FFFFFF;stroke-width:8;stroke-miterlimit:10;}
</style>
<circle class="st6" cx="597.75" cy="597.3" r="530.5"/>
<path class="st3" d="M446.33,338.38c1.07,0,1.98,0,2.89,0c28.48,0,56.96,0,85.43,0c3.68,0,4.24,0.26,5.53,3.86
	c1.51,4.19,2.8,8.46,4.14,12.72c9.01,28.66,17.99,57.34,27.03,85.99c0.67,2.12,1.5,4.23,2.62,6.14c0.6,1.02,2.02,2.21,3.01,2.16
	c0.99-0.05,2.43-1.38,2.78-2.44c2.7-8.25,5.19-16.58,7.73-24.88c8.19-26.83,16.4-53.65,24.52-80.5c0.68-2.24,1.67-2.9,4.01-2.89
	c28.71,0.09,57.42,0.06,86.13,0.06c0.92,0,1.83,0,3.25,0c0.66,72.11,0.95,144.04,0.12,216.1c-20.43,0-40.54,0-60.92,0
	c0-43.98,0-87.96,0-131.89c-4.44-0.85-5.35-0.39-6.73,3.61c-11.56,33.49-23.1,66.99-34.66,100.48c-2.76,7.99-5.51,15.99-8.3,23.97
	c-1.41,4.05-1.78,4.28-5.96,4.29c-9.26,0-18.52,0-27.78,0c-3.69,0-4.21-0.33-5.39-3.75c-9.96-28.92-19.9-57.85-29.84-86.78
	c-4.35-12.65-8.66-25.31-13.01-37.95c-1.45-4.21-3.1-5.06-6.94-3.56c0,43.74,0,87.53,0,131.52c-19.91,0-39.69,0-59.66,0
	C446.33,482.7,446.33,410.73,446.33,338.38z"/>
<path class="st3" d="M822.07,385.77c0,12.11,0,23.79,0,35.73c26.76,0,53.42,0,80.21,0c0,15.01,0,29.78,0,44.83
	c-26.42,0-52.84,0-79.49,0c-1.11,13.84-1.28,27.41-0.36,41.22c36.55,0,72.94,0,109.47,0c0,15.83,0,31.43,0,47.14
	c-58.84,0-117.6,0-176.61,0c0-0.95,0-1.77,0-2.6c0-70.1,0-140.2,0-210.3c0-3,0-3.01,3.05-3.03c29.01-0.17,58.02-0.39,87.03-0.48
	c24.46-0.08,48.92,0.01,73.38,0.02c4.76,0,9.53,0,14.43,0c0,16.16,0,31.7,0,47.48C896.17,385.77,859.25,385.77,822.07,385.77z"/>
<path class="st3" d="M396.11,420.1c0,25.91,0.26,51.82-0.09,77.72c-0.23,17.06-5.63,32.4-18.19,44.55
	c-7.05,6.82-15.77,10.7-25.46,11.38c-12.75,0.9-25.55,1.12-38.34,1.36c-11.26,0.21-22.53,0.28-33.79-0.04
	c-7.3-0.21-14.66-0.69-21.83-1.99c-10.92-1.98-18.63-9.16-25.12-17.67c-6.58-8.62-10.16-18.51-10.63-29.29
	c-0.48-11.15-0.34-22.33-0.52-33.5c-0.02-1.53,0.56-1.99,2.04-1.99c18.83,0.03,37.66,0.04,56.49-0.01c1.57,0,2.26,0.48,2.25,2.09
	c-0.05,5.17,0.07,10.33-0.09,15.5c-0.15,4.91,1.83,8.88,5.19,12.13c1.1,1.06,3.02,1.75,4.58,1.77c9.8,0.16,19.6,0.12,29.4,0.06
	c4.23-0.03,6.88-2.01,7.88-6.09c0.67-2.74,0.83-5.61,1.2-8.43c0.04-0.3,0.01-0.62,0.01-0.92c0.07-47.88,0.14-95.76,0.21-143.64
	c0.01-4.7,0-4.7,4.78-4.7c18.91,0,37.81,0,56.72,0c3.42,0,3.42,0.02,3.42,3.53c0,26.06,0,52.12,0,78.19
	C396.17,420.1,396.14,420.1,396.11,420.1z"/>
<g>
	<path class="st3" d="M612.1,948.31l-16.99-26.24l-16.99,26.24h-23.9l27.3-40.06l-25.54-38.07h23.78l15.35,24.48l15.11-24.48h23.9
		l-25.42,37.96l27.18,40.18H612.1z"/>
</g>
<line class="st4" x1="649.18" y1="907.58" x2="786.24" y2="907.58"/>
<line class="st4" x1="403.17" y1="907.58" x2="540.23" y2="907.58"/>
<g>
	<path class="st3" d="M286.63,691.76v-12.88c0-2.82-1.59-4.41-4.23-4.41c-3,0-4.94,2.12-4.94,5.65v6.88c0,4.76,1.59,7.41,5.65,9.88
		c1.24,0.71,1.94,1.06,3.53,1.94l11.64,7.41c7.76,4.76,7.76,4.94,10.23,8.11c3,3.71,4.59,8.47,4.59,13.41v16.23
		c0,19.41-11.29,30.34-31.58,30.34c-19.05,0-30.52-10.06-30.52-26.81v-14.82h26.46v11.29c0,4.76,1.41,6.53,5.12,6.53
		c3,0,4.06-1.59,4.06-6.53v-8.64c0-3.35-0.53-4.94-2.65-6.7c-1.59-1.59-4.59-3.53-6.53-4.76l-11.82-6.53
		c-10.41-5.82-14.64-12-14.64-21.17v-17.29c0-17.64,11.82-28.23,31.23-28.23c18.88,0,30.87,10.94,30.87,28.23v12.88H286.63z
		 M308.68,678.88c0-15-10.23-24.35-26.46-24.35c-9.7,0-16.41,2.47-20.99,7.76c-3.71,4.23-5.82,10.23-5.82,16.58v17.29
		c0,7.76,3.53,12.7,12.17,17.64l11.82,6.53c8.64,4.94,11.64,8.64,11.64,15v8.64c0,7.23-2.65,10.41-8.64,10.41
		c-6.17,0-9.35-3.53-9.35-10.41v-7.41h-17.64v10.94c0,14.47,9.53,22.93,25.93,22.93c17.82,0,27.34-9.17,27.34-26.46v-16.23
		c0-3.88-1.24-7.76-3.53-10.94c-1.94-2.65-2.29-3-9-7.23l-11.64-7.23c-0.53-0.35-1.76-1.06-3.53-2.12
		c-5.65-3.18-7.94-7.06-7.94-13.23v-6.88c0-5.65,3.71-9.53,9.17-9.53c5.29,0,8.82,3.35,8.82,8.29v9h17.64V678.88z"/>
	<path class="st3" d="M420,653.65v25.05h-17.82v92.62h-26.64V678.7h-18.17v-25.05H420z M361.78,674.82h18.17v92.62h17.82v-92.62
		h17.82v-17.29h-53.81V674.82z"/>
	<path class="st3" d="M492.5,653.65v88.74c0,5.82,1.24,7.59,4.76,7.59c3.7,0,4.94-1.94,4.94-7.59v-88.74h26.82v91.56
		c0,10.23-2.65,16.58-9,21.88c-6,4.94-13.41,7.23-23.29,7.23c-19.58,0-31.4-9.88-31.4-26.29v-94.38H492.5z M469.74,748.03
		c0,14.11,9.88,22.4,26.99,22.4c9,0,15.52-2.12,20.64-6.53c5.12-4.59,7.23-9.88,7.23-18.7v-87.68h-18v84.86
		c0,7.76-3,11.47-9.17,11.47c-6.53,0-9.35-3.35-9.35-11.47v-84.86h-18.35V748.03z"/>
	<path class="st3" d="M578.42,653.65h35.99c18.7,0,26.99,7.94,26.99,25.58v66.33c0,8.12-1.94,14.47-5.82,19.05
		c-4.41,5.12-9.35,6.7-20.29,6.7h-36.87V653.65z M615.29,767.44c9.7,0,13.58-1.24,17.11-5.65c3-3.7,4.59-9.17,4.59-16.23v-66.33
		c0-15.52-6.53-21.7-22.58-21.7h-31.58v109.91H615.29z M601.88,675.35h6.7c7.06,0,10.23,3.71,10.23,11.82v52.57
		c0,8.64-2.65,11.64-10.23,11.64h-6.7V675.35z M608.58,747.5c4.94,0,5.82-1.24,5.82-7.76v-52.57c0-5.82-1.59-7.94-5.82-7.94h-2.29
		v68.27H608.58z"/>
	<path class="st3" d="M718.13,771.32h-27.17V653.65h27.17V771.32z M695.38,657.53v109.91h18.35V657.53H695.38z"/>
	<path class="st3" d="M767.7,677.82c0-16.58,12.35-27.17,31.76-27.17c19.23,0,30.87,10.23,30.87,27.17v69.16
		c0,7.23-3,14.64-7.76,19.58c-5.29,5.29-12.53,7.76-23.46,7.76c-11.11,0-16.58-1.76-22.76-7.41c-6.17-5.29-8.64-11.29-8.64-19.94
		V677.82z M825.92,677.82c0-14.64-9.88-23.29-26.29-23.29c-9,0-15.17,1.94-20.11,6.17c-4.76,4.23-7.41,10.41-7.41,17.11v69.16
		c0,7.41,1.94,12.17,6.88,16.94c5.29,4.76,10.23,6.53,19.41,6.53c10.59,0,16.58-1.94,21.17-6.88c3.88-4.23,6.35-10.58,6.35-16.58
		V677.82z M790.64,680.47c0-5.82,3.18-9.35,8.47-9.35c5.12,0,8.64,3.53,8.64,8.29v65.98c0,5.65-3.18,8.82-8.82,8.82
		c-5.29,0-8.29-3-8.29-8.82V680.47z M803.34,679.41c0-2.65-1.76-4.41-4.23-4.41c-2.65,0-4.06,1.94-4.06,5.47v64.92
		c0,3.53,1.06,4.94,3.88,4.94c3.18,0,4.41-1.41,4.41-4.94V679.41z"/>
	<path class="st3" d="M912.54,691.76v-12.88c0-2.82-1.59-4.41-4.23-4.41c-3,0-4.94,2.12-4.94,5.65v6.88c0,4.76,1.59,7.41,5.65,9.88
		c1.23,0.71,1.94,1.06,3.53,1.94l11.64,7.41c7.76,4.76,7.76,4.94,10.23,8.11c3,3.71,4.59,8.47,4.59,13.41v16.23
		c0,19.41-11.29,30.34-31.58,30.34c-19.05,0-30.52-10.06-30.52-26.81v-14.82h26.46v11.29c0,4.76,1.41,6.53,5.12,6.53
		c3,0,4.06-1.59,4.06-6.53v-8.64c0-3.35-0.53-4.94-2.65-6.7c-1.59-1.59-4.59-3.53-6.53-4.76l-11.82-6.53
		c-10.41-5.82-14.64-12-14.64-21.17v-17.29c0-17.64,11.82-28.23,31.23-28.23c18.88,0,30.87,10.94,30.87,28.23v12.88H912.54z
		 M934.59,678.88c0-15-10.23-24.35-26.46-24.35c-9.7,0-16.41,2.47-20.99,7.76c-3.71,4.23-5.82,10.23-5.82,16.58v17.29
		c0,7.76,3.53,12.7,12.17,17.64l11.82,6.53c8.64,4.94,11.64,8.64,11.64,15v8.64c0,7.23-2.65,10.41-8.64,10.41
		c-6.17,0-9.35-3.53-9.35-10.41v-7.41h-17.64v10.94c0,14.47,9.53,22.93,25.93,22.93c17.82,0,27.34-9.17,27.34-26.46v-16.23
		c0-3.88-1.23-7.76-3.53-10.94c-1.94-2.65-2.29-3-9-7.23l-11.64-7.23c-0.53-0.35-1.76-1.06-3.53-2.12
		c-5.65-3.18-7.94-7.06-7.94-13.23v-6.88c0-5.65,3.71-9.53,9.17-9.53c5.29,0,8.82,3.35,8.82,8.29v9h17.64V678.88z"/>
</g>
</svg>
