<?xml version="1.0" encoding="utf-8"?>
<!-- Generator: Adobe Illustrator 26.3.1, SVG Export Plug-In . SVG Version: 6.00 Build 0)  -->
<svg version="1.1" id="Layer_1" xmlns="http://www.w3.org/2000/svg" xmlns:xlink="http://www.w3.org/1999/xlink" x="0px" y="0px"
	 viewBox="0 0 2632.8 2060.1" style="enable-background:new 0 0 2632.8 2060.1;" xml:space="preserve">
<style type="text/css">
	.st0{fill:#010101;}
	.st1{fill:#231F20;}
	.st2{fill:none;stroke:#231F20;stroke-width:100;stroke-miterlimit:10;}
</style>
<g>
	<path class="st0" d="M1456,630.6c-14-0.6-14-0.6-18.5,11.5c-28.1,81-55.5,161.4-83.6,242.4c-8.3,24.9-17.2,49.8-25.5,74.6
		c-3.8,11.5-3.8,11.5-16.6,11.5c-23,0-45.9,0-68.9,0c-11.5,0-11.5,0-15.3-11.5c-17.9-51.7-35.7-103.3-53.6-155
		c-17.9-52.9-36.4-105.9-54.2-158.2c-0.6-1.9-1.3-4.5-2.6-6.4c-3.8-8.9-5.7-9.6-17.9-7.7c0,112.9,0,225.2,0,338.7
		c-51.7,0-102.1,0-153.1,0c0-185,0-369.3,0-554.9c78.5,0,156.3,0,234.7,0c3.8,3.8,5.7,8.9,7.7,14c21.7,68.9,43.4,137.1,65.1,206
		c5.1,15.3,9.6,30.6,14,45.9c1.3,4.5,3.8,8.9,5.7,13.4c1.3,3.2,3.8,5.7,7.7,5.7c4.5,0,6.4-3.2,7.7-7c2.6-7.7,5.1-14.7,7-22.3
		c10.2-33.2,19.8-66.3,30-98.9c14.7-49.1,30-98.2,45.3-147.3c0.6-2.6,1.9-5.7,3.2-8.9c78.5,0,156.9,0,236,0
		c1.9,7.7,2.6,540.9,0.6,554.9c-51.7,0-102.7,0-155.6,0C1456,856.4,1456,744.1,1456,630.6z"/>
	<path class="st0" d="M1910.8,536.2c0,31.3,0,61.2,0,92.5c68.9,0,137.1,0,206.7,0c0,38.3,0,75.9,0,114.2c-68.3,0-136.5,0-204.1,0
		c-2.6,8.9-3.8,88-1.3,106.5c93.1,0,186.9,0,281.3,0c0,40.8,0,80.4,0,120.6c-150.5,0-301.7,0-452.9,0c0-184.3,0-369.3,0-553.7
		c7.7-2.6,440.1-3.2,455.4-0.6c0,39.5,0,79.1,0,120.6c-31.3,0-62.5,0-93.8,0c-31.9,0-63.8,0-95.7,0
		C1974.6,536.2,1943.3,536.2,1910.8,536.2z"/>
	<path class="st0" d="M374.2,754.3c50.4,0,101.4,0,152.5,0c2.6,1.9,1.3,5.1,1.9,8.3c0,12.8,0.6,25.5,0,38.3
		c-0.6,10.8,4.5,19.1,10.2,26.8c3.8,5.1,9.6,8.3,16.6,8.3c24.2,0,48.5,0,73.4,0c12.1,0,19.1-5.7,21.7-17.2
		c1.9-7.7,2.6-15.3,2.6-23.6c0-121.8,0-243.7,0.6-365.5c0-4.5-0.6-8.9,1.3-14c54.2,0,108.4,0,162.7,0c2.6,2.6,1.9,5.7,1.9,8.3
		c0,132.7,0.6,265.4,0,398.7c0,31.9-8.9,62.5-25.5,89.9c-20.4,33.8-51.7,52.3-91.2,56.1c-52.3,5.1-104,1.3-156.3,2.6
		c-23,0.6-45.9-0.6-68.3-3.2c-18.5-1.9-35.1-8.9-49.1-20.4c-30-24.2-47.8-56.1-52.9-94.4c-3.8-31.9-1.9-64.4-1.9-96.3
		C372.9,755.6,373.5,755.6,374.2,754.3z"/>
</g>
<path class="st1" d="M626.5,1257.9h-77.4v76.7h70.2v90.3h-70.2v175.5H449.1v-433.5h177.5V1257.9z M465.3,1181.2v404.9h67.6v-175.5
	h70.2v-61.8h-70.2v-105.3h77.3v-62.4L465.3,1181.2z"/>
<path class="st1" d="M766.3,1600.5H666.2v-433.5h100.1V1600.5z M682.4,1181.2v404.9H750v-404.9H682.4z"/>
<path class="st1" d="M923.5,1513.4h89v87.1H825.3v-433.5h98.2L923.5,1513.4z M841.6,1181.2v404.9h154.7v-58.5h-89v-346.4H841.6z"/>
<path class="st1" d="M1179,1166.9l36.4,179.4l34.4-179.4h127.4v433.5H1283v-200.2l-44.2,200.2h-47.4l-44.2-200.2v200.2h-94.2v-433.5
	H1179z M1069.2,1586.2h61.8v-321.7l74.1,321.8h20.2l74.1-321.8v321.8h61.8v-404.9h-96.8l-47.4,242.4l-51.3-242.4h-96.2
	L1069.2,1586.2z"/>
<path class="st1" d="M1725.6,1331.4v-63.7c0-14.3-5.9-23.4-16.2-23.4c-11,0-18.2,9.1-18.2,23.4v224.9c0,22.1,5.2,32.5,16.9,32.5
	s17.6-10.4,17.6-32.5V1425h98.1v67.6c0,44.2-8.4,69.6-31.2,91c-20.8,19.5-45.5,28-82.6,28c-78.7,0-117.7-39.7-117.7-119v-224.9
	c0-69.5,42.9-111.8,114.4-111.8c76,0,117,39,117,111.8v63.7H1725.6z M1807.5,1267.7c0-64.3-33.8-97.5-100.1-97.5
	c-62.4,0-98.8,35.8-98.8,97.5v224.9c0,70.8,32.5,104.7,101.4,104.7c33.1,0,54.6-7.2,72.1-24.7c18.2-18.8,25.4-40.3,25.4-80v-53.3
	h-65.6v53.3c0,30.6-11.7,46.8-33.8,46.8s-33.2-16.2-33.2-46.8v-224.9c0-22.8,13.7-37.7,34.5-37.7c20.1,0,32.5,14.3,32.5,37.7v49.4
	h65.6L1807.5,1267.7z"/>
<path class="st1" d="M1867.3,1256c0-61.1,45.5-100.1,117-100.1c70.8,0,113.7,37.7,113.7,100.1v254.8c0,26.7-11,53.9-28.6,72.2
	c-19.5,19.5-46.1,28.6-86.4,28.6c-40.9,0-61.1-6.5-83.9-27.3c-22.8-19.5-31.9-41.6-31.9-73.4L1867.3,1256z M2081.8,1256
	c0-53.9-36.4-85.8-96.8-85.8c-33.1,0-55.9,7.2-74.1,22.8c-17.6,15.6-27.3,38.3-27.3,63v254.8c0,27.3,7.1,44.8,25.4,62.4
	c19.5,17.6,37.7,24,71.5,24c39,0,61.1-7.2,78-25.3c14.3-15.6,23.4-39,23.4-61.1V1256z M1951.8,1265.7c0-21.4,11.7-34.4,31.2-34.4
	c18.9,0,31.9,13,31.9,30.5v243.1c0,20.8-11.7,32.5-32.5,32.5c-19.5,0-30.6-11-30.6-32.5V1265.7z M1998.6,1261.8
	c0-9.7-6.5-16.2-15.6-16.2c-9.8,0-14.9,7.2-14.9,20.1v239.2c0,13,3.9,18.2,14.3,18.2c11.7,0,16.2-5.2,16.2-18.2V1261.8z"/>
<path class="st1" d="M2239.1,1510.1v90.3h-98.8v-90.3H2239.1z M2153.3,1587.5h72.8v-64.3h-72.8V1587.5z"/>
<path class="st1" d="M1354.6,2060.1l-43.5-67.2l-43.5,67.2h-61.2l69.9-102.6l-65.4-97.5h60.9l39.3,62.7l38.7-62.7h61.2l-65.1,97.2
	l69.6,102.9L1354.6,2060.1z"/>
<line class="st2" x1="2632.8" y1="1959.3" x2="1528.1" y2="1959.3"/>
<line class="st2" x1="2583" y1="2009.5" x2="2583" y2="0"/>
<line class="st2" x1="2632.8" y1="49.6" x2="0" y2="49.6"/>
<line class="st2" x1="48.1" y1="1.7" x2="48.1" y2="2008.5"/>
<line class="st2" x1="0" y1="1958.8" x2="1094.1" y2="1958.8"/>
</svg>
