<?xml version="1.0" encoding="utf-8"?>
<!-- Generator: Adobe Illustrator 26.3.1, SVG Export Plug-In . SVG Version: 6.00 Build 0)  -->
<svg version="1.1" id="Layer_1" xmlns="http://www.w3.org/2000/svg" xmlns:xlink="http://www.w3.org/1999/xlink" x="0px" y="0px"
	 viewBox="0 0 2632.8 1450.1" style="enable-background:new 0 0 2632.8 1450.1;" xml:space="preserve">
<style type="text/css">
	.st0{fill:#FFFFFF;}
	.st1{fill:none;stroke:#FFFFFF;stroke-width:100;stroke-miterlimit:10;}
</style>
<g>
	<path class="st0" d="M1456,630.6c-14-0.6-14-0.6-18.5,11.5c-28.1,81-55.5,161.4-83.6,242.4c-8.3,24.9-17.2,49.8-25.5,74.6
		c-3.8,11.5-3.8,11.5-16.6,11.5c-23,0-45.9,0-68.9,0c-11.5,0-11.5,0-15.3-11.5c-17.9-51.7-35.7-103.3-53.6-155
		c-17.9-52.9-36.4-105.9-54.2-158.2c-0.6-1.9-1.3-4.5-2.6-6.4c-3.8-8.9-5.7-9.6-17.9-7.7c0,112.9,0,225.2,0,338.7
		c-51.7,0-102.1,0-153.1,0c0-185,0-369.3,0-554.9c78.5,0,156.3,0,234.7,0c3.8,3.8,5.7,8.9,7.7,14c21.7,68.9,43.4,137.1,65.1,206
		c5.1,15.3,9.6,30.6,14,45.9c1.3,4.5,3.8,8.9,5.7,13.4c1.3,3.2,3.8,5.7,7.7,5.7c4.5,0,6.4-3.2,7.7-7c2.6-7.7,5.1-14.7,7-22.3
		c10.2-33.2,19.8-66.3,30-98.9c14.7-49.1,30-98.2,45.3-147.3c0.6-2.6,1.9-5.7,3.2-8.9c78.5,0,156.9,0,236,0
		c1.9,7.7,2.6,540.9,0.6,554.9c-51.7,0-102.7,0-155.6,0C1456,856.4,1456,744.1,1456,630.6z"/>
	<path class="st0" d="M1910.8,536.2c0,31.3,0,61.2,0,92.5c68.9,0,137.1,0,206.7,0c0,38.3,0,75.9,0,114.2c-68.3,0-136.5,0-204.1,0
		c-2.6,8.9-3.8,88-1.3,106.5c93.1,0,186.9,0,281.3,0c0,40.8,0,80.4,0,120.6c-150.5,0-301.7,0-452.9,0c0-184.3,0-369.3,0-553.7
		c7.7-2.6,440.1-3.2,455.4-0.6c0,39.5,0,79.1,0,120.6c-31.3,0-62.5,0-93.8,0c-31.9,0-63.8,0-95.7,0
		C1974.6,536.2,1943.3,536.2,1910.8,536.2z"/>
	<path class="st0" d="M374.2,754.3c50.4,0,101.4,0,152.5,0c2.6,1.9,1.3,5.1,1.9,8.3c0,12.8,0.6,25.5,0,38.3
		c-0.6,10.8,4.5,19.1,10.2,26.8c3.8,5.1,9.6,8.3,16.6,8.3c24.2,0,48.5,0,73.4,0c12.1,0,19.1-5.7,21.7-17.2
		c1.9-7.7,2.6-15.3,2.6-23.6c0-121.8,0-243.7,0.6-365.5c0-4.5-0.6-8.9,1.3-14c54.2,0,108.4,0,162.7,0c2.6,2.6,1.9,5.7,1.9,8.3
		c0,132.7,0.6,265.4,0,398.7c0,31.9-8.9,62.5-25.5,89.9c-20.4,33.8-51.7,52.3-91.2,56.1c-52.3,5.1-104,1.3-156.3,2.6
		c-23,0.6-45.9-0.6-68.3-3.2c-18.5-1.9-35.1-8.9-49.1-20.4c-30-24.2-47.8-56.1-52.9-94.4c-3.8-31.9-1.9-64.4-1.9-96.3
		C372.9,755.6,373.5,755.6,374.2,754.3z"/>
</g>
<path class="st0" d="M1354.6,1450.1l-43.5-67.2l-43.5,67.2h-61.2l69.9-102.6l-65.4-97.5h60.9l39.3,62.7l38.7-62.7h61.2l-65.1,97.2
	l69.6,102.9H1354.6z"/>
<line class="st1" x1="2632.8" y1="1349.3" x2="1528.1" y2="1349.3"/>
<line class="st1" x1="2583" y1="1398.1" x2="2583" y2="0"/>
<line class="st1" x1="2632.8" y1="49.6" x2="0" y2="49.6"/>
<line class="st1" x1="48.1" y1="1.7" x2="48.1" y2="1398.1"/>
<line class="st1" x1="0" y1="1348.8" x2="1094.1" y2="1348.8"/>
</svg>
