<svg xmlns="http://www.w3.org/2000/svg" xmlns:xlink="http://www.w3.org/1999/xlink" id="Layer_1" x="0" y="0" version="1.1" viewBox="0 0 600 600" xml:space="preserve" style="enable-background:new 0 0 600 600"><style type="text/css">.st0{fill:#010101}.st1{fill:#c2b18f}</style><g><path d="M65.1,422.2c0-88.7,0-177.3,0-266c156.7,0,313.4,0,470.1,0c0,88.7,0,177.3,0,266 C378.5,422.2,221.9,422.2,65.1,422.2z M515.4,175.9c-143.5,0-286.9,0-430.4,0c0,75.7,0,151.2,0,226.9c143.5,0,286.9,0,430.4,0 C515.4,327.1,515.4,251.5,515.4,175.9z" class="st0"/><path d="M429.6,443.2c-0.2,0-0.3,0-0.5,0c0-0.3-0.1-0.6,0.3-0.6C429.8,442.5,429.7,442.9,429.6,443.2z" class="st1"/><path d="M315.8,277.5c-2.2-0.1-2.2-0.1-2.9,1.8c-4.4,12.7-8.7,25.3-13.1,38c-1.3,3.9-2.7,7.8-4,11.7 c-0.6,1.8-0.6,1.8-2.6,1.8c-3.6,0-7.2,0-10.8,0c-1.8,0-1.8,0-2.4-1.8c-2.8-8.1-5.6-16.2-8.4-24.3c-2.8-8.3-5.7-16.6-8.5-24.8 c-0.1-0.3-0.2-0.7-0.4-1c-0.6-1.4-0.9-1.5-2.8-1.2c0,17.7,0,35.3,0,53.1c-8.1,0-16,0-24,0c0-29,0-57.9,0-87c12.3,0,24.5,0,36.8,0 c0.6,0.6,0.9,1.4,1.2,2.2c3.4,10.8,6.8,21.5,10.2,32.3c0.8,2.4,1.5,4.8,2.2,7.2c0.2,0.7,0.6,1.4,0.9,2.1c0.2,0.5,0.6,0.9,1.2,0.9 c0.7,0,1-0.5,1.2-1.1c0.4-1.2,0.8-2.3,1.1-3.5c1.6-5.2,3.1-10.4,4.7-15.5c2.3-7.7,4.7-15.4,7.1-23.1c0.1-0.4,0.3-0.9,0.5-1.4 c12.3,0,24.6,0,37,0c0.3,1.2,0.4,84.8,0.1,87c-8.1,0-16.1,0-24.4,0C315.8,313,315.8,295.3,315.8,277.5z" class="st0"/><polyline points="274 246 273.3 243.8 272.9 243.8" class="st0"/><path d="M387.1,262.7c0,4.9,0,9.6,0,14.5c10.8,0,21.5,0,32.4,0c0,6,0,11.9,0,17.9c-10.7,0-21.4,0-32,0 c-0.4,1.4-0.6,13.8-0.2,16.7c14.6,0,29.3,0,44.1,0c0,6.4,0,12.6,0,18.9c-23.6,0-47.3,0-71,0c0-28.9,0-57.9,0-86.8 c1.2-0.4,69-0.5,71.4-0.1c0,6.2,0,12.4,0,18.9c-4.9,0-9.8,0-14.7,0c-5,0-10,0-15,0C397.1,262.7,392.2,262.7,387.1,262.7z" class="st0"/><path d="M146.2,297c7.9,0,15.9,0,23.9,0c0.4,0.3,0.2,0.8,0.3,1.3c0,2,0.1,4,0,6c-0.1,1.7,0.7,3,1.6,4.2 c0.6,0.8,1.5,1.3,2.6,1.3c3.8,0,7.6,0,11.5,0c1.9,0,3-0.9,3.4-2.7c0.3-1.2,0.4-2.4,0.4-3.7c0-19.1,0-38.2,0.1-57.3 c0-0.7-0.1-1.4,0.2-2.2c8.5,0,17,0,25.5,0c0.4,0.4,0.3,0.9,0.3,1.3c0,20.8,0.1,41.6,0,62.5c0,5-1.4,9.8-4,14.1 c-3.2,5.3-8.1,8.2-14.3,8.8c-8.2,0.8-16.3,0.2-24.5,0.4c-3.6,0.1-7.2-0.1-10.7-0.5c-2.9-0.3-5.5-1.4-7.7-3.2 c-4.7-3.8-7.5-8.8-8.3-14.8c-0.6-5-0.3-10.1-0.3-15.1C146,297.1,146.1,297.1,146.2,297z" class="st0"/></g></svg>