<?xml version="1.0" encoding="utf-8"?>
<!-- Generator: Adobe Illustrator 25.4.1, SVG Export Plug-In . SVG Version: 6.00 Build 0)  -->
<svg version="1.1" id="Layer_1" xmlns="http://www.w3.org/2000/svg" xmlns:xlink="http://www.w3.org/1999/xlink" x="0px" y="0px"
	 viewBox="0 0 600 600" style="enable-background:new 0 0 600 600;" xml:space="preserve">
<style type="text/css">
	.st0{fill:#010101;}
	.st1{fill:#C2B18F;}
</style>
<g>
	<path class="st0" d="M65.1,415.2c0-88.7,0-177.3,0-266c156.7,0,313.4,0,470.1,0c0,88.7,0,177.3,0,266
		C378.5,415.2,221.9,415.2,65.1,415.2z M515.4,169c-143.5,0-286.9,0-430.4,0c0,75.7,0,151.2,0,226.9c143.5,0,286.9,0,430.4,0
		C515.4,320.2,515.4,244.6,515.4,169z"/>
	<path class="st1" d="M429.6,436.2c-0.2,0-0.3,0-0.5,0c0-0.3-0.1-0.6,0.3-0.6C429.8,435.6,429.7,436,429.6,436.2z"/>
	<path class="st0" d="M315.8,270.6c-2.2-0.1-2.2-0.1-2.9,1.8c-4.4,12.7-8.7,25.3-13.1,38c-1.3,3.9-2.7,7.8-4,11.7
		c-0.6,1.8-0.6,1.8-2.6,1.8c-3.6,0-7.2,0-10.8,0c-1.8,0-1.8,0-2.4-1.8c-2.8-8.1-5.6-16.2-8.4-24.3c-2.8-8.3-5.7-16.6-8.5-24.8
		c-0.1-0.3-0.2-0.7-0.4-1c-0.6-1.4-0.9-1.5-2.8-1.2c0,17.7,0,35.3,0,53.1c-8.1,0-16,0-24,0c0-29,0-57.9,0-87c12.3,0,24.5,0,36.8,0
		c0.6,0.6,0.9,1.4,1.2,2.2c3.4,10.8,6.8,21.5,10.2,32.3c0.8,2.4,1.5,4.8,2.2,7.2c0.2,0.7,0.6,1.4,0.9,2.1c0.2,0.5,0.6,0.9,1.2,0.9
		c0.7,0,1-0.5,1.2-1.1c0.4-1.2,0.8-2.3,1.1-3.5c1.6-5.2,3.1-10.4,4.7-15.5c2.3-7.7,4.7-15.4,7.1-23.1c0.1-0.4,0.3-0.9,0.5-1.4
		c12.3,0,24.6,0,37,0c0.3,1.2,0.4,84.8,0.1,87c-8.1,0-16.1,0-24.4,0C315.8,306,315.8,288.4,315.8,270.6z"/>
	<polyline class="st0" points="274,239 273.3,236.8 272.9,236.8 	"/>
	<path class="st0" d="M387.1,255.8c0,4.9,0,9.6,0,14.5c10.8,0,21.5,0,32.4,0c0,6,0,11.9,0,17.9c-10.7,0-21.4,0-32,0
		c-0.4,1.4-0.6,13.8-0.2,16.7c14.6,0,29.3,0,44.1,0c0,6.4,0,12.6,0,18.9c-23.6,0-47.3,0-71,0c0-28.9,0-57.9,0-86.8
		c1.2-0.4,69-0.5,71.4-0.1c0,6.2,0,12.4,0,18.9c-4.9,0-9.8,0-14.7,0c-5,0-10,0-15,0C397.1,255.8,392.2,255.8,387.1,255.8z"/>
	<path class="st0" d="M146.2,290c7.9,0,15.9,0,23.9,0c0.4,0.3,0.2,0.8,0.3,1.3c0,2,0.1,4,0,6c-0.1,1.7,0.7,3,1.6,4.2
		c0.6,0.8,1.5,1.3,2.6,1.3c3.8,0,7.6,0,11.5,0c1.9,0,3-0.9,3.4-2.7c0.3-1.2,0.4-2.4,0.4-3.7c0-19.1,0-38.2,0.1-57.3
		c0-0.7-0.1-1.4,0.2-2.2c8.5,0,17,0,25.5,0c0.4,0.4,0.3,0.9,0.3,1.3c0,20.8,0.1,41.6,0,62.5c0,5-1.4,9.8-4,14.1
		c-3.2,5.3-8.1,8.2-14.3,8.8c-8.2,0.8-16.3,0.2-24.5,0.4c-3.6,0.1-7.2-0.1-10.7-0.5c-2.9-0.3-5.5-1.4-7.7-3.2
		c-4.7-3.8-7.5-8.8-8.3-14.8c-0.6-5-0.3-10.1-0.3-15.1C146,290.2,146.1,290.2,146.2,290z"/>
</g>
<g>
	<path class="st0" d="M116.6,450.1h-1.4v-11.3h-0.2l-3.6,10.8c-0.1,0.4-0.2,0.5-0.6,0.5h-0.8c-0.4,0-0.5-0.1-0.6-0.5l-3.6-10.9h-0.2
		v11.4h-1.4v-12.6h2.2c0.4,0,0.5,0.1,0.6,0.5l3.4,10.3h0.2l3.3-10.3c0.1-0.4,0.2-0.5,0.6-0.5h2.1V450.1z"/>
	<path class="st0" d="M127.8,437.5c1.2,0,1.6,0.1,2,0.5c0.7,0.6,1,1.5,1,5.8s-0.4,5.2-1,5.8c-0.4,0.4-0.8,0.5-2,0.5H124
		c-1.1,0-1.6-0.1-2-0.5c-0.6-0.6-1-1.5-1-5.8s0.4-5.2,1-5.8c0.4-0.4,0.8-0.5,2-0.5H127.8z M122.9,448.6c0.2,0.2,0.4,0.3,1.2,0.3h3.6
		c0.8,0,1-0.1,1.2-0.3c0.3-0.3,0.6-0.9,0.6-4.8s-0.3-4.5-0.6-4.8c-0.2-0.2-0.4-0.3-1.2-0.3h-3.6c-0.8,0-1,0.1-1.2,0.3
		c-0.3,0.3-0.6,0.9-0.6,4.8S122.7,448.3,122.9,448.6z"/>
	<path class="st0" d="M139.4,438.7v11.4h-1.4v-11.4h-4.1v-1.2h9.6v1.2H139.4z"/>
	<path class="st0" d="M146.9,450.1v-12.6h1.4v12.6H146.9z"/>
	<path class="st0" d="M159.7,437.5c1.2,0,1.6,0.1,2,0.5c0.7,0.6,1,1.5,1,5.8s-0.4,5.2-1,5.8c-0.4,0.4-0.8,0.5-2,0.5h-3.9
		c-1.1,0-1.6-0.1-2-0.5c-0.6-0.6-1-1.5-1-5.8s0.4-5.2,1-5.8c0.4-0.4,0.8-0.5,2-0.5H159.7z M154.8,448.6c0.2,0.2,0.4,0.3,1.2,0.3h3.6
		c0.8,0,1-0.1,1.2-0.3c0.3-0.3,0.6-0.9,0.6-4.8s-0.3-4.5-0.6-4.8c-0.2-0.2-0.4-0.3-1.2-0.3h-3.6c-0.8,0-1,0.1-1.2,0.3
		c-0.3,0.3-0.6,0.9-0.6,4.8S154.5,448.3,154.8,448.6z"/>
	<path class="st0" d="M176.7,450.1h-1.5c-0.5,0-0.6-0.1-0.8-0.5l-5.8-10.3h-0.2v10.8H167v-12.6h1.6c0.5,0,0.6,0.1,0.8,0.5l5.7,10
		h0.2v-10.5h1.4V450.1z"/>
	<path class="st0" d="M194.6,444.6c-0.4,0.4-1,0.5-1.9,0.5h-4.6v5h-1.4v-12.6h6c0.9,0,1.5,0.1,1.9,0.5c0.5,0.5,0.9,1.2,0.9,3.3
		C195.6,443.4,195.2,444.1,194.6,444.6z M192.4,443.9c0.7,0,1-0.1,1.2-0.3c0.2-0.2,0.5-0.7,0.5-2.3c0-1.7-0.3-2.1-0.5-2.3
		c-0.2-0.2-0.5-0.3-1.2-0.3h-4.3v5.2H192.4z"/>
	<path class="st0" d="M199.5,450.1v-12.6h1.4v12.6H199.5z"/>
	<path class="st0" d="M214,449.6c-0.4,0.4-0.8,0.5-2,0.5h-3.7c-1.1,0-1.6-0.1-2-0.5c-0.6-0.6-1-1.5-1-5.8s0.4-5.2,1-5.8
		c0.4-0.4,0.8-0.5,2-0.5h3.7c1.1,0,1.6,0.1,2,0.5c0.6,0.6,0.9,1.3,0.9,3.4h-1.4c-0.1-1.7-0.3-2.2-0.5-2.4c-0.2-0.2-0.4-0.3-1.2-0.3
		h-3.4c-0.8,0-1,0.1-1.2,0.3c-0.3,0.3-0.6,0.9-0.6,4.8s0.3,4.5,0.6,4.8c0.2,0.2,0.4,0.3,1.2,0.3h3.4c0.8,0,1-0.1,1.2-0.3
		c0.3-0.3,0.4-0.7,0.5-2.6h1.4C214.9,448.4,214.6,449,214,449.6z"/>
	<path class="st0" d="M223.3,438.7v11.4h-1.4v-11.4h-4.1v-1.2h9.6v1.2H223.3z"/>
	<path class="st0" d="M240.4,445c0,3-0.3,3.8-0.9,4.5c-0.5,0.5-1.2,0.6-2.6,0.6h-2.6c-1.4,0-2.1-0.2-2.6-0.6
		c-0.6-0.6-0.9-1.4-0.9-4.5v-7.5h1.4v7.7c0,2.5,0.2,3,0.5,3.3c0.2,0.2,0.5,0.3,1.8,0.3h2.2c1.2,0,1.5-0.1,1.7-0.3
		c0.3-0.3,0.5-0.8,0.5-3.3v-7.7h1.4V445z"/>
	<path class="st0" d="M252.1,445c-0.3-0.3-0.6-0.3-1.4-0.3h-4.2v5.5h-1.4v-12.6h6.4c0.9,0,1.5,0.1,1.9,0.5c0.5,0.5,0.8,1.1,0.8,3
		c0,2.2-0.6,2.8-1.9,3.1v0c1.2,0.3,1.7,0.6,1.8,2.7c0.1,1.5,0.1,2.6,0.2,3.3h-1.4c-0.1-0.8-0.2-2-0.2-3.3
		C252.5,445.5,252.4,445.2,252.1,445z M251.1,443.4c0.6,0,0.9-0.1,1.1-0.3c0.2-0.2,0.5-0.6,0.5-2.1c0-1.4-0.3-1.9-0.5-2.1
		c-0.2-0.2-0.5-0.3-1.1-0.3h-4.6v4.7H251.1z"/>
	<path class="st0" d="M266.9,450.1h-8.3v-12.6h8.4v1.2h-7v4.2h6v1.2h-6v4.7h6.9V450.1z"/>
	<path class="st0" d="M284.5,449.5c-0.4,0.4-0.9,0.6-1.8,0.6h-4.3c-0.9,0-1.5-0.1-1.8-0.5c-0.5-0.5-0.7-1-0.7-3.3h1.4
		c0,1.8,0.1,2.1,0.3,2.3c0.2,0.2,0.4,0.3,1,0.3h3.9c0.6,0,0.8-0.1,1-0.3c0.2-0.2,0.3-0.7,0.3-1.9c0-1.2-0.1-1.5-0.3-1.8
		c-0.2-0.2-0.4-0.3-1.1-0.3l-3.9-0.4c-1-0.1-1.5-0.3-1.9-0.6c-0.5-0.5-0.6-1-0.6-2.6c0-1.5,0.2-2.3,0.7-2.9c0.3-0.4,0.9-0.6,1.8-0.6
		h3.9c0.9,0,1.5,0.1,1.9,0.5c0.5,0.5,0.6,1,0.7,3.2h-1.4c0-1.6-0.1-2-0.3-2.2c-0.2-0.2-0.4-0.3-1-0.3h-3.5c-0.6,0-0.8,0.1-1,0.3
		c-0.2,0.3-0.3,0.8-0.3,1.9c0,1.1,0.1,1.4,0.3,1.7c0.2,0.2,0.4,0.3,1.1,0.3l3.9,0.4c1,0.1,1.5,0.3,1.8,0.6c0.5,0.5,0.6,1.1,0.6,2.7
		C285.2,448.3,285,449,284.5,449.5z"/>
	<path class="st0" d="M293.6,438.7v11.4h-1.4v-11.4h-4.1v-1.2h9.6v1.2H293.6z"/>
	<path class="st0" d="M310.7,445c0,3-0.3,3.8-0.9,4.5c-0.5,0.5-1.2,0.6-2.6,0.6h-2.6c-1.4,0-2.1-0.2-2.6-0.6
		c-0.6-0.6-0.9-1.4-0.9-4.5v-7.5h1.4v7.7c0,2.5,0.2,3,0.5,3.3c0.2,0.2,0.5,0.3,1.8,0.3h2.2c1.2,0,1.5-0.1,1.7-0.3
		c0.3-0.3,0.5-0.8,0.5-3.3v-7.7h1.4V445z"/>
	<path class="st0" d="M321.1,437.5c1.4,0,2.1,0.2,2.7,0.8c0.8,0.7,1.2,2.1,1.2,5.5s-0.5,4.8-1.2,5.5c-0.6,0.5-1.3,0.8-2.7,0.8h-5.7
		v-12.6H321.1z M322.7,439.2c-0.4-0.4-0.7-0.5-1.6-0.5h-4.3v10.2h4.3c0.9,0,1.2-0.1,1.6-0.5c0.5-0.5,0.9-1.5,0.9-4.6
		C323.5,440.6,323.2,439.6,322.7,439.2z"/>
	<path class="st0" d="M329.3,450.1v-12.6h1.4v12.6H329.3z"/>
	<path class="st0" d="M342,437.5c1.2,0,1.6,0.1,2,0.5c0.7,0.6,1,1.5,1,5.8s-0.4,5.2-1,5.8c-0.4,0.4-0.8,0.5-2,0.5h-3.9
		c-1.1,0-1.6-0.1-2-0.5c-0.6-0.6-1-1.5-1-5.8s0.4-5.2,1-5.8c0.4-0.4,0.8-0.5,2-0.5H342z M337.1,448.6c0.2,0.2,0.4,0.3,1.2,0.3h3.6
		c0.8,0,1-0.1,1.2-0.3c0.3-0.3,0.6-0.9,0.6-4.8s-0.3-4.5-0.6-4.8c-0.2-0.2-0.4-0.3-1.2-0.3h-3.6c-0.8,0-1,0.1-1.2,0.3
		c-0.3,0.3-0.6,0.9-0.6,4.8S336.9,448.3,337.1,448.6z"/>
	<path class="st0" d="M358.3,443h2.9v1.2h-2.9v2.9h-1.2v-2.9h-2.9V443h2.9V440h1.2V443z"/>
	<path class="st0" d="M372,438.7v4.5h5.4v1.2H372v5.7h-1.4v-12.6h7.9v1.2H372z"/>
	<path class="st0" d="M382.2,450.1v-12.6h1.4v12.6H382.2z"/>
	<path class="st0" d="M389.8,448.9h6.4v1.2h-7.8v-12.6h1.4V448.9z"/>
	<path class="st0" d="M412.3,450.1h-1.4v-11.3h-0.2l-3.6,10.8c-0.1,0.4-0.2,0.5-0.6,0.5h-0.8c-0.4,0-0.5-0.1-0.6-0.5l-3.6-10.9h-0.2
		v11.4h-1.4v-12.6h2.2c0.4,0,0.5,0.1,0.6,0.5l3.4,10.3h0.2l3.3-10.3c0.1-0.4,0.2-0.5,0.6-0.5h2.1V450.1z"/>
	<path class="st0" d="M429,446.2h-5.3l-1.2,3.9h-1.4l4.1-12.2c0.1-0.4,0.2-0.5,0.7-0.5h1.1c0.5,0,0.6,0.1,0.7,0.5l4.1,12.2h-1.5
		L429,446.2z M424.1,445h4.5l-2.1-6.3h-0.4L424.1,445z"/>
	<path class="st0" d="M441.6,437.5c1.1,0,1.6,0.1,2,0.5c0.6,0.6,0.9,1.3,0.9,3.3h-1.4c-0.1-1.5-0.2-2-0.5-2.3
		c-0.2-0.2-0.4-0.3-1.1-0.3H438c-0.8,0-1,0.1-1.2,0.3c-0.3,0.3-0.6,0.9-0.6,4.8s0.3,4.5,0.6,4.8c0.2,0.2,0.4,0.3,1.2,0.3h3.5
		c0.8,0,1-0.1,1.1-0.3c0.3-0.3,0.5-0.8,0.5-3.3v-0.4h-3.4v-1.2h4.8v1c0,3.4-0.3,4.2-1,4.9c-0.4,0.4-0.8,0.5-2,0.5h-3.8
		c-1.1,0-1.6-0.1-2-0.5c-0.6-0.6-1-1.5-1-5.8s0.4-5.2,1-5.8c0.4-0.4,0.8-0.5,2-0.5H441.6z"/>
	<path class="st0" d="M457.2,450.1h-8.3v-12.6h8.4v1.2h-7v4.2h6v1.2h-6v4.7h6.9V450.1z"/>
	<path class="st0" d="M470.8,450.1h-1.5c-0.5,0-0.6-0.1-0.8-0.5l-5.8-10.3h-0.2v10.8h-1.4v-12.6h1.6c0.5,0,0.6,0.1,0.8,0.5l5.7,10
		h0.2v-10.5h1.4V450.1z"/>
	<path class="st0" d="M483.9,449.6c-0.4,0.4-0.8,0.5-2,0.5h-3.7c-1.1,0-1.6-0.1-2-0.5c-0.6-0.6-1-1.5-1-5.8s0.4-5.2,1-5.8
		c0.4-0.4,0.8-0.5,2-0.5h3.7c1.1,0,1.6,0.1,2,0.5c0.6,0.6,0.9,1.3,0.9,3.4h-1.4c-0.1-1.7-0.3-2.2-0.5-2.4c-0.2-0.2-0.4-0.3-1.2-0.3
		h-3.4c-0.8,0-1,0.1-1.2,0.3c-0.3,0.3-0.6,0.9-0.6,4.8s0.3,4.5,0.6,4.8c0.2,0.2,0.4,0.3,1.2,0.3h3.4c0.8,0,1-0.1,1.2-0.3
		c0.3-0.3,0.5-0.7,0.5-2.6h1.4C484.8,448.4,484.5,449,483.9,449.6z"/>
	<path class="st0" d="M493.3,445.1v5h-1.4v-5l-4.4-7.6h1.5l3.5,6.2h0.1l3.5-6.2h1.5L493.3,445.1z"/>
</g>
</svg>
