<svg xmlns="http://www.w3.org/2000/svg" xmlns:xlink="http://www.w3.org/1999/xlink" id="Layer_1" x="0" y="0" version="1.1" viewBox="0 0 600 600" xml:space="preserve" style="enable-background:new 0 0 600 600"><style type="text/css">.st0{fill:#010101}</style><g><path d="M226.2,460.3c-4.1-3.1-8.2-6.3-11.7-10.1c-8.1-8.9-12.6-19.4-14.6-31.2c0-0.3,0.2-0.6,0.5-1.2 c19.5,10.2,33.1,24.8,36.4,47.1c2.3,1.8,4.5,1.9,6.9,2.1c8,0.5,15.9,1,23.8,2.7c12.1,2.5,23.5,6.2,31.9,15.7c0.6-0.1,1-0.1,1.1-0.3 c9.4-10.3,22-13.8,35.1-16.1c6.9-1.2,13.9-1.8,20.8-2c2.2-0.1,4.3-0.4,6.9-1.7c3.2-22.2,16.7-37.2,36.4-47.4 c1.3,1.7,0.2,3.1-0.1,4.4c-2.9,14.2-10.1,25.9-21.5,34.9c-0.8,0.6-1.5,1.3-2.2,2c-0.6,0.4-1.2,0.8-1.8,1.1 c-1.1,0.9-2.8,1.1-3.2,2.8c-0.3,0.1-0.6,0.1-0.5,0.1c-0.1,0.1,0.1-0.1,0.4-0.2c1.5-0.2,2.9-0.8,4.2-1.7c0.7-0.3,1.4-0.5,2.2-0.8 c10.9-4.5,21.2-10.3,31.5-16.5c-1.4-10.9-0.3-21.1,4.5-30.8c3.9-7.7,9.3-14.1,16.1-20.2c1.8,7.6,1.4,14.7-0.1,21.8 c-1.2,5.8-3.5,11.1-6.6,16.1c-0.8,1.3-2.2,2.5-1.9,4.4c4.3-1.1,19.3-11.3,27-18.4c-4-10.7-5.8-21.9-2.7-33.5 c2-7.5,5.6-14.2,10.2-20.3c1.7,0.4,1.5,1.8,1.9,2.8c5.1,14,5,27.7-1.8,41.2c-0.5,1-1.3,2,0.1,3.7c10.2-8,19.5-16.9,27.3-27 c0.2-2.6-1.3-4-2.3-5.7c-3-5.2-5.5-10.7-6.6-16.6c-2-10.8-0.5-21.2,4.7-32.2c5.3,7.1,8.6,14.6,10.3,23c1.7,8.5,0.3,16.8-1.8,25.1 c8.5-10.3,14.7-21.7,19.8-33.7c-1-2.5-2.9-4-4.4-5.7c-11.6-13-15.2-28.1-12.3-45.1c0.1-0.5,0.3-1,1.1-1.2 c11.9,11.5,19.1,25.1,18.9,42.3c4.4-10.8,7.3-21.7,9-33.4c-9.8-6.6-18-14.5-22.9-25.3c-2.9-6.6-4.5-13.5-4.7-21.5 c14.1,8.9,24.5,19.9,28.6,36.1c2.2-5.6,3.3-23.7,2.1-31.5c-2-1.8-4.6-2.6-6.9-3.8c-15.3-7.8-25.8-19.7-31-36.2 c-0.1-0.5-0.2-1-0.3-1.4c0-0.1,0.1-0.3,0.3-0.9c8.4,3.3,16,7.7,22.7,13.7c6.7,5.9,11.5,13.2,15,22c-0.8-11.9-2.9-22.9-6-33.7 c-2.2-1.5-4.5-1.8-6.7-2.5c-16.5-5.1-29.4-14.6-37.9-29.8c-0.4-0.7-0.7-1.5-1.1-2.2c0-0.1,0.1-0.3,0.3-0.8 c10.5,2.6,20.4,6.6,29.2,13.2c4.6,3.5,8.2,7.8,11.9,12c0.2,0.4,0.4,1,0.9,0.6c0.2-0.2,0-0.9,0-1.3c-2.8-9.1-6.5-17.8-11.1-26.2 c-13.3-1-25.8-3.9-37-11.2c-5.7-3.7-10.9-8.1-15.3-13.5c10.4-1.8,32.1,4,45.2,15.2c0.3,0.3,0.6,0.6,1,0.8c0.4,0.3,0.6,1.1,1.4,0.8 c0.3-0.7,0-1.2-0.6-1.5c-0.2-0.4-0.4-0.9-0.6-1.3c-4.4-7.7-9.8-14.6-16.2-21.6c-21.1,2.5-40.7-2-58.6-16.1c7.6-1,14.3-1.1,21.1-0.4 c9.2,0.9,18,3.4,26.2,7.7c1,0.5,2,1.3,3.2,0.6c-0.3,0.3-0.3,0.6,0,0.7c0,0,0.1-0.2,0.1-0.3c0.2-0.6,0,0.2-0.3-0.3 c-7.2-7.3-15.1-13.3-25.4-16c-16.1-4.2-28.6-13.8-37.4-28.1c-0.4-0.7-0.8-1.4-1.2-2.1c1.2-1.2,2.3-0.4,3.3-0.2 c7.6,1.9,15,4.5,21.8,8.6c7.6,4.5,14,10.2,18.8,17.6c1.7,2.6,3.8,4.5,6.5,6c3.7,2.1,7.3,4.4,11.3,6.5c-6-11.2-8.3-23-5.9-36.1 c11.8,10.8,20.2,22.8,19.9,38.7c-0.2,7.5,1.3,13.6,6.8,18.6c1.4,1.3,2.1,3.4,4.6,4.6c-1.7-10.9-0.5-20.9,4.1-31.2 c9.2,13,14.5,26.5,10,41.9c-2.1,7.1-2,13.1,1.9,19.3c1.2,1.9,1.9,4.2,3.3,6.3c1-11.4,5.3-21.4,12-30.5c6.4,14.3,7.9,31.5-5.4,51 c0.8,3.2,1.6,6.5,2.4,9.9c0.8,3.3,1.5,6.7,2.7,10c3.4-11.7,9.9-21.1,18.7-29.2c4.7,17.1-0.4,35.5-16.8,51.2c0,3.7,0,7.6,0,11.6 c0,4,0,7.9,0,11.9c3.4-5.5,6.8-10.8,11.3-15.5c4.4-4.5,9.2-8.4,14.9-11.9c-0.7,21.9-11.5,37-29,48c-1.6,6.9-3.1,13.4-4.9,20.9 c4.3-2.6,6.6-6,9.7-8.4c3.3-2.5,6.7-4.9,10.4-6.9c3.5-1.9,7-3.7,10.8-5.1c1.2,1.3,0.1,2.3-0.2,3.3c-5.2,15-15,26.1-29.1,33.5 c-2.4,1.2-4.7,2.4-7.2,3.5c-1.6,0.7-2.7,1.8-3.5,3.4c-2.3,4.8-4.6,9.6-6.9,14.4c-0.2,0.5-0.4,0.9-0.6,1.4c-0.2,0.2-0.6,0.6-0.5,0.7 c0.3,0.7,0.8,0.3,1.2,0c0.3-0.3,0.7-0.5,1-0.8c9.4-6.2,19.6-10.3,31.2-12.7c-8.1,14.9-19.6,24.9-34.8,30.7 c-0.6,0.2-1.2,0.5-1.9,0.6c-8.1,1.2-13.9,5.8-18.2,12.5c-1,1.6-2.8,2.7-3.7,5.1c5.5-1.3,10.2-3.4,15.3-4.2c5-0.8,10-1.8,15.6-1.7 c-1.5,2.6-3.5,4.2-5.2,5.9c-11.9,11.5-26.2,18.1-42.6,19.9c-4.1,0.4-7.7,1.5-10.9,4.2c-4.2,3.5-8.7,6.6-13,10.2 c6.2-0.5,12.1-2.4,18.3-2.5c6.3-0.1,12.6-0.2,19,0.4c-0.3,1.9-1.8,2.1-2.8,2.9c-14.9,10.6-31.5,15.9-49.8,14.6 c-7.2-0.5-13.4,0.9-19.4,4.7c-4,2.6-8.5,4.5-12.7,7.1c7.6-0.2,15.1-0.8,22.6,0.2c7.4,1,14.7,2.7,22.4,5.4c-8.1,3.7-15.9,6.2-24,7.5 c-12.7,2.2-25.2,1.3-37.6-2.5c-4.1-1.2-8-1.6-12.2-0.9c-4,0.7-8.2-0.1-12.4,0.3c-8.6,1-17.1,2.5-25.3,5.4 c-4.7,1.6-9.3,3.7-13.3,6.7c-2.7,2-5.2,4.2-6.8,7.6c1.5,4.3,2.5,8.8,1.7,13.5c-3.7,2.9-3.7,2.9-7.7,0.2c-0.9-4.7,0.1-9.2,1.8-13.5 c-1.7-3.9-4.6-6.3-7.8-8.4c-7-4.8-14.9-7.4-23.1-9.1c-8-1.7-16-3.3-24.3-2.4c-0.2,0-0.3,0-0.5,0c-6.5-2-12.4,0.4-18.5,1.9 c-19.4,4.7-38,2-56.1-5.9c9.3-4.8,25.8-8,46.2-5.4c-7.8-4.1-15.3-8.1-22.8-12c-1.9-1-3.9-0.6-5.9-0.5c-10.7,0.6-21.3,0.3-31.7-2.9 c-9.7-3-18.3-7.8-27.3-14.4c14.1-1.4,27-1.1,39.9,2.6c-6.2-4.6-12.3-9.3-18.6-13.7c-1.9-1.3-4.5-1.2-6.8-1.4 c-18.5-2.1-34-10.1-46.6-23.8c-0.4-0.5-1-0.9-0.9-2c4.1-0.5,8.1,0.6,12.1,1.1c5.1,0.7,10.1,2,15,3.8c1.2,0.5,2.4,1.1,3.8,0.5 c0,0-0.1,0.1-0.1,0.1c-2.8-3.3-5.8-6.4-8.3-10c-2.3-3.2-5.1-4.9-8.8-5.8c-10.4-2.7-19.8-7.6-27.8-14.9c-5.6-5-9.9-11-14.1-18.1 c12.4,2.6,23.1,6.9,32.8,14c0.3,0.3,0.7,0.7,1,1c0.6,0.2,0.1-0.7,0.3-0.1c0,0.1,0.1,0.3,0,0.3c-0.3,0.2-0.4,0.1-0.4-0.3 c-0.1-0.6-0.4-1-1.1-0.8c0.9-1.2,0.1-2.2-0.4-3.2c-2.3-4.6-4.7-9.2-6.8-13.9c-1.1-2.4-3.1-3.3-5.2-4.3c-7.8-3.5-14.9-8-20.9-14.1 C57.4,321,53,312.9,49.9,304c-0.2-0.5-0.3-1,0.5-1.6c9.5,3.8,18.5,8.9,25.9,16.4c1.4,1.4,2.4,3.2,4.2,4.2c0.2,0.2,0.4,0.5,0.5,0.7 c0.5-0.4,0.3-0.8,0-1.2c-1.6-6.8-3.2-13.6-4.9-20.8c-17.2-10.9-28.2-26.1-28.8-48.1c11.1,7.2,20.1,15.6,25.7,28 c1.1-1.4,0.8-2.6,0.7-3.6c-0.1-5.7-0.3-11.3-0.2-17c0-2.5-0.6-4.4-2.4-6.2c-5.6-5.6-10.1-11.9-12.9-19.4c-3.6-9.4-3.8-19-2-29.5 c9.2,8.3,15.6,17.7,19.5,29.4c1.6-6.6,3.2-13.2,4.8-20.1c-11.4-15.6-13-32.4-5.5-50.8c6.9,9.2,11.2,19,11.8,31 c2.2-2.6,2.5-5.4,4-7.6c3.6-5.5,4-11,1.8-17.4c-3.5-10.4-1.8-20.7,2.6-30.6c1.8-4.1,4.1-7.9,7.1-12.2c4.6,10.2,5.8,20.3,5,30.9 c3.3-3.9,6.6-7.8,9.8-11.8c1.3-1.6,0.7-3.5,0.6-5.3c-0.6-8.1,0.5-15.9,3.8-23.4c3.6-8.1,9.1-14.6,16-21.1 c2.5,12.9,0.4,24.4-5.8,35.5c4.8-1.4,12.8-6.5,14.8-9.6c9.1-14.5,22.4-22.9,38.5-27.4c2.2-0.6,4.3-1.6,7.4-1.5 c-2.8,4.9-5.7,9-9.1,12.8c-7.7,8.4-17,14.5-28,17.5c-9.7,2.6-17.3,8.3-24.3,15c-0.4,0.4-1.2,0.6-0.8,1.5c0.7,0.3,1.2,0,1.7-0.5 c8.7-4,17.6-7,27.2-7.8c6.6-0.6,13.2-0.6,20.9,0.5c-8.9,7-17.8,11.5-27.8,14.2c-10.1,2.7-20.4,2.8-30.8,1.8 c-6.4,7.1-12.4,14.4-16.8,22.9c-0.6,0.5-1.1,1-0.2,1.8c0.4-0.3,0.7-0.6,1.1-0.9c11.3-9.6,24.5-14.6,39-16.4c2.3-0.3,4.6-0.7,7.3,0 c-13.9,16.7-31.9,23.8-52.7,25.1c-4.9,8.8-8.5,17.8-10.8,27.5c2.8-3.1,5.6-6.2,8.5-9.2c3-2.9,6.4-5.3,10-7.5 c3.7-2.2,7.6-4.1,11.7-5.6c3.9-1.4,7.7-2.9,12.3-3.5c-4.7,9.4-11,16.8-19,22.8c-8,5.9-17.3,9.1-27,12c-3.3,10.2-5,20.6-5.4,31.5 c1.3-2.3,2.4-4.7,3.8-6.9c1.5-2.4,3.1-4.7,5-6.9c1.9-2.3,4.1-4.4,6.3-6.4c2.1-1.9,4.4-3.5,6.8-5.1c2.4-1.6,4.8-3,7.3-4.3 c2.4-1.3,5-2.5,8.4-4.1c-5.7,21.6-19.6,34.3-38.4,42.3c-1.5,6.5-0.7,24.3,1.7,32.8c2.1-8.3,5.5-15.2,10.5-21.2 c5-6.1,11.1-10.9,18.3-15.8c-0.2,10.3-2.8,19.2-7.7,27.4c-4.9,8.2-11.9,14.2-19.4,19.4c-0.2,6.6,4.7,25.8,8.7,33.7 c-0.3-17.2,6.8-30.9,19.3-42.8c4.6,20.9-1.9,37.8-16.4,51.9c5.3,12.6,11.6,24.1,20.1,34.4c-3-10.5-3.8-20.9-0.3-31.4 c2-5.9,4.7-11.3,8.6-16.9c2.9,4.5,3.9,9.3,4.9,14.1c2.4,11.6,0.2,22.5-5.5,32.8c-1.3,2.3-2.9,4.4-3.6,6.9 c5.2,8.4,22.7,25.3,28.7,27.4c-1.6-5.6-4.5-10.3-5.5-15.6c-0.9-5.3-1.4-10.6-0.6-15.9c0.8-5.4,2.2-10.7,4.3-15.9 c9.3,9.8,17.9,29.2,8.6,53.7c4.1,4.7,22.7,17.7,27.5,19c-1.9-4.8-5.2-8.6-6.9-13.2c-1.7-4.6-2.8-9.2-3.4-14c-0.6-5-0.2-10,0.7-15.6 c15.6,13.8,23.8,29.9,20.7,51.1c11,6.5,21.9,12.8,33.7,17.3c1.3,0.9,2.7,1.4,4.2,1.7c0.2,0.1,0.5,0.1,0.5,0.1c-0.1,0-0.4,0-0.7-0.1 C229,461.4,227.4,461.1,226.2,460.3z M453.7,412c0.4-0.3,1.2-0.7,0.5-1.3c-0.6-0.6-0.9,0.4-1.3,0.6c-0.2,0.4-0.5,0.9,0.1,1.2 C453.2,412.6,453.5,412.2,453.7,412z M146.5,412.1c0.2,0.2,0.6,0.6,0.7,0.6c0.6-0.3,0.3-0.8,0.1-1.2c-0.4-0.3-0.6-1.3-1.3-0.7 C145.3,411.3,146.1,411.7,146.5,412.1z M299.9,502.9c0.8-2.3,0.9-4.6,0.1-7.9C298.5,498.3,298.6,500.6,299.9,502.9z M434.2,433.6 l0.2-0.2l-0.3,0L434.2,433.6z M181.3,436.4c-0.1-0.1-0.2-0.2-0.3-0.3c-0.1,0.1-0.2,0.2-0.3,0.3c0.1,0.1,0.3,0.2,0.4,0.3 C181.2,436.6,181.3,436.5,181.3,436.4z M419.6,436.4c-0.1-0.1-0.2-0.2-0.3-0.3c-0.1,0.1-0.2,0.2-0.3,0.3c0.1,0.1,0.3,0.2,0.4,0.3 C419.4,436.6,419.5,436.5,419.6,436.4z M519.5,323.4c-0.1-0.1-0.2-0.2-0.3-0.3c-0.1,0.1-0.3,0.2-0.3,0.3c0,0.1,0.1,0.2,0.2,0.3 C519.2,323.6,519.4,323.5,519.5,323.4z M513.1,210.6l0.2-0.3l-0.3,0L513.1,210.6z M87.2,210.1l-0.2,0.3l0.3,0L87.2,210.1z" class="st0"/><path d="M406.1,354.5c-4.8-2.2-10-3.3-14.5-5.8c-1.6,1.9-0.2,3.9-1.3,5.8c-1.9-0.2-3.4-1.5-5-2.5 c-4.7-3.1-8.9-7-13.3-10.5c-2.7-2.2-5.5-4.3-8.3-6.4c-1.1-0.8-2.2-1.6-3.6-1.4c-3.7,0.6-7-0.7-10.1-2.1c-7.1-3.2-14.6-4.4-22-6.4 c-4.2-1.2-8.6-0.9-12.7,1.2c-3.5,1.8-7.6,2.6-10.5,5.5c-1.2,1.2-3.1,1-5.2,1.6c4.5,8.4,1.2,15.1-3.8,21.6c-0.3-0.3-0.7-0.6-1-0.8 c0.7-1.4,1.4-2.7,2.1-4.1l-0.1-0.3l0.2,0.4c-3.8,0.6-4.7,1.8-5,7c-0.2,0-0.5-0.1-0.5-0.1c0,0,0.2,0,0.4-0.1 c0.7-0.6,1.4-1.3,2.1-1.9c0.3,0.4,0.7,0.7,1,1.1c-1.6,3.8-4.9,6.7-6.1,11c2.9,1.1,5.6,1,8.2-0.5c0.7-0.4,1.5-0.8,2.2-1.2 c1.3-0.7,2.5-0.8,3.8,0c1.6,1,2.2,2.4,1.3,4.4c-1.7-0.9-3.1-3.8-5.5-0.7c1.5,1.8,4.6,2.9,3.7,6.2c-1.8,0-2.4-2-4.1-2.1 c-1.5,0.4-0.9,2.3-3.1,3.6c0.4-0.1-0.4,0.2-1.2,0.3c-5.7,0.5-10.9,2.6-16.2,4.5c-2.4,0.8-4.6,1.6-7.2,0.4c-1.8-0.8-3.9,0-5.9,0.5 c-2.5,0.7-5,1.9-7.7,1c-1-0.6-0.5-1.6-1-2.3c-1.2-0.5-2,1.3-3.8,1c2.1-4.9,6.9-3.7,10.8-5.8c0.7-0.7,0.3-3.1,2.5-3.7 c1.6-0.4,3.2-0.6,4.9-0.3c4.1,0.6,6.9-1.6,9.2-4.7c1.7-2.2,2.3-4.8,2.7-7.4c0.7-4.4,1.3-8.9,2.6-13.2c0.9-2.9,0-6-1-8.8 c-0.6-1.7-2.2-2.8-4.2-3.2c-5-1-9.3-3.4-13.4-6.3c-6-4.2-12-8.4-18.7-11.6c-3.4-1.7-5.9-4.3-8-7.3c-3.5-5.1-7.4-9.8-11.6-14.4 c-3.8-4.2-7.3-8.7-10.4-13.4c-5.2-8.1-7.5-17-8.1-26.4c-0.2-3.5,0.8-6.6,2.2-9.6c1.6-3.3,3.3-6.5,4.7-9.9c1.6-4,1.1-5-2.6-7.3 c-0.7-0.4-1.6-0.8-2-1.4c-3.5-4.9-8.7-6.2-14.1-7.5c-7.9-1.9-15.6-4.7-23.9-4.6c-1.1,0-2.4-0.1-3-1.7c2.7-3.2,6.4-5.1,10.2-6.5 c7-2.6,14.3-4.5,22-3.7c1.6,0.2,3-0.1,4.3-0.8c7-3.7,14.6-4.5,22.3-3.8c3.3,0.3,6.6,0.6,9.9,1c4.4,0.6,8,2.3,9.7,6.7 c0.7,1.8,2.1,3,3.3,4.3c1.4,1.6,3.3,2.8,3.4,5.3c0,1.1,1,1.7,1.8,2.3c5.3,4.3,8.8,10,11.6,16.1c1.8,4.1,4.6,7.1,8,10 c11.8,9.9,24.9,17.9,38.4,25c4.7,2.5,9.3,5.2,13.9,7.9c1.1,0.7,2.4,1.3,3.3,2.3c2.8,3.2,6.5,5.1,10.3,7c3.1,1.6,6.3,3,9,5.3 c3.9,3.3,7.7,6.8,9.3,12c1.4,4.7,4.9,7.9,8.9,10.5c7,4.7,13.6,10.1,21.2,14c5,2.6,9.3,6.4,14.5,8.8c-0.4,1.4-0.6,2.5-0.9,3.4 c2.1,4.5,7.9,5.4,9.2,10.5c-3.4,0.8-6.3-2.2-9.7-0.8c0.5,0.8,1.2,1.9,1.8,3.1C406.5,354,406.3,354.2,406.1,354.5z M395.5,347.1 c0.3-0.3,0.5-0.4,0.8-0.1c0,0-0.1,0.3-0.1,0.3c-0.4,0.2-0.6,0-0.8-0.3c-0.5-0.5-0.3,0.5-0.3-0.1c0-0.1,0-0.2,0.1-0.3 C395.2,346.8,395.3,346.9,395.5,347.1z M192.5,212.8c2-0.6,4.3-0.4,5.5-2.6c0.2-0.4,0.3-0.6-0.1-0.8c-1.5-0.3-2.6,1.4-4.1,1.1 c-3.6-3.5-10.7-3-16.6,1.5c4.3,0,8.1-0.1,11.9,0c1.2,0,2.7-0.6,3.6,1c-1.1,0.8-2.2,0.3-3.4,0.2c-4.6-0.3-9.2-0.3-13.8,0.3 c6.9,0.6,13.7,1.1,19.8,4.1c1.9-0.7,2.5-2,3-3.5C194.9,213.9,194.9,213.9,192.5,212.8z" class="st0"/><path d="M406.8,353.8c0.2,0.2,0.6,0.5,0.6,0.6c-0.3,0.5-0.8,0.3-1.2,0.1C406.3,354.2,406.5,354,406.8,353.8z" class="st0"/><path d="M295.7,355c-0.3,0.4-0.6,0.8-0.8,1.2c-0.3-0.4-0.7-0.7-1-1.1c0.3-0.3,0.5-0.6,0.8-0.9 C295,354.4,295.4,354.7,295.7,355z" class="st0"/><path d="M370.9,463c0.4-1.7,2.1-1.9,3.2-2.8c0.3,0.3,0.5,0.7,0.8,1c-1.2,0.9-2.6,1.5-4.2,1.7L370.9,463z" class="st0"/><path d="M229.5,463c-1.5-0.4-2.9-0.9-4.2-1.7c0.3-0.3,0.6-0.7,0.9-1c1.1,0.8,2.8,1.1,3.1,2.8L229.5,463z" class="st0"/><path d="M131.9,140.2c-0.4,0.5-0.9,0.9-1.7,0.5c-0.4-0.8,0.4-1.1,0.8-1.5C131.3,139.6,131.6,139.9,131.9,140.2z" class="st0"/><path d="M370.8,462.9c-0.2,0.1-0.5,0.3-0.4,0.2c-0.1,0,0.2,0,0.5-0.1C370.9,463,370.8,462.9,370.8,462.9z" class="st0"/><path d="M495.7,171.8c0.6,0.3,0.9,0.8,0.6,1.5c-0.8,0.3-1-0.4-1.4-0.8C495.2,172.3,495.5,172.1,495.7,171.8z" class="st0"/><path d="M229.3,463.1c0.3,0,0.6,0.1,0.7,0.1c0,0-0.3-0.1-0.5-0.1L229.3,463.1z" class="st0"/><path d="M105.3,172.6c-0.3,0.3-0.7,0.6-1.1,0.9c-0.9-0.8-0.4-1.3,0.2-1.8C104.7,172,105,172.3,105.3,172.6z" class="st0"/><path d="M503.2,362.6c-0.4,0.3-0.9,0.7-1.2,0c-0.1-0.1,0.3-0.5,0.5-0.7C502.8,362.1,503,362.3,503.2,362.6z" class="st0"/><path d="M98.5,364c-0.3-0.3-0.7-0.7-1-1l-0.2,0.1C98,363,98.4,363.3,98.5,364C98.4,363.9,98.5,364,98.5,364z" class="st0"/><path d="M98.4,363.9c0,0.4,0.1,0.5,0.4,0.3c0,0,0-0.2,0-0.3C98.6,363.3,99.2,364.2,98.4,363.9L98.4,363.9z" class="st0"/><path d="M123.7,397.8c0,0,0.1-0.1,0.1-0.1L123.7,397.8z" class="st0"/><path d="M146.5,412.1c-0.4-0.4-1.2-0.7-0.5-1.3c0.7-0.6,0.9,0.4,1.3,0.7C147,411.6,146.8,411.8,146.5,412.1z" class="st0"/><path d="M453,411.4c0.4-0.3,0.6-1.2,1.3-0.6c0.7,0.6-0.1,0.9-0.5,1.3C453.5,411.8,453.3,411.6,453,411.4z" class="st0"/><path d="M147.3,411.4c0.3,0.4,0.6,0.9-0.1,1.2c-0.1,0.1-0.5-0.4-0.7-0.6C146.8,411.8,147,411.6,147.3,411.4z" class="st0"/><path d="M453.7,412c-0.2,0.2-0.6,0.6-0.6,0.6c-0.6-0.3-0.3-0.8-0.1-1.2C453.3,411.6,453.5,411.8,453.7,412z" class="st0"/><polygon points="434.2 433.6 434.1 433.3 434.3 433.4" class="st0"/><path d="M181.3,436.4c-0.1,0.1-0.1,0.2-0.2,0.3c-0.1-0.1-0.3-0.2-0.4-0.3c0.1-0.1,0.2-0.2,0.3-0.3 C181.1,436.2,181.2,436.3,181.3,436.4z" class="st0"/><path d="M419.6,436.4c-0.1,0.1-0.1,0.2-0.2,0.3c-0.1-0.1-0.3-0.2-0.4-0.3c0.1-0.1,0.2-0.2,0.3-0.3 C419.4,436.2,419.5,436.3,419.6,436.4z" class="st0"/><path d="M470.7,140.8c0.3,0.6,0.5-0.3,0.3,0.3c0,0.1-0.1,0.3-0.1,0.3c-0.3-0.2-0.4-0.4,0-0.7L470.7,140.8z" class="st0"/><path d="M519.5,323.4c-0.1,0.1-0.2,0.2-0.3,0.3c-0.1-0.1-0.2-0.2-0.2-0.3c0-0.1,0.2-0.2,0.3-0.3 C519.3,323.2,519.4,323.3,519.5,323.4z" class="st0"/><path d="M81.1,322.5c0.3,0.4,0.5,0.8,0,1.2c-0.2-0.2-0.4-0.5-0.5-0.7C80.7,322.8,80.9,322.6,81.1,322.5z" class="st0"/><polygon points="513.1 210.6 513 210.3 513.3 210.3" class="st0"/><polygon points="87.2 210.1 87.3 210.5 87 210.5" class="st0"/><path d="M502.6,361.8c0.2-0.5,0.4-0.9,0.6-1.4c0.4,0.5,0.7,0.9,1.1,1.4c-0.3,0.3-0.7,0.5-1,0.8 C503,362.3,502.8,362.1,502.6,361.8z" class="st0"/></g></svg>