<?xml version="1.0" encoding="utf-8"?>
<!-- Generator: Adobe Illustrator 25.4.1, SVG Export Plug-In . SVG Version: 6.00 Build 0)  -->
<svg version="1.1" id="Layer_1" xmlns="http://www.w3.org/2000/svg" xmlns:xlink="http://www.w3.org/1999/xlink" x="0px" y="0px"
	 viewBox="0 0 256 256" style="enable-background:new 0 0 256 256;" xml:space="preserve">
<style type="text/css">
	.st0{fill:#947538;}
	.st1{fill:#010101;}
</style>
<desc>Created with Fabric.js 1.7.22</desc>
<g transform="translate(128 128) scale(0.72 0.72)">
	<g transform="translate(-175.05 -175.05000000000004) scale(3.89 3.89)">
		<path class="st0" d="M80.4,35.4c0,8.7-3.2,16.7-8.4,22.9L45,90L18,58.2c-5.2-6.2-8.4-14.1-8.4-22.9C9.6,15.8,25.5,0,45,0
			S80.4,15.8,80.4,35.4z"/>
	</g>
</g>
<path class="st1" d="M244.1,181.1c-4.8-2.2-10-3.3-14.5-5.8c-1.6,1.9-0.2,3.9-1.3,5.8c-1.9-0.2-3.4-1.5-5-2.5
	c-4.7-3.1-8.9-7-13.3-10.5c-2.7-2.2-5.5-4.3-8.3-6.4c-1.1-0.8-2.2-1.6-3.6-1.4c-3.7,0.6-7-0.7-10.1-2.1c-7.1-3.2-14.6-4.4-22-6.4
	c-4.2-1.2-8.6-0.9-12.7,1.2c-3.5,1.8-7.6,2.6-10.5,5.5c-1.2,1.2-3.1,1-5.2,1.6c4.5,8.4,1.2,15.1-3.8,21.6c-0.3-0.3-0.7-0.6-1-0.8
	c0.7-1.4,1.4-2.7,2.1-4.1l-0.1-0.3l0.2,0.4c-3.8,0.6-4.7,1.8-5,7c-0.2,0-0.5-0.1-0.5-0.1s0.2,0,0.4-0.1c0.7-0.6,1.4-1.3,2.1-1.9
	c0.3,0.4,0.7,0.7,1,1.1c-1.6,3.8-4.9,6.7-6.1,11c2.9,1.1,5.6,1,8.2-0.5c0.7-0.4,1.5-0.8,2.2-1.2c1.3-0.7,2.5-0.8,3.8,0
	c1.6,1,2.2,2.4,1.3,4.4c-1.7-0.9-3.1-3.8-5.5-0.7c1.5,1.8,4.6,2.9,3.7,6.2c-1.8,0-2.4-2-4.1-2.1c-1.5,0.4-0.9,2.3-3.1,3.6
	c0.4-0.1-0.4,0.2-1.2,0.3c-5.7,0.5-10.9,2.6-16.2,4.5c-2.4,0.8-4.6,1.6-7.2,0.4c-1.8-0.8-3.9,0-5.9,0.5c-2.5,0.7-5,1.9-7.7,1
	c-1-0.6-0.5-1.6-1-2.3c-1.2-0.5-2,1.3-3.8,1c2.1-4.9,6.9-3.7,10.8-5.8c0.7-0.7,0.3-3.1,2.5-3.7c1.6-0.4,3.2-0.6,4.9-0.3
	c4.1,0.6,6.9-1.6,9.2-4.7c1.7-2.2,2.3-4.8,2.7-7.4c0.7-4.4,1.3-8.9,2.6-13.2c0.9-2.9,0-6-1-8.8c-0.6-1.7-2.2-2.8-4.2-3.2
	c-5-1-9.3-3.4-13.4-6.3c-6-4.2-12-8.4-18.7-11.6c-3.4-1.7-5.9-4.3-8-7.3c-3.5-5.1-7.4-9.8-11.6-14.4c-3.8-4.2-7.3-8.7-10.4-13.4
	c-5.2-8.1-7.5-17-8.1-26.4c-0.2-3.5,0.8-6.6,2.2-9.6c1.6-3.3,3.3-6.5,4.7-9.9c1.6-4,1.1-5-2.6-7.3c-0.7-0.4-1.6-0.8-2-1.4
	c-3.5-4.9-8.7-6.2-14.1-7.5C28,44.9,20.3,42.1,12,42.2c-1.1,0-2.4-0.1-3-1.7c2.7-3.2,6.4-5.1,10.2-6.5c7-2.6,14.3-4.5,22-3.7
	c1.6,0.2,3-0.1,4.3-0.8c7-3.7,14.6-4.5,22.3-3.8c3.3,0.3,6.6,0.6,9.9,1c4.4,0.6,8,2.3,9.7,6.7c0.7,1.8,2.1,3,3.3,4.3
	c1.4,1.6,3.3,2.8,3.4,5.3c0,1.1,1,1.7,1.8,2.3c5.3,4.3,8.8,10,11.6,16.1c1.8,4.1,4.6,7.1,8,10c11.8,9.9,24.9,17.9,38.4,25
	c4.7,2.5,9.3,5.2,13.9,7.9c1.1,0.7,2.4,1.3,3.3,2.3c2.8,3.2,6.5,5.1,10.3,7c3.1,1.6,6.3,3,9,5.3c3.9,3.3,7.7,6.8,9.3,12
	c1.4,4.7,4.9,7.9,8.9,10.5c7,4.7,13.6,10.1,21.2,14c5,2.6,9.3,6.4,14.5,8.8c-0.4,1.4-0.6,2.5-0.9,3.4c2.1,4.5,7.9,5.4,9.2,10.5
	c-3.4,0.8-6.3-2.2-9.7-0.8c0.5,0.8,1.2,1.9,1.8,3.1C244.5,180.6,244.3,180.8,244.1,181.1z M233.5,173.7c0.3-0.3,0.5-0.4,0.8-0.1
	l-0.1,0.3c-0.4,0.2-0.6,0-0.8-0.3c-0.5-0.5-0.3,0.5-0.3-0.1c0-0.1,0-0.2,0.1-0.3C233.2,173.4,233.3,173.5,233.5,173.7z M30.5,39.4
	c2-0.6,4.3-0.4,5.5-2.6c0.2-0.4,0.3-0.6-0.1-0.8c-1.5-0.3-2.6,1.4-4.1,1.1c-3.6-3.5-10.7-3-16.6,1.5c4.3,0,8.1-0.1,11.9,0
	c1.2,0,2.7-0.6,3.6,1c-1.1,0.8-2.2,0.3-3.4,0.2c-4.6-0.3-9.2-0.3-13.8,0.3c6.9,0.6,13.7,1.1,19.8,4.1c1.9-0.7,2.5-2,3-3.5
	C32.9,40.5,32.9,40.5,30.5,39.4z"/>
</svg>
