<svg xmlns="http://www.w3.org/2000/svg" xmlns:xlink="http://www.w3.org/1999/xlink" id="Layer_1" x="0" y="0" version="1.1" viewBox="0 0 216 177.1" xml:space="preserve" style="enable-background:new 0 0 216 177.1"><style type="text/css">.st0{fill:#fff}</style><desc>Created with Fabric.js 1.7.22</desc><g><path d="M78.9,151.8c-1.6-1.2-3.2-2.5-4.6-4c-3.2-3.5-4.9-7.6-5.7-12.2c0-0.1,0.1-0.2,0.2-0.5c7.7,4,13,9.7,14.3,18.5 c0.9,0.7,1.8,0.7,2.7,0.8c3.1,0.2,6.2,0.4,9.3,1.1c4.7,1,9.2,2.4,12.5,6.2c0.2,0,0.4,0,0.4-0.1c3.7-4,8.6-5.4,13.8-6.3 c2.7-0.5,5.5-0.7,8.2-0.8c0.9,0,1.7-0.2,2.7-0.7c1.3-8.7,6.6-14.6,14.3-18.6c0.5,0.7,0.1,1.2,0,1.7c-1.1,5.6-4,10.2-8.4,13.7 c-0.3,0.2-0.6,0.5-0.9,0.8c-0.2,0.2-0.5,0.3-0.7,0.4c-0.4,0.4-1.1,0.4-1.3,1.1c-0.1,0-0.2,0-0.2,0c0,0,0,0,0.2-0.1 c0.6-0.1,1.1-0.3,1.6-0.7c0.3-0.1,0.5-0.2,0.9-0.3c4.3-1.8,8.3-4,12.4-6.5c-0.5-4.3-0.1-8.3,1.8-12.1c1.5-3,3.7-5.5,6.3-7.9 c0.7,3,0.5,5.8,0,8.6c-0.5,2.3-1.4,4.4-2.6,6.3c-0.3,0.5-0.9,1-0.7,1.7c1.7-0.4,7.6-4.4,10.6-7.2c-1.6-4.2-2.3-8.6-1.1-13.1 c0.8-2.9,2.2-5.6,4-8c0.7,0.2,0.6,0.7,0.7,1.1c2,5.5,2,10.9-0.7,16.2c-0.2,0.4-0.5,0.8,0,1.5c4-3.1,7.7-6.6,10.7-10.6 c0.1-1-0.5-1.6-0.9-2.2c-1.2-2-2.2-4.2-2.6-6.5c-0.8-4.2-0.2-8.3,1.8-12.6c2.1,2.8,3.4,5.7,4,9c0.7,3.3,0.1,6.6-0.7,9.9 c3.3-4,5.8-8.5,7.8-13.2c-0.4-1-1.1-1.6-1.7-2.2c-4.6-5.1-6-11-4.8-17.7c0-0.2,0.1-0.4,0.4-0.5c4.7,4.5,7.5,9.9,7.4,16.6 c1.7-4.2,2.9-8.5,3.5-13.1c-3.8-2.6-7.1-5.7-9-9.9c-1.1-2.6-1.8-5.3-1.8-8.4c5.5,3.5,9.6,7.8,11.2,14.2c0.9-2.2,1.3-9.3,0.8-12.4 c-0.8-0.7-1.8-1-2.7-1.5c-6-3.1-10.1-7.7-12.2-14.2c0-0.2-0.1-0.4-0.1-0.5c0,0,0-0.1,0.1-0.4c3.3,1.3,6.3,3,8.9,5.4 c2.6,2.3,4.5,5.2,5.9,8.6c-0.3-4.7-1.1-9-2.4-13.2c-0.9-0.6-1.8-0.7-2.6-1c-6.5-2-11.5-5.7-14.9-11.7c-0.2-0.3-0.3-0.6-0.4-0.9 c0,0,0-0.1,0.1-0.3c4.1,1,8,2.6,11.5,5.2c1.8,1.4,3.2,3.1,4.7,4.7c0.1,0.2,0.2,0.4,0.4,0.2c0.1-0.1,0-0.4,0-0.5 c-1.1-3.6-2.6-7-4.4-10.3c-5.2-0.4-10.1-1.5-14.5-4.4c-2.2-1.5-4.3-3.2-6-5.3c4.1-0.7,12.6,1.6,17.7,6c0.1,0.1,0.2,0.2,0.4,0.3 c0.2,0.1,0.2,0.4,0.5,0.3c0.1-0.3,0-0.5-0.2-0.6c-0.1-0.2-0.2-0.4-0.2-0.5c-1.7-3-3.8-5.7-6.4-8.5c-8.3,1-16-0.8-23-6.3 c3-0.4,5.6-0.4,8.3-0.2c3.6,0.4,7.1,1.3,10.3,3c0.4,0.2,0.8,0.5,1.3,0.2c-0.1,0.1-0.1,0.2,0,0.3c0,0,0-0.1,0-0.1 c0.1-0.2,0,0.1-0.1-0.1c-2.8-2.9-5.9-5.2-10-6.3c-6.3-1.6-11.2-5.4-14.7-11c-0.2-0.3-0.3-0.5-0.5-0.8c0.5-0.5,0.9-0.2,1.3-0.1 c3,0.7,5.9,1.8,8.6,3.4c3,1.8,5.5,4,7.4,6.9c0.7,1,1.5,1.8,2.6,2.4c1.5,0.8,2.9,1.7,4.4,2.6c-2.4-4.4-3.3-9-2.3-14.2 c4.6,4.2,7.9,8.9,7.8,15.2c-0.1,2.9,0.5,5.3,2.7,7.3c0.5,0.5,0.8,1.3,1.8,1.8c-0.7-4.3-0.2-8.2,1.6-12.2c3.6,5.1,5.7,10.4,3.9,16.4 c-0.8,2.8-0.8,5.1,0.7,7.6c0.5,0.7,0.7,1.6,1.3,2.5c0.4-4.5,2.1-8.4,4.7-12c2.5,5.6,3.1,12.4-2.1,20c0.3,1.3,0.6,2.6,0.9,3.9 c0.3,1.3,0.6,2.6,1.1,3.9c1.3-4.6,3.9-8.3,7.3-11.5c1.8,6.7-0.2,13.9-6.6,20.1c0,1.5,0,3,0,4.6c0,1.6,0,3.1,0,4.7 c1.3-2.2,2.7-4.2,4.4-6.1c1.7-1.8,3.6-3.3,5.8-4.7c-0.3,8.6-4.5,14.5-11.4,18.8c-0.6,2.7-1.2,5.3-1.9,8.2c1.7-1,2.6-2.4,3.8-3.3 c1.3-1,2.6-1.9,4.1-2.7c1.4-0.7,2.7-1.5,4.2-2c0.5,0.5,0,0.9-0.1,1.3c-2,5.9-5.9,10.2-11.4,13.1c-0.9,0.5-1.8,0.9-2.8,1.4 c-0.6,0.3-1.1,0.7-1.4,1.3c-0.9,1.9-1.8,3.8-2.7,5.7c-0.1,0.2-0.2,0.4-0.2,0.5c-0.1,0.1-0.2,0.2-0.2,0.3c0.1,0.3,0.3,0.1,0.5,0 c0.1-0.1,0.3-0.2,0.4-0.3c3.7-2.4,7.7-4,12.2-5c-3.2,5.8-7.7,9.8-13.7,12c-0.2,0.1-0.5,0.2-0.7,0.2c-3.2,0.5-5.5,2.3-7.1,4.9 c-0.4,0.6-1.1,1.1-1.5,2c2.2-0.5,4-1.3,6-1.6c2-0.3,3.9-0.7,6.1-0.7c-0.6,1-1.4,1.6-2,2.3c-4.7,4.5-10.3,7.1-16.7,7.8 c-1.6,0.2-3,0.6-4.3,1.6c-1.6,1.4-3.4,2.6-5.1,4c2.4-0.2,4.7-0.9,7.2-1c2.5,0,4.9-0.1,7.5,0.2c-0.1,0.7-0.7,0.8-1.1,1.1 c-5.8,4.2-12.4,6.2-19.5,5.7c-2.8-0.2-5.3,0.4-7.6,1.8c-1.6,1-3.3,1.8-5,2.8c3-0.1,5.9-0.3,8.9,0.1c2.9,0.4,5.8,1.1,8.8,2.1 c-3.2,1.5-6.2,2.4-9.4,2.9c-5,0.9-9.9,0.5-14.8-1c-1.6-0.5-3.1-0.6-4.8-0.4c-1.6,0.3-3.2,0-4.9,0.1c-3.4,0.4-6.7,1-9.9,2.1 c-1.8,0.6-3.7,1.5-5.2,2.6c-1.1,0.8-2,1.6-2.7,3c0.6,1.7,1,3.5,0.7,5.3c-1.5,1.1-1.5,1.1-3,0.1c-0.4-1.8,0-3.6,0.7-5.3 c-0.7-1.5-1.8-2.5-3.1-3.3c-2.7-1.9-5.8-2.9-9.1-3.6c-3.1-0.7-6.3-1.3-9.5-0.9c-0.1,0-0.1,0-0.2,0c-2.6-0.8-4.9,0.2-7.3,0.7 c-7.6,1.8-14.9,0.8-22-2.3c3.7-1.9,10.1-3.1,18.1-2.1c-3.1-1.6-6-3.2-8.9-4.7c-0.7-0.4-1.5-0.2-2.3-0.2c-4.2,0.2-8.4,0.1-12.4-1.1 c-3.8-1.2-7.2-3.1-10.7-5.7c5.5-0.5,10.6-0.4,15.7,1c-2.4-1.8-4.8-3.7-7.3-5.4c-0.7-0.5-1.8-0.5-2.7-0.5c-7.3-0.8-13.3-4-18.3-9.3 c-0.2-0.2-0.4-0.4-0.4-0.8c1.6-0.2,3.2,0.2,4.7,0.4c2,0.3,4,0.8,5.9,1.5c0.5,0.2,0.9,0.4,1.5,0.2l0,0c-1.1-1.3-2.3-2.5-3.3-3.9 c-0.9-1.3-2-1.9-3.5-2.3c-4.1-1.1-7.8-3-10.9-5.8c-2.2-2-3.9-4.3-5.5-7.1c4.9,1,9.1,2.7,12.9,5.5c0.1,0.1,0.3,0.3,0.4,0.4 c0.2,0.1,0-0.3,0.1,0c0,0,0,0.1,0,0.1c-0.1,0.1-0.2,0-0.2-0.1c0-0.2-0.2-0.4-0.4-0.3c0.4-0.5,0-0.9-0.2-1.3 c-0.9-1.8-1.8-3.6-2.7-5.5c-0.4-0.9-1.2-1.3-2-1.7c-3.1-1.4-5.8-3.1-8.2-5.5c-2.7-2.4-4.5-5.5-5.7-9c-0.1-0.2-0.1-0.4,0.2-0.6 c3.7,1.5,7.3,3.5,10.2,6.4c0.5,0.5,0.9,1.3,1.6,1.6c0.1,0.1,0.2,0.2,0.2,0.3c0.2-0.2,0.1-0.3,0-0.5c-0.6-2.7-1.3-5.3-1.9-8.2 C13.3,85.3,8.9,79.3,8.7,70.7c4.4,2.8,7.9,6.1,10.1,11c0.4-0.5,0.3-1,0.3-1.4c0-2.2-0.1-4.4-0.1-6.7c0-1-0.2-1.7-0.9-2.4 c-2.2-2.2-4-4.7-5.1-7.6c-1.4-3.7-1.5-7.5-0.8-11.6c3.6,3.3,6.1,6.9,7.7,11.5c0.6-2.6,1.3-5.2,1.9-7.9c-4.5-6.1-5.1-12.7-2.2-19.9 c2.7,3.6,4.4,7.5,4.6,12.2c0.9-1,1-2.1,1.6-3c1.4-2.2,1.6-4.3,0.7-6.8c-1.4-4.1-0.7-8.1,1-12c0.7-1.6,1.6-3.1,2.8-4.8 c1.8,4,2.3,8,2,12.1c1.3-1.5,2.6-3.1,3.8-4.6c0.5-0.6,0.3-1.4,0.2-2.1c-0.2-3.2,0.2-6.2,1.5-9.2c1.4-3.2,3.6-5.7,6.3-8.3 c1,5.1,0.2,9.6-2.3,13.9c1.9-0.5,5-2.6,5.8-3.8c3.6-5.7,8.8-9,15.1-10.8c0.9-0.2,1.7-0.6,2.9-0.6c-1.1,1.9-2.2,3.5-3.6,5 c-3,3.3-6.7,5.7-11,6.9c-3.8,1-6.8,3.3-9.5,5.9c-0.2,0.2-0.5,0.2-0.3,0.6c0.3,0.1,0.5,0,0.7-0.2c3.4-1.6,6.9-2.7,10.7-3.1 c2.6-0.2,5.2-0.2,8.2,0.2c-3.5,2.7-7,4.5-10.9,5.6c-4,1.1-8,1.1-12.1,0.7c-2.5,2.8-4.9,5.7-6.6,9c-0.2,0.2-0.4,0.4-0.1,0.7 c0.2-0.1,0.3-0.2,0.4-0.4c4.4-3.8,9.6-5.7,15.3-6.4c0.9-0.1,1.8-0.3,2.9,0C44.3,39,37.2,41.8,29,42.3c-1.9,3.5-3.3,7-4.2,10.8 c1.1-1.2,2.2-2.4,3.3-3.6c1.2-1.1,2.5-2.1,3.9-2.9c1.5-0.9,3-1.6,4.6-2.2c1.5-0.5,3-1.1,4.8-1.4c-1.8,3.7-4.3,6.6-7.5,8.9 c-3.1,2.3-6.8,3.6-10.6,4.7c-1.3,4-2,8.1-2.1,12.4c0.5-0.9,0.9-1.8,1.5-2.7c0.6-0.9,1.2-1.8,2-2.7c0.7-0.9,1.6-1.7,2.5-2.5 c0.8-0.7,1.7-1.4,2.7-2s1.9-1.2,2.9-1.7c0.9-0.5,2-1,3.3-1.6c-2.2,8.5-7.7,13.5-15.1,16.6c-0.6,2.6-0.3,9.5,0.7,12.9 c0.8-3.3,2.2-6,4.1-8.3c2-2.4,4.4-4.3,7.2-6.2c-0.1,4-1.1,7.5-3,10.8c-1.9,3.2-4.7,5.6-7.6,7.6c-0.1,2.6,1.8,10.1,3.4,13.2 c-0.1-6.8,2.7-12.1,7.6-16.8c1.8,8.2-0.7,14.8-6.4,20.4c2.1,4.9,4.6,9.5,7.9,13.5c-1.2-4.1-1.5-8.2-0.1-12.3 c0.8-2.3,1.8-4.4,3.4-6.6c1.1,1.8,1.5,3.7,1.9,5.5c0.9,4.6,0.1,8.8-2.2,12.9c-0.5,0.9-1.1,1.7-1.4,2.7c2,3.3,8.9,9.9,11.3,10.8 c-0.6-2.2-1.8-4-2.2-6.1c-0.4-2.1-0.5-4.2-0.2-6.2c0.3-2.1,0.9-4.2,1.7-6.2c3.7,3.8,7,11.5,3.4,21.1c1.6,1.8,8.9,6.9,10.8,7.5 c-0.7-1.9-2-3.4-2.7-5.2c-0.7-1.8-1.1-3.6-1.3-5.5c-0.2-2-0.1-3.9,0.3-6.1c6.1,5.4,9.3,11.7,8.1,20.1c4.3,2.6,8.6,5,13.2,6.8 c0.5,0.4,1.1,0.5,1.6,0.7c0.1,0,0.2,0,0.2,0c0,0-0.2,0-0.3,0C80,152.2,79.4,152.1,78.9,151.8z M168.2,132.8 c0.2-0.1,0.5-0.3,0.2-0.5c-0.2-0.2-0.4,0.2-0.5,0.2c-0.1,0.2-0.2,0.4,0,0.5C168,133.1,168.1,132.9,168.2,132.8z M47.6,132.9 c0.1,0.1,0.2,0.2,0.3,0.2c0.2-0.1,0.1-0.3,0-0.5c-0.2-0.1-0.2-0.5-0.5-0.3C47.2,132.6,47.5,132.7,47.6,132.9z M107.8,168.5 c0.3-0.9,0.4-1.8,0-3.1C107.3,166.7,107.3,167.6,107.8,168.5z M160.6,141.3L160.6,141.3L160.6,141.3L160.6,141.3z M61.3,142.4 c0,0-0.1-0.1-0.1-0.1c0,0-0.1,0.1-0.1,0.1c0,0,0.1,0.1,0.2,0.1C61.3,142.5,61.3,142.4,61.3,142.4z M154.8,142.4 c0,0-0.1-0.1-0.1-0.1c0,0-0.1,0.1-0.1,0.1c0,0,0.1,0.1,0.2,0.1C154.7,142.5,154.8,142.4,154.8,142.4z M194,98.1 c0,0-0.1-0.1-0.1-0.1c0,0-0.1,0.1-0.1,0.1s0,0.1,0.1,0.1C193.9,98.1,194,98.1,194,98.1z M191.5,53.8l0.1-0.1h-0.1L191.5,53.8z M24.4,53.6l-0.1,0.1h0.1L24.4,53.6z" class="st0"/><path d="M149.5,110.3c-1.9-0.9-3.9-1.3-5.7-2.3c-0.6,0.7-0.1,1.5-0.5,2.3c-0.7-0.1-1.3-0.6-2-1 c-1.8-1.2-3.5-2.7-5.2-4.1c-1.1-0.9-2.2-1.7-3.3-2.5c-0.4-0.3-0.9-0.6-1.4-0.5c-1.5,0.2-2.7-0.3-4-0.8c-2.8-1.3-5.7-1.7-8.6-2.5 c-1.6-0.5-3.4-0.4-5,0.5c-1.4,0.7-3,1-4.1,2.2c-0.5,0.5-1.2,0.4-2,0.6c1.8,3.3,0.5,5.9-1.5,8.5c-0.1-0.1-0.3-0.2-0.4-0.3 c0.3-0.5,0.5-1.1,0.8-1.6l0-0.1l0.1,0.2c-1.5,0.2-1.8,0.7-2,2.7c-0.1,0-0.2,0-0.2,0s0.1,0,0.2,0c0.3-0.2,0.5-0.5,0.8-0.7 c0.1,0.2,0.3,0.3,0.4,0.4c-0.6,1.5-1.9,2.6-2.4,4.3c1.1,0.4,2.2,0.4,3.2-0.2c0.3-0.2,0.6-0.3,0.9-0.5c0.5-0.3,1-0.3,1.5,0 c0.6,0.4,0.9,0.9,0.5,1.7c-0.7-0.4-1.2-1.5-2.2-0.3c0.6,0.7,1.8,1.1,1.5,2.4c-0.7,0-0.9-0.8-1.6-0.8c-0.6,0.2-0.4,0.9-1.2,1.4 c0.2,0-0.2,0.1-0.5,0.1c-2.2,0.2-4.3,1-6.4,1.8c-0.9,0.3-1.8,0.6-2.8,0.2c-0.7-0.3-1.5,0-2.3,0.2c-1,0.3-2,0.7-3,0.4 c-0.4-0.2-0.2-0.6-0.4-0.9c-0.5-0.2-0.8,0.5-1.5,0.4c0.8-1.9,2.7-1.5,4.2-2.3c0.3-0.3,0.1-1.2,1-1.5c0.6-0.2,1.3-0.2,1.9-0.1 c1.6,0.2,2.7-0.6,3.6-1.8c0.7-0.9,0.9-1.9,1.1-2.9c0.3-1.7,0.5-3.5,1-5.2c0.4-1.1,0-2.4-0.4-3.5c-0.2-0.7-0.9-1.1-1.6-1.3 c-2-0.4-3.7-1.3-5.3-2.5c-2.4-1.6-4.7-3.3-7.3-4.6c-1.3-0.7-2.3-1.7-3.1-2.9c-1.4-2-2.9-3.8-4.6-5.7c-1.5-1.6-2.9-3.4-4.1-5.3 c-2-3.2-2.9-6.7-3.2-10.4c-0.1-1.4,0.3-2.6,0.9-3.8c0.6-1.3,1.3-2.6,1.8-3.9c0.6-1.6,0.4-2-1-2.9c-0.3-0.2-0.6-0.3-0.8-0.5 c-1.4-1.9-3.4-2.4-5.5-2.9c-3.1-0.7-6.1-1.8-9.4-1.8c-0.4,0-0.9,0-1.2-0.7c1.1-1.3,2.5-2,4-2.6c2.7-1,5.6-1.8,8.6-1.5 c0.6,0.1,1.2,0,1.7-0.3c2.7-1.5,5.7-1.8,8.8-1.5c1.3,0.1,2.6,0.2,3.9,0.4c1.7,0.2,3.1,0.9,3.8,2.6c0.3,0.7,0.8,1.2,1.3,1.7 c0.5,0.6,1.3,1.1,1.3,2.1c0,0.4,0.4,0.7,0.7,0.9c2.1,1.7,3.5,3.9,4.6,6.3c0.7,1.6,1.8,2.8,3.1,3.9c4.6,3.9,9.8,7,15.1,9.8 c1.8,1,3.7,2,5.5,3.1c0.4,0.3,0.9,0.5,1.3,0.9c1.1,1.3,2.6,2,4,2.7c1.2,0.6,2.5,1.2,3.5,2.1c1.5,1.3,3,2.7,3.7,4.7 c0.5,1.8,1.9,3.1,3.5,4.1c2.7,1.8,5.3,4,8.3,5.5c2,1,3.7,2.5,5.7,3.5c-0.2,0.5-0.2,1-0.4,1.3c0.8,1.8,3.1,2.1,3.6,4.1 c-1.3,0.3-2.5-0.9-3.8-0.3c0.2,0.3,0.5,0.7,0.7,1.2C149.7,110.1,149.6,110.1,149.5,110.3z M145.4,107.4c0.1-0.1,0.2-0.2,0.3,0 l0,0.1C145.5,107.5,145.4,107.4,145.4,107.4c-0.2-0.2-0.2,0.2-0.2-0.1c0,0,0-0.1,0-0.1C145.2,107.2,145.3,107.3,145.4,107.4z M65.7,54.6c0.8-0.2,1.7-0.2,2.2-1c0.1-0.2,0.1-0.2,0-0.3c-0.6-0.1-1,0.5-1.6,0.4c-1.4-1.4-4.2-1.2-6.5,0.6c1.7,0,3.2,0,4.7,0 C64.8,54.3,65.4,54.1,65.7,54.6c-0.4,0.4-0.8,0.2-1.3,0.2c-1.8-0.1-3.6-0.1-5.4,0.1c2.7,0.2,5.4,0.4,7.8,1.6c0.7-0.3,1-0.8,1.2-1.4 C66.6,55.1,66.6,55.1,65.7,54.6z" class="st0"/><path d="M149.8,110c0.1,0.1,0.2,0.2,0.2,0.2c-0.1,0.2-0.3,0.1-0.5,0C149.6,110.1,149.7,110.1,149.8,110z" class="st0"/><path d="M106.2,110.5c-0.1,0.2-0.2,0.3-0.3,0.5c-0.1-0.2-0.3-0.3-0.4-0.4c0.1-0.1,0.2-0.2,0.3-0.4 C105.9,110.2,106.1,110.3,106.2,110.5z" class="st0"/><path d="M135.7,152.8c0.2-0.7,0.8-0.7,1.3-1.1c0.1,0.1,0.2,0.3,0.3,0.4C136.8,152.5,136.3,152.7,135.7,152.8 L135.7,152.8z" class="st0"/><path d="M80.2,152.8c-0.6-0.2-1.1-0.4-1.6-0.7c0.1-0.1,0.2-0.3,0.4-0.4C79.3,152.1,80,152.2,80.2,152.8L80.2,152.8z" class="st0"/><path d="M41.9,26.2c-0.2,0.2-0.4,0.4-0.7,0.2c-0.2-0.3,0.2-0.4,0.3-0.6C41.7,25.9,41.8,26,41.9,26.2z" class="st0"/><path d="M135.7,152.8c-0.1,0-0.2,0.1-0.2,0.1C135.5,152.9,135.6,152.9,135.7,152.8L135.7,152.8z" class="st0"/><path d="M184.7,38.6c0.2,0.1,0.4,0.3,0.2,0.6c-0.3,0.1-0.4-0.2-0.5-0.3C184.5,38.8,184.6,38.7,184.7,38.6z" class="st0"/><path d="M80.1,152.9c0.1,0,0.2,0,0.3,0C80.4,152.9,80.3,152.9,80.1,152.9L80.1,152.9z" class="st0"/><path d="M31.5,38.9c-0.1,0.1-0.3,0.2-0.4,0.4c-0.4-0.3-0.2-0.5,0.1-0.7C31.2,38.6,31.3,38.8,31.5,38.9z" class="st0"/><path d="M187.6,113.4c-0.2,0.1-0.4,0.3-0.5,0c0,0,0.1-0.2,0.2-0.3C187.5,113.2,187.6,113.3,187.6,113.4z" class="st0"/><path d="M28.8,114c-0.1-0.1-0.3-0.3-0.4-0.4l-0.1,0C28.6,113.6,28.8,113.7,28.8,114C28.8,114,28.8,114,28.8,114z" class="st0"/><path d="M28.8,114c0,0.2,0,0.2,0.2,0.1c0,0,0-0.1,0-0.1C28.8,113.7,29.1,114.1,28.8,114L28.8,114z" class="st0"/><path d="M38.7,127.3L38.7,127.3L38.7,127.3z" class="st0"/><path d="M47.6,132.9c-0.2-0.2-0.5-0.3-0.2-0.5c0.3-0.2,0.4,0.2,0.5,0.3C47.8,132.7,47.8,132.8,47.6,132.9z" class="st0"/><path d="M167.9,132.6c0.2-0.1,0.2-0.5,0.5-0.2c0.3,0.2,0,0.4-0.2,0.5C168.1,132.8,168.1,132.7,167.9,132.6z" class="st0"/><path d="M47.9,132.6c0.1,0.2,0.2,0.4,0,0.5c0,0-0.2-0.2-0.3-0.2C47.8,132.8,47.8,132.7,47.9,132.6z" class="st0"/><path d="M168.2,132.8c-0.1,0.1-0.2,0.2-0.2,0.2c-0.2-0.1-0.1-0.3,0-0.5C168.1,132.7,168.1,132.8,168.2,132.8z" class="st0"/><polygon points="160.6 141.3 160.5 141.2 160.6 141.2" class="st0"/><path d="M61.3,142.4c0,0,0,0.1-0.1,0.1c0,0-0.1-0.1-0.2-0.1c0,0,0.1-0.1,0.1-0.1C61.2,142.3,61.3,142.4,61.3,142.4z" class="st0"/><path d="M154.8,142.4c0,0,0,0.1-0.1,0.1c0,0-0.1-0.1-0.2-0.1c0,0,0.1-0.1,0.1-0.1C154.7,142.3,154.8,142.4,154.8,142.4 z" class="st0"/><path d="M174.9,26.4c0.1,0.2,0.2-0.1,0.1,0.1c0,0,0,0.1,0,0.1C174.8,26.5,174.8,26.5,174.9,26.4L174.9,26.4z" class="st0"/><path d="M194,98.1c0,0-0.1,0.1-0.1,0.1c0,0-0.1-0.1-0.1-0.1c0,0,0.1-0.1,0.1-0.1C194,98,194,98,194,98.1z" class="st0"/><path d="M22,97.7c0.1,0.2,0.2,0.3,0,0.5c-0.1-0.1-0.2-0.2-0.2-0.3C21.8,97.8,21.9,97.7,22,97.7z" class="st0"/><polygon points="191.5 53.8 191.5 53.7 191.6 53.7" class="st0"/><polygon points="24.4 53.6 24.4 53.7 24.3 53.7" class="st0"/><path d="M187.4,113.1c0.1-0.2,0.2-0.4,0.2-0.5c0.2,0.2,0.3,0.4,0.4,0.5c-0.1,0.1-0.3,0.2-0.4,0.3 C187.6,113.3,187.5,113.2,187.4,113.1z" class="st0"/></g></svg>