<?xml version="1.0" encoding="utf-8"?>
<!-- Generator: Adobe Illustrator 25.4.1, SVG Export Plug-In . SVG Version: 6.00 Build 0)  -->
<svg version="1.1" id="Layer_1" xmlns="http://www.w3.org/2000/svg" xmlns:xlink="http://www.w3.org/1999/xlink" x="0px" y="0px"
	 viewBox="0 0 1000 800" style="enable-background:new 0 0 1000 800;" xml:space="preserve">
<style type="text/css">
	.st0{fill:#FFFFFF;}
</style>
<g>
	<path class="st0" d="M659.6,237.3c4.3-19.4-0.5-19.2-0.5-19.2s-0.2-4.7-19.2,1.1c-8.9,2.7-27.2,19.7-44.1,37
		c-10.2,9.9-22.7,22.2-37.1,37.2c-9.2-0.9-24.5-2.4-42.5-4.1l10.8-11.7c2.8-3,2.6-7.7-0.4-10.5l-2.1-1.9c-3-2.8-7.7-2.6-10.5,0.4
		l-19.9,21.6c-10.9-1-22.3-2-33.5-3l9.8-10.7c2.8-3,2.6-7.7-0.4-10.5l-2.1-1.9c-3-2.8-7.7-2.6-10.5,0.4l-19,20.7
		c-36.4-3-67.5-5.2-72.6-4.2c0,0-11.8,7.9-14.4,11.4c-2.6,3.5,0.5,5,5.3,4.8c2.7-0.1,41.1,12.9,75,24.5l-0.4,0.5
		c-1.1,1.2-1,3.1,0.2,4.2l0.9,0.8c1.2,1.1,3.1,1,4.2-0.2l2.5-2.8c3.7,1.3,7.2,2.5,10.6,3.7l-0.6,0.6c-1.1,1.2-1,3.1,0.2,4.2l0.9,0.8
		c1.2,1.1,3.1,1,4.2-0.2l2.7-2.9c3.2,1.1,6.3,2.2,9,3.1l-0.6,0.6c-1.1,1.2-1,3.1,0.2,4.2l0.9,0.8c1.2,1.1,3.1,1,4.2-0.2l2.7-2.9
		c5.5,1.9,9.1,3.2,9.6,3.4c0.7,0.3,2.4,1.1,4.4,2.2l-1,1.1c-2.1,2.3-1.9,5.8,0.3,7.9l1.6,1.5c2.3,2.1,5.8,1.9,7.9-0.3l3.1-3.3
		c2.7,1.6,5.2,3.1,7,4.2c-14.7,16.4-30.5,34.6-47.5,54.6c0,0-13.8,17.1-27.7,37.4l-74.1-6.6c0,0-22.3,6.7-17.7,12.9
		c0,0,35,13.4,39.8,15.9c3.6,1.9,21.9,9.1,30.7,12.6c-0.8,1.5-1.5,3.1-2.2,4.5c-3.8,6.6-6.7,12-6.7,12l1.1,1l-7.2,7.8
		c-0.9,1-0.8,2.4,0.1,3.3c1,0.9,2.4,0.8,3.3-0.1l7.2-7.8l1.1,1c0,0,5.2-3.4,11.4-7.7c1.4-0.8,2.9-1.7,4.3-2.6
		c4.2,8.4,12.9,26.1,15.1,29.5c2.9,4.6,19.2,38.4,19.2,38.4c6.6,4.1,11.4-18.7,11.4-18.7l-12.7-73.3c19-15.6,34.9-30.7,34.9-30.7
		c18.6-18.6,35.4-35.9,50.5-51.9c1.2,1.7,2.9,4.1,4.7,6.6l-3.1,3.3c-2.1,2.3-1.9,5.8,0.3,7.9l1.6,1.5c2.3,2.1,5.8,1.9,7.9-0.3l1-1.1
		c1.3,2,2.3,3.5,2.6,4.2c0.2,0.5,1.8,3.9,4.1,9.3l-2.7,2.9c-1.1,1.2-1,3.1,0.2,4.2l0.9,0.8c1.2,1.1,3.1,1,4.2-0.2l0.6-0.6
		c1.2,2.7,2.5,5.6,3.9,8.8l-2.7,2.9c-1.1,1.2-1,3.1,0.2,4.2l0.9,0.8c1.2,1.1,3.1,1,4.2-0.2l0.6-0.6c1.5,3.3,3,6.8,4.6,10.3L572,449
		c-1.1,1.2-1,3.1,0.2,4.2l0.9,0.8c1.2,1.1,3.1,1,4.2-0.2l0.4-0.5c14.4,32.7,30.6,70,30.7,72.6c0.2,4.7,2,7.7,5.3,4.8
		c3.3-2.8,10.2-15.3,10.2-15.3c0.6-5.2-4.2-36.1-10.3-72l19-20.7c2.8-3,2.6-7.7-0.4-10.5l-2.1-1.9c-3-2.8-7.7-2.6-10.5,0.4
		l-9.8,10.7c-1.9-11.1-3.9-22.4-5.8-33.2l19.9-21.6c2.8-3,2.6-7.7-0.4-10.5l-2.1-1.9c-3-2.8-7.7-2.6-10.5,0.4l-10.8,11.7
		c-3.2-17.9-6-33-7.6-42c13.7-15.7,25-29.1,34-40.1C642.3,266,657.6,246.4,659.6,237.3z"/>
</g>
</svg>
