<svg xmlns="http://www.w3.org/2000/svg" xmlns:xlink="http://www.w3.org/1999/xlink" id="Layer_1" x="0" y="0" version="1.1" viewBox="0 0 6582.9 2114.5" xml:space="preserve" style="enable-background:new 0 0 6582.9 2114.5"><style type="text/css">.st0{fill:none;stroke:#fff;stroke-width:30;stroke-miterlimit:10}.st1{fill:#fff}</style><line x1="47.1" x2="6507.1" y1="46.8" y2="46.8" class="st0"/><line x1="47.1" x2="1240.1" y1="1908.6" y2="1908.6" class="st0"/><line x1="5314" x2="6507.1" y1="1908.6" y2="1908.6" class="st0"/><g><path d="M1808.6,1821.1h96.6v26.2h-65.1v64.5h59.8v25.9h-59.8v86.6h-31.5V1821.1z" class="st1"/><path d="M2095.8,2001.1h28v-156.7h-28v-23.3h87.5v23.3h-28v156.7h28v23.3h-87.5V2001.1z" class="st1"/><path d="M2385.7,1821.1h31.5v176.7h59.5v26.5h-91V1821.1z" class="st1"/><path d="M2676.7,1821.1h48l37.7,174.4l37.7-174.4h48.3v203.3h-30v-179.4l-40.4,179.4h-34.5l-40.1-179.4v179.4h-26.8 V1821.1z" class="st1"/><path d="M3279.4,1821.1h30.3l20.6,172.6l26.5-172.6h41.5l26.8,172.6l20-172.6h26.8l-28.6,203.3H3404l-27.4-173.2 l-27.4,173.2h-40.9L3279.4,1821.1z" class="st1"/><path d="M3667.7,1998.7v-152l25.6-25.6h68l25.6,25.6v152l-25.6,25.6h-68L3667.7,1998.7z M3744,1999l11.5-11.5v-129.6 l-11.5-11.5h-33.3l-11.5,11.5v129.6l11.5,11.5H3744z" class="st1"/><path d="M3995.8,1821.1h93.4l24.7,24.7v67.5l-21.8,21.8l24.2,89.3h-32.1l-22.1-85.4h-34.8v85.4h-31.5V1821.1z M4071.5,1914.7l11.2-11.2v-47.4l-10.9-10.9h-44.5v69.5H4071.5z" class="st1"/><path d="M4377.6,1932.1l-26.2,48.6v43.6h-31.2v-203.3h31.2v114.6l57.4-114.6h33.3l-43.6,84.5l46,118.7h-33.3 L4377.6,1932.1z" class="st1"/><path d="M4635,1999.9v-32.7h31.5v21.8l10.3,10.3h32.4l10.3-10.3v-46l-8-8h-54.5l-21.2-21.5v-67.8l24.7-24.7h65.4 l24.4,24.4v32.7h-31.2v-21.8l-10.3-10.3h-31.2l-10.3,10.6v43.6l8,8h54.5l21.2,21.5v69.8l-24.7,24.7h-66.9L4635,1999.9z" class="st1"/></g><g><path d="M6295.2,1178.8c-6.5,31.1-12.4,53.9-39.2,86.7c-22,26.8-49.2,44.9-49.2,44.9l-44.7-109.6c0,0,5.2-7.5,7.5-13.5 c11-29.7,6.4-53.3-22.5-66.8c-38.3-17.9-79.7-29.3-119.7-43.8c-34.6-12.5-71.2-21.7-103.3-39c-80.6-43.2-85.9-143-55.8-207.4 c15.5-33.1,37.8-60.2,73.7-76.7c13.2,32.7,42.3,105.8,42.3,105.8s-2.4,2.8-3.9,7.1c-13.3,37.5-4.3,64.8,32.9,78.8 c43.7,16.6,89.6,27.3,134.1,41.9c42.6,13.9,85.8,29,114.2,65.7c14.7,19,28,41.2,33.6,65C6299.9,1137.7,6299.4,1159,6295.2,1178.8z" class="st1"/><path d="M6218.8,887.5c-34.1-35.2-61.7-43.2-84.7-50.2c-49.6-15.1-116.8,4.9-116.8,4.9s-25.8-68.9-39.4-102.7 c82.1-19.7,143-17.3,181.2-7.3c79.1,20.8,146.1,83.7,146.1,83.7S6246.6,864,6218.8,887.5z" class="st1"/><path d="M433.3,1131.6c0,0-10.4-0.2-14.2-0.3c-61.2-0.5-50.1,1.5-50.7,54.5c-0.5,45.4-0.1,90.9-0.1,138.1H248.6V734 c6.5,0.3,7.7,0.1,11.6,0.1c98.6,1.2,197.4-1.1,295.7,5c80.1,5,152.5,40.6,174.5,130.8c22.6,92.9,1.9,186.1-100.1,233.2 c-21.2,9.8-18.6,18.9-8.3,33.6c35.6,51,71,102.2,106.4,153.5c6.9,10.1,13.1,20.6,22.6,35.5c-47.5,0-141.1-0.4-141.1-0.4l-6.3-9.7 l-189.3-281.9c0,0-2.1-3.3-3.6-6.6c33.8,0,70.6,1.2,104.2-0.3c43.2-1.9,77.7-17.9,95-61.4c16.6-41.6-6.9-97.4-50.3-110.8 c-19-5.8-39.3-9.2-59.1-9.9c-42.4-1.5-84.9-0.4-131.1-0.4c0,28.6,0,56.1,0,83.6c0,11,1.8,99.5,1.8,99.5" class="st1"/><path d="M5253.4,1325.7l-104.3-0.8c0,0-7.4-9-13.3-16.7c-90.8-117.9-181-236.3-271.4-354.5c-4.6-6-9.5-11.7-17.3-21.3 c0,132.6,0,261,0,391.3c-40,0-77.7,0-117.1,0c0-194.2,0-388.6,0-585.7c35.2,0,114.4,0.6,114.4,0.6s5.3,6.6,9.8,12.5 c85.6,111.2,170.5,222.8,255.9,334.2c40.1,52.3,142.6,187.9,142.6,187.9L5253.4,1325.7z" class="st1"/><path d="M3820.9,1081.7c0,48.1,0,91.6,0,137.4c111.3,0,221.4,0,333.4,0c0,36.2,0,70.2,0,106.2 c-148.3,0-296.3,0-445.6,0c0-169.6,0-526.7,0-526.7l113.6,111.5l0,65.9c0,0,217.2,0,327.7,0c0,36.2,0,69.5,0,105.6 C4041.1,1081.7,3932,1081.7,3820.9,1081.7z" class="st1"/><path d="M1954.8,1325.7c-44.4,0-133.8-0.6-133.8-0.6s-2.7-6.8-5.1-12.6c-76.7-189.5-152.7-379.3-228.7-569.1 c-0.9-2.2-2-5.1-3.2-8.8c38.4,0,78.1,0,116.9,0C1784.9,930.3,1868.9,1125.9,1954.8,1325.7z" class="st1"/><path d="M2900.2,1325.9c-39.5,0-125.2-0.6-125.2-0.6s-3.3-6.9-5.7-12.7c-44.8-108.5-88.8-217.3-132.9-326.1 c-31.6-77.9-63.2-155.8-94.7-233.7c-2.1-5.3-4.5-10.8-7.4-19.7c40.2,0,125.8,0.7,125.8,0.7s3.3,9.5,6,16.1 c54.5,133.5,108.3,267.1,162.5,400.7c19.9,49.1,40.4,98,60.5,147.1C2892.4,1306.1,2896.1,1314.7,2900.2,1325.9z" class="st1"/><path d="M1329.1,1325.7c77.7-180.8,154-358.6,232.5-541.2c19.8,49,57.9,140.5,57.9,140.5s-3.5,10.1-5.5,15.3 c-49.1,123.1-98.2,246.3-148,369.1c-2.8,6.8-6.6,15.5-6.6,15.5S1371.1,1325.7,1329.1,1325.7z" class="st1"/><path d="M3131.3,732c-70.8,181.2-140,359.1-211.1,541.3c-20-50.1-59.1-146-59.1-146s2.7-9.5,5.4-16.8 c42.4-116.3,85.7-232.2,127.8-348.6c7.9-21.8,10.6-29.5,10.6-29.5S3095.2,732,3131.3,732z" class="st1"/><path d="M5252.4,1198.6c-41.5-54.6-79.7-104.7-117.6-155c-2.3-3-3.1-4.8-3.1-4.8s-0.1-200.7-0.1-300.1 c40.7,0,80,0,120.9,0C5252.4,890.5,5252.4,1041.5,5252.4,1198.6z" class="st1"/><path d="M3709,733c149.5,0.2,299,0.4,448.5,0.5l0,0c-0.1,37.4-0.3,75.8-0.4,113.1c-110.6,0.1-221.2,0.3-331.8,0.4" class="st1"/><path d="M6129,1219.1c0,0,29.1,73.7,41.4,104.6c-32,8-102.8,27.9-182.3,8.6c-80.9-19.6-129.5-69.4-154.3-91.4 c24.7-19.8,85.9-67.9,85.9-67.9c20.6,13.4,51.1,43.9,99.4,53.4C6065.4,1235.4,6105.2,1223.4,6129,1219.1z" class="st1"/></g></svg>