<svg enable-background="new 0 0 6582.9 2114.5" viewBox="0 0 6582.9 2114.5" xmlns="http://www.w3.org/2000/svg"><path d="m47.1 46.8h6460" fill="none" stroke="#fff" stroke-miterlimit="10" stroke-width="30"/><path d="m47.1 1908.6h1193" fill="none" stroke="#fff" stroke-miterlimit="10" stroke-width="30"/><path d="m5314 1908.6h1193.1" fill="none" stroke="#fff" stroke-miterlimit="10" stroke-width="30"/><g fill="#fff"><path d="m1808.6 1821.1h96.6v26.2h-65.1v64.5h59.8v25.9h-59.8v86.6h-31.5z"/><path d="m2095.8 2001.1h28v-156.7h-28v-23.3h87.5v23.3h-28v156.7h28v23.3h-87.5z"/><path d="m2385.7 1821.1h31.5v176.7h59.5v26.5h-91z"/><path d="m2676.7 1821.1h48l37.7 174.4 37.7-174.4h48.3v203.3h-30v-179.4l-40.4 179.4h-34.5l-40.1-179.4v179.4h-26.8v-203.3z"/><path d="m3279.4 1821.1h30.3l20.6 172.6 26.5-172.6h41.5l26.8 172.6 20-172.6h26.8l-28.6 203.3h-39.3l-27.4-173.2-27.4 173.2h-40.9z"/><path d="m3667.7 1998.7v-152l25.6-25.6h68l25.6 25.6v152l-25.6 25.6h-68zm76.3.3 11.5-11.5v-129.6l-11.5-11.5h-33.3l-11.5 11.5v129.6l11.5 11.5z"/><path d="m3995.8 1821.1h93.4l24.7 24.7v67.5l-21.8 21.8 24.2 89.3h-32.1l-22.1-85.4h-34.8v85.4h-31.5zm75.7 93.6 11.2-11.2v-47.4l-10.9-10.9h-44.5v69.5z"/><path d="m4377.6 1932.1-26.2 48.6v43.6h-31.2v-203.3h31.2v114.6l57.4-114.6h33.3l-43.6 84.5 46 118.7h-33.3z"/><path d="m4635 1999.9v-32.7h31.5v21.8l10.3 10.3h32.4l10.3-10.3v-46l-8-8h-54.5l-21.2-21.5v-67.8l24.7-24.7h65.4l24.4 24.4v32.7h-31.2v-21.8l-10.3-10.3h-31.2l-10.3 10.6v43.6l8 8h54.5l21.2 21.5v69.8l-24.7 24.7h-66.9z"/><path d="m6295.2 1178.8c-6.5 31.1-12.4 53.9-39.2 86.7-22 26.8-49.2 44.9-49.2 44.9l-44.7-109.6s5.2-7.5 7.5-13.5c11-29.7 6.4-53.3-22.5-66.8-38.3-17.9-79.7-29.3-119.7-43.8-34.6-12.5-71.2-21.7-103.3-39-80.6-43.2-85.9-143-55.8-207.4 15.5-33.1 37.8-60.2 73.7-76.7 13.2 32.7 42.3 105.8 42.3 105.8s-2.4 2.8-3.9 7.1c-13.3 37.5-4.3 64.8 32.9 78.8 43.7 16.6 89.6 27.3 134.1 41.9 42.6 13.9 85.8 29 114.2 65.7 14.7 19 28 41.2 33.6 65 4.7 19.8 4.2 41.1 0 60.9z"/><path d="m6218.8 887.5c-34.1-35.2-61.7-43.2-84.7-50.2-49.6-15.1-116.8 4.9-116.8 4.9s-25.8-68.9-39.4-102.7c82.1-19.7 143-17.3 181.2-7.3 79.1 20.8 146.1 83.7 146.1 83.7s-58.6 48.1-86.4 71.6z"/><path d="m433.3 1131.6s-10.4-.2-14.2-.3c-61.2-.5-50.1 1.5-50.7 54.5-.5 45.4-.1 90.9-.1 138.1h-119.7v-589.9c6.5.3 7.7.1 11.6.1 98.6 1.2 197.4-1.1 295.7 5 80.1 5 152.5 40.6 174.5 130.8 22.6 92.9 1.9 186.1-100.1 233.2-21.2 9.8-18.6 18.9-8.3 33.6 35.6 51 71 102.2 106.4 153.5 6.9 10.1 13.1 20.6 22.6 35.5-47.5 0-141.1-.4-141.1-.4l-6.3-9.7-189.3-281.9s-2.1-3.3-3.6-6.6c33.8 0 70.6 1.2 104.2-.3 43.2-1.9 77.7-17.9 95-61.4 16.6-41.6-6.9-97.4-50.3-110.8-19-5.8-39.3-9.2-59.1-9.9-42.4-1.5-84.9-.4-131.1-.4v83.6c0 11 1.8 99.5 1.8 99.5"/><path d="m5253.4 1325.7-104.3-.8s-7.4-9-13.3-16.7c-90.8-117.9-181-236.3-271.4-354.5-4.6-6-9.5-11.7-17.3-21.3v391.3c-40 0-77.7 0-117.1 0 0-194.2 0-388.6 0-585.7 35.2 0 114.4.6 114.4.6s5.3 6.6 9.8 12.5c85.6 111.2 170.5 222.8 255.9 334.2 40.1 52.3 142.6 187.9 142.6 187.9z"/><path d="m3820.9 1081.7v137.4h333.4v106.2c-148.3 0-296.3 0-445.6 0 0-169.6 0-526.7 0-526.7l113.6 111.5v65.9h327.7v105.6c-108.9.1-218 .1-329.1.1z"/><path d="m1954.8 1325.7c-44.4 0-133.8-.6-133.8-.6s-2.7-6.8-5.1-12.6c-76.7-189.5-152.7-379.3-228.7-569.1-.9-2.2-2-5.1-3.2-8.8h116.9c84 195.7 168 391.3 253.9 591.1z"/><path d="m2900.2 1325.9c-39.5 0-125.2-.6-125.2-.6s-3.3-6.9-5.7-12.7c-44.8-108.5-88.8-217.3-132.9-326.1-31.6-77.9-63.2-155.8-94.7-233.7-2.1-5.3-4.5-10.8-7.4-19.7 40.2 0 125.8.7 125.8.7s3.3 9.5 6 16.1c54.5 133.5 108.3 267.1 162.5 400.7 19.9 49.1 40.4 98 60.5 147.1 3.3 8.4 7 17 11.1 28.2z"/><path d="m1329.1 1325.7c77.7-180.8 154-358.6 232.5-541.2 19.8 49 57.9 140.5 57.9 140.5s-3.5 10.1-5.5 15.3c-49.1 123.1-98.2 246.3-148 369.1-2.8 6.8-6.6 15.5-6.6 15.5s-88.3.8-130.3.8z"/><path d="m3131.3 732c-70.8 181.2-140 359.1-211.1 541.3-20-50.1-59.1-146-59.1-146s2.7-9.5 5.4-16.8c42.4-116.3 85.7-232.2 127.8-348.6 7.9-21.8 10.6-29.5 10.6-29.5s90.3-.4 126.4-.4z"/><path d="m5252.4 1198.6c-41.5-54.6-79.7-104.7-117.6-155-2.3-3-3.1-4.8-3.1-4.8s-.1-200.7-.1-300.1h120.9c-.1 151.8-.1 302.8-.1 459.9z"/><path d="m3709 733c149.5.2 299 .4 448.5.5-.1 37.4-.3 75.8-.4 113.1-110.6.1-221.2.3-331.8.4"/><path d="m6129 1219.1s29.1 73.7 41.4 104.6c-32 8-102.8 27.9-182.3 8.6-80.9-19.6-129.5-69.4-154.3-91.4 24.7-19.8 85.9-67.9 85.9-67.9 20.6 13.4 51.1 43.9 99.4 53.4 46.3 9 86.1-3 109.9-7.3z"/></g></svg>