<svg id="Layer_1" data-name="Layer 1" xmlns="http://www.w3.org/2000/svg" viewBox="0 0 6153.14 687.32"><defs><style>.cls-1{fill:#fff;}</style></defs><path class="cls-1" d="M6100.93,506.15c-6.51,31.08-12.37,53.89-39.19,86.67-22,26.84-49.17,44.91-49.17,44.91l-44.68-109.58s5.25-7.51,7.48-13.54c11-29.69,6.37-53.28-22.5-66.79-38.32-17.93-79.73-29.32-119.71-43.79-34.65-12.54-71.19-21.74-103.33-39-80.63-43.21-85.91-143-55.76-207.41,15.5-33.09,37.82-60.22,73.74-76.68,13.22,32.68,42.27,105.85,42.27,105.85a23.68,23.68,0,0,0-3.95,7.1c-13.26,37.49-4.29,64.75,32.89,78.84,43.7,16.56,89.59,27.31,134.1,41.87,42.59,13.93,85.81,29,114.2,65.72,14.7,19,28,41.22,33.61,65C6105.61,465.07,6105.08,486.32,6100.93,506.15Z"/><path class="cls-1" d="M6024.44,214.83c-34.09-35.22-61.66-43.17-84.66-50.17-49.61-15.1-116.76,4.94-116.76,4.94s-25.78-68.88-39.41-102.67c82.09-19.65,143-17.31,181.17-7.27,79.09,20.81,146.15,83.66,146.15,83.66S6052.27,191.33,6024.44,214.83Z"/><path class="cls-1" d="M239,458.92s-10.43-.23-14.2-.26c-61.21-.51-50.15,1.53-50.72,54.5-.49,45.44-.1,90.89-.1,138.11H54.3V61.34c6.48.32,7.68.06,11.62.11,98.58,1.16,197.4-1.11,295.68,5,80.11,5,152.47,40.63,174.45,130.78C558.7,290.15,537.92,383.39,436,430.43c-21.2,9.78-18.56,18.89-8.28,33.62q53.44,76.57,106.38,153.51c6.94,10.07,13.14,20.64,22.55,35.5-47.54,0-141.13-.45-141.13-.45l-6.33-9.75L219.83,361a72.71,72.71,0,0,1-3.57-6.63c33.82,0,70.57,1.2,104.19-.31,43.18-1.93,77.69-17.91,95-61.41,16.59-41.63-6.93-97.43-50.26-110.76a230.19,230.19,0,0,0-59.1-9.93c-42.41-1.47-84.9-.45-131.08-.45v83.62c0,11,1.78,99.54,1.76,99.54"/><path class="cls-1" d="M5059.08,653.05l-104.28-.79s-7.41-9-13.35-16.68q-136.24-176.83-271.39-354.5c-4.57-6-9.48-11.68-17.29-21.27V651.1H4535.65V65.42c35.18,0,114.38.58,114.38.58s5.26,6.58,9.81,12.49q128.33,166.77,255.85,334.15c40.09,52.32,142.56,188,142.56,188Z"/><path class="cls-1" d="M3626.61,409V546.39h333.44V652.63h-445.6V125.93L3628,237.45l0,65.94H3955.7V409Z"/><path class="cls-1" d="M1760.44,653.05c-44.42,0-133.85-.58-133.85-.58s-2.71-6.75-5.08-12.61q-115-284.3-228.73-569.13c-.87-2.19-2-5.07-3.2-8.82h117C1590.58,257.58,1674.62,453.24,1760.44,653.05Z"/><path class="cls-1" d="M2705.85,653.27c-39.47,0-125.23-.59-125.23-.59s-3.29-6.88-5.71-12.73c-44.8-108.49-88.8-217.31-132.93-326.07Q2394.56,197,2347.29,80.16c-2.13-5.28-4.54-10.84-7.4-19.73,40.17,0,125.79.74,125.79.74s3.31,9.52,6,16q81.69,200.18,162.5,400.71c19.92,49.13,40.41,98,60.51,147.09C2698.09,633.39,2701.83,642,2705.85,653.27Z"/><path class="cls-1" d="M1134.75,653l232.46-541.17c19.76,48.95,57.86,140.53,57.86,140.53s-3.49,10.08-5.55,15.25q-73.63,184.73-148,369.15c-2.76,6.78-6.58,15.52-6.58,15.52S1176.8,653,1134.75,653Z"/><path class="cls-1" d="M2937,59.36c-70.83,181.21-140,359.13-211.15,541.26-20-50.07-59.09-145.95-59.09-145.95s2.72-9.53,5.36-16.77c42.4-116.28,85.7-232.25,127.78-348.64,7.89-21.82,10.57-29.51,10.57-29.51S2900.91,59.36,2937,59.36Z"/><path class="cls-1" d="M5058.08,525.88c-41.49-54.57-79.68-104.67-117.58-155a31.75,31.75,0,0,1-3.14-4.82s-.13-200.67-.13-300.08h120.85Z"/><path class="cls-1" d="M3514.69,60.32l448.47.54h0c-.13,37.39-.25,75.77-.38,113.15l-331.85.42"/><path class="cls-1" d="M5934.65,546.46s29.1,73.75,41.43,104.56c-32.05,8-102.83,27.9-182.3,8.64-80.88-19.61-129.54-69.45-154.26-91.45,24.66-19.81,85.85-68,85.85-68,20.58,13.42,51.12,44,99.41,53.4C5871.08,562.72,5910.85,550.75,5934.65,546.46Z"/></svg>