<?xml version="1.0" standalone="no"?>
<!DOCTYPE svg PUBLIC "-//W3C//DTD SVG 1.1//EN" "http://www.w3.org/Graphics/SVG/1.1/DTD/svg11.dtd" >
<svg xmlns="http://www.w3.org/2000/svg" xmlns:xlink="http://www.w3.org/1999/xlink" version="1.1">
<defs>
<font id="GothicOutlineTitleW01-D" horiz-adv-x="404" >
  <font-face 
    font-family="GothicOutlineTitleW01-D"
    font-weight="400"
    font-stretch="normal"
    units-per-em="1000"
    panose-1="4 0 5 0 0 0 0 0 0 0"
    ascent="825"
    descent="-175"
    x-height="667"
    cap-height="667"
    bbox="-52 -207 904 883"
    underline-thickness="97"
    underline-position="-198"
    unicode-range="U+000D-2122"
  />
<missing-glyph horiz-adv-x="0" 
 />
    <glyph glyph-name=".notdef" horiz-adv-x="0" 
 />
    <glyph glyph-name=".null" horiz-adv-x="0" 
 />
    <glyph glyph-name="uni000D" unicode="&#xd;" horiz-adv-x="0" 
 />
    <glyph glyph-name="space" unicode=" " horiz-adv-x="250" 
 />
    <glyph glyph-name="exclam" unicode="!" horiz-adv-x="273" 
d="M77 180l-18 487h155l-15 -487h-122zM192 647h-110l16 -447h80zM213 139v-139h-152v139h152zM81 20h112v99h-112v-99z" />
    <glyph glyph-name="quotedbl" unicode="&#x22;" 
d="M188 667l-8 -262h-137l-10 262h155zM64 425h95l7 222h-110zM371 667l-9 -262h-137l-10 262h156zM246 425h95l7 222h-110z" />
    <glyph glyph-name="numbersign" unicode="#" horiz-adv-x="447" 
d="M175 378h107l-15 -91h-105zM246 307l8 51h-57l-8 -51h57zM399 629l-27 -174h72l-13 -97h-73l-8 -51h71l-13 -97h-71l-29 -178h-103l27 178h-58l-26 -178h-99l24 178h-70l16 97h68l8 51h-70l15 97h71l26 174h101l-25 -174h55l27 174h104zM290 435h-105l25 174h-51
l-26 -174h-72l-9 -57h72l-16 -91h-68l-9 -57h69l-24 -178h50l26 178h107l-26 -178h54l28 178h71l8 57h-72l14 91h73l8 57h-72l27 174h-55z" />
    <glyph glyph-name="dollar" unicode="$" horiz-adv-x="400" 
d="M228 450v69q0 29 -27 29q-12 0 -19.5 -8t-7.5 -21v-44q0 -39 44 -68l89 -57q27 -18 42.5 -42.5t15.5 -50.5v-117q0 -44 -26.5 -80.5t-71.5 -53.5v-80h-125v80q-107 32 -107 142v69h139v-69q0 -28 26 -28q28 0 28 34v63q0 16 -9.5 27.5t-35.5 26.5l-81 47q-32 19 -49.5 48
t-17.5 64v89q0 53 28 90.5t79 52.5v46h125v-46q48 -21 73 -55.5t25 -79.5v-77h-137zM340 527q0 21 -8.5 42.5t-24.5 38.5q-12 13 -25.5 21t-39.5 19v38h-75v-40q-29 -8 -45 -16t-30 -24q-32 -35 -32 -87v-89q0 -29 14 -53.5t40 -38.5l81 -48q17 -10 28 -18t18 -16.5
t9.5 -17.5t2.5 -21v-63q0 -26 -14 -41t-39 -15q-23 0 -37 13.5t-14 36.5v47h-89v-47q0 -27 9 -51t26 -40q13 -13 28 -20t44 -15v-74h75v73q48 17 73 47.5t25 71.5v117q0 20 -12.5 40t-33.5 33l-88 58q-57 37 -57 87v44q0 23 14.5 37t37.5 14q24 0 38 -14t14 -37v-47h87v55z
" />
    <glyph glyph-name="percent" unicode="%" horiz-adv-x="689" 
d="M114 569q0 17 9.5 26.5t24.5 9.5t24 -9.5t9 -26.5v-207q0 -17 -9.5 -27t-24.5 -10t-24 10t-9 27v207zM160 569q0 16 -12 16q-13 0 -13 -16v-207q0 -17 12 -17q13 0 13 17v207zM41 589q0 40 29 64t79 24q47 0 77 -25t30 -63v-237q0 -95 -108 -95q-51 0 -79 26t-28 74v232z
M235 589q0 29 -24 48.5t-62 19.5q-41 0 -64 -18t-23 -50v-232q0 -80 86 -80q87 0 87 75v237zM241 0h-82l286 667h85zM458 645l-267 -623h37l270 623h-40zM506 302q0 17 9.5 27t24.5 10t24 -10t9 -27v-207q0 -17 -9.5 -27t-24.5 -10t-24 10t-9 27v207zM552 302q0 17 -12 17
q-13 0 -13 -17v-207q0 -17 12 -17q13 0 13 17v207zM433 322q0 40 29 64t79 24q47 0 77 -25t30 -63v-237q0 -95 -108 -95q-51 0 -79 26t-28 74v232zM627 322q0 29 -24 48.5t-62 19.5q-41 0 -64 -18t-23 -50v-232q0 -80 86 -80q87 0 87 75v237z" />
    <glyph glyph-name="ampersand" unicode="&#x26;" horiz-adv-x="517" 
d="M296 161q-35 -45 -73 -45q-20 0 -34 18.5t-14 44.5q0 34 10.5 51.5t42.5 37.5zM221 236q-14 -9 -18.5 -21t-4.5 -36q0 -17 7.5 -29t18.5 -12t23 7t21 18zM291 488q0 -8 -1.5 -14.5t-6 -14t-13 -16l-21.5 -21.5q-14 12 -22 20t-12.5 15.5t-6 15.5t-1.5 19v37
q0 19 11.5 30.5t30.5 11.5t30.5 -11.5t11.5 -30.5v-41zM230 492q0 -14 3 -20.5t15 -17.5q12 11 16 18t4 16v41q0 20 -19 20t-19 -20v-37zM378 259q4 4 6.5 7.5t5.5 8l7 10.5t11 17l76 -93q-4 -11 -10.5 -21t-27.5 -35l59 -91l-116 -83l-44 68q-23 -17 -42.5 -28.5
t-36.5 -18.5t-33.5 -10t-34.5 -3q-70 0 -108 38.5t-38 110.5v95q0 24 3.5 41t12.5 31.5t25 27.5t42 29q-17 18 -27 31.5t-15 26t-7 26t-2 31.5v62q0 32 11 58.5t31 42.5q23 20 59.5 31t74.5 11q33 0 61.5 -10t48.5 -28t31.5 -42.5t11.5 -53.5v-71q0 -15 -2.5 -27t-9.5 -24.5
t-20.5 -28.5t-35.5 -39q-5 -5 -8.5 -9.5t-8.5 -9.5zM300 340q5 5 9.5 10.5t9.5 10.5l5 5l5 5q20 21 32 35.5t18.5 25.5t8.5 21t2 22v71q0 50 -36.5 81t-93.5 31q-35 0 -67 -10t-52 -27q-34 -28 -34 -84v-62q0 -17 1.5 -29t8 -24t19 -27.5t33.5 -39.5q-32 -20 -51 -33.5
t-28.5 -26t-12 -27.5t-2.5 -37v-95q0 -62 31.5 -94.5t91.5 -32.5q17 0 33 3t33.5 11t38.5 21.5t49 34.5l44 -67l78 55l-56 87q4 5 7.5 9.5t7.5 9.5q11 13 14.5 17.5t9.5 14.5l-47 58q-8 -11 -14.5 -18.5t-20.5 -24.5z" />
    <glyph glyph-name="quotesingle" unicode="'" horiz-adv-x="221" 
d="M188 667l-8 -262h-137l-10 262h155zM64 425h95l7 222h-110z" />
    <glyph glyph-name="parenleft" unicode="(" horiz-adv-x="274" 
d="M232 744q-12 -30 -19.5 -51.5t-12 -39t-6 -33.5t-1.5 -36v-490q0 -49 8.5 -87.5t30.5 -83.5l-77 -46q-54 60 -83.5 133t-29.5 145v332q0 115 38 191q14 29 35 60.5t40 51.5zM160 760q-28 -40 -46 -71.5t-28.5 -62t-14.5 -63.5t-4 -76v-332q0 -32 8 -72t22 -70
q12 -27 25.5 -49.5t37.5 -56.5l41 24q-18 42 -25.5 79.5t-7.5 83.5v490q0 19 1.5 35.5t5 34t10 37t16.5 45.5z" />
    <glyph glyph-name="parenright" unicode=")" horiz-adv-x="274" 
d="M42 -78q12 30 19.5 51.5t12 39t6 33.5t1.5 36v490q0 49 -8.5 88t-30.5 84l77 46q54 -61 83.5 -133.5t29.5 -144.5v-332q0 -115 -38 -192q-14 -28 -35 -59.5t-40 -51.5zM114 -94q28 40 46 72t28.5 62.5t14.5 63.5t4 76v332q0 32 -8 71.5t-22 69.5q-12 28 -25.5 50.5
t-37.5 56.5l-41 -24q18 -42 25.5 -79.5t7.5 -84.5v-490q0 -19 -1.5 -35.5t-5.5 -33.5t-10 -37t-16 -45z" />
    <glyph glyph-name="asterisk" unicode="*" horiz-adv-x="415" 
d="M253 668v-99l95 30l28 -88l-94 -30l58 -81l-75 -54l-58 80l-59 -80l-75 54l59 80l-95 31l29 88l94 -31v100h93zM180 541l-102 33l-16 -50l102 -33l-63 -87l43 -30l63 86l63 -86l42 31l-63 86l102 33l-16 50l-102 -33v107h-53v-107z" />
    <glyph glyph-name="plus" unicode="+" horiz-adv-x="448" 
d="M162 406v127h124v-127h127v-125h-127v-126h-124v126h-127v125h127zM60 303h127v-126h74v126h127v81h-127v127h-74v-127h-127v-81z" />
    <glyph glyph-name="comma" unicode="," horiz-adv-x="205" 
d="M27 0v139h152v-121l-65 -141h-86l44 123h-45zM55 -103h47l57 126v96h-112v-99h53z" />
    <glyph glyph-name="hyphen" unicode="-" horiz-adv-x="212" 
d="M212 406v-125h-212v125h212zM23 303h166v81h-166v-81z" />
    <glyph glyph-name="period" unicode="." horiz-adv-x="205" 
d="M179 139v-139h-152v139h152zM47 20h112v99h-112v-99z" />
    <glyph glyph-name="slash" unicode="/" horiz-adv-x="399" 
d="M386 667l-288 -834h-99l286 834h101zM30 -147h53l273 790h-56z" />
    <glyph glyph-name="zero" unicode="0" horiz-adv-x="400" 
d="M155 514q0 22 12 34.5t33 12.5q20 0 31.5 -12.5t11.5 -34.5v-361q0 -23 -12.5 -36t-32.5 -13t-31.5 13t-11.5 36v361zM220 512q0 27 -20 27q-22 0 -22 -27v-357q0 -29 20 -29q22 0 22 29v357zM33 546q0 26 11 51.5t28 41.5q20 19 55 30t74 11q75 0 118 -37
q20 -17 34 -44.5t14 -52.5v-415q0 -144 -168 -144q-81 0 -123.5 39t-42.5 113v407zM344 544q0 20 -11 43.5t-28 37.5q-36 33 -104 33q-35 0 -66.5 -10t-48.5 -27q-13 -13 -21.5 -35t-8.5 -42v-403q0 -65 36 -98.5t107 -33.5q145 0 145 124v411z" />
    <glyph glyph-name="one" unicode="1" horiz-adv-x="400" 
d="M311 0h-145v461h-77v114q37 5 66.5 28.5t48.5 63.5h107v-667zM219 645q-14 -21 -24.5 -34.5t-21.5 -23t-25.5 -16.5t-35.5 -15v-73h77v-461h99v623h-69z" />
    <glyph glyph-name="two" unicode="2" horiz-adv-x="400" 
d="M37 420v110q0 33 12 60.5t34 47.5t51.5 31t64.5 11t65 -10.5t52 -28.5t34.5 -43t12.5 -55v-92q0 -18 -0.5 -29t-1 -19.5t-2.5 -15.5t-5 -16q-6 -18 -14 -35.5t-15 -25.5l-97 -112q-5 -6 -10 -14.5t-9.5 -17t-7.5 -16t-3 -11.5v-6h165v-133h-326v93q0 20 4.5 41t11.5 36
l9 15t12.5 20.5t13 20t10.5 13.5l82 102q16 21 26 34t14.5 24.5t6 23t1.5 28.5v54q0 31 -24 31q-14 0 -19 -7t-5 -24v-85h-143zM157 507q0 51 47 51q22 0 34.5 -13.5t12.5 -37.5v-54q0 -20 -1.5 -33t-7 -26t-16.5 -27.5t-29 -36.5l-82 -103q-3 -3 -8.5 -12t-12 -19
t-12.5 -20t-8 -14q-6 -12 -10 -31t-4 -36v-73h280v89h-166l-1 21q0 17 10.5 39.5t27.5 42.5l97 113q3 3 6.5 10t7.5 16.5t7.5 19t5.5 16.5q2 6 3 11t1.5 11.5t0.5 16v25.5v88q0 25 -10.5 46.5t-29.5 37t-45 24.5t-56 9t-55.5 -10t-44 -27t-29 -41t-10.5 -52v-86h97v65z" />
    <glyph glyph-name="three" unicode="3" horiz-adv-x="400" 
d="M133 397h44q45 0 45 44v71q0 34 -24 34q-12 0 -16.5 -7t-4.5 -27v-57h-139v68q0 157 167 157q35 0 60 -7t46 -23q24 -18 37.5 -43.5t13.5 -52.5v-86q0 -20 -2 -34.5t-8.5 -26t-18.5 -23t-31 -25.5l-9 -7q22 -13 29 -18t14 -13q11 -13 18.5 -33t7.5 -38v-125
q0 -63 -46 -101t-121 -38q-74 0 -114 36q-20 18 -31.5 46t-11.5 57v90h139v-60q0 -21 4.5 -28.5t17.5 -7.5q12 0 17.5 8t5.5 28v95q0 15 -2 22t-7 13q-6 5 -16.5 9.5t-19.5 4.5h-44v98zM177 321q15 0 31.5 -7t24.5 -17q7 -8 9.5 -18t2.5 -27v-99q0 -56 -46 -56q-45 0 -45 56
v40h-93v-66q0 -24 9.5 -48t25.5 -39q34 -32 98 -32q67 0 106 32t39 87v125q0 17 -7 34.5t-18 28.5q-3 3 -6 5l-9 6t-16 10t-28 16q8 7 16 13.5t18 12.5q15 11 25 20.5t15.5 19.5t7.5 22t2 30v82q0 22 -10.5 43t-29.5 36q-19 14 -41 20.5t-55 6.5q-142 0 -142 -137v-44h93v37
q0 29 10.5 41.5t34.5 12.5q46 0 46 -54v-71q0 -64 -68 -64h-21v-58h21z" />
    <glyph glyph-name="four" unicode="4" horiz-adv-x="400" 
d="M125 228l106 329v-329h-106zM208 412l-52 -162h52v162zM348 250h31v-119h-31v-131h-140v131h-187v115l149 421h178v-417zM186 645l-142 -400v-92h187v-131h94v131h31v75h-31v417h-139z" />
    <glyph glyph-name="five" unicode="5" horiz-adv-x="400" 
d="M362 536h-176l-7 -110q45 21 89 21q43 0 68.5 -27t25.5 -74v-214q0 -69 -43.5 -107.5t-123.5 -38.5q-40 0 -67 9t-50 29q-40 38 -40 90v92h141v-59q0 -26 25 -26q23 0 23 26v132q0 25 -21 25q-10 0 -15 -5t-12 -20h-141l23 388h301v-131zM82 645l-20 -344l102 1
q11 14 19.5 19t22.5 5q20 0 32 -12.5t12 -32.5v-136q0 -21 -12.5 -33.5t-33.5 -12.5q-22 0 -35 12.5t-13 33.5v39h-95v-68q0 -42 32 -74q19 -18 42.5 -26t59.5 -8q70 0 107 32.5t37 93.5v210q0 38 -19 59.5t-52 21.5q-26 0 -50 -7.5t-64 -28.5l10 169h175v87h-257z" />
    <glyph glyph-name="six" unicode="6" horiz-adv-x="400" 
d="M156 231q0 61 48 61q43 0 43 -51v-93q0 -20 -12.5 -32.5t-32.5 -12.5q-46 0 -46 54v74zM224 239q0 31 -20 31q-25 0 -25 -41v-70q0 -34 23 -34q22 0 22 25v89zM224 468v41q0 32 -22 32q-13 0 -18 -7t-5 -25v-112q26 13 45 18t41 5q97 0 97 -103v-176q0 -39 -10 -65.5
t-33 -48.5q-24 -23 -51 -32t-72 -9q-39 0 -66.5 9t-49.5 29q-23 20 -32.5 45t-9.5 66v403q0 68 44 105t126 37q72 0 113 -38t41 -104v-70h-138zM339 536q0 59 -35 90.5t-99 31.5q-69 0 -106.5 -31.5t-37.5 -90.5v-399q0 -36 7 -57t26 -38q19 -18 43 -26t59 -8q41 0 64.5 8
t43.5 29q19 19 27 41t8 57v172q0 43 -18 63t-57 20q-11 0 -21.5 -1.5t-22.5 -6t-27.5 -12t-36.5 -18.5v151q0 52 46 52q45 0 45 -52v-21h92v46z" />
    <glyph glyph-name="seven" unicode="7" horiz-adv-x="400" 
d="M366 667v-134l-140 -533h-152l152 533h-191v134h331zM58 555h197l-152 -533h104l136 515v108h-285v-90z" />
    <glyph glyph-name="eight" unicode="8" horiz-adv-x="400" 
d="M155 511q0 23 12 36.5t34 13.5q21 0 33.5 -13.5t12.5 -36.5v-61q0 -55 -46 -55t-46 55v61zM224 509q0 14 -6 22t-17 8q-23 0 -23 -30v-57q0 -35 23 -35t23 35v57zM155 249q0 51 47 51q22 0 33.5 -13.5t11.5 -37.5v-99q0 -22 -13 -35t-34 -13t-33 12.5t-12 35.5v99z
M224 247q0 31 -22 31q-24 0 -24 -31v-95q0 -28 23 -28t23 28v95zM36 248q0 33 13.5 59t39.5 40q-31 26 -42 46.5t-11 49.5v90q0 32 11.5 60t32.5 48q22 21 49 30t68 9q44 0 73 -9.5t52 -31.5q42 -39 42 -101v-88q0 -18 -2 -30t-7.5 -23t-16 -22.5t-28.5 -27.5
q29 -22 41.5 -44.5t12.5 -54.5v-125q0 -66 -42 -101t-121 -35q-81 0 -123 37.5t-42 111.5v112zM59 445q0 -31 17 -52q14 -17 25.5 -27.5t25.5 -19.5q-40 -22 -54 -42t-14 -54v-112q0 -129 143 -129q139 0 139 116v125q0 33 -15 54t-54 42q14 10 27.5 21.5t24.5 24.5
q10 11 13.5 24t3.5 36v84q0 51 -33 86q-20 19 -45.5 27.5t-65.5 8.5q-37 0 -60.5 -8t-41.5 -27q-36 -36 -36 -92v-86z" />
    <glyph glyph-name="nine" unicode="9" horiz-adv-x="400" 
d="M244 435q0 -61 -48 -61q-43 0 -43 51v93q0 20 12.5 33t32.5 13q46 0 46 -55v-74zM176 427q0 -31 20 -31q25 0 25 41v70q0 35 -23 35q-10 0 -16 -7.5t-6 -18.5v-89zM176 198v-41q0 -32 22 -32q13 0 18 7t5 25v112q-25 -12 -44.5 -17t-41.5 -5q-97 0 -97 103v176
q0 39 10 65t33 48q24 23 51 32t72 9q39 0 66.5 -9t49.5 -29q23 -20 32.5 -44.5t9.5 -65.5v-404q0 -68 -44.5 -105t-125.5 -37q-72 0 -113 38t-41 104v70h138zM61 130q0 -58 35 -90t99 -32q69 0 106.5 31.5t37.5 90.5v400q0 35 -7 56t-26 38q-19 18 -43 26t-59 8
q-41 0 -64.5 -8t-43.5 -29q-19 -18 -27 -40.5t-8 -56.5v-172q0 -44 18 -63.5t57 -19.5q11 0 21 1.5t22.5 6t28 11.5t36.5 18v-151q0 -52 -46 -52q-45 0 -45 52v21h-92v-46z" />
    <glyph glyph-name="colon" unicode=":" horiz-adv-x="205" 
d="M179 139v-139h-152v139h152zM47 20h112v99h-112v-99zM179 450v-139h-152v139h152zM47 331h112v99h-112v-99z" />
    <glyph glyph-name="semicolon" unicode=";" horiz-adv-x="205" 
d="M27 0v139h152v-121l-65 -141h-86l44 123h-45zM55 -103h47l57 126v96h-112v-99h53zM179 450v-139h-152v139h152zM47 331h112v99h-112v-99z" />
    <glyph glyph-name="less" unicode="&#x3c;" horiz-adv-x="500" 
d="M466 475l-258 -138l257 -138l1 -163l-433 233v138l433 232v-164zM58 395v-114l383 -206l-1 112l-280 150l281 150v113z" />
    <glyph glyph-name="equal" unicode="=" horiz-adv-x="448" 
d="M413 489v-124h-378v124h378zM58 387h332v80h-332v-80zM413 323v-125h-378v125h378zM58 220h332v81h-332v-81z" />
    <glyph glyph-name="greater" unicode="&#x3e;" horiz-adv-x="500" 
d="M33 201l258 137l-257 138l-1 163l433 -232v-139l-433 -232v165zM441 280v114l-383 206l1 -112l280 -150l-281 -150v-113z" />
    <glyph glyph-name="question" unicode="?" horiz-adv-x="414" 
d="M129 189v114q0 11 1 18.5t4.5 15t10 16t17.5 21.5l41 49q7 8 11 14t6 11t2.5 11.5t0.5 15.5v56q0 26 -20 26q-23 0 -23 -31v-87h-148v107q0 70 55 105q49 33 122 33q38 0 63.5 -9t49.5 -31q47 -42 47 -98v-66q0 -14 -1 -23t-4.5 -17t-9.5 -17t-16 -21l-41 -50
q-2 -2 -9 -13.5t-11 -18.5q-2 -4 -3 -6.5t-1.5 -5.5t-0.5 -8.5v-14.5v-96h-143zM250 285q0 21 1.5 27.5t6.5 16.5q5 9 12 21t11 16l40 49q9 10 14 17.5t7.5 14t3.5 14.5t1 19v66q0 46 -39 82q-21 20 -43 28t-56 8q-64 0 -111 -30q-44 -29 -44 -88v-87h104v67q0 23 12.5 37
t33.5 14q19 0 30 -12.5t11 -33.5v-56q0 -11 -1 -19t-3.5 -14.5t-7.5 -14t-14 -17.5l-41 -49q-9 -11 -14.5 -18.5t-8.5 -13.5t-3.5 -11.5t-0.5 -14.5v-94h99v76zM276 139v-139h-152v139h152zM144 20h112v99h-112v-99z" />
    <glyph glyph-name="at" unicode="@" horiz-adv-x="464" 
d="M343 296q0 -43 -37 -43q-36 0 -36 43v126q0 49 36 49q37 0 37 -49v-126zM295 296q0 -13 2 -17t9 -4t9.5 4.5t2.5 16.5v126q0 15 -2.5 21t-8.5 6q-7 0 -9.5 -6t-2.5 -21v-126zM324 191l-3 7q-13 -8 -22.5 -10.5t-23.5 -2.5q-36 0 -57.5 23.5t-21.5 61.5v176q0 40 21 63
t58 23q12 0 19 -2t18 -7q-2 30 -19 42.5t-59 12.5q-26 0 -39 -3t-24 -12q-20 -17 -20 -44v-371q0 -60 77 -60q21 0 34.5 1.5t23 7t16 15t13.5 25.5l107 -42q-17 -34 -33.5 -55.5t-38.5 -34t-51.5 -17t-72.5 -4.5q-50 0 -80 9.5t-57 33.5t-39.5 52.5t-12.5 66.5v376
q0 36 14.5 66.5t41.5 53.5q26 23 58 32t82 9q53 0 84.5 -9t57.5 -31q53 -45 53 -121v-331h-104zM403 522q0 31 -11.5 57.5t-31.5 45.5q-23 20 -50.5 28t-75.5 8q-47 0 -75 -8.5t-51 -28.5q-46 -38 -46 -102v-376q0 -33 10 -57t32 -44q25 -23 51 -31t70 -8q37 0 62 3.5t43 12
t31.5 23.5t27.5 39l-61 24q-8 -13 -16.5 -21t-20 -12.5t-27 -6.5t-37.5 -2q-48 0 -74.5 21.5t-26.5 60.5v371q0 38 30 62q14 11 31 15t47 4q57 0 81.5 -22.5t24.5 -76.5v-17q-23 14 -38 20t-29 6q-24 0 -38 -17.5t-14 -46.5v-176q0 -29 14 -46t39 -17q6 0 10.5 0.5t9.5 3
t14 7.5t24 15l9 -20h62v309z" />
    <glyph glyph-name="A" unicode="A" 
d="M148 234l50 327l58 -327h-108zM200 452l-23 -196h49zM167 120l-16 -120h-149l103 667h189l108 -667h-151l-16 120h-68zM274 22h99l-101 623h-145l-96 -623h98l16 120h113z" />
    <glyph glyph-name="B" unicode="B" horiz-adv-x="441" 
d="M178 550q21 -1 33.5 -1.5t20 -1t12 -2t8.5 -3.5q24 -12 24 -49v-49q0 -37 -29 -49q-5 -2 -8 -3t-8.5 -1.5t-14.5 -1t-25 -0.5h-13v161zM203 411q29 0 38.5 6.5t9.5 26.5v49q0 22 -8 27.5t-40 6.5v-116zM178 292l34 1q64 0 64 -61v-55q0 -32 -15 -46.5t-48 -14.5
q-6 0 -15.5 0.5t-19.5 1.5v174zM215 138q20 0 28 8.5t8 30.5v55q0 21 -9 30t-29 9h-10v-133h12zM45 667h215q69 0 107 -35t38 -99v-89q0 -35 -14 -59.5t-46 -41.5q18 -14 29.5 -26t18 -24.5t9.5 -27t3 -33.5v-113q0 -35 -11.5 -57t-37.5 -36q-25 -14 -50.5 -20t-60.5 -6
h-200v667zM245 22q70 0 109 30q26 20 26 67v113q0 18 -3 31.5t-11 26t-23 25.5t-39 31q43 21 59.5 42t16.5 56v89q0 54 -31 83t-89 29h-190v-623h175z" />
    <glyph glyph-name="C" unicode="C" horiz-adv-x="422" 
d="M240 414v98q0 17 -6.5 26.5t-18.5 9.5q-13 0 -20.5 -9.5t-7.5 -26.5v-346q0 -50 26 -50q27 0 27 50v104h151v-104q0 -51 -11 -83t-37 -57q-24 -23 -54 -33t-73 -10q-181 0 -181 183v346q0 81 46.5 126.5t129.5 45.5q88 0 134 -43.5t46 -128.5v-98h-151zM366 512
q0 150 -154 150q-72 0 -112 -39t-40 -111v-346q0 -82 38 -121.5t118 -39.5q38 0 64.5 9t46.5 29q21 22 30 49.5t9 73.5v82h-101v-82q0 -72 -52 -72q-51 0 -51 72v346q0 26 14.5 42t38.5 16q23 0 36.5 -15.5t13.5 -42.5v-76h101v76z" />
    <glyph glyph-name="D" unicode="D" horiz-adv-x="438" 
d="M178 544h38q58 0 58 -67v-298q0 -37 -13 -51.5t-45 -14.5h-38v431zM216 135q21 0 27 8t6 36v298q0 25 -7.5 35t-25.5 10h-13v-387h13zM45 667h204q80 0 116.5 -35t36.5 -110v-376q0 -69 -33 -108q-19 -22 -43.5 -30t-71.5 -8h-209v667zM254 22q42 0 62 6.5t35 25.5
q26 32 26 92v376q0 66 -29.5 94.5t-98.5 28.5h-179v-623h184z" />
    <glyph glyph-name="E" unicode="E" horiz-adv-x="348" 
d="M316 526h-119v-118h109v-139h-109v-130h119v-139h-271v667h271v-141zM70 645v-623h221v95h-119v174h109v95h-109v162h119v97h-221z" />
    <glyph glyph-name="F" unicode="F" horiz-adv-x="334" 
d="M318 527h-119v-118h108v-139h-108v-270h-154v667h273v-140zM70 645v-623h104v270h108v95h-108v162h119v96h-223z" />
    <glyph glyph-name="G" unicode="G" horiz-adv-x="422" 
d="M392 346v-202q0 -74 -48 -117.5t-129 -43.5q-48 0 -87 12t-61 35q-18 18 -25 42.5t-7 71.5v366q0 89 46 131.5t142 42.5q83 0 126 -39.5t43 -114.5v-103h-149v83q0 35 -29 35q-28 0 -28 -35v-358q0 -20 6 -28t23 -8q16 0 22 8t6 28v71h-28v123h177zM240 245h28v-93
q0 -58 -53 -58q-54 0 -54 58v358q0 27 13.5 42t39.5 15q25 0 39.5 -15.5t14.5 -41.5v-61h99v81q0 132 -144 132q-85 0 -124 -36.5t-39 -115.5v-366q0 -23 1.5 -39.5t5 -28.5t10 -21t16.5 -16q19 -17 51.5 -25.5t70.5 -8.5q71 0 111.5 37.5t40.5 101.5v180h-127v-79z" />
    <glyph glyph-name="H" unicode="H" horiz-adv-x="448" 
d="M199 406h52v261h151v-667h-151v264h-52v-264h-154v667h154v-261zM70 645v-623h104v264h102v-264h101v623h-101v-261h-102v261h-104z" />
    <glyph glyph-name="I" unicode="I" horiz-adv-x="245" 
d="M199 0h-154v667h154v-667zM70 645v-623h104v623h-104z" />
    <glyph glyph-name="J" unicode="J" horiz-adv-x="389" 
d="M354 151q0 -79 -47.5 -123.5t-132.5 -44.5q-83 0 -129 40.5t-46 114.5v119h152v-93q0 -43 25 -43q27 0 27 43v503h151v-516zM228 645v-481q0 -65 -53 -65q-49 0 -49 65v71h-102v-97q0 -64 39 -98.5t111 -34.5q74 0 114.5 38.5t40.5 107.5v494h-101z" />
    <glyph glyph-name="K" unicode="K" horiz-adv-x="436" 
d="M200 488l78 179h157l-127 -295q28 -8 46 -17t29 -22t15.5 -31.5t4.5 -44.5v-192q0 -22 2.5 -36t8.5 -29h-122q-24 0 -31 12t-7 53v192q0 19 -5 25.5t-20 6.5h-29v-289h-155v667h155v-179zM70 645v-623h105v289h54q26 0 38 -12.5t12 -41.5v-192q0 -30 3 -36.5t17 -6.5h82
q-2 12 -2.5 20.5t-0.5 22.5v192q0 32 -7 50t-24 27q-31 16 -71 21l123 290h-103l-121 -264v264h-105z" />
    <glyph glyph-name="L" unicode="L" horiz-adv-x="344" 
d="M196 134h137v-134h-288v667h151v-533zM70 645v-623h238v90h-137v533h-101z" />
    <glyph glyph-name="M" unicode="M" horiz-adv-x="590" 
d="M239 667l56 -276l53 276h196v-667h-145v308l-68 -308h-73l-68 308v-308h-145v667h194zM70 22h95v495l114 -495h31l114 495v-495h95v623h-149l-73 -373l-79 373h-148v-623z" />
    <glyph glyph-name="N" unicode="N" horiz-adv-x="448" 
d="M192 667l69 -239l-3 239h145v-667h-145l-71 235l3 -235h-145v667h147zM70 22h95v364l112 -364h101v623h-95v-373l-111 373h-102v-623z" />
    <glyph glyph-name="O" unicode="O" horiz-adv-x="425" 
d="M165 515q0 25 12.5 39t35.5 14q22 0 35.5 -13.5t13.5 -33.5v-374q0 -50 -50 -50q-47 0 -47 50v368zM237 521q0 11 -6.5 18t-17.5 7q-23 0 -23 -31v-368q0 -28 22 -28q25 0 25 28v374zM35 530q0 71 48.5 112.5t131.5 41.5q82 0 128.5 -41t46.5 -113v-392q0 -31 -12 -60.5
t-32 -50.5q-23 -23 -54.5 -33.5t-78.5 -10.5t-75 9t-54 33q-26 23 -37.5 49.5t-11.5 63.5v392zM365 530q0 63 -39.5 97.5t-109.5 34.5q-38 0 -65.5 -8.5t-48.5 -26.5q-20 -18 -31 -43t-11 -54v-392q0 -32 9 -54t30 -42q23 -20 47 -28.5t63 -8.5q45 0 72.5 9t47.5 30
q17 18 26.5 43t9.5 51v392z" />
    <glyph glyph-name="P" unicode="P" horiz-adv-x="409" 
d="M170 546q8 1 16.5 1h13.5q64 0 64 -56v-65q0 -29 -15 -41t-52 -12h-10.5t-16.5 1v172zM204 395q20 0 27.5 6.5t7.5 24.5v65q0 18 -8 26t-28 8h-8v-130h9zM246 667q63 0 100 -33.5t37 -90.5v-147q0 -41 -8.5 -64t-30.5 -43q-20 -18 -41 -25.5t-50 -7.5h-58v-256h-150v667
h201zM70 22h100v256h83q52 0 82 36q14 16 18.5 33t4.5 49v147q0 48 -29 75t-83 27h-176v-623z" />
    <glyph glyph-name="Q" unicode="Q" horiz-adv-x="425" 
d="M165 516q0 52 48 52q23 0 35.5 -12t12.5 -35v-368q0 -54 -48 -54t-48 49v368zM236 521q0 25 -23 25t-23 -30v-368q0 -27 22 -27q14 0 19 7t5 25v368zM444 18l-89 -95l-79 68q-19 -5 -31 -6t-32 -1q-45 0 -74.5 9.5t-55.5 32.5t-37 49t-11 65v390q0 71 48.5 112.5
t129.5 41.5q84 0 130 -40.5t46 -113.5v-377v-23.5t-1.5 -16t-4 -16t-6.5 -23.5zM349 67q6 18 9 28.5t4.5 19t1.5 16.5v22v377q0 63 -39 97.5t-112 34.5q-71 0 -112 -35.5t-41 -96.5v-390q0 -34 8.5 -55t30.5 -41q22 -21 48 -29.5t66 -8.5q20 0 33.5 2t36.5 8l70 -61l56 61z
" />
    <glyph glyph-name="R" unicode="R" horiz-adv-x="439" 
d="M174 551h35.5t21 -1t11.5 -3t9 -5q22 -16 22 -50v-54q0 -41 -30 -53q-4 -2 -8 -3t-11 -1.5t-18.5 -0.5h-31.5v171zM199 400h10q22 -1 30.5 7.5t8.5 28.5v56q0 20 -8.5 28.5t-30.5 8.5h-10v-129zM271 667q131 0 131 -104v-128q0 -20 -2 -34t-8 -23.5t-16.5 -17
t-27.5 -15.5l-13 -6l19 -12q29 -19 38.5 -34.5t9.5 -45.5v-172q0 -26 2.5 -42t10.5 -33h-110q-18 0 -28.5 1.5t-16 7.5t-6.5 18.5t-1 35.5v162q0 39 -29 39h-25v-264h-154v667h226zM70 22h104v264h50q54 0 54 -61v-162q0 -15 0.5 -23.5t3 -12.5t8 -4.5t15.5 -0.5h76
q-2 8 -3 23.5t-1 29.5v172q0 15 -2.5 25.5t-11.5 20t-26 20.5t-46 28q30 13 47 22t26 18.5t11 21.5t2 32v128q0 82 -106 82h-201v-623z" />
    <glyph glyph-name="S" unicode="S" horiz-adv-x="399" 
d="M226 451v73q0 25 -24 25q-28 0 -28 -32v-39q0 -20 7.5 -32.5t24.5 -23.5q10 -4 20 -11l66 -42q16 -10 25.5 -16t15 -10.5t9 -8.5t8.5 -11q26 -32 26 -76v-92q0 -83 -46 -127.5t-133 -44.5q-81 0 -127 40t-46 112v84h150v-64q0 -20 6.5 -28.5t22.5 -8.5q13 0 18 8t5 29v49
q0 14 -3 22t-12 16q-7 7 -18 14.5t-19 12.5l-67 37q-45 25 -64 53t-19 67v98q0 75 47 117.5t130 42.5q81 0 128 -43t47 -117v-73h-150zM351 524q0 64 -40.5 101t-109.5 37q-72 0 -112 -36t-40 -102v-98q0 -33 16 -56t53 -44l67 -37q37 -21 51.5 -39.5t14.5 -45.5v-49
q0 -59 -49 -59q-53 0 -53 59v42h-100v-62q0 -62 38.5 -96t108.5 -34q76 0 115.5 38t39.5 112v92q0 34 -20 62q-4 6 -7 9.5t-8 7.5t-13.5 9.5t-22.5 14.5l-66 41l-10 6l-10 6q-24 14 -34.5 31.5t-10.5 43.5v39q0 24 14.5 39t37.5 15t36.5 -13t13.5 -34v-51h100v51z" />
    <glyph glyph-name="T" unicode="T" horiz-adv-x="377" 
d="M366 667v-142h-101v-525h-151v525h-103v142h355zM36 547h103v-525h101v525h101v98h-305v-98z" />
    <glyph glyph-name="U" unicode="U" horiz-adv-x="431" 
d="M189 667v-503q0 -25 6 -34t21 -9q16 0 22 9.5t6 33.5v503h152v-519q0 -44 -12 -72.5t-39 -51.5q-50 -41 -132 -41q-84 0 -131 39.5t-47 109.5v535h154zM60 132q0 -60 40 -93.5t113 -33.5q74 0 117 37q22 20 31.5 44t9.5 62v497h-102v-481q0 -65 -52 -65q-28 0 -40.5 15
t-12.5 50v481h-104v-513z" />
    <glyph glyph-name="V" unicode="V" horiz-adv-x="418" 
d="M155 667l54 -402l55 402h152l-120 -667h-172l-122 667h153zM146 22h128l112 623h-99l-78 -522l-76 522h-101z" />
    <glyph glyph-name="W" unicode="W" horiz-adv-x="569" 
d="M149 667l29 -307l53 307h108l57 -307l25 307h146l-77 -667h-150l-56 303l-52 -303h-148l-82 667h147zM107 22h103l74 423l78 -423h105l72 623h-94l-40 -452l-87 452h-66l-82 -452l-45 452h-95z" />
    <glyph glyph-name="X" unicode="X" horiz-adv-x="428" 
d="M214 448l52 219h156l-94 -314l94 -353h-158l-50 236l-49 -236h-160l96 353l-96 314h160zM38 645l89 -292l-90 -331h107l70 316l71 -316h105l-88 331l87 292h-103l-72 -287l-70 287h-106z" />
    <glyph glyph-name="Y" unicode="Y" horiz-adv-x="416" 
d="M209 417l51 250h154l-129 -438v-229h-150v229l-133 438h157zM35 645l125 -413v-210h100v210l121 413h-100l-73 -336l-70 336h-103z" />
    <glyph glyph-name="Z" unicode="Z" horiz-adv-x="355" 
d="M343 667l-149 -528h149v-139h-334l150 527h-126v140h310zM58 549h134l-151 -527h277v95h-156l149 528h-253v-96z" />
    <glyph glyph-name="bracketleft" unicode="[" horiz-adv-x="274" 
d="M260 770v-129h-67v-615h67v-129h-218v873h218zM67 -81h168v85h-67v659h67v85h-168v-829z" />
    <glyph glyph-name="backslash" unicode="\" horiz-adv-x="399" 
d="M101 707l299 -874h-99l-302 874h102zM316 -147h53l-284 830h-55z" />
    <glyph glyph-name="bracketright" unicode="]" horiz-adv-x="274" 
d="M14 770h218v-873h-218v129h67v615h-67v129zM106 663v-659h-67v-85h168v829h-168v-85h67z" />
    <glyph glyph-name="asciicircum" unicode="^" horiz-adv-x="500" 
d="M12 345l147 326h183l147 -326h-146l-92 214l-93 -214h-146zM251 622l110 -255h91l-127 282h-149l-127 -282h91z" />
    <glyph glyph-name="underscore" unicode="_" horiz-adv-x="500" 
d="M500 -53v-98h-500v98h500zM25 -129h450v54h-450v-54z" />
    <glyph glyph-name="grave" unicode="`" horiz-adv-x="500" 
d="M237 839l64 -106h-102l-134 106h172zM206 753h60l-42 66l-103 1z" />
    <glyph glyph-name="a" unicode="a" 
d="M148 234l50 327l58 -327h-108zM200 452l-23 -196h49zM167 120l-16 -120h-149l103 667h189l108 -667h-151l-16 120h-68zM274 22h99l-101 623h-145l-96 -623h98l16 120h113z" />
    <glyph glyph-name="b" unicode="b" horiz-adv-x="441" 
d="M178 550q21 -1 33.5 -1.5t20 -1t12 -2t8.5 -3.5q24 -12 24 -49v-49q0 -37 -29 -49q-5 -2 -8 -3t-8.5 -1.5t-14.5 -1t-25 -0.5h-13v161zM203 411q29 0 38.5 6.5t9.5 26.5v49q0 22 -8 27.5t-40 6.5v-116zM178 292l34 1q64 0 64 -61v-55q0 -32 -15 -46.5t-48 -14.5
q-6 0 -15.5 0.5t-19.5 1.5v174zM215 138q20 0 28 8.5t8 30.5v55q0 21 -9 30t-29 9h-10v-133h12zM45 667h215q69 0 107 -35t38 -99v-89q0 -35 -14 -59.5t-46 -41.5q18 -14 29.5 -26t18 -24.5t9.5 -27t3 -33.5v-113q0 -35 -11.5 -57t-37.5 -36q-25 -14 -50.5 -20t-60.5 -6
h-200v667zM245 22q70 0 109 30q26 20 26 67v113q0 18 -3 31.5t-11 26t-23 25.5t-39 31q43 21 59.5 42t16.5 56v89q0 54 -31 83t-89 29h-190v-623h175z" />
    <glyph glyph-name="c" unicode="c" horiz-adv-x="422" 
d="M240 414v98q0 17 -6.5 26.5t-18.5 9.5q-13 0 -20.5 -9.5t-7.5 -26.5v-346q0 -50 26 -50q27 0 27 50v104h151v-104q0 -51 -11 -83t-37 -57q-24 -23 -54 -33t-73 -10q-181 0 -181 183v346q0 81 46.5 126.5t129.5 45.5q88 0 134 -43.5t46 -128.5v-98h-151zM366 512
q0 150 -154 150q-72 0 -112 -39t-40 -111v-346q0 -82 38 -121.5t118 -39.5q38 0 64.5 9t46.5 29q21 22 30 49.5t9 73.5v82h-101v-82q0 -72 -52 -72q-51 0 -51 72v346q0 26 14.5 42t38.5 16q23 0 36.5 -15.5t13.5 -42.5v-76h101v76z" />
    <glyph glyph-name="d" unicode="d" horiz-adv-x="438" 
d="M178 544h38q58 0 58 -67v-298q0 -37 -13 -51.5t-45 -14.5h-38v431zM216 135q21 0 27 8t6 36v298q0 25 -7.5 35t-25.5 10h-13v-387h13zM45 667h204q80 0 116.5 -35t36.5 -110v-376q0 -69 -33 -108q-19 -22 -43.5 -30t-71.5 -8h-209v667zM254 22q42 0 62 6.5t35 25.5
q26 32 26 92v376q0 66 -29.5 94.5t-98.5 28.5h-179v-623h184z" />
    <glyph glyph-name="e" unicode="e" horiz-adv-x="348" 
d="M316 526h-119v-118h109v-139h-109v-130h119v-139h-271v667h271v-141zM70 645v-623h221v95h-119v174h109v95h-109v162h119v97h-221z" />
    <glyph glyph-name="f" unicode="f" horiz-adv-x="334" 
d="M318 527h-119v-118h108v-139h-108v-270h-154v667h273v-140zM70 645v-623h104v270h108v95h-108v162h119v96h-223z" />
    <glyph glyph-name="g" unicode="g" horiz-adv-x="422" 
d="M392 346v-202q0 -74 -48 -117.5t-129 -43.5q-48 0 -87 12t-61 35q-18 18 -25 42.5t-7 71.5v366q0 89 46 131.5t142 42.5q83 0 126 -39.5t43 -114.5v-103h-149v83q0 35 -29 35q-28 0 -28 -35v-358q0 -20 6 -28t23 -8q16 0 22 8t6 28v71h-28v123h177zM240 245h28v-93
q0 -58 -53 -58q-54 0 -54 58v358q0 27 13.5 42t39.5 15q25 0 39.5 -15.5t14.5 -41.5v-61h99v81q0 132 -144 132q-85 0 -124 -36.5t-39 -115.5v-366q0 -23 1.5 -39.5t5 -28.5t10 -21t16.5 -16q19 -17 51.5 -25.5t70.5 -8.5q71 0 111.5 37.5t40.5 101.5v180h-127v-79z" />
    <glyph glyph-name="h" unicode="h" horiz-adv-x="448" 
d="M199 406h52v261h151v-667h-151v264h-52v-264h-154v667h154v-261zM70 645v-623h104v264h102v-264h101v623h-101v-261h-102v261h-104z" />
    <glyph glyph-name="i" unicode="i" horiz-adv-x="245" 
d="M199 0h-154v667h154v-667zM70 645v-623h104v623h-104z" />
    <glyph glyph-name="j" unicode="j" horiz-adv-x="389" 
d="M354 151q0 -79 -47.5 -123.5t-132.5 -44.5q-83 0 -129 40.5t-46 114.5v119h152v-93q0 -43 25 -43q27 0 27 43v503h151v-516zM228 645v-481q0 -65 -53 -65q-49 0 -49 65v71h-102v-97q0 -64 39 -98.5t111 -34.5q74 0 114.5 38.5t40.5 107.5v494h-101z" />
    <glyph glyph-name="k" unicode="k" horiz-adv-x="436" 
d="M200 488l78 179h157l-127 -295q28 -8 46 -17t29 -22t15.5 -31.5t4.5 -44.5v-192q0 -22 2.5 -36t8.5 -29h-122q-24 0 -31 12t-7 53v192q0 19 -5 25.5t-20 6.5h-29v-289h-155v667h155v-179zM70 645v-623h105v289h54q26 0 38 -12.5t12 -41.5v-192q0 -30 3 -36.5t17 -6.5h82
q-2 12 -2.5 20.5t-0.5 22.5v192q0 32 -7 50t-24 27q-31 16 -71 21l123 290h-103l-121 -264v264h-105z" />
    <glyph glyph-name="l" unicode="l" horiz-adv-x="344" 
d="M196 134h137v-134h-288v667h151v-533zM70 645v-623h238v90h-137v533h-101z" />
    <glyph glyph-name="m" unicode="m" horiz-adv-x="590" 
d="M239 667l56 -276l53 276h196v-667h-145v308l-68 -308h-73l-68 308v-308h-145v667h194zM70 22h95v495l114 -495h31l114 495v-495h95v623h-149l-73 -373l-79 373h-148v-623z" />
    <glyph glyph-name="n" unicode="n" horiz-adv-x="448" 
d="M192 667l69 -239l-3 239h145v-667h-145l-71 235l3 -235h-145v667h147zM70 22h95v364l112 -364h101v623h-95v-373l-111 373h-102v-623z" />
    <glyph glyph-name="o" unicode="o" horiz-adv-x="425" 
d="M165 515q0 25 12.5 39t35.5 14q22 0 35.5 -13.5t13.5 -33.5v-374q0 -50 -50 -50q-47 0 -47 50v368zM237 521q0 11 -6.5 18t-17.5 7q-23 0 -23 -31v-368q0 -28 22 -28q25 0 25 28v374zM35 530q0 71 48.5 112.5t131.5 41.5q82 0 128.5 -41t46.5 -113v-392q0 -31 -12 -60.5
t-32 -50.5q-23 -23 -54.5 -33.5t-78.5 -10.5t-75 9t-54 33q-26 23 -37.5 49.5t-11.5 63.5v392zM365 530q0 63 -39.5 97.5t-109.5 34.5q-38 0 -65.5 -8.5t-48.5 -26.5q-20 -18 -31 -43t-11 -54v-392q0 -32 9 -54t30 -42q23 -20 47 -28.5t63 -8.5q45 0 72.5 9t47.5 30
q17 18 26.5 43t9.5 51v392z" />
    <glyph glyph-name="p" unicode="p" horiz-adv-x="409" 
d="M170 546q8 1 16.5 1h13.5q64 0 64 -56v-65q0 -29 -15 -41t-52 -12h-10.5t-16.5 1v172zM204 395q20 0 27.5 6.5t7.5 24.5v65q0 18 -8 26t-28 8h-8v-130h9zM246 667q63 0 100 -33.5t37 -90.5v-147q0 -41 -8.5 -64t-30.5 -43q-20 -18 -41 -25.5t-50 -7.5h-58v-256h-150v667
h201zM70 22h100v256h83q52 0 82 36q14 16 18.5 33t4.5 49v147q0 48 -29 75t-83 27h-176v-623z" />
    <glyph glyph-name="q" unicode="q" horiz-adv-x="425" 
d="M165 516q0 52 48 52q23 0 35.5 -12t12.5 -35v-368q0 -54 -48 -54t-48 49v368zM236 521q0 25 -23 25t-23 -30v-368q0 -27 22 -27q14 0 19 7t5 25v368zM444 18l-89 -95l-79 68q-19 -5 -31 -6t-32 -1q-45 0 -74.5 9.5t-55.5 32.5t-37 49t-11 65v390q0 71 48.5 112.5
t129.5 41.5q84 0 130 -40.5t46 -113.5v-377v-23.5t-1.5 -16t-4 -16t-6.5 -23.5zM349 67q6 18 9 28.5t4.5 19t1.5 16.5v22v377q0 63 -39 97.5t-112 34.5q-71 0 -112 -35.5t-41 -96.5v-390q0 -34 8.5 -55t30.5 -41q22 -21 48 -29.5t66 -8.5q20 0 33.5 2t36.5 8l70 -61l56 61z
" />
    <glyph glyph-name="r" unicode="r" horiz-adv-x="439" 
d="M174 551h35.5t21 -1t11.5 -3t9 -5q22 -16 22 -50v-54q0 -41 -30 -53q-4 -2 -8 -3t-11 -1.5t-18.5 -0.5h-31.5v171zM199 400h10q22 -1 30.5 7.5t8.5 28.5v56q0 20 -8.5 28.5t-30.5 8.5h-10v-129zM271 667q131 0 131 -104v-128q0 -20 -2 -34t-8 -23.5t-16.5 -17
t-27.5 -15.5l-13 -6l19 -12q29 -19 38.5 -34.5t9.5 -45.5v-172q0 -26 2.5 -42t10.5 -33h-110q-18 0 -28.5 1.5t-16 7.5t-6.5 18.5t-1 35.5v162q0 39 -29 39h-25v-264h-154v667h226zM70 22h104v264h50q54 0 54 -61v-162q0 -15 0.5 -23.5t3 -12.5t8 -4.5t15.5 -0.5h76
q-2 8 -3 23.5t-1 29.5v172q0 15 -2.5 25.5t-11.5 20t-26 20.5t-46 28q30 13 47 22t26 18.5t11 21.5t2 32v128q0 82 -106 82h-201v-623z" />
    <glyph glyph-name="s" unicode="s" horiz-adv-x="399" 
d="M226 451v73q0 25 -24 25q-28 0 -28 -32v-39q0 -20 7.5 -32.5t24.5 -23.5q10 -4 20 -11l66 -42q16 -10 25.5 -16t15 -10.5t9 -8.5t8.5 -11q26 -32 26 -76v-92q0 -83 -46 -127.5t-133 -44.5q-81 0 -127 40t-46 112v84h150v-64q0 -20 6.5 -28.5t22.5 -8.5q13 0 18 8t5 29v49
q0 14 -3 22t-12 16q-7 7 -18 14.5t-19 12.5l-67 37q-45 25 -64 53t-19 67v98q0 75 47 117.5t130 42.5q81 0 128 -43t47 -117v-73h-150zM351 524q0 64 -40.5 101t-109.5 37q-72 0 -112 -36t-40 -102v-98q0 -33 16 -56t53 -44l67 -37q37 -21 51.5 -39.5t14.5 -45.5v-49
q0 -59 -49 -59q-53 0 -53 59v42h-100v-62q0 -62 38.5 -96t108.5 -34q76 0 115.5 38t39.5 112v92q0 34 -20 62q-4 6 -7 9.5t-8 7.5t-13.5 9.5t-22.5 14.5l-66 41l-10 6l-10 6q-24 14 -34.5 31.5t-10.5 43.5v39q0 24 14.5 39t37.5 15t36.5 -13t13.5 -34v-51h100v51z" />
    <glyph glyph-name="t" unicode="t" horiz-adv-x="377" 
d="M366 667v-142h-101v-525h-151v525h-103v142h355zM36 547h103v-525h101v525h101v98h-305v-98z" />
    <glyph glyph-name="u" unicode="u" horiz-adv-x="431" 
d="M189 667v-503q0 -25 6 -34t21 -9q16 0 22 9.5t6 33.5v503h152v-519q0 -44 -12 -72.5t-39 -51.5q-50 -41 -132 -41q-84 0 -131 39.5t-47 109.5v535h154zM60 132q0 -60 40 -93.5t113 -33.5q74 0 117 37q22 20 31.5 44t9.5 62v497h-102v-481q0 -65 -52 -65q-28 0 -40.5 15
t-12.5 50v481h-104v-513z" />
    <glyph glyph-name="v" unicode="v" horiz-adv-x="418" 
d="M155 667l54 -402l55 402h152l-120 -667h-172l-122 667h153zM146 22h128l112 623h-99l-78 -522l-76 522h-101z" />
    <glyph glyph-name="w" unicode="w" horiz-adv-x="569" 
d="M149 667l29 -307l53 307h108l57 -307l25 307h146l-77 -667h-150l-56 303l-52 -303h-148l-82 667h147zM107 22h103l74 423l78 -423h105l72 623h-94l-40 -452l-87 452h-66l-82 -452l-45 452h-95z" />
    <glyph glyph-name="x" unicode="x" horiz-adv-x="428" 
d="M214 448l52 219h156l-94 -314l94 -353h-158l-50 236l-49 -236h-160l96 353l-96 314h160zM38 645l89 -292l-90 -331h107l70 316l71 -316h105l-88 331l87 292h-103l-72 -287l-70 287h-106z" />
    <glyph glyph-name="y" unicode="y" horiz-adv-x="416" 
d="M209 417l51 250h154l-129 -438v-229h-150v229l-133 438h157zM35 645l125 -413v-210h100v210l121 413h-100l-73 -336l-70 336h-103z" />
    <glyph glyph-name="z" unicode="z" horiz-adv-x="355" 
d="M343 667l-149 -528h149v-139h-334l150 527h-126v140h310zM58 549h134l-151 -527h277v95h-156l149 528h-253v-96z" />
    <glyph glyph-name="braceleft" unicode="{" horiz-adv-x="361" 
d="M347 -102q-17 0 -28 -0.5t-18.5 -0.5h-14h-13.5q-35 0 -58.5 2t-40.5 7t-29 13.5t-22 21.5q-25 32 -25 103v143q0 42 -12.5 62.5t-43.5 28.5v117q29 7 42.5 26.5t13.5 57.5v150q0 76 35 108q10 10 22 16t28 10t38 5.5t54 1.5h31.5t40.5 -1v-129q-31 0 -50 -3t-29.5 -12
t-14 -24.5t-3.5 -40.5v-106q0 -25 -2.5 -43t-9.5 -32t-18 -25t-28 -21q33 -20 45.5 -46.5t12.5 -75.5v-109q0 -26 3 -41.5t12.5 -24.5t26.5 -12t44 -4h11v-122zM322 -2q-28 1 -46.5 7t-30 18t-16 31t-4.5 48v109q0 25 -3.5 43t-12 31.5t-23 24.5t-37.5 23q24 13 39 24.5
t23.5 24t11 29.5t2.5 43v106q0 55 20.5 76.5t76.5 24.5v87h-47q-32 0 -53.5 -1.5t-36.5 -5.5t-25 -11t-18 -18q-19 -27 -19 -83v-150q0 -40 -13 -63t-43 -37v-86q32 -16 44 -38.5t12 -67.5v-143q0 -69 26 -96q8 -9 17.5 -14.5t23 -9t33.5 -4.5t50 -1h49v79z" />
    <glyph glyph-name="bar" unicode="|" horiz-adv-x="500" 
d="M334 667v-834h-167v834h167zM192 -145h117v790h-117v-790z" />
    <glyph glyph-name="braceright" unicode="}" horiz-adv-x="361" 
d="M14 20h11q27 1 44 4t26.5 12t12.5 24.5t3 41.5v109q0 49 12.5 75.5t45.5 46.5q-17 10 -28 21t-18 25t-9.5 32t-2.5 43v106q0 25 -3.5 40.5t-14 24.5t-29.5 12t-50 3v129q23 1 40.5 1h31.5q34 0 58.5 -2t41.5 -7t29 -13t23 -21q25 -31 25 -98v-150q0 -38 13.5 -57.5
t42.5 -26.5v-117q-31 -8 -43.5 -28.5t-12.5 -62.5v-143q0 -42 -8 -68.5t-26 -44.5q-11 -10 -22 -16.5t-27 -10.5t-38 -5.5t-54 -1.5h-14h-13.5t-18.5 0.5t-28 0.5v122zM88 -81q32 0 53.5 1.5t36 5.5t24 11.5t17.5 18.5q19 29 19 88v143q0 45 12 67.5t44 38.5v86
q-30 14 -43 37t-13 63v150q0 65 -26 91q-9 9 -18.5 14.5t-23.5 8.5t-34 4t-49 1h-48v-87q56 -3 76.5 -24.5t20.5 -76.5v-106q0 -26 2.5 -43t11 -29.5t23.5 -24t40 -24.5q-23 -12 -38 -23t-23.5 -24.5t-12 -31.5t-3.5 -43v-109q0 -29 -4.5 -48t-16 -31t-30 -18t-46.5 -7v-79
h49z" />
    <glyph glyph-name="asciitilde" unicode="~" horiz-adv-x="667" 
d="M92 613q29 73 66 107.5t86 34.5q18 0 42 -7t70 -26q19 -8 31 -12.5t19.5 -7t12 -3t10.5 -0.5q20 0 35.5 13.5t32.5 44.5l79 -66q-15 -38 -31.5 -65t-35 -43.5t-40.5 -24t-49 -7.5q-11 0 -20 1t-20.5 4.5t-28 10t-43.5 17.5t-43 16t-28 5q-18 0 -33 -13.5t-32 -45.5z
M165 583q18 24 34.5 34t37.5 10q15 0 33 -5t47 -17q25 -11 41 -17.5t27 -9.5t18.5 -4t16.5 -1q43 0 72 25.5t55 86.5l-43 36q-18 -24 -35 -34t-40 -10q-8 0 -14 1t-14.5 3.5t-21 7.5l-32.5 13q-44 17 -66 24t-37 7q-74 0 -123 -114z" />
    <glyph glyph-name="uni00A0" unicode="&#xa0;" horiz-adv-x="250" 
 />
    <glyph glyph-name="exclamdown" unicode="&#xa1;" horiz-adv-x="273" 
d="M197 487l17 -487h-155l15 487h123zM82 20h110l-17 447h-80zM61 528v139h152v-139h-152zM193 647h-112v-99h112v99z" />
    <glyph glyph-name="cent" unicode="&#xa2;" horiz-adv-x="400" 
d="M265 605v-52q101 -17 101 -109v-85h-141v31q0 48 -24 48q-14 0 -20.5 -12t-6.5 -40v-177q0 -49 27 -49q13 0 18.5 11.5t5.5 37.5v37h141v-91q0 -44 -24 -69.5t-77 -38.5v-47h-125v45q-107 22 -107 110v289q0 45 27.5 73t79.5 36v52h125zM164 533q-57 -7 -82 -27.5
t-25 -62.5v-288q0 -41 24 -61.5t83 -30.5v-41h77v41q56 13 78.5 33t22.5 59v68h-93v-14q0 -72 -48 -72q-25 0 -38 18.5t-13 53.5v177q0 20 2 30.5t7 19.5q7 11 18.5 17.5t23.5 6.5q48 0 48 -71v-8h93v62q0 46 -30 68q-12 9 -27 13.5t-44 8.5v49h-77v-49z" />
    <glyph glyph-name="sterling" unicode="&#xa3;" horiz-adv-x="400" 
d="M210 463v57q0 20 -9.5 32t-23.5 12t-23 -12t-9 -32v-43q0 -9 0.5 -15.5t3.5 -13.5t9.5 -18t18.5 -29l5 -11h122v-121h-88q6 -21 8.5 -37.5t2.5 -42.5q0 -18 -1 -32.5t-4 -31.5q28 0 38.5 12t10.5 44v24h128v-60q0 -31 -11.5 -57.5t-31.5 -46t-47 -30.5t-59 -11h-248v126
h89q4 14 5 23t1 22q0 22 -3.5 45t-11.5 53h-73v121h29q-9 17 -14.5 30.5t-9 27t-4.5 28.5t-1 36q0 89 37 126q21 20 56 31.5t77 11.5q163 0 163 -141v-77h-132zM317 540q0 62 -33 90.5t-105 28.5q-42 0 -74 -12t-48 -34q-11 -15 -17 -41t-6 -59q0 -23 1 -38t5.5 -29.5
t13.5 -32t24 -45.5h-44v-77h68q11 -40 16 -66.5t5 -52.5q0 -17 -2 -31t-10 -37h-84v-82h223q26 0 49 9.5t39.5 26t26 39t9.5 48.5v37h-78q-1 -45 -18 -62.5t-59 -17.5h-11.5t-15.5 1q6 27 8 43.5t2 42.5q0 14 -0.5 25.5t-3 22.5t-6 24t-9.5 30h96v77h-114q-3 8 -5.5 13.5
t-4.5 7.5l-15 25q-11 18 -15.5 32t-4.5 31v43q0 29 15.5 47.5t41.5 18.5t42 -18.5t16 -47.5v-35h82v55z" />
    <glyph glyph-name="currency" unicode="&#xa4;" horiz-adv-x="624" 
d="M312 362q32 0 54.5 -23t22.5 -56q0 -34 -22 -56.5t-54 -22.5t-54.5 23.5t-22.5 56.5q0 16 6 30.5t16.5 25t24.5 16.5t29 6zM312 340q-22 0 -37.5 -16.5t-15.5 -39.5q0 -24 15.5 -41t38.5 -17t38 16.5t15 39.5q0 25 -15.5 41.5t-38.5 16.5zM386 120q-22 -8 -37.5 -11.5
t-35.5 -3.5t-36 3.5t-39 12.5l-83 -82l-88 88l81 81q-11 23 -14.5 39.5t-3.5 39.5q0 21 3.5 37t12.5 36l-79 80l88 88l80 -80q21 9 37.5 12.5t37.5 3.5t38 -3.5t39 -13.5l81 81l88 -88l-81 -81q9 -21 13 -38t4 -38q0 -20 -3.5 -37t-13.5 -38l81 -81l-88 -88zM524 127l-76 76
q12 26 16.5 43t4.5 37q0 21 -4.5 37.5t-16.5 42.5l76 77l-56 56l-75 -76q-28 13 -45 17.5t-38 4.5t-37.5 -4.5t-42.5 -16.5l-75 75l-56 -56l75 -75q-12 -25 -16.5 -41t-4.5 -37q0 -23 4.5 -40t18.5 -44l-77 -76l56 -56l78 77q26 -12 43 -16.5t37 -4.5t36.5 4t42.5 16l76 -76
z" />
    <glyph glyph-name="yen" unicode="&#xa5;" horiz-adv-x="400" 
d="M236 667h149l-47 -182h55v-121h-77l-18 -61h95v-121h-118v-182h-149v182h-118v121h95l-18 61h-77v121h53l-49 182h151l36 -243zM42 647l49 -180h-60v-83h72l30 -101h-102v-81h118v-182h103v182h118v81h-103l31 101h72v81h-63l48 182h-99l-57 -334l-55 334h-102z" />
    <glyph glyph-name="brokenbar" unicode="&#xa6;" horiz-adv-x="500" 
d="M334 667v-356h-167v356h167zM192 333h117v312h-117v-312zM334 153v-320h-167v320h167zM192 -145h117v276h-117v-276z" />
    <glyph glyph-name="section" unicode="&#xa7;" horiz-adv-x="447" 
d="M270 362q32 -20 42 -32t10 -29t-11.5 -28t-40.5 -21l-95 55q-29 17 -39 29t-10 31q0 37 52 53zM174 395q-23 -9 -23 -29q0 -11 6.5 -19t28.5 -20l87 -50q24 8 24 25q0 10 -6.5 17t-32.5 23zM249 557v17q0 23 -6 32.5t-20 9.5q-13 0 -18 -10.5t-5 -37.5q0 -14 3 -23.5
t13 -18.5t28.5 -20.5t50.5 -27.5q33 -17 55 -32.5t35.5 -32t19 -35t5.5 -41.5q0 -75 -45 -132q11 -16 17.5 -27t9.5 -22t4 -24t1 -33q0 -79 -32 -117q-21 -25 -57 -38t-81 -13q-49 0 -87 15t-58 44q-8 11 -13.5 21.5t-8.5 23t-4.5 28.5t-1.5 37v29h153v-16v-29
q0 -14 5.5 -22t15.5 -8q11 0 17.5 8t6.5 22v5q0 17 -1.5 27t-9 18.5t-23.5 18.5t-46 27q-26 14 -42 23t-27 16t-18 13t-14 14q-34 35 -34 94q0 37 10 66t36 66q-11 19 -17.5 32t-10.5 24.5t-5 22t-1 24.5q0 79 46.5 120t135.5 41q78 0 121 -37.5t43 -103.5v-12v-26h-146z
M370 583q0 37 -6.5 56t-23.5 37q-20 20 -45.5 29t-63.5 9q-157 0 -157 -139q0 -14 1 -23.5t5 -20t11.5 -24.5t20.5 -37q-15 -21 -24.5 -36.5t-15.5 -30t-8 -29.5t-2 -34q0 -49 26 -78q6 -7 12.5 -12.5t16.5 -12t26 -15.5t40 -22q32 -17 51 -29t28.5 -23t12 -24.5t2.5 -34.5
q0 -14 -1 -20t-5 -13q-6 -11 -17.5 -17.5t-25.5 -6.5q-21 0 -33.5 14t-12.5 39v22h-102v-7q0 -44 7 -67.5t26 -42.5q18 -18 47.5 -27.5t67.5 -9.5q75 0 109.5 34.5t34.5 110.5q0 20 -0.5 32t-4 22t-11 22t-21.5 32q26 32 38 62.5t12 68.5q0 20 -4.5 35.5t-16 29.5t-31 27.5
t-48.5 28.5q-36 19 -58 32t-33.5 24.5t-15 24t-3.5 29.5q0 37 11.5 53.5t37.5 16.5q23 0 36.5 -16t13.5 -43h96v4z" />
    <glyph glyph-name="dieresis" unicode="&#xa8;" horiz-adv-x="500" 
d="M222 845v-112h-121v112h121zM121 753h81v72h-81v-72zM400 845v-112h-121v112h121zM299 753h81v72h-81v-72z" />
    <glyph glyph-name="copyright" unicode="&#xa9;" horiz-adv-x="769" 
d="M399 377v62q0 17 -12 17q-13 0 -13 -17v-205q0 -26 12 -26q13 0 13 26v65h97v-65q0 -111 -108 -111q-111 0 -111 111v205q0 49 28.5 76.5t79.5 27.5q54 0 82.5 -26.5t28.5 -77.5v-62h-97zM475 439q0 84 -90 84q-42 0 -64.5 -21.5t-22.5 -62.5v-205q0 -47 21.5 -69
t68.5 -22q45 0 66 21.5t21 69.5v45h-55v-45q0 -46 -34 -46q-33 0 -33 46v205q0 17 9.5 27t24.5 10t24 -10t9 -27v-42h55v42zM387 605q54 0 102.5 -21.5t85 -58.5t57.5 -86.5t21 -105.5t-21 -105.5t-57.5 -86.5t-85.5 -58t-105 -21t-104.5 21t-85.5 58t-58 86.5t-21 105.5
q0 57 21 106.5t58 86.5t86.5 58t106.5 21zM387 585q-53 0 -98.5 -19.5t-79.5 -53.5t-53.5 -80t-19.5 -99q0 -52 19.5 -97.5t53 -79.5t79 -54t96.5 -20t96.5 20t79 54t53 79.5t19.5 97.5t-19.5 97.5t-53 80t-78 54.5t-94.5 20zM389 677q70 0 133 -27.5t109.5 -74t74 -109.5
t27.5 -133q0 -71 -27.5 -133.5t-74.5 -109t-110.5 -73.5t-135.5 -27t-135.5 27t-110.5 73.5t-74.5 109t-27.5 133.5q0 72 27.5 134.5t75 109t111.5 73.5t138 27zM389 657q-69 0 -129.5 -25t-105.5 -69t-70.5 -103t-25.5 -127q0 -67 26 -125.5t70 -102.5t103.5 -69.5
t127.5 -25.5q67 0 127 25.5t104 69.5t70 102.5t26 125.5q0 66 -25.5 125t-70 103.5t-103 70t-124.5 25.5z" />
    <glyph glyph-name="ordfeminine" unicode="&#xaa;" horiz-adv-x="248" 
d="M94 494q0 28 26 28q14 0 21.5 -9.5t7.5 -26.5t-7.5 -26.5t-21.5 -9.5q-11 0 -18.5 7.5t-7.5 18.5v18zM115 476q0 -6 5 -6q8 0 8 15q0 17 -8 17q-5 0 -5 -8v-18zM137 404l-4 11q-14 -10 -21 -12.5t-19 -2.5q-56 0 -56 69v30q0 64 65 64q7 0 13 -0.5t16 -2.5v24
q0 11 -1.5 14t-6.5 3t-6.5 -4t-1.5 -16h-78v19t1 12t2.5 8.5t3.5 8.5q10 17 32 27.5t50 10.5q23 0 42.5 -8t29.5 -22q6 -10 8 -19.5t2 -30.5v-183h-71zM187 587q0 18 -1 24.5t-5 13.5q-7 10 -22 16t-33 6q-31 0 -48.5 -12t-19.5 -34h37q5 11 11 15.5t16 4.5q30 0 30 -37v-48
q-14 4 -24 5.5t-24 1.5q-26 0 -36 -9.5t-10 -34.5v-30q0 -27 8 -38t28 -11q9 0 17 3t32 17l9 -16h35v163zM212 354v-75h-165v75h165zM68 299h123v35h-123v-35z" />
    <glyph glyph-name="guillemotleft" unicode="&#xab;" horiz-adv-x="301" 
d="M249 372l-31 -35l31 -36v-145l-97 112v140l97 108v-144zM172 401v-125l57 -66v83l-37 45l37 42v84zM129 372l-31 -35l31 -36v-145l-97 112v140l97 108v-144zM52 401v-125l57 -66v83l-37 45l37 42v84z" />
    <glyph glyph-name="logicalnot" unicode="&#xac;" horiz-adv-x="500" 
d="M305 148h-272v145h433v-293h-161v148zM441 22v249h-383v-101h272v-148h111z" />
    <glyph glyph-name="uni00AD" unicode="&#xad;" horiz-adv-x="212" 
d="M212 406v-125h-212v125h212zM23 303h166v81h-166v-81z" />
    <glyph glyph-name="registered" unicode="&#xae;" horiz-adv-x="769" 
d="M356 465h22.5t13.5 -0.5t8 -2t6 -3.5q14 -11 14 -32v-33q0 -32 -26 -37q-5 -1 -10.5 -1h-27.5v109zM377 376h3q11 0 15 3.5t4 14.5v33q0 11 -4 14.5t-15 3.5h-3v-69zM416 533q39 0 60 -16.5t21 -48.5v-75q0 -25 -6 -35.5t-28 -20.5l-2 -1l6 -4q18 -11 24 -21t6 -29v-101
q0 -17 2 -26t8 -22h-71q-12 0 -18.5 1t-10 5t-4.5 12.5t-1 22.5v95q0 20 -14 20h-11v-156h-99v400h138zM299 153h57v156h32q35 0 35 -40v-95v-20q1 -1 2.5 -1h10.5h42q-2 11 -2 17v11v101q0 14 -3.5 19.5t-16.5 13.5q-12 9 -24 15q-5 5 -5 4.5t-6 3.5q8 5 16 8.5t17 8.5
q14 6 18 12.5t4 25.5v75q0 45 -60 45h-117v-360zM387 605q54 0 102.5 -21.5t85 -58.5t57.5 -86.5t21 -105.5t-21 -105.5t-57.5 -86.5t-85.5 -58t-105 -21t-104.5 21t-85.5 58t-58 86.5t-21 105.5q0 57 21 106.5t58 86.5t86.5 58t106.5 21zM387 585q-53 0 -98.5 -19.5
t-79.5 -53.5t-53.5 -80t-19.5 -99q0 -52 19.5 -97.5t53 -79.5t79 -54t96.5 -20t96.5 20t79 54t53 79.5t19.5 97.5t-19.5 97.5t-53 80t-78 54.5t-94.5 20zM389 677q70 0 133 -27.5t109.5 -74t74 -109.5t27.5 -133q0 -71 -27.5 -133.5t-74.5 -109t-110.5 -73.5t-135.5 -27
t-135.5 27t-110.5 73.5t-74.5 109t-27.5 133.5q0 72 27.5 134.5t75 109t111.5 73.5t138 27zM389 657q-69 0 -129.5 -25t-105.5 -69t-70.5 -103t-25.5 -127q0 -67 26 -125.5t70 -102.5t103.5 -69.5t127.5 -25.5q67 0 127 25.5t104 69.5t70 102.5t26 125.5q0 66 -25.5 125
t-70 103.5t-103 70t-124.5 25.5z" />
    <glyph glyph-name="macron" unicode="&#xaf;" horiz-adv-x="500" 
d="M394 840v-102h-288v102h288zM126 758h248v62h-248v-62z" />
    <glyph glyph-name="degree" unicode="&#xb0;" horiz-adv-x="343" 
d="M171 604q29 0 49.5 -20.5t20.5 -49.5t-20 -49t-49 -20t-49.5 21t-20.5 50q0 28 20 48t49 20zM172 579q-17 0 -29 -13t-12 -31t12.5 -31.5t29.5 -13.5t28.5 12.5t11.5 31.5t-12 32t-29 13zM170 675q29 0 54.5 -11t44.5 -30t30 -44.5t11 -54.5t-10.5 -54t-29.5 -44
t-44 -29.5t-54 -10.5t-54 11t-44 30.5t-30 45.5t-11 55q0 28 11 52.5t29.5 43t43.5 29.5t53 11zM171 650q-23 0 -42.5 -9t-34.5 -24.5t-23.5 -36t-8.5 -43.5q0 -24 8.5 -45t23.5 -37t34.5 -25t42.5 -9t43 9t35 24.5t23.5 36t8.5 44.5t-8.5 45t-23.5 36.5t-35 24.5t-43 9z
" />
    <glyph glyph-name="plusminus" unicode="&#xb1;" horiz-adv-x="448" 
d="M413 125v-125h-378v125h378zM58 22h332v81h-332v-81zM162 406v127h124v-127h127v-125h-127v-126h-124v126h-127v125h127zM60 303h127v-126h74v126h127v81h-127v127h-74v-127h-127v-81z" />
    <glyph glyph-name="uni00B2" unicode="&#xb2;" horiz-adv-x="269" 
d="M32 514v69q0 40 28.5 66t73.5 26t74.5 -24t29.5 -61v-54q0 -59 -25 -85l-59 -67q-14 -18 -17 -32h101v-86h-206v59q0 44 38 88l50 60q9 12 14.5 19.5t8.5 14t4 13t1 16.5v32q0 15 -11 15q-7 0 -9 -3t-2 -12v-54h-94zM105 569q0 34 32 34q14 0 23 -9t9 -25v-32
q0 -12 -1 -20t-4.5 -16t-10 -17t-17.5 -22l-51 -60q-15 -18 -23.5 -38.5t-8.5 -37.5v-40h164v46h-101l-1 16q0 11 6.5 25t17.5 25l59 67q3 3 8.5 15t7.5 20t2.5 13.5t0.5 23.5v52q0 29 -23.5 47.5t-59.5 18.5q-35 0 -58 -21t-23 -53v-47h52v35z" />
    <glyph glyph-name="uni00B3" unicode="&#xb3;" horiz-adv-x="269" 
d="M96 508h25q23 0 23 22v42q0 17 -11 17q-5 0 -7 -3t-2 -14v-37h-92v44q0 96 105 96q44 0 71.5 -21.5t27.5 -56.5v-51q0 -24 -8 -37.5t-32 -30.5q40 -23 40 -61v-74q0 -38 -28.5 -61.5t-76.5 -23.5q-46 0 -72.5 23t-26.5 62v57h92v-39q0 -11 2 -14t8 -3q10 0 10 17v56
q0 26 -23 26h-25v65zM121 463q21 0 32.5 -12t11.5 -33v-59q0 -35 -31 -35q-32 0 -32 35v21h-49v-36q0 -31 20.5 -48.5t57.5 -17.5q38 0 61 18t23 48v74q0 15 -6 25t-20 19q-13 6 -20 15q2 3 5 6t6 7l10 9l8 6q17 11 17 43v48q0 26 -22 42.5t-57 16.5q-83 0 -83 -77v-23h49
v18q0 36 31 36q32 0 32 -36v-42q0 -41 -44 -41h-3v-27h3z" />
    <glyph glyph-name="acute" unicode="&#xb4;" horiz-adv-x="500" 
d="M301 733h-102l64 106h172zM276 819l-42 -66h60l85 67z" />
    <glyph glyph-name="mu" unicode="&#xb5;" horiz-adv-x="500" 
d="M27 480h139v-247q0 -36 3 -53t13 -32q24 -41 69 -41q41 0 62 33t21 96v244h139v-480h-139v49q-28 -58 -86 -58q-27 0 -46 10.5t-36 33.5v-206h-139v651zM141 -149v244q22 -27 36.5 -43t25.5 -25t21.5 -11.5t24.5 -2.5q15 0 27.5 4t24.5 15t26 30.5t32 50.5v-91h89v436
h-89v-222q0 -74 -27.5 -112.5t-80.5 -38.5q-32 0 -57.5 17t-39.5 46q-8 16 -10.5 33t-2.5 52v225h-89v-607h89z" />
    <glyph glyph-name="paragraph" unicode="&#xb6;" horiz-adv-x="512" 
d="M295 580v-620h-104v336h-24q-33 0 -56.5 10t-43.5 32q-17 19 -23.5 40t-6.5 57v148q0 57 36.5 90.5t99.5 33.5h302v-127h-33v-620h-104v620h-43zM363 -18h54v620h33v83h-277q-53 0 -82 -27t-29 -75v-148q0 -35 6.5 -53.5t23.5 -35.5q16 -15 33 -21.5t42 -6.5h49v-336h54
v620h93v-620z" />
    <glyph glyph-name="periodcentered" unicode="&#xb7;" horiz-adv-x="172" 
d="M172 413v-159h-172v159h172zM20 274h132v119h-132v-119z" />
    <glyph glyph-name="cedilla" unicode="&#xb8;" horiz-adv-x="500" 
d="M149 -146h76q17 0 23.5 3.5t6.5 12.5q0 10 -5 12.5t-25 2.5h-38v65h91q73 0 73 -82q0 -42 -19 -58.5t-66 -16.5h-117v61zM266 -185q37 0 48.5 10.5t11.5 44.5q0 31 -11 44.5t-37 13.5h-66v-21h13q30 0 42.5 -8.5t12.5 -28.5q0 -38 -55 -38h-50v-17h91z" />
    <glyph glyph-name="uni00B9" unicode="&#xb9;" horiz-adv-x="271" 
d="M206 266h-95v272h-47v74q48 5 72 55h70v-401zM149 647q-8 -12 -14.5 -19.5t-13 -13t-15.5 -10t-21 -8.5v-38h47v-272h53v361h-36z" />
    <glyph glyph-name="ordmasculine" unicode="&#xba;" horiz-adv-x="238" 
d="M92 577q0 32 28 32q11 0 19 -8.5t8 -20.5v-92q0 -31 -28 -31q-27 0 -27 31v89zM126 580q0 9 -7 9q-6 0 -6 -12v-89q0 -11 6 -11q7 0 7 11v92zM39 585q0 36 23 59t59 23q35 0 57 -22.5t22 -59.5v-101q0 -38 -22 -61t-59 -23q-36 0 -58 23t-22 61v101zM179 585
q0 29 -15.5 45.5t-42.5 16.5q-28 0 -44.5 -17t-16.5 -45v-101q0 -30 15.5 -47t44.5 -17q28 0 43.5 17t15.5 47v101zM202 354v-75h-165v75h165zM58 299h123v35h-123v-35z" />
    <glyph glyph-name="guillemotright" unicode="&#xbb;" horiz-adv-x="301" 
d="M149 408v-140l-97 -112v145l31 36l-31 35v144zM72 380l37 -42l-37 -45v-83l57 66v125l-57 63v-84zM269 408v-140l-97 -112v145l31 36l-31 35v144zM192 380l37 -42l-37 -45v-83l57 66v125l-57 63v-84z" />
    <glyph glyph-name="onequarter" unicode="&#xbc;" horiz-adv-x="676" 
d="M206 266h-95v272h-47v74q48 5 72 55h70v-401zM149 647q-8 -12 -14.5 -19.5t-13 -13t-15.5 -10t-21 -8.5v-38h47v-272h53v361h-36zM233 0h-82l286 667h85zM450 645l-267 -623h37l269 623h-39zM490 135l73 218v-218h-73zM545 246l-31 -95h31v95zM635 154h19v-77h-19v-77
h-93v77h-113v72l91 251h115v-246zM534 380l-84 -233v-50h113v-77h51v77h19v38h-19v245h-80z" />
    <glyph glyph-name="onehalf" unicode="&#xbd;" horiz-adv-x="676" 
d="M206 266h-95v272h-47v74q48 5 72 55h70v-401zM149 647q-8 -12 -14.5 -19.5t-13 -13t-15.5 -10t-21 -8.5v-38h47v-272h53v361h-36zM233 0h-82l286 667h85zM450 645l-267 -623h37l269 623h-39zM439 247v69q0 40 28.5 66t73.5 26q44 0 73.5 -24.5t29.5 -60.5v-54
q0 -59 -25 -85l-58 -67q-15 -18 -17 -32h100v-85h-205v58q0 44 38 88l50 60q9 11 14.5 18.5t8.5 14.5t4 13.5t1 16.5v32q0 15 -11 15q-7 0 -9 -3t-2 -12v-54h-94zM512 302q0 34 32 34q14 0 23 -9t9 -25v-32q0 -12 -1 -20t-5 -16t-10.5 -17t-16.5 -22l-51 -60
q-15 -18 -23.5 -38.5t-8.5 -37.5v-39h163v45h-100l-1 16q0 11 6.5 25t17.5 25l59 67q2 3 7.5 15t7.5 20t2.5 13.5t0.5 23.5v52q0 29 -23.5 47.5t-58.5 18.5t-58 -21t-23 -53v-47h52v35z" />
    <glyph glyph-name="threequarters" unicode="&#xbe;" horiz-adv-x="674" 
d="M96 508h25q23 0 23 22v42q0 17 -11 17q-5 0 -7 -3t-2 -14v-37h-92v44q0 96 105 96q44 0 72 -21.5t28 -56.5v-51q0 -24 -8 -38t-32 -30q40 -23 40 -61v-74q0 -38 -29 -61.5t-77 -23.5q-46 0 -72.5 23t-26.5 62v57h92v-39q0 -11 2 -14t8 -3q10 0 10 17v56q0 26 -23 26h-25
v65zM121 463q21 0 32.5 -12t11.5 -33v-59q0 -35 -31 -35q-32 0 -32 35v21h-49v-36q0 -31 20.5 -48.5t57.5 -17.5q39 0 62 18t23 48v74q0 15 -6.5 25t-20.5 19q-5 4 -10 7.5t-10 7.5q2 3 5 6t6 7l19 15q17 11 17 43v48q0 26 -22 42.5t-58 16.5q-83 0 -83 -77v-23h49v18
q0 36 31 36q32 0 32 -36v-42q0 -41 -44 -41h-3v-27h3zM231 0h-82l286 667h85zM448 645l-267 -623h37l270 623h-40zM488 135l73 218v-218h-73zM543 246l-31 -95h31v95zM633 154h19v-77h-19v-77h-93v77h-113v72l91 251h115v-246zM532 380l-84 -233v-50h113v-77h51v77h19v38
h-19v245h-80z" />
    <glyph glyph-name="questiondown" unicode="&#xbf;" horiz-adv-x="427" 
d="M285 477v-113q0 -11 -1 -19t-4.5 -15.5t-10 -16t-17.5 -20.5l-41 -50q-7 -8 -11 -13.5t-6 -10.5t-2.5 -11.5t-0.5 -15.5v-56q0 -26 20 -26q23 0 23 31v87h148v-107q0 -70 -55 -105q-50 -33 -122 -33q-38 0 -63.5 9t-49.5 31q-47 42 -47 98v66q0 13 1 22.5t4.5 17.5
t9.5 17t16 21l41 50q2 2 9 13.5t11 18.5t4.5 11t0.5 23v96h143zM164 381q0 -20 -1.5 -27t-6.5 -17q-5 -8 -12 -20t-11 -16l-40 -49q-9 -11 -14 -18t-7.5 -14t-3.5 -14.5t-1 -18.5v-66q0 -46 39 -82q21 -20 43 -28t56 -8q64 0 111 30q44 29 44 88v87h-104v-67
q0 -23 -12.5 -37t-33.5 -14q-19 0 -30 12.5t-11 33.5v56q0 22 4.5 33.5t21.5 31.5l41 49q9 11 14.5 18t8.5 13t3.5 12t0.5 15v93h-99v-76zM137 528v139h152v-139h-152zM269 647h-112v-99h112v99z" />
    <glyph glyph-name="Agrave" unicode="&#xc0;" 
d="M148 234l50 327l58 -327h-108zM200 452l-23 -196h49zM167 120l-16 -120h-149l103 667h189l108 -667h-151l-16 120h-68zM274 22h99l-101 623h-145l-96 -623h98l16 120h113zM200 839l64 -106h-102l-134 106h172zM169 753h60l-42 66l-103 1z" />
    <glyph glyph-name="Aacute" unicode="&#xc1;" 
d="M148 234l50 327l58 -327h-108zM200 452l-23 -196h49zM167 120l-16 -120h-149l103 667h189l108 -667h-151l-16 120h-68zM274 22h99l-101 623h-145l-96 -623h98l16 120h113zM253 733h-102l64 106h172zM228 819l-42 -66h60l85 67z" />
    <glyph glyph-name="Acircumflex" unicode="&#xc2;" 
d="M148 234l50 327l58 -327h-108zM200 452l-23 -196h49zM167 120l-16 -120h-149l103 667h189l108 -667h-151l-16 120h-68zM274 22h99l-101 623h-145l-96 -623h98l16 120h113zM287 841l74 -108h-104l-56 34l-54 -34h-104l76 108h168zM81 753h59l61 39l62 -39h61l-50 68h-142z
" />
    <glyph glyph-name="Atilde" unicode="&#xc3;" 
d="M148 234l50 327l58 -327h-108zM200 452l-23 -196h49zM167 120l-16 -120h-149l103 667h189l108 -667h-151l-16 120h-68zM274 22h99l-101 623h-145l-96 -623h98l16 120h113zM30 733q8 61 38 96t76 35q10 0 17.5 -1.5t17.5 -6t24 -13t37 -23.5q18 -10 30 -10q21 0 26 39h78
q-4 -58 -34.5 -94.5t-76.5 -36.5q-17 0 -31 5.5t-36 19.5q-26 17 -37 22.5t-20 5.5q-28 0 -28 -38h-81zM91 753q5 17 17.5 27.5t29.5 10.5q14 0 28.5 -6.5t40.5 -23.5q19 -13 31 -18t25 -5q16 0 31.5 7.5t27.5 20t19.5 29t8.5 34.5h-36q-9 -21 -18.5 -30t-23.5 -9
q-8 0 -14 1t-13.5 4t-18 9.5t-27.5 17.5q-32 22 -55 22q-31 0 -55.5 -25t-33.5 -66h36z" />
    <glyph glyph-name="Adieresis" unicode="&#xc4;" 
d="M148 234l50 327l58 -327h-108zM200 452l-23 -196h49zM167 120l-16 -120h-149l103 667h189l108 -667h-151l-16 120h-68zM274 22h99l-101 623h-145l-96 -623h98l16 120h113zM174 845v-112h-121v112h121zM73 753h81v72h-81v-72zM351 845v-112h-121v112h121zM250 753h81v72
h-81v-72z" />
    <glyph glyph-name="Aring" unicode="&#xc5;" 
d="M148 234l50 327l58 -327h-108zM200 452l-23 -196h49zM167 120l-16 -120h-149l103 667h189l108 -667h-151l-16 120h-68zM274 22h99l-101 623h-145l-96 -623h98l16 120h113zM202 828q12 0 20 -8t8 -20t-8 -20t-20 -8q-11 0 -19.5 8.5t-8.5 20.5q0 11 8.5 19t19.5 8z
M202 812q-5 0 -8.5 -3.5t-3.5 -8.5q0 -13 12 -13t12 13q0 5 -3.5 8.5t-8.5 3.5zM201 883q35 0 59.5 -24.5t24.5 -59.5t-24 -59t-59 -24q-34 0 -58.5 25t-24.5 60q0 34 24 58t58 24zM202 860q-25 0 -42.5 -17.5t-17.5 -42.5q0 -26 17.5 -44t42.5 -18t42.5 17.5t17.5 43.5
t-17.5 43.5t-42.5 17.5z" />
    <glyph glyph-name="AE" unicode="&#xc6;" horiz-adv-x="600" 
d="M198 230l125 356v-356h-125zM300 453l-69 -201h67zM568 526h-118v-117h107v-140h-107v-130h118v-139h-270v120h-110l-39 -120h-150l234 667h335v-141zM252 645l-218 -623h96l39 120h154v-120h220v95h-118v174h107v96h-107v161h118v97h-291z" />
    <glyph glyph-name="Ccedilla" unicode="&#xc7;" horiz-adv-x="422" 
d="M240 414v98q0 17 -6.5 26.5t-18.5 9.5q-13 0 -20.5 -9.5t-7.5 -26.5v-346q0 -50 26 -50q27 0 27 50v104h151v-104q0 -51 -11 -83t-37 -57q-24 -23 -54 -33t-73 -10q-181 0 -181 183v346q0 81 46.5 126.5t129.5 45.5q88 0 134 -43.5t46 -128.5v-98h-151zM366 512
q0 150 -154 150q-72 0 -112 -39t-40 -111v-346q0 -82 38 -121.5t118 -39.5q38 0 64.5 9t46.5 29q21 22 30 49.5t9 73.5v82h-101v-82q0 -72 -52 -72q-51 0 -51 72v346q0 26 14.5 42t38.5 16q23 0 36.5 -15.5t13.5 -42.5v-76h101v76zM110 -146h76q17 0 23.5 3.5t6.5 12.5
q0 10 -5 12.5t-25 2.5h-38v65h91q73 0 73 -82q0 -42 -19 -58.5t-66 -16.5h-117v61zM227 -185q37 0 48.5 10.5t11.5 44.5q0 31 -11 44.5t-37 13.5h-66v-21h13q30 0 42.5 -8.5t12.5 -28.5q0 -38 -55 -38h-50v-17h91z" />
    <glyph glyph-name="Egrave" unicode="&#xc8;" horiz-adv-x="348" 
d="M317 526h-119v-118h109v-139h-109v-130h119v-139h-271v667h271v-141zM71 645v-623h221v95h-119v174h109v95h-109v162h119v97h-221zM206 839l64 -106h-102l-134 106h172zM175 753h60l-42 66l-103 1z" />
    <glyph glyph-name="Eacute" unicode="&#xc9;" horiz-adv-x="348" 
d="M316 526h-119v-118h109v-139h-109v-130h119v-139h-271v667h271v-141zM70 645v-623h221v95h-119v174h109v95h-109v162h119v97h-221zM224 733h-102l64 106h173zM199 819l-41 -66h60l85 67z" />
    <glyph glyph-name="Ecircumflex" unicode="&#xca;" horiz-adv-x="348" 
d="M316 526h-119v-118h109v-139h-109v-130h119v-139h-271v667h271v-141zM70 645v-623h221v95h-119v174h109v95h-109v162h119v97h-221zM259 841l73 -108h-104l-56 34l-54 -34h-103l76 108h168zM53 753h59l60 39l62 -39h61l-49 68h-142z" />
    <glyph glyph-name="Edieresis" unicode="&#xcb;" horiz-adv-x="348" 
d="M317 526h-119v-118h109v-139h-109v-130h119v-139h-272v667h272v-141zM70 645v-623h222v95h-119v174h109v95h-109v162h119v97h-222zM146 845v-112h-121v112h121zM45 753h81v72h-81v-72zM324 845v-112h-121v112h121zM223 753h81v72h-81v-72z" />
    <glyph glyph-name="Igrave" unicode="&#xcc;" horiz-adv-x="245" 
d="M199 0h-154v667h154v-667zM70 645v-623h104v623h-104zM120 839l64 -106h-102l-134 106h172zM89 753h60l-42 66l-103 1z" />
    <glyph glyph-name="Iacute" unicode="&#xcd;" horiz-adv-x="245" 
d="M199 0h-154v667h154v-667zM70 645v-623h104v623h-104zM173 733h-102l64 106h172zM148 819l-42 -66h60l85 67z" />
    <glyph glyph-name="Icircumflex" unicode="&#xce;" horiz-adv-x="245" 
d="M200 0h-154v667h154v-667zM71 645v-623h104v623h-104zM208 841l73 -108h-104l-56 34l-54 -34h-103l76 108h168zM2 753h59l60 39l62 -39h61l-49 68h-142z" />
    <glyph glyph-name="Idieresis" unicode="&#xcf;" horiz-adv-x="245" 
d="M199 0h-154v667h154v-667zM70 645v-623h104v623h-104zM104 845v-112h-121v112h121zM3 753h81v72h-81v-72zM262 845v-112h-121v112h121zM161 753h81v72h-81v-72z" />
    <glyph glyph-name="Eth" unicode="&#xd0;" horiz-adv-x="438" 
d="M178 284h24v95h-24v165h38q59 0 59 -67v-298q0 -38 -13 -52t-46 -14h-38v171zM216 135q22 0 28 8t6 36v298q0 25 -7.5 35t-26.5 10h-13v-121h24v-139h-24v-127h13zM45 263h-45v139h45v265h204q80 0 116.5 -35t36.5 -110v-376q0 -69 -33 -108q-19 -22 -43.5 -30t-71.5 -8
h-209v263zM254 22q42 0 62 6.5t35 25.5q26 32 26 92v376q0 66 -29.5 94.5t-98.5 28.5h-179v-265h-45v-95h45v-263h184z" />
    <glyph glyph-name="Ntilde" unicode="&#xd1;" horiz-adv-x="448" 
d="M192 667l69 -239l-3 239h145v-667h-145l-71 235l3 -235h-145v667h147zM70 22h95v364l112 -364h101v623h-95v-373l-111 373h-102v-623zM52 733q8 61 38 96t76 35q10 0 17.5 -1.5t17.5 -6t24 -13t37 -23.5q18 -10 30 -10q21 0 26 39h78q-4 -58 -35 -94.5t-76 -36.5
q-17 0 -31 5.5t-36 19.5q-26 17 -37 22.5t-21 5.5q-27 0 -27 -38h-81zM113 753q4 17 17 27.5t30 10.5q14 0 28.5 -6.5t40.5 -23.5q19 -13 31 -18t25 -5q16 0 31.5 7.5t27.5 20t19.5 29t8.5 34.5h-36q-9 -21 -18.5 -30t-23.5 -9q-8 0 -14 1t-13.5 4t-18 9.5t-27.5 17.5
q-32 22 -55 22q-32 0 -56.5 -25t-32.5 -66h36z" />
    <glyph glyph-name="Ograve" unicode="&#xd2;" horiz-adv-x="425" 
d="M165 515q0 25 12.5 39t35.5 14q22 0 35.5 -13.5t13.5 -33.5v-374q0 -50 -50 -50q-47 0 -47 50v368zM237 521q0 11 -6.5 18t-17.5 7q-23 0 -23 -31v-368q0 -28 22 -28q25 0 25 28v374zM35 530q0 71 48.5 112.5t131.5 41.5q82 0 128.5 -41t46.5 -113v-392q0 -31 -12 -60.5
t-32 -50.5q-23 -23 -54.5 -33.5t-78.5 -10.5t-75 9t-54 33q-26 23 -37.5 49.5t-11.5 63.5v392zM365 530q0 63 -39.5 97.5t-109.5 34.5q-38 0 -65.5 -8.5t-48.5 -26.5q-20 -18 -31 -43t-11 -54v-392q0 -32 9 -54t30 -42q23 -20 47 -28.5t63 -8.5q45 0 72.5 9t47.5 30
q17 18 26.5 43t9.5 51v392zM227 839l64 -106h-102l-134 106h172zM196 753h60l-42 66l-103 1z" />
    <glyph glyph-name="Oacute" unicode="&#xd3;" horiz-adv-x="425" 
d="M165 515q0 25 12.5 39t35.5 14q22 0 35.5 -13.5t13.5 -33.5v-374q0 -50 -50 -50q-47 0 -47 50v368zM237 521q0 11 -6.5 18t-17.5 7q-23 0 -23 -31v-368q0 -28 22 -28q25 0 25 28v374zM35 530q0 71 48.5 112.5t131.5 41.5q82 0 128.5 -41t46.5 -113v-392q0 -31 -12 -60.5
t-32 -50.5q-23 -23 -54.5 -33.5t-78.5 -10.5t-75 9t-54 33q-26 23 -37.5 49.5t-11.5 63.5v392zM365 530q0 63 -39.5 97.5t-109.5 34.5q-38 0 -65.5 -8.5t-48.5 -26.5q-20 -18 -31 -43t-11 -54v-392q0 -32 9 -54t30 -42q23 -20 47 -28.5t63 -8.5q45 0 72.5 9t47.5 30
q17 18 26.5 43t9.5 51v392zM263 733h-102l64 106h172zM238 819l-42 -66h60l85 67z" />
    <glyph glyph-name="Ocircumflex" unicode="&#xd4;" horiz-adv-x="425" 
d="M165 515q0 25 12.5 39t35.5 14q22 0 35.5 -13.5t13.5 -33.5v-374q0 -50 -50 -50q-47 0 -47 50v368zM237 521q0 11 -6.5 18t-17.5 7q-23 0 -23 -31v-368q0 -28 22 -28q25 0 25 28v374zM35 530q0 71 48.5 112.5t131.5 41.5q82 0 128.5 -41t46.5 -113v-392q0 -31 -12 -60.5
t-32 -50.5q-23 -23 -54.5 -33.5t-78.5 -10.5t-75 9t-54 33q-26 23 -37.5 49.5t-11.5 63.5v392zM365 530q0 63 -39.5 97.5t-109.5 34.5q-38 0 -65.5 -8.5t-48.5 -26.5q-20 -18 -31 -43t-11 -54v-392q0 -32 9 -54t30 -42q23 -20 47 -28.5t63 -8.5q45 0 72.5 9t47.5 30
q17 18 26.5 43t9.5 51v392zM298 841l73 -108h-104l-56 34l-54 -34h-103l75 108h169zM92 753h59l60 39l62 -39h61l-50 68h-142z" />
    <glyph glyph-name="Otilde" unicode="&#xd5;" horiz-adv-x="425" 
d="M165 515q0 25 12.5 39t35.5 14q22 0 35.5 -13.5t13.5 -33.5v-374q0 -50 -50 -50q-47 0 -47 50v368zM237 521q0 11 -6.5 18t-17.5 7q-23 0 -23 -31v-368q0 -28 22 -28q25 0 25 28v374zM35 530q0 71 48.5 112.5t131.5 41.5q82 0 128.5 -41t46.5 -113v-392q0 -31 -12 -60.5
t-32 -50.5q-23 -23 -54.5 -33.5t-78.5 -10.5t-75 9t-54 33q-26 23 -37.5 49.5t-11.5 63.5v392zM365 530q0 63 -39.5 97.5t-109.5 34.5q-38 0 -65.5 -8.5t-48.5 -26.5q-20 -18 -31 -43t-11 -54v-392q0 -32 9 -54t30 -42q23 -20 47 -28.5t63 -8.5q45 0 72.5 9t47.5 30
q17 18 26.5 43t9.5 51v392zM41 733q7 61 37.5 96t76.5 35q10 0 17.5 -1.5t17.5 -6t24 -13t37 -23.5q17 -10 29 -10q22 0 27 39h77q-3 -58 -34 -94.5t-77 -36.5q-16 0 -30.5 5.5t-36.5 19.5q-26 17 -37 22.5t-20 5.5q-27 0 -27 -38h-81zM101 753q5 17 18 27.5t29 10.5
q14 0 28.5 -6.5t40.5 -23.5q20 -13 32 -18t24 -5q16 0 31.5 7.5t27.5 20t19.5 29t8.5 34.5h-36q-8 -21 -17.5 -30t-23.5 -9q-8 0 -14.5 1t-14 4t-18 9.5t-26.5 17.5q-34 22 -56 22q-31 0 -55.5 -25t-32.5 -66h35z" />
    <glyph glyph-name="Odieresis" unicode="&#xd6;" horiz-adv-x="425" 
d="M165 515q0 25 12.5 39t35.5 14q22 0 35.5 -13.5t13.5 -33.5v-374q0 -50 -50 -50q-47 0 -47 50v368zM237 521q0 11 -6.5 18t-17.5 7q-23 0 -23 -31v-368q0 -28 22 -28q25 0 25 28v374zM35 530q0 71 48.5 112.5t131.5 41.5q82 0 128.5 -41t46.5 -113v-392q0 -31 -12 -60.5
t-32 -50.5q-23 -23 -54.5 -33.5t-78.5 -10.5t-75 9t-54 33q-26 23 -37.5 49.5t-11.5 63.5v392zM365 530q0 63 -39.5 97.5t-109.5 34.5q-38 0 -65.5 -8.5t-48.5 -26.5q-20 -18 -31 -43t-11 -54v-392q0 -32 9 -54t30 -42q23 -20 47 -28.5t63 -8.5q45 0 72.5 9t47.5 30
q17 18 26.5 43t9.5 51v392zM184 845v-112h-121v112h121zM83 753h81v72h-81v-72zM362 845v-112h-121v112h121zM261 753h81v72h-81v-72z" />
    <glyph glyph-name="multiply" unicode="&#xd7;" horiz-adv-x="425" 
d="M125 344l-90 89l88 88l90 -89l89 89l88 -88l-89 -89l89 -90l-88 -88l-89 89l-90 -89l-88 88zM126 199l89 90l90 -90l52 53l-90 89l90 90l-57 57l-90 -90l-89 90l-53 -52l90 -90l-90 -90z" />
    <glyph glyph-name="Oslash" unicode="&#xd8;" horiz-adv-x="424" 
d="M166 279v236q0 25 12.5 38.5t35.5 13.5q48 0 48 -52v-51zM237 515q0 30 -23 30t-23 -30v-138l46 88v50zM262 366v-216q0 -52 -49 -52q-47 0 -47 52v35zM191 150q0 -30 22 -30q13 0 18.5 6.5t5.5 23.5v120l-46 -86v-34zM440 661l-51 -102v-13v-28v-18v-361q0 -68 -44 -112
q-24 -23 -55 -33.5t-78 -10.5q-18 0 -32 1t-26 4t-24 8.5t-26 14.5l-25 -48l-84 42l46 88q-2 12 -4 29t-2 28v378q0 34 13 63t36.5 49.5t56.5 32t73 11.5q38 0 65 -7.5t51 -24.5l28 51zM340 617q-17 13 -31.5 21.5t-29 14t-30 7.5t-34.5 2q-70 0 -112.5 -36.5t-42.5 -97.5
v-378q0 -11 2 -28.5t5 -32.5l-40 -75l40 -20l27 50q20 -13 34 -20.5t26.5 -11.5t25.5 -5.5t31 -1.5q43 0 70 9t47 30q36 36 36 95v361v18v28v17l44 89l-39 20z" />
    <glyph glyph-name="Ugrave" unicode="&#xd9;" horiz-adv-x="431" 
d="M189 667v-503q0 -25 6 -34t21 -9q16 0 22 9.5t6 33.5v503h152v-519q0 -44 -12 -72.5t-39 -51.5q-50 -41 -132 -41q-84 0 -131 39.5t-47 109.5v535h154zM60 132q0 -60 40 -93.5t113 -33.5q74 0 117 37q22 20 31.5 44t9.5 62v497h-102v-481q0 -65 -52 -65q-28 0 -40.5 15
t-12.5 50v481h-104v-513zM226 839l64 -106h-102l-134 106h172zM195 753h60l-42 66l-103 1z" />
    <glyph glyph-name="Uacute" unicode="&#xda;" horiz-adv-x="431" 
d="M189 667v-503q0 -25 6 -34t21 -9q16 0 22 9.5t6 33.5v503h152v-519q0 -44 -12 -72.5t-39 -51.5q-50 -41 -132 -41q-84 0 -131 39.5t-47 109.5v535h154zM60 132q0 -60 40 -93.5t113 -33.5q74 0 117 37q22 20 31.5 44t9.5 62v497h-102v-481q0 -65 -52 -65q-28 0 -40.5 15
t-12.5 50v481h-104v-513zM266 733h-102l64 106h172zM241 819l-42 -66h60l85 67z" />
    <glyph glyph-name="Ucircumflex" unicode="&#xdb;" horiz-adv-x="431" 
d="M189 667v-503q0 -25 6 -34t21 -9q16 0 22 9.5t6 33.5v503h152v-519q0 -44 -12 -72.5t-39 -51.5q-50 -41 -132 -41q-84 0 -131 39.5t-47 109.5v535h154zM60 132q0 -60 40 -93.5t113 -33.5q74 0 117 37q22 20 31.5 44t9.5 62v497h-102v-481q0 -65 -52 -65q-28 0 -40.5 15
t-12.5 50v481h-104v-513zM301 841l73 -108h-104l-56 34l-54 -34h-103l75 108h169zM95 753h59l60 39l62 -39h61l-50 68h-142z" />
    <glyph glyph-name="Udieresis" unicode="&#xdc;" horiz-adv-x="431" 
d="M189 667v-503q0 -25 6 -34t21 -9q16 0 22 9.5t6 33.5v503h152v-519q0 -44 -12 -72.5t-39 -51.5q-50 -41 -132 -41q-84 0 -131 39.5t-47 109.5v535h154zM60 132q0 -60 40 -93.5t113 -33.5q74 0 117 37q22 20 31.5 44t9.5 62v497h-102v-481q0 -65 -52 -65q-28 0 -40.5 15
t-12.5 50v481h-104v-513zM187 845v-112h-121v112h121zM86 753h81v72h-81v-72zM365 845v-112h-121v112h121zM264 753h81v72h-81v-72z" />
    <glyph glyph-name="Yacute" unicode="&#xdd;" horiz-adv-x="416" 
d="M209 417l51 250h154l-129 -438v-229h-150v229l-133 438h157zM35 645l125 -413v-210h100v210l121 413h-100l-73 -336l-70 336h-103zM258 733h-101l64 106h172zM234 819l-42 -66h60l85 67z" />
    <glyph glyph-name="Thorn" unicode="&#xde;" horiz-adv-x="409" 
d="M170 479q8 1 16 1h14q64 0 64 -56v-65q0 -29 -15.5 -40.5t-51.5 -11.5h-27v172zM204 329q21 1 28 7t7 23v65q0 20 -9 27t-35 7v-129h9zM195 667v-67h51q63 0 100 -33.5t37 -90.5v-147q0 -41 -8.5 -64t-30.5 -43q-20 -18 -41 -25.5t-50 -7.5h-58v-189h-150v667h150zM70 22
h100v189h83q52 0 82 36q14 16 18.5 33t4.5 49v147q0 48 -29 75t-83 27h-76v67h-100v-623z" />
    <glyph glyph-name="germandbls" unicode="&#xdf;" horiz-adv-x="798" 
d="M226 451v73q0 25 -24 25q-28 0 -28 -32v-39q0 -20 7.5 -32.5t24.5 -23.5l10 -6t10 -5l66 -42q16 -10 25 -16t14.5 -10t9 -8.5t8.5 -11.5q26 -32 26 -76v-92q0 -83 -46 -127.5t-132 -44.5q-81 0 -127 40t-46 112v84h150v-64q0 -20 6.5 -28.5t22.5 -8.5q13 0 18 8t5 29v49
q0 14 -3 22t-12 16q-7 7 -18 14.5t-19 12.5l-67 37q-45 25 -64 53t-19 67v98q0 75 47 117.5t130 42.5q80 0 127 -43t47 -117v-73h-149zM350 524q0 64 -40 101t-109 37q-72 0 -112 -36t-40 -102v-98q0 -33 16 -56t53 -44l67 -37q37 -21 51.5 -39.5t14.5 -45.5v-49
q0 -59 -49 -59q-53 0 -53 59v42h-100v-62q0 -62 38.5 -96t108.5 -34q76 0 115 38t39 112v92q0 34 -20 62q-4 6 -7 9.5t-8 7.5t-13 9.5t-22 14.5l-66 41l-10 6l-10 6q-24 14 -34.5 31.5t-10.5 43.5v39q0 24 14.5 39t37.5 15t36.5 -13t13.5 -34v-51h99v51zM626 451v73
q0 25 -24 25q-28 0 -28 -32v-39q0 -20 7.5 -32.5t24.5 -23.5l10 -6t10 -5l66 -42q16 -10 25 -16t14.5 -10t9 -8.5t8.5 -11.5q26 -32 26 -76v-92q0 -83 -46 -127.5t-132 -44.5q-82 0 -128 40t-46 112v84h151v-64q0 -20 6.5 -28.5t22.5 -8.5q13 0 18 8t5 29v49q0 14 -3 22
t-12 16q-7 7 -18 14.5t-19 12.5l-67 37q-46 26 -65 53t-19 67v98q0 75 47 117.5t131 42.5q80 0 127 -43t47 -117v-73h-149zM750 524q0 64 -40 101t-109 37q-72 0 -112.5 -36t-40.5 -102v-98q0 -33 16 -56t54 -44l67 -37q37 -21 51.5 -40t14.5 -45v-49q0 -59 -49 -59
q-53 0 -53 59v42h-101v-62q0 -62 39 -96t109 -34q76 0 115 38t39 112v92q0 34 -20 62q-4 6 -7 9.5t-8 7.5t-13 9.5t-22 14.5l-66 41l-10 6l-10 6q-24 14 -34.5 31.5t-10.5 43.5v39q0 24 14.5 39t37.5 15t36.5 -13t13.5 -34v-51h99v51z" />
    <glyph glyph-name="agrave" unicode="&#xe0;" 
d="M148 234l50 327l58 -327h-108zM200 452l-23 -196h49zM167 120l-16 -120h-149l103 667h189l108 -667h-151l-16 120h-68zM274 22h99l-101 623h-145l-96 -623h98l16 120h113zM200 839l64 -106h-102l-134 106h172zM169 753h60l-42 66l-103 1z" />
    <glyph glyph-name="aacute" unicode="&#xe1;" 
d="M148 234l50 327l58 -327h-108zM200 452l-23 -196h49zM167 120l-16 -120h-149l103 667h189l108 -667h-151l-16 120h-68zM274 22h99l-101 623h-145l-96 -623h98l16 120h113zM253 733h-102l64 106h172zM228 819l-42 -66h60l85 67z" />
    <glyph glyph-name="acircumflex" unicode="&#xe2;" 
d="M148 234l50 327l58 -327h-108zM200 452l-23 -196h49zM167 120l-16 -120h-149l103 667h189l108 -667h-151l-16 120h-68zM274 22h99l-101 623h-145l-96 -623h98l16 120h113zM287 841l74 -108h-104l-56 34l-54 -34h-104l76 108h168zM81 753h59l61 39l62 -39h61l-50 68h-142z
" />
    <glyph glyph-name="atilde" unicode="&#xe3;" 
d="M148 234l50 327l58 -327h-108zM200 452l-23 -196h49zM167 120l-16 -120h-149l103 667h189l108 -667h-151l-16 120h-68zM274 22h99l-101 623h-145l-96 -623h98l16 120h113zM30 733q8 61 38 96t76 35q10 0 17.5 -1.5t17.5 -6t24 -13t37 -23.5q18 -10 30 -10q21 0 26 39h78
q-4 -58 -34.5 -94.5t-76.5 -36.5q-17 0 -31 5.5t-36 19.5q-26 17 -37 22.5t-20 5.5q-28 0 -28 -38h-81zM91 753q5 17 17.5 27.5t29.5 10.5q14 0 28.5 -6.5t40.5 -23.5q19 -13 31 -18t25 -5q16 0 31.5 7.5t27.5 20t19.5 29t8.5 34.5h-36q-9 -21 -18.5 -30t-23.5 -9
q-8 0 -14 1t-13.5 4t-18 9.5t-27.5 17.5q-32 22 -55 22q-31 0 -55.5 -25t-33.5 -66h36z" />
    <glyph glyph-name="adieresis" unicode="&#xe4;" 
d="M148 234l50 327l58 -327h-108zM200 452l-23 -196h49zM167 120l-16 -120h-149l103 667h189l108 -667h-151l-16 120h-68zM274 22h99l-101 623h-145l-96 -623h98l16 120h113zM174 845v-112h-121v112h121zM73 753h81v72h-81v-72zM351 845v-112h-121v112h121zM250 753h81v72
h-81v-72z" />
    <glyph glyph-name="aring" unicode="&#xe5;" 
d="M148 234l50 327l58 -327h-108zM200 452l-23 -196h49zM167 120l-16 -120h-149l103 667h189l108 -667h-151l-16 120h-68zM274 22h99l-101 623h-145l-96 -623h98l16 120h113zM202 828q12 0 20 -8t8 -20t-8 -20t-20 -8q-11 0 -19.5 8.5t-8.5 20.5q0 11 8.5 19t19.5 8z
M202 812q-5 0 -8.5 -3.5t-3.5 -8.5q0 -13 12 -13t12 13q0 5 -3.5 8.5t-8.5 3.5zM201 883q35 0 59.5 -24.5t24.5 -59.5t-24 -59t-59 -24q-34 0 -58.5 25t-24.5 60q0 34 24 58t58 24zM202 860q-25 0 -42.5 -17.5t-17.5 -42.5q0 -26 17.5 -44t42.5 -18t42.5 17.5t17.5 43.5
t-17.5 43.5t-42.5 17.5z" />
    <glyph glyph-name="ae" unicode="&#xe6;" horiz-adv-x="600" 
d="M198 230l125 356v-356h-125zM300 453l-69 -201h67zM568 526h-118v-117h107v-140h-107v-130h118v-139h-270v120h-110l-39 -120h-150l234 667h335v-141zM252 645l-218 -623h96l39 120h154v-120h220v95h-118v174h107v96h-107v161h118v97h-291z" />
    <glyph glyph-name="ccedilla" unicode="&#xe7;" horiz-adv-x="422" 
d="M240 414v98q0 17 -6.5 26.5t-18.5 9.5q-13 0 -20.5 -9.5t-7.5 -26.5v-346q0 -50 26 -50q27 0 27 50v104h151v-104q0 -51 -11 -83t-37 -57q-24 -23 -54 -33t-73 -10q-181 0 -181 183v346q0 81 46.5 126.5t129.5 45.5q88 0 134 -43.5t46 -128.5v-98h-151zM366 512
q0 150 -154 150q-72 0 -112 -39t-40 -111v-346q0 -82 38 -121.5t118 -39.5q38 0 64.5 9t46.5 29q21 22 30 49.5t9 73.5v82h-101v-82q0 -72 -52 -72q-51 0 -51 72v346q0 26 14.5 42t38.5 16q23 0 36.5 -15.5t13.5 -42.5v-76h101v76zM110 -146h76q17 0 23.5 3.5t6.5 12.5
q0 10 -5 12.5t-25 2.5h-38v65h91q73 0 73 -82q0 -42 -19 -58.5t-66 -16.5h-117v61zM227 -185q37 0 48.5 10.5t11.5 44.5q0 31 -11 44.5t-37 13.5h-66v-21h13q30 0 42.5 -8.5t12.5 -28.5q0 -38 -55 -38h-50v-17h91z" />
    <glyph glyph-name="egrave" unicode="&#xe8;" horiz-adv-x="348" 
d="M317 526h-119v-118h109v-139h-109v-130h119v-139h-271v667h271v-141zM71 645v-623h221v95h-119v174h109v95h-109v162h119v97h-221zM206 839l64 -106h-102l-134 106h172zM175 753h60l-42 66l-103 1z" />
    <glyph glyph-name="eacute" unicode="&#xe9;" horiz-adv-x="348" 
d="M316 526h-119v-118h109v-139h-109v-130h119v-139h-271v667h271v-141zM70 645v-623h221v95h-119v174h109v95h-109v162h119v97h-221zM224 733h-102l64 106h173zM199 819l-41 -66h60l85 67z" />
    <glyph glyph-name="ecircumflex" unicode="&#xea;" horiz-adv-x="348" 
d="M316 526h-119v-118h109v-139h-109v-130h119v-139h-271v667h271v-141zM70 645v-623h221v95h-119v174h109v95h-109v162h119v97h-221zM259 841l73 -108h-104l-56 34l-54 -34h-103l76 108h168zM53 753h59l60 39l62 -39h61l-49 68h-142z" />
    <glyph glyph-name="edieresis" unicode="&#xeb;" horiz-adv-x="348" 
d="M317 526h-119v-118h109v-139h-109v-130h119v-139h-272v667h272v-141zM70 645v-623h222v95h-119v174h109v95h-109v162h119v97h-222zM146 845v-112h-121v112h121zM45 753h81v72h-81v-72zM324 845v-112h-121v112h121zM223 753h81v72h-81v-72z" />
    <glyph glyph-name="igrave" unicode="&#xec;" horiz-adv-x="245" 
d="M199 0h-154v667h154v-667zM70 645v-623h104v623h-104zM126 839l64 -106h-102l-134 106h172zM95 753h60l-42 66l-103 1z" />
    <glyph glyph-name="iacute" unicode="&#xed;" horiz-adv-x="245" 
d="M199 0h-154v667h154v-667zM70 645v-623h104v623h-104zM173 733h-102l64 106h172zM148 819l-42 -66h60l85 67z" />
    <glyph glyph-name="icircumflex" unicode="&#xee;" horiz-adv-x="245" 
d="M200 0h-154v667h154v-667zM71 645v-623h104v623h-104zM208 841l73 -108h-104l-56 34l-54 -34h-103l76 108h168zM2 753h59l60 39l62 -39h61l-49 68h-142z" />
    <glyph glyph-name="idieresis" unicode="&#xef;" horiz-adv-x="245" 
d="M199 0h-154v667h154v-667zM70 645v-623h104v623h-104zM104 845v-112h-121v112h121zM3 753h81v72h-81v-72zM262 845v-112h-121v112h121zM161 753h81v72h-81v-72z" />
    <glyph glyph-name="eth" unicode="&#xf0;" horiz-adv-x="438" 
d="M178 284h24v95h-24v165h38q59 0 59 -67v-298q0 -38 -13 -52t-46 -14h-38v171zM216 135q22 0 28 8t6 36v298q0 25 -7.5 35t-26.5 10h-13v-121h24v-139h-24v-127h13zM45 263h-45v139h45v265h204q80 0 116.5 -35t36.5 -110v-376q0 -69 -33 -108q-19 -22 -43.5 -30t-71.5 -8
h-209v263zM254 22q42 0 62 6.5t35 25.5q26 32 26 92v376q0 66 -29.5 94.5t-98.5 28.5h-179v-265h-45v-95h45v-263h184z" />
    <glyph glyph-name="ntilde" unicode="&#xf1;" horiz-adv-x="448" 
d="M192 667l69 -239l-3 239h145v-667h-145l-71 235l3 -235h-145v667h147zM70 22h95v364l112 -364h101v623h-95v-373l-111 373h-102v-623zM52 733q8 61 38 96t76 35q10 0 17.5 -1.5t17.5 -6t24 -13t37 -23.5q18 -10 30 -10q21 0 26 39h78q-4 -58 -35 -94.5t-76 -36.5
q-17 0 -31 5.5t-36 19.5q-26 17 -37 22.5t-21 5.5q-27 0 -27 -38h-81zM113 753q4 17 17 27.5t30 10.5q14 0 28.5 -6.5t40.5 -23.5q19 -13 31 -18t25 -5q16 0 31.5 7.5t27.5 20t19.5 29t8.5 34.5h-36q-9 -21 -18.5 -30t-23.5 -9q-8 0 -14 1t-13.5 4t-18 9.5t-27.5 17.5
q-32 22 -55 22q-32 0 -56.5 -25t-32.5 -66h36z" />
    <glyph glyph-name="ograve" unicode="&#xf2;" horiz-adv-x="425" 
d="M165 515q0 25 12.5 39t35.5 14q22 0 35.5 -13.5t13.5 -33.5v-374q0 -50 -50 -50q-47 0 -47 50v368zM237 521q0 11 -6.5 18t-17.5 7q-23 0 -23 -31v-368q0 -28 22 -28q25 0 25 28v374zM35 530q0 71 48.5 112.5t131.5 41.5q82 0 128.5 -41t46.5 -113v-392q0 -31 -12 -60.5
t-32 -50.5q-23 -23 -54.5 -33.5t-78.5 -10.5t-75 9t-54 33q-26 23 -37.5 49.5t-11.5 63.5v392zM365 530q0 63 -39.5 97.5t-109.5 34.5q-38 0 -65.5 -8.5t-48.5 -26.5q-20 -18 -31 -43t-11 -54v-392q0 -32 9 -54t30 -42q23 -20 47 -28.5t63 -8.5q45 0 72.5 9t47.5 30
q17 18 26.5 43t9.5 51v392zM227 839l64 -106h-102l-134 106h172zM196 753h60l-42 66l-103 1z" />
    <glyph glyph-name="oacute" unicode="&#xf3;" horiz-adv-x="425" 
d="M165 515q0 25 12.5 39t35.5 14q22 0 35.5 -13.5t13.5 -33.5v-374q0 -50 -50 -50q-47 0 -47 50v368zM237 521q0 11 -6.5 18t-17.5 7q-23 0 -23 -31v-368q0 -28 22 -28q25 0 25 28v374zM35 530q0 71 48.5 112.5t131.5 41.5q82 0 128.5 -41t46.5 -113v-392q0 -31 -12 -60.5
t-32 -50.5q-23 -23 -54.5 -33.5t-78.5 -10.5t-75 9t-54 33q-26 23 -37.5 49.5t-11.5 63.5v392zM365 530q0 63 -39.5 97.5t-109.5 34.5q-38 0 -65.5 -8.5t-48.5 -26.5q-20 -18 -31 -43t-11 -54v-392q0 -32 9 -54t30 -42q23 -20 47 -28.5t63 -8.5q45 0 72.5 9t47.5 30
q17 18 26.5 43t9.5 51v392zM263 733h-102l64 106h172zM238 819l-42 -66h60l85 67z" />
    <glyph glyph-name="ocircumflex" unicode="&#xf4;" horiz-adv-x="425" 
d="M165 515q0 25 12.5 39t35.5 14q22 0 35.5 -13.5t13.5 -33.5v-374q0 -50 -50 -50q-47 0 -47 50v368zM237 521q0 11 -6.5 18t-17.5 7q-23 0 -23 -31v-368q0 -28 22 -28q25 0 25 28v374zM35 530q0 71 48.5 112.5t131.5 41.5q82 0 128.5 -41t46.5 -113v-392q0 -31 -12 -60.5
t-32 -50.5q-23 -23 -54.5 -33.5t-78.5 -10.5t-75 9t-54 33q-26 23 -37.5 49.5t-11.5 63.5v392zM365 530q0 63 -39.5 97.5t-109.5 34.5q-38 0 -65.5 -8.5t-48.5 -26.5q-20 -18 -31 -43t-11 -54v-392q0 -32 9 -54t30 -42q23 -20 47 -28.5t63 -8.5q45 0 72.5 9t47.5 30
q17 18 26.5 43t9.5 51v392zM298 841l73 -108h-104l-56 34l-54 -34h-103l75 108h169zM92 753h59l60 39l62 -39h61l-50 68h-142z" />
    <glyph glyph-name="otilde" unicode="&#xf5;" horiz-adv-x="425" 
d="M165 515q0 25 12.5 39t35.5 14q22 0 35.5 -13.5t13.5 -33.5v-374q0 -50 -50 -50q-47 0 -47 50v368zM237 521q0 11 -6.5 18t-17.5 7q-23 0 -23 -31v-368q0 -28 22 -28q25 0 25 28v374zM35 530q0 71 48.5 112.5t131.5 41.5q82 0 128.5 -41t46.5 -113v-392q0 -31 -12 -60.5
t-32 -50.5q-23 -23 -54.5 -33.5t-78.5 -10.5t-75 9t-54 33q-26 23 -37.5 49.5t-11.5 63.5v392zM365 530q0 63 -39.5 97.5t-109.5 34.5q-38 0 -65.5 -8.5t-48.5 -26.5q-20 -18 -31 -43t-11 -54v-392q0 -32 9 -54t30 -42q23 -20 47 -28.5t63 -8.5q45 0 72.5 9t47.5 30
q17 18 26.5 43t9.5 51v392zM41 733q7 61 37.5 96t76.5 35q10 0 17.5 -1.5t17.5 -6t24 -13t37 -23.5q17 -10 29 -10q22 0 27 39h77q-3 -58 -34 -94.5t-77 -36.5q-16 0 -30.5 5.5t-36.5 19.5q-26 17 -37 22.5t-20 5.5q-27 0 -27 -38h-81zM101 753q5 17 18 27.5t29 10.5
q14 0 28.5 -6.5t40.5 -23.5q20 -13 32 -18t24 -5q16 0 31.5 7.5t27.5 20t19.5 29t8.5 34.5h-36q-8 -21 -17.5 -30t-23.5 -9q-8 0 -14.5 1t-14 4t-18 9.5t-26.5 17.5q-34 22 -56 22q-31 0 -55.5 -25t-32.5 -66h35z" />
    <glyph glyph-name="odieresis" unicode="&#xf6;" horiz-adv-x="425" 
d="M165 515q0 25 12.5 39t35.5 14q22 0 35.5 -13.5t13.5 -33.5v-374q0 -50 -50 -50q-47 0 -47 50v368zM237 521q0 11 -6.5 18t-17.5 7q-23 0 -23 -31v-368q0 -28 22 -28q25 0 25 28v374zM35 530q0 71 48.5 112.5t131.5 41.5q82 0 128.5 -41t46.5 -113v-392q0 -31 -12 -60.5
t-32 -50.5q-23 -23 -54.5 -33.5t-78.5 -10.5t-75 9t-54 33q-26 23 -37.5 49.5t-11.5 63.5v392zM365 530q0 63 -39.5 97.5t-109.5 34.5q-38 0 -65.5 -8.5t-48.5 -26.5q-20 -18 -31 -43t-11 -54v-392q0 -32 9 -54t30 -42q23 -20 47 -28.5t63 -8.5q45 0 72.5 9t47.5 30
q17 18 26.5 43t9.5 51v392zM184 845v-112h-121v112h121zM83 753h81v72h-81v-72zM362 845v-112h-121v112h121zM261 753h81v72h-81v-72z" />
    <glyph glyph-name="divide" unicode="&#xf7;" horiz-adv-x="448" 
d="M285 554v-112h-122v112h122zM183 462h82v72h-82v-72zM413 406v-125h-378v125h378zM58 303h332v81h-332v-81zM285 245v-112h-122v112h122zM183 153h82v72h-82v-72z" />
    <glyph glyph-name="oslash" unicode="&#xf8;" horiz-adv-x="424" 
d="M166 279v236q0 25 12.5 38.5t35.5 13.5q48 0 48 -52v-51zM237 515q0 30 -23 30t-23 -30v-138l46 88v50zM262 366v-216q0 -52 -49 -52q-47 0 -47 52v35zM191 150q0 -30 22 -30q13 0 18.5 6.5t5.5 23.5v120l-46 -86v-34zM440 661l-51 -102v-13v-28v-18v-361q0 -68 -44 -112
q-24 -23 -55 -33.5t-78 -10.5q-18 0 -32 1t-26 4t-24 8.5t-26 14.5l-25 -48l-84 42l46 88q-2 12 -4 29t-2 28v378q0 34 13 63t36.5 49.5t56.5 32t73 11.5q38 0 65 -7.5t51 -24.5l28 51zM340 617q-17 13 -31.5 21.5t-29 14t-30 7.5t-34.5 2q-70 0 -112.5 -36.5t-42.5 -97.5
v-378q0 -11 2 -28.5t5 -32.5l-40 -75l40 -20l27 50q20 -13 34 -20.5t26.5 -11.5t25.5 -5.5t31 -1.5q43 0 70 9t47 30q36 36 36 95v361v18v28v17l44 89l-39 20z" />
    <glyph glyph-name="ugrave" unicode="&#xf9;" horiz-adv-x="431" 
d="M189 667v-503q0 -25 6 -34t21 -9q16 0 22 9.5t6 33.5v503h152v-519q0 -44 -12 -72.5t-39 -51.5q-50 -41 -132 -41q-84 0 -131 39.5t-47 109.5v535h154zM60 132q0 -60 40 -93.5t113 -33.5q74 0 117 37q22 20 31.5 44t9.5 62v497h-102v-481q0 -65 -52 -65q-28 0 -40.5 15
t-12.5 50v481h-104v-513zM226 839l64 -106h-102l-134 106h172zM195 753h60l-42 66l-103 1z" />
    <glyph glyph-name="uacute" unicode="&#xfa;" horiz-adv-x="431" 
d="M189 667v-503q0 -25 6 -34t21 -9q16 0 22 9.5t6 33.5v503h152v-519q0 -44 -12 -72.5t-39 -51.5q-50 -41 -132 -41q-84 0 -131 39.5t-47 109.5v535h154zM60 132q0 -60 40 -93.5t113 -33.5q74 0 117 37q22 20 31.5 44t9.5 62v497h-102v-481q0 -65 -52 -65q-28 0 -40.5 15
t-12.5 50v481h-104v-513zM266 733h-102l64 106h172zM241 819l-42 -66h60l85 67z" />
    <glyph glyph-name="ucircumflex" unicode="&#xfb;" horiz-adv-x="431" 
d="M189 667v-503q0 -25 6 -34t21 -9q16 0 22 9.5t6 33.5v503h152v-519q0 -44 -12 -72.5t-39 -51.5q-50 -41 -132 -41q-84 0 -131 39.5t-47 109.5v535h154zM60 132q0 -60 40 -93.5t113 -33.5q74 0 117 37q22 20 31.5 44t9.5 62v497h-102v-481q0 -65 -52 -65q-28 0 -40.5 15
t-12.5 50v481h-104v-513zM301 841l73 -108h-104l-56 34l-54 -34h-103l75 108h169zM95 753h59l60 39l62 -39h61l-50 68h-142z" />
    <glyph glyph-name="udieresis" unicode="&#xfc;" horiz-adv-x="431" 
d="M189 667v-503q0 -25 6 -34t21 -9q16 0 22 9.5t6 33.5v503h152v-519q0 -44 -12 -72.5t-39 -51.5q-50 -41 -132 -41q-84 0 -131 39.5t-47 109.5v535h154zM60 132q0 -60 40 -93.5t113 -33.5q74 0 117 37q22 20 31.5 44t9.5 62v497h-102v-481q0 -65 -52 -65q-28 0 -40.5 15
t-12.5 50v481h-104v-513zM187 845v-112h-121v112h121zM86 753h81v72h-81v-72zM365 845v-112h-121v112h121zM264 753h81v72h-81v-72z" />
    <glyph glyph-name="yacute" unicode="&#xfd;" horiz-adv-x="416" 
d="M209 417l51 250h154l-129 -438v-229h-150v229l-133 438h157zM35 645l125 -413v-210h100v210l121 413h-100l-73 -336l-70 336h-103zM258 733h-101l64 106h172zM234 819l-42 -66h60l85 67z" />
    <glyph glyph-name="thorn" unicode="&#xfe;" horiz-adv-x="409" 
d="M170 479q8 1 16 1h14q64 0 64 -56v-65q0 -29 -15.5 -40.5t-51.5 -11.5h-27v172zM204 329q21 1 28 7t7 23v65q0 20 -9 27t-35 7v-129h9zM195 667v-67h51q63 0 100 -33.5t37 -90.5v-147q0 -41 -8.5 -64t-30.5 -43q-20 -18 -41 -25.5t-50 -7.5h-58v-189h-150v667h150zM70 22
h100v189h83q52 0 82 36q14 16 18.5 33t4.5 49v147q0 48 -29 75t-83 27h-76v67h-100v-623z" />
    <glyph glyph-name="ydieresis" unicode="&#xff;" horiz-adv-x="416" 
d="M209 417l51 250h154l-129 -438v-229h-150v229l-133 438h157zM35 645l125 -413v-210h100v210l121 413h-100l-73 -336l-70 336h-103zM180 845v-112h-121v112h121zM79 753h81v72h-81v-72zM357 845v-112h-121v112h121zM256 753h81v72h-81v-72z" />
    <glyph glyph-name="OE" unicode="&#x152;" horiz-adv-x="539" 
d="M262 119q-15 -13 -26 -17.5t-25 -4.5q-22 0 -34 13.5t-12 36.5v376q0 21 14 34.5t37 13.5q11 0 19.5 -3.5t26.5 -15.5v-433zM237 540q-8 6 -12 7.5t-9 1.5q-26 0 -26 -26v-376q0 -28 21 -28q13 0 26 10v411zM507 523h-118v-114h108v-140h-108v-128h118v-141h-214
q-20 -9 -38 -12.5t-45 -3.5q-45 0 -77 11.5t-56 36.5q-23 24 -32.5 49t-9.5 60v382q0 36 12.5 65.5t35 50.5t53.5 33t69 12q63 0 100 -17h202v-144zM299 645q-19 9 -40.5 13t-52.5 4q-66 0 -106 -38t-40 -101v-382q0 -34 10.5 -58.5t34.5 -45.5q37 -31 105 -31q26 0 42 3.5
t36 12.5h194v97h-118v172h108v96h-108v158h118v100h-183z" />
    <glyph glyph-name="oe" unicode="&#x153;" horiz-adv-x="539" 
d="M262 119q-15 -13 -26 -17.5t-25 -4.5q-22 0 -34 13.5t-12 36.5v376q0 21 14 34.5t37 13.5q11 0 19.5 -3.5t26.5 -15.5v-433zM237 540q-8 6 -12 7.5t-9 1.5q-26 0 -26 -26v-376q0 -28 21 -28q13 0 26 10v411zM507 523h-118v-114h108v-140h-108v-128h118v-141h-214
q-20 -9 -38 -12.5t-45 -3.5q-45 0 -77 11.5t-56 36.5q-23 24 -32.5 49t-9.5 60v382q0 36 12.5 65.5t35 50.5t53.5 33t69 12q63 0 100 -17h202v-144zM299 645q-19 9 -40.5 13t-52.5 4q-66 0 -106 -38t-40 -101v-382q0 -34 10.5 -58.5t34.5 -45.5q37 -31 105 -31q26 0 42 3.5
t36 12.5h194v97h-118v172h108v96h-108v158h118v100h-183z" />
    <glyph glyph-name="Scaron" unicode="&#x160;" horiz-adv-x="399" 
d="M226 451v73q0 25 -24 25q-28 0 -28 -32v-39q0 -20 7.5 -32.5t24.5 -23.5q10 -4 20 -11l66 -42q16 -10 25.5 -16t15 -10.5t9 -8.5t8.5 -11q26 -32 26 -76v-92q0 -83 -46 -127.5t-133 -44.5q-81 0 -127 40t-46 112v84h150v-64q0 -20 6.5 -28.5t22.5 -8.5q13 0 18 8t5 29v49
q0 14 -3 22t-12 16q-7 7 -18 14.5t-19 12.5l-67 37q-45 25 -64 53t-19 67v98q0 75 47 117.5t130 42.5q81 0 128 -43t47 -117v-73h-150zM351 524q0 64 -40.5 101t-109.5 37q-72 0 -112 -36t-40 -102v-98q0 -33 16 -56t53 -44l67 -37q37 -21 51.5 -39.5t14.5 -45.5v-49
q0 -59 -49 -59q-53 0 -53 59v42h-100v-62q0 -62 38.5 -96t108.5 -34q76 0 115.5 38t39.5 112v92q0 34 -20 62q-4 6 -7 9.5t-8 7.5t-13.5 9.5t-22.5 14.5l-66 41l-10 6l-10 6q-24 14 -34.5 31.5t-10.5 43.5v39q0 24 14.5 39t37.5 15t36.5 -13t13.5 -34v-51h100v51zM117 733
l-76 108h103l55 -34l55 34h105l-74 -108h-168zM321 821h-60l-63 -39l-60 39h-59l51 -68h142z" />
    <glyph glyph-name="scaron" unicode="&#x161;" horiz-adv-x="399" 
d="M226 451v73q0 25 -24 25q-28 0 -28 -32v-39q0 -20 7.5 -32.5t24.5 -23.5q10 -4 20 -11l66 -42q16 -10 25.5 -16t15 -10.5t9 -8.5t8.5 -11q26 -32 26 -76v-92q0 -83 -46 -127.5t-133 -44.5q-81 0 -127 40t-46 112v84h150v-64q0 -20 6.5 -28.5t22.5 -8.5q13 0 18 8t5 29v49
q0 14 -3 22t-12 16q-7 7 -18 14.5t-19 12.5l-67 37q-45 25 -64 53t-19 67v98q0 75 47 117.5t130 42.5q81 0 128 -43t47 -117v-73h-150zM351 524q0 64 -40.5 101t-109.5 37q-72 0 -112 -36t-40 -102v-98q0 -33 16 -56t53 -44l67 -37q37 -21 51.5 -39.5t14.5 -45.5v-49
q0 -59 -49 -59q-53 0 -53 59v42h-100v-62q0 -62 38.5 -96t108.5 -34q76 0 115.5 38t39.5 112v92q0 34 -20 62q-4 6 -7 9.5t-8 7.5t-13.5 9.5t-22.5 14.5l-66 41l-10 6l-10 6q-24 14 -34.5 31.5t-10.5 43.5v39q0 24 14.5 39t37.5 15t36.5 -13t13.5 -34v-51h100v51zM117 733
l-76 108h103l55 -34l55 34h105l-74 -108h-168zM321 821h-60l-63 -39l-60 39h-59l51 -68h142z" />
    <glyph glyph-name="Ydieresis" unicode="&#x178;" horiz-adv-x="416" 
d="M209 417l51 250h154l-129 -438v-229h-150v229l-133 438h157zM35 645l125 -413v-210h100v210l121 413h-100l-73 -336l-70 336h-103zM180 845v-112h-121v112h121zM79 753h81v72h-81v-72zM357 845v-112h-121v112h121zM256 753h81v72h-81v-72z" />
    <glyph glyph-name="Zcaron" unicode="&#x17d;" horiz-adv-x="355" 
d="M343 667l-149 -528h149v-139h-334l150 527h-126v140h310zM58 549h134l-151 -527h277v95h-156l149 528h-253v-96zM95 733l-76 108h103l54 -34l56 34h104l-73 -108h-168zM299 821h-61l-62 -39l-60 39h-59l51 -68h142z" />
    <glyph glyph-name="zcaron" unicode="&#x17e;" horiz-adv-x="355" 
d="M343 667l-149 -528h149v-139h-334l150 527h-126v140h310zM58 549h134l-151 -527h277v95h-156l149 528h-253v-96zM95 733l-76 108h103l54 -34l56 34h104l-73 -108h-168zM299 821h-61l-62 -39l-60 39h-59l51 -68h142z" />
    <glyph glyph-name="florin" unicode="&#x192;" horiz-adv-x="400" 
d="M106 478h35l12 67q5 29 10.5 45.5t16.5 30.5q18 26 46 39.5t62 13.5q20 0 32.5 -4t26.5 -15l-16 -95h-10q-20 0 -25 -5.5t-9 -30.5l-9 -46h38l-21 -120h-38l-62 -352q-5 -30 -10.5 -46t-16.5 -30q-37 -53 -108 -53q-20 0 -32.5 4t-26.5 15l17 95h10q19 0 24 5.5t10 29.5
l58 332h-35zM150 380l-63 -358q-3 -14 -5.5 -23t-8 -14.5t-13.5 -9t-21 -6.5l-11 -64q9 -4 15 -5t17 -1q58 0 89 45q8 11 12 25.5t9 40.5l65 370h38l14 76h-38l13 73q4 28 12.5 37.5t34.5 15.5l11 64q-9 4 -15 5t-17 1q-59 0 -88 -45q-8 -12 -12.5 -26t-9.5 -40l-15 -85h-36
l-13 -76h36z" />
    <glyph glyph-name="circumflex" unicode="&#x2c6;" horiz-adv-x="500" 
d="M335 841l73 -108h-104l-56 34l-54 -34h-103l76 108h168zM129 753h59l60 39l62 -39h61l-49 68h-142z" />
    <glyph glyph-name="tilde" unicode="&#x2dc;" horiz-adv-x="500" 
d="M78 733q8 61 38 96t76 35q10 0 17.5 -1.5t17.5 -6t24 -13t37 -23.5q17 -10 29 -10q22 0 27 39h77q-3 -58 -34 -94.5t-77 -36.5q-16 0 -30.5 5.5t-36.5 19.5q-25 17 -36 22.5t-21 5.5q-27 0 -27 -38h-81zM138 753q5 17 18 27.5t30 10.5q14 0 28.5 -6.5t40.5 -23.5
q19 -13 31 -18t25 -5q16 0 31 7.5t27 20t20 29t9 34.5h-36q-9 -21 -18.5 -30t-23.5 -9q-8 0 -14 1t-13.5 4t-18.5 9.5t-27 17.5q-34 22 -56 22q-31 0 -55.5 -25t-32.5 -66h35z" />
    <glyph glyph-name="endash" unicode="&#x2013;" horiz-adv-x="447" 
d="M379 406v-125h-311v125h311zM91 303h265v81h-265v-81z" />
    <glyph glyph-name="emdash" unicode="&#x2014;" horiz-adv-x="445" 
d="M445 406v-125h-445v125h445zM23 303h399v81h-399v-81z" />
    <glyph glyph-name="quoteleft" unicode="&#x2018;" horiz-adv-x="216" 
d="M178 544v-139h-132v121l65 141h73l-44 -123h38zM157 647h-34l-57 -126v-96h92v99h-47z" />
    <glyph glyph-name="quoteright" unicode="&#x2019;" horiz-adv-x="206" 
d="M47 528v139h132v-121l-65 -141h-73l44 123h-38zM68 425h34l57 126v96h-92v-99h47z" />
    <glyph glyph-name="quotesinglbase" unicode="&#x201a;" horiz-adv-x="205" 
d="M27 0v139h152v-121l-65 -141h-86l44 123h-45zM55 -103h47l57 126v96h-112v-99h53z" />
    <glyph glyph-name="quotedblleft" unicode="&#x201c;" horiz-adv-x="384" 
d="M346 544v-139h-133v121l65 141h74l-44 -123h38zM325 647h-34l-58 -126v-96h93v99h-47zM178 544v-139h-132v121l65 141h73l-44 -123h38zM157 647h-34l-57 -126v-96h92v99h-47z" />
    <glyph glyph-name="quotedblright" unicode="&#x201d;" horiz-adv-x="384" 
d="M52 528v139h132v-121l-65 -141h-73l44 123h-38zM73 425h34l57 126v96h-92v-99h47zM219 528v139h133v-121l-65 -141h-74l44 123h-38zM240 425h34l58 126v96h-93v-99h47z" />
    <glyph glyph-name="quotedblbase" unicode="&#x201e;" horiz-adv-x="384" 
d="M52 0v139h132v-121l-65 -141h-73l44 123h-38zM73 -103h34l57 126v96h-92v-99h47zM219 0v139h133v-121l-65 -141h-74l44 123h-38zM240 -103h34l58 126v96h-93v-99h47z" />
    <glyph glyph-name="dagger" unicode="&#x2020;" horiz-adv-x="447" 
d="M154 599v151h138v-151h137v-132h-137v-550h-138v550h-137v132h137zM40 489h137v-550h92v550h137v88h-137v151h-92v-151h-137v-88z" />
    <glyph glyph-name="daggerdbl" unicode="&#x2021;" horiz-adv-x="447" 
d="M154 599v151h138v-151h137v-127h-137v-218h138v-127h-138v-210h-138v210h-137v127h137v218h-137v127h137zM40 494h137v-262h-137v-83h137v-210h92v210h138v83h-138v262h137v83h-137v151h-92v-151h-137v-83z" />
    <glyph glyph-name="bullet" unicode="&#x2022;" horiz-adv-x="667" 
d="M337 477q28 0 52.5 -11t43 -30t29.5 -44t11 -53q0 -29 -11 -54.5t-29.5 -44t-44 -29.5t-53.5 -11q-29 0 -54 11t-44 29.5t-30 43.5t-11 54t11 54.5t30 44t44.5 29.5t55.5 11z" />
    <glyph glyph-name="ellipsis" unicode="&#x2026;" horiz-adv-x="616" 
d="M179 139v-139h-152v139h152zM47 20h112v99h-112v-99zM384 139v-139h-152v139h152zM252 20h112v99h-112v-99zM590 139v-139h-152v139h152zM458 20h112v99h-112v-99z" />
    <glyph glyph-name="perthousand" unicode="&#x2030;" horiz-adv-x="946" 
d="M114 569q0 17 9.5 26.5t24.5 9.5t24 -9.5t9 -26.5v-207q0 -17 -9.5 -27t-24.5 -10t-24 10t-9 27v207zM160 569q0 16 -12 16q-13 0 -13 -16v-207q0 -17 12 -17q13 0 13 17v207zM41 589q0 40 29 64t79 24q47 0 77 -25t30 -63v-237q0 -95 -108 -95q-51 0 -79 26t-28 74v232z
M235 589q0 29 -24 48.5t-62 19.5q-41 0 -64 -18t-23 -50v-232q0 -80 86 -80q87 0 87 75v237zM241 0h-82l286 667h85zM458 645l-267 -623h37l270 623h-40zM506 302q0 17 9.5 27t24.5 10t24 -10t9 -27v-207q0 -17 -9.5 -27t-24.5 -10t-24 10t-9 27v207zM552 302q0 17 -12 17
q-13 0 -13 -17v-207q0 -17 12 -17q13 0 13 17v207zM433 322q0 40 29 64t79 24q47 0 77 -25t30 -63v-237q0 -95 -108 -95q-51 0 -79 26t-28 74v232zM627 322q0 29 -24 48.5t-62 19.5q-41 0 -64 -18t-23 -50v-232q0 -80 86 -80q87 0 87 75v237zM762 302q0 17 9.5 27t24.5 10
t24 -10t9 -27v-207q0 -17 -9.5 -27t-24.5 -10t-24 10t-9 27v207zM808 302q0 17 -12 17q-13 0 -13 -17v-207q0 -17 12 -17q13 0 13 17v207zM689 322q0 40 29 64t79 24q47 0 77 -25t30 -63v-237q0 -95 -108 -95q-51 0 -79 26t-28 74v232zM883 322q0 29 -24 48.5t-62 19.5
q-41 0 -64 -18t-23 -50v-232q0 -80 86 -80q87 0 87 75v237z" />
    <glyph glyph-name="guilsinglleft" unicode="&#x2039;" horiz-adv-x="181" 
d="M129 372l-31 -35l31 -36v-145l-97 112v140l97 108v-144zM52 401v-125l57 -66v83l-37 45l37 42v84z" />
    <glyph glyph-name="guilsinglright" unicode="&#x203a;" horiz-adv-x="181" 
d="M149 408v-140l-97 -112v145l31 36l-31 35v144zM72 380l37 -42l-37 -45v-83l57 66v125l-57 63v-84z" />
    <glyph glyph-name="Euro" unicode="&#x20ac;" horiz-adv-x="469" 
d="M209 513q0 26 14.5 41.5t38.5 15.5q23 0 36.5 -15.5t13.5 -41.5v-22h101v22q0 149 -154 149q-72 0 -111.5 -39t-39.5 -110v-86h-48l-21 -63h69v-62h-48l-21 -62h69v-72q0 -81 37.5 -120t117.5 -39q77 0 113.5 39t36.5 120v11h-101v-11q0 -71 -52 -71q-51 0 -51 71v72h47
l21 62h-68v62h89l20 63h-109v86zM352 447l-35 -102h-83v-23h76l-35 -102h-41v-52q0 -49 26 -49q28 0 28 49v33h151v-33q0 -51 -11 -82.5t-37 -55.5q-24 -23 -54 -33t-74 -10q-181 0 -181 181v52h-75l34 102h41v23h-75l34 102h41v66q0 81 46.5 126t130.5 45q88 0 134 -43.5
t46 -127.5v-44h-151v44q0 17 -7 26.5t-19 9.5q-13 0 -20.5 -9.5t-7.5 -26.5v-66h118z" />
    <glyph glyph-name="trademark" unicode="&#x2122;" horiz-adv-x="594" 
d="M244 667v-87h-57v-294h-92v294h-58v87h207zM58 600h58v-294h50v294h57v47h-165v-47zM385 667l29 -141l27 141h117v-381h-89v146l-32 -146h-47l-32 146v-146h-89v381h116zM290 306h47v284l70 -284h13l70 285v-285h47v341h-78l-45 -228l-46 228h-78v-341z" />
    <glyph glyph-name="glyph220" horiz-adv-x="0" 
 />
    </font>
</defs>
</svg>
